<svg viewBox="0 0 64 64" xmlns="http://www.w3.org/2000/svg" xml:space="preserve" style="fill-rule:evenodd;clip-rule:evenodd;stroke-linecap:round;stroke-linejoin:round;stroke-miterlimit:2"><path style="fill:none" d="M0 0h64v64H0z"/><path d="M14.936 21.814v2.849M14.936 29.221v3.419M14.936 36.628v3.419M14.936 44.035v3.418M14.936 51.442v2.448a2.11 2.11 0 0 0 2.11 2.11h29.91a2.11 2.11 0 0 0 2.109-2.11V9.11A2.112 2.112 0 0 0 46.956 7h-29.91a2.11 2.11 0 0 0-2.11 2.11v8.716" style="fill:none;stroke:#444f58;stroke-width:2px"/><path d="M14.936 14.407h-2.039c-.814 0-1.474.749-1.474 1.673v.002c0 .963.688 1.744 1.536 1.744h4.989c.848 0 1.536-.781 1.536-1.744v-.002c0-.444-.156-.869-.432-1.183a1.389 1.389 0 0 0-1.042-.49M14.936 21.814h-2.039c-.814 0-1.474.749-1.474 1.673v.002c0 .963.688 1.744 1.536 1.744h4.989c.848 0 1.536-.781 1.536-1.744v-.002c0-.444-.156-.869-.432-1.183a1.389 1.389 0 0 0-1.042-.49M14.936 29.221h-2.039c-.814 0-1.474.749-1.474 1.673v.002c0 .963.688 1.744 1.536 1.744h4.989c.848 0 1.536-.781 1.536-1.744v-.002c0-.444-.156-.869-.432-1.183a1.389 1.389 0 0 0-1.042-.49M14.936 36.628h-2.039c-.814 0-1.474.749-1.474 1.673v.002c0 .963.688 1.744 1.536 1.744h4.989c.848 0 1.536-.781 1.536-1.744v-.002c0-.444-.156-.869-.432-1.183a1.389 1.389 0 0 0-1.042-.49M14.936 44.035h-2.039c-.814 0-1.474.749-1.474 1.673v.002c0 .963.688 1.743 1.536 1.743h4.989c.848 0 1.536-.78 1.536-1.743v-.002c0-.444-.156-.869-.432-1.183a1.389 1.389 0 0 0-1.042-.49M36.331 17.819a9.142 9.142 0 0 0 .21-2.53 1.929 1.929 0 0 0-3.458-1.129c-2.342 2.937-5.743 7.348-7.889 10.132a3.823 3.823 0 0 0 .268 4.982l.002.001a3.877 3.877 0 0 0 5.289.288l9.572-8.022a1.992 1.992 0 0 0-1.093-3.509c-2.417-.196-5.528.268-8.188 3.041-.693.722-2.348 2.562-4.015 8.895" style="fill:none;stroke:#444f58;stroke-width:2px"/><path d="M35.423 13.514a1.043 1.043 0 0 1 1.518 0c.112.116.195.253.247.398a1.042 1.042 0 0 1 1.446.069c.139.145.232.32.279.505.38-.146.824-.059 1.129.259.305.318.388.781.249 1.177.177.049.345.146.484.291.395.412.417 1.068.066 1.507.139.055.27.14.382.257a1.154 1.154 0 0 1 0 1.583M24.472 49.163h15.057M28.99 42.326h6.022M28.99 38.337h6.022M49.065 8.14h.894c1.17 0 2.118 1.076 2.118 2.404v41.912c0 1.328-.948 2.404-2.118 2.404h-.894" style="fill:none;stroke:#444f58;stroke-width:2px"/></svg>
