<svg xmlns="http://www.w3.org/2000/svg" viewBox="0 0 512 512" style="enable-background:new 0 0 512 512" xml:space="preserve"><path style="fill:#a4e0f7" d="M369.581 143.398v232.969h-38.142V143.398h38.142zM144.472 376.367h38.142V143.398h-38.142v232.969z"/><path style="fill:#c1e9fd" d="M169.557 172.52h-12.028C50.548 172.52 87.577 7.5 163.543 7.5c75.649 0 112.995 165.02 6.014 165.02zM406.891 7.5c-7.793 0-14.111 6.519-14.111 14.561v87.07c0 8.203-6.533 14.853-14.591 14.853-8.059 0-14.591-6.65-14.591-14.853v-87.07c0-8.041-6.318-14.561-14.111-14.561s-14.111 6.519-14.111 14.561v87.07c0 8.203-6.533 14.853-14.591 14.853-8.059 0-14.591-6.65-14.591-14.853v-87.07c0-8.041-6.318-14.561-14.111-14.561s-14.111 6.519-14.111 14.561v92.217c0 32.166 25.615 58.242 57.213 58.242h28.607c31.598 0 57.213-26.076 57.213-58.242V22.061c-.004-8.042-6.321-14.561-14.114-14.561z"/><path style="fill:#bc8544" d="M388.652 300.652v174.727c0 16.083-12.664 29.121-28.286 29.121h-19.713c-15.622 0-28.286-13.038-28.286-29.121V300.652c0-16.083 12.664-29.121 28.286-29.121h19.713c15.622 0 28.286 13.038 28.286 29.121zM173.4 271.531h-19.713c-15.622 0-28.286 13.038-28.286 29.121v174.727c0 16.083 12.664 29.121 28.286 29.121H173.4c15.622 0 28.286-13.038 28.286-29.121V300.652c-.001-16.083-12.664-29.121-28.286-29.121z"/><path style="fill:#aa7439" d="M201.685 300.652v174.727c0 16.083-12.808 29.121-28.606 29.121h-19.071c-1.465 0-2.903-.113-4.309-.329 13.754-2.115 24.298-14.2 24.298-28.792V300.652c0-14.592-10.543-26.676-24.298-28.792a28.344 28.344 0 0 1 4.309-.329h19.071c15.799 0 28.606 13.038 28.606 29.121zm158.361-29.121h-19.071c-1.465 0-2.903.113-4.309.329 13.754 2.115 24.298 14.2 24.298 28.792v174.727c0 14.592-10.543 26.676-24.298 28.792 1.405.216 2.844.329 4.309.329h19.071c15.799 0 28.606-13.038 28.606-29.121V300.652c0-16.083-12.808-29.121-28.606-29.121z"/><path d="M220.276 45.744a7.5 7.5 0 0 0-3.389 10.051c14.647 29.549 15.543 63.818 2.23 85.276-9.859 15.891-26.534 23.948-49.561 23.948h-12.027c-19.896 0-35.144-6.076-45.322-18.061-8.966-10.558-13.705-25.396-13.705-42.911C98.502 62.013 126.317 15 163.544 15c17.186 0 30.167 9.982 38.03 18.356a7.5 7.5 0 0 0 10.934-10.268C198.325 7.984 181.393 0 163.543 0c-47.169 0-80.041 54.834-80.041 104.047 0 21.119 5.973 39.315 17.273 52.622 9.062 10.67 21.368 17.826 36.197 21.172v91.039c-11.376 6.447-19.071 18.668-19.071 32.651V474.5c0 20.678 16.822 37.5 37.5 37.5h16.284c20.678 0 37.5-16.822 37.5-37.5V301.531c0-13.983-7.694-26.204-19.071-32.651v-91c22.302-4.981 34.85-17.78 41.75-28.9 15.945-25.7 15.327-65.825-1.537-99.847a7.5 7.5 0 0 0-10.051-3.389zm-68.304 134.129c1.824.098 3.678.146 5.558.146h12.027c1.902 0 3.754-.048 5.557-.142v84.309a37.757 37.757 0 0 0-3.429-.155h-16.284c-1.156 0-2.299.053-3.429.155v-84.313zM194.185 474.5c0 12.406-10.093 22.5-22.5 22.5h-16.284c-12.407 0-22.5-10.094-22.5-22.5V315.918h61.284V474.5zm-.008-173.582H132.91c.326-12.124 10.291-21.887 22.492-21.887h16.284c12.2 0 22.165 9.763 22.491 21.887zM406.891 0c-11.917 0-21.611 9.896-21.611 22.061v87.07c0 4.055-3.181 7.354-7.091 7.354s-7.091-3.299-7.091-7.354v-87.07C371.096 9.896 361.401 0 349.484 0s-21.611 9.896-21.611 22.061v87.07c0 4.055-3.181 7.354-7.091 7.354s-7.091-3.299-7.091-7.354v-87.07C313.691 9.896 303.996 0 292.081 0S270.47 9.896 270.47 22.061v92.217c0 32.356 23.127 59.328 53.471 64.749v89.854c-11.376 6.446-19.071 18.668-19.071 32.651V474.5c0 20.678 16.822 37.5 37.5 37.5h16.284c20.678 0 37.5-16.822 37.5-37.5V301.531c0-13.983-7.695-26.205-19.071-32.651v-90.263c16.053-3.427 30.425-12.978 39.956-26.971a7.5 7.5 0 0 0-12.398-8.443c-9.305 13.66-24.576 21.816-40.851 21.816h-28.608c-27.412 0-49.713-22.763-49.713-50.742V22.061c0-3.894 2.966-7.061 6.611-7.061s6.611 3.167 6.611 7.061v87.07c0 12.326 9.91 22.354 22.091 22.354s22.091-10.027 22.091-22.354v-87.07c0-3.894 2.965-7.061 6.611-7.061s6.611 3.167 6.611 7.061v87.07c0 12.326 9.91 22.354 22.091 22.354s22.091-10.027 22.091-22.354v-87.07c0-3.894 2.966-7.061 6.611-7.061s6.611 3.167 6.611 7.061v92.217c0 2.608-.195 5.227-.58 7.781a7.5 7.5 0 0 0 6.299 8.533 7.498 7.498 0 0 0 8.534-6.299c.496-3.292.747-6.662.747-10.016V22.061C428.501 9.896 418.806 0 406.891 0zm-25.739 474.5c0 12.406-10.093 22.5-22.5 22.5h-16.284c-12.407 0-22.5-10.094-22.5-22.5V315.918h61.284V474.5zm-42.213-294.48h23.142v84.167a37.74 37.74 0 0 0-3.429-.155h-16.284c-1.156 0-2.299.053-3.429.155V180.02zm3.429 99.011h16.284c12.201 0 22.166 9.763 22.492 21.887h-61.268c.326-12.124 10.291-21.887 22.492-21.887z"/></svg>
