<svg xmlns="http://www.w3.org/2000/svg" viewBox="0 0 512 512" style="enable-background:new 0 0 512 512" xml:space="preserve"><path style="fill:#fad06a" d="M7.5 70h497v344H7.5z"/><path style="fill:#f0af46" d="M481 70h23.5v344H481z"/><path style="fill:#c0e8f4" d="M32.17 106h311.5v272H32.17z"/><path style="fill:#84d0eb" d="M324.11 106h19.555v272H324.11z"/><path style="fill:#7a8391" d="M32.17 323.6h311.5V378H32.17z"/><path style="fill:#67707a" d="M324.11 323.6h19.555V378H324.11z"/><path style="fill:#7a8391" d="M373.22 106h102.05v272H373.22z"/><path style="fill:#67707a" d="M455.27 106h20v272h-20z"/><circle style="fill:#fad06a" cx="424.9" cy="150.87" r="18.5"/><circle style="fill:#fad06a" cx="424.9" cy="209.62" r="18.5"/><path style="fill:#f2464f" d="M373.22 254.75h102.05V378H373.22z"/><path style="fill:#d8dfe6" d="M255.774 323.602H127.058l-10.243-89.855h149.202z"/><path style="fill:#db3747" d="M455.27 254.75h20V378h-20z"/><path style="fill:#7a8391" d="M44.852 414h58v28h-58zM409.15 414h58v28h-58z"/><path style="fill:#7a8391" d="M44.852 414h58v28h-58z"/><path style="fill:#67707a" d="M82.85 414h20v28h-20zM447.15 414h20v28h-20z"/><path style="fill:#f5c093" d="M257.54 233.747H125.292v-24.144c0-20.775 16.842-37.617 37.617-37.617h57.015c20.775 0 37.617 16.842 37.617 37.617l-.001 24.144z"/><path style="fill:#c7967b" d="M219.923 171.987h-20c20.775 0 37.617 16.842 37.617 37.617v24.144h20v-24.144c0-20.776-16.842-37.617-37.617-37.617z"/><circle cx="220.85" cy="204.38" r="7.5"/><circle cx="193.46" cy="211.88" r="7.5"/><circle cx="162.24" cy="200.41" r="7.5"/><path d="M316.53 406.5H15v-329h17.167a7.5 7.5 0 0 0 0-15H7.5A7.5 7.5 0 0 0 0 70v344a7.5 7.5 0 0 0 7.5 7.5h29.852V442a7.5 7.5 0 0 0 7.5 7.5h58a7.5 7.5 0 0 0 7.5-7.5v-20.5H316.53a7.5 7.5 0 0 0 0-15zm-221.178 28h-43v-13h43v13zM504.5 62.5h-438a7.5 7.5 0 0 0 0 15H497v329H350.749a7.5 7.5 0 0 0 0 15h50.899V442a7.5 7.5 0 0 0 7.5 7.5h58a7.5 7.5 0 0 0 7.5-7.5v-20.5H504.5a7.5 7.5 0 0 0 7.5-7.5V70a7.5 7.5 0 0 0-7.5-7.5zm-44.852 372h-43v-13h43v13z"/><path d="M424.898 176.873c14.336 0 26-11.664 26-26s-11.664-26-26-26-26 11.664-26 26 11.664 26 26 26zm0-37c6.065 0 11 4.935 11 11s-4.935 11-11 11-11-4.935-11-11 4.935-11 11-11zM424.898 235.616c14.336 0 26-11.664 26-26s-11.664-26-26-26-26 11.664-26 26 11.664 26 26 26zm0-37c6.065 0 11 4.935 11 11s-4.935 11-11 11-11-4.935-11-11 4.935-11 11-11z"/><path d="M475.27 385.5a7.5 7.5 0 0 0 7.5-7.5V106a7.5 7.5 0 0 0-7.5-7.5H373.218a7.5 7.5 0 0 0-7.5 7.5v272a7.5 7.5 0 0 0 7.5 7.5H475.27zm-7.5-15h-87.052V262.242h87.052V370.5zm0-257v133.742h-87.052V113.5h87.052z"/><circle cx="444.79" cy="283.52" r="7.5"/><circle cx="444.79" cy="313.26" r="7.5"/><circle cx="444.79" cy="343" r="7.5"/><path d="M398.333 291.025h27.333a7.5 7.5 0 0 0 0-15h-27.333a7.5 7.5 0 0 0 0 15zM398.333 320.761h27.333a7.5 7.5 0 0 0 0-15h-27.333a7.5 7.5 0 0 0 0 15zM398.333 350.498h27.333a7.5 7.5 0 0 0 0-15h-27.333a7.5 7.5 0 0 0 0 15zM343.667 158.374a7.5 7.5 0 0 0 7.5-7.5V106a7.5 7.5 0 0 0-7.5-7.5H38.561a7.5 7.5 0 0 0-7.5 7.5v272a7.5 7.5 0 0 0 7.5 7.5h305.106a7.5 7.5 0 0 0 7.5-7.5V183.915a7.5 7.5 0 0 0-15 0v132.187h-71.989l9.291-81.505a7.501 7.501 0 0 0-7.452-8.35h-.977v-16.644c0-24.877-20.239-45.117-45.117-45.117h-57.015c-24.877 0-45.117 20.239-45.117 45.117v16.644h-.977a7.501 7.501 0 0 0-7.452 8.35l9.291 81.505H46.061V113.5h290.106v37.374a7.5 7.5 0 0 0 7.5 7.5zM220.881 316.102l2.873-74.854h9.805l-5.747 74.854h-6.931zm-21.965 0v-74.854h9.828l-2.873 74.854h-6.955zm-21.954 0-2.873-74.854h9.828v74.854h-6.955zm-21.943 0-5.747-74.854h9.805l2.873 74.854h-6.931zm93.585-74.855h9.01l-8.533 74.854h-6.223l5.746-74.854zm-115.812-31.643c0-16.606 13.51-30.117 30.117-30.117h57.015c16.606 0 30.117 13.51 30.117 30.117v16.644H132.792v-16.644zm-7.574 31.643h9.01l5.747 74.854h-6.223l-8.534-74.854zm1.84 89.855h209.109V370.5H46.061v-39.398h80.997z"/></svg>
