<svg xmlns="http://www.w3.org/2000/svg" viewBox="0 0 512 512" style="enable-background:new 0 0 512 512" xml:space="preserve"><path style="fill:#506568" d="M504.5 116.878v278.243c0 21.196-17.384 38.378-38.828 38.378H46.328C24.884 433.5 7.5 416.317 7.5 395.122V116.878C7.5 95.683 24.884 78.5 46.328 78.5h419.344c21.444 0 38.828 17.183 38.828 38.378z"/><path style="fill:#50757c" d="M465.672 78.5H46.328C24.884 78.5 7.5 95.683 7.5 116.878v278.243c0 21.196 17.384 38.378 38.828 38.378h419.344c21.444 0 38.828-17.183 38.828-38.378V116.878c0-21.195-17.384-38.378-38.828-38.378zm19.414 316.622c0 10.581-8.709 19.189-19.414 19.189H46.328c-10.705 0-19.414-8.608-19.414-19.189V116.878c0-10.581 8.709-19.189 19.414-19.189h419.344c10.705 0 19.414 8.608 19.414 19.189v278.244z"/><path style="fill:#f99a1e" d="m473.413 122.382-7.997 142.275c-.453 8.062-7.199 14.37-15.368 14.37s-14.915-6.308-15.368-14.37l-7.997-142.275c-.49-8.72 6.532-16.057 15.368-16.057h15.994c8.836-.001 15.858 7.336 15.368 16.057zm-84.196-16.058h-15.994c-8.836 0-15.858 7.337-15.368 16.057l7.997 142.275c.453 8.062 7.199 14.37 15.368 14.37s14.915-6.308 15.368-14.37l7.997-142.275c.491-8.72-6.531-16.057-15.368-16.057z"/><path style="fill:#fbb03b" d="m473.413 122.382-7.997 142.275c-.26 4.634-2.606 8.68-6.1 11.29-3.494-2.61-5.84-6.656-6.1-11.29l-7.997-142.275c-.466-8.297 5.871-15.326 14.097-15.992 8.226.665 14.563 7.695 14.097 15.992zm-101.46-15.992c-8.226.665-14.563 7.695-14.097 15.992l7.997 142.275c.26 4.634 2.606 8.68 6.1 11.29 3.494-2.61 5.84-6.656 6.1-11.29l7.997-142.275c.466-8.297-5.871-15.327-14.097-15.992zm59.05 14.304c-.453-8.062-7.199-14.37-15.368-14.37s-14.915 6.308-15.368 14.37l-7.997 142.275c-.49 8.72 6.532 16.058 15.368 16.058h15.994c8.836 0 15.858-7.337 15.368-16.058l-7.997-142.275z"/><path style="fill:#fec76b" d="M407.753 279.027h-.116c-8.836 0-15.858-7.337-15.368-16.058l7.997-142.275c.292-5.199 3.209-9.656 7.429-12.175 4.22 2.519 7.137 6.976 7.429 12.175l7.997 142.275c.491 8.721-6.531 16.058-15.368 16.058z"/><path style="fill:#ed322e" d="M473.438 370.176c0 18.546-15.211 33.581-33.975 33.581a34.061 34.061 0 0 1-24.268-10.089 34.061 34.061 0 0 1-24.268 10.089c-18.764 0-33.975-15.035-33.975-33.581s15.211-33.581 33.975-33.581a34.061 34.061 0 0 1 24.268 10.089 34.061 34.061 0 0 1 24.268-10.089c18.764 0 33.975 15.034 33.975 33.581z"/><path style="fill:#f24f43" d="M395.781 370.176c0 13.395-7.937 24.955-19.414 30.345-11.477-5.39-19.414-16.95-19.414-30.345s7.937-24.955 19.414-30.345c11.478 5.39 19.414 16.949 19.414 30.345zm29.121-30.345c-11.477 5.39-19.414 16.95-19.414 30.345s7.937 24.955 19.414 30.345c11.477-5.39 19.414-16.95 19.414-30.345 0-13.396-7.936-24.955-19.414-30.345z"/><path style="fill:#8eb55e" d="M274.688 318.365a44.647 44.647 0 0 1 4.609 19.804c0 25-20.504 45.267-45.797 45.267-12.925 0-24.59-5.3-32.917-13.811-8.327 8.511-19.992 13.811-32.917 13.811s-24.59-5.3-32.917-13.811c-8.327 8.511-19.992 13.811-32.917 13.811-25.293 0-45.797-20.267-45.797-45.267a44.644 44.644 0 0 1 4.609-19.804 44.647 44.647 0 0 1-4.609-19.804c0-25 20.504-45.267 45.797-45.267 12.925 0 24.59 5.3 32.917 13.811 8.327-8.511 19.992-13.811 32.917-13.811s24.59 5.3 32.917 13.811c8.327-8.511 19.992-13.811 32.917-13.811 25.293 0 45.797 20.267 45.797 45.267a44.647 44.647 0 0 1-4.609 19.804z"/><path style="fill:#5ba14d" d="M274.688 318.365a44.647 44.647 0 0 1 4.609 19.804c0 25-20.504 45.267-45.797 45.267-5.092 0-9.983-.834-14.557-2.351 18.15-6.016 31.233-22.95 31.233-42.916a44.644 44.644 0 0 0-4.609-19.804 44.647 44.647 0 0 0 4.609-19.804c0-19.966-13.083-36.9-31.233-42.916a46.126 46.126 0 0 1 14.557-2.351c25.293 0 45.797 20.267 45.797 45.267a44.647 44.647 0 0 1-4.609 19.804z"/><path style="fill:#bc8544" d="M153.105 132.404c36.496 0 66.263 28.442 67.871 64.124-1.608 35.681-31.375 64.124-67.871 64.124h-38.828c-36.496 0-66.263-28.442-67.871-64.124 1.608-35.681 31.375-64.124 67.871-64.124h38.828z"/><path style="fill:#d59a4c" d="M201.641 199.566c0 37.093-30.422 67.162-67.949 67.162h-19.414c-37.527 0-67.949-30.07-67.949-67.162 0-37.093 30.422-67.162 67.949-67.162h19.414c37.527 0 67.949 30.07 67.949 67.162z"/><path style="fill:#f24f43" d="M263.926 138.159a93.287 93.287 0 0 1 3.522 3.304c36.013 35.596 36.013 93.308 0 128.904s-94.401 35.596-130.414 0a92.583 92.583 0 0 1-3.342-3.481l130.234-128.727z"/><path style="fill:#ed322e" d="M267.448 270.366c-36.013 35.596-94.401 35.596-130.414 0a92.583 92.583 0 0 1-3.342-3.481l1.756-1.736c35.5 21.406 82.464 16.955 113.17-13.396s35.209-76.77 13.553-111.859l1.756-1.736a93.287 93.287 0 0 1 3.522 3.304c36.012 35.596 36.012 93.308-.001 128.904z"/><path d="M112.07 189.972v19.189a7.5 7.5 0 0 1-15 0v-19.189a7.5 7.5 0 0 1 15 0zm327.393 221.285a41.51 41.51 0 0 1-24.252-7.773c-7.032 5.042-15.482 7.773-24.283 7.773-22.869 0-41.475-18.429-41.475-41.081s18.605-41.081 41.475-41.081c8.842 0 17.265 2.724 24.288 7.77a41.515 41.515 0 0 1 24.247-7.77c22.869 0 41.475 18.429 41.475 41.081s-18.606 41.081-41.475 41.081zm-41.475-41.081c0-8.221 2.45-15.885 6.665-22.314-4.096-2.456-8.808-3.767-13.726-3.767-14.599 0-26.475 11.7-26.475 26.081s11.876 26.081 26.475 26.081c4.896 0 9.62-1.315 13.724-3.771a40.56 40.56 0 0 1-6.663-22.31zm41.475 26.081c14.598 0 26.475-11.7 26.475-26.081s-11.877-26.081-26.475-26.081-26.475 11.7-26.475 26.081 11.877 26.081 26.475 26.081zm35.278-290.258c4.324 4.574 6.512 10.542 6.16 16.804l-7.997 142.275c-.676 12.027-10.716 21.449-22.856 21.449a22.95 22.95 0 0 1-13.222-4.158 23.11 23.11 0 0 1-13.195 4.158h-15.993a23.112 23.112 0 0 1-13.209-4.167 23.123 23.123 0 0 1-13.208 4.167c-12.141 0-22.181-9.421-22.856-21.449l-7.997-142.275c-.352-6.262 1.836-12.229 6.16-16.804 4.311-4.56 10.396-7.175 16.696-7.175h15.994c4.807 0 9.403 1.489 13.213 4.162a22.916 22.916 0 0 1 13.204-4.162 22.92 22.92 0 0 1 13.198 4.158c3.816-2.686 8.402-4.158 13.219-4.158h15.993c6.301 0 12.386 2.615 16.696 7.175zm-43.23 157.392-7.996-142.276c-.229-4.088-3.691-7.291-7.88-7.291s-7.65 3.202-7.88 7.291l-2.455 43.669c-.232 4.135-3.765 7.291-7.909 7.067a7.499 7.499 0 0 1-7.067-7.909l2.455-43.669c.1-1.767.401-3.479.882-5.111a8.004 8.004 0 0 0-4.442-1.337h-15.994c-2.227 0-4.285.88-5.797 2.479-1.461 1.546-2.201 3.555-2.083 5.657l7.997 142.275c.229 4.088 3.691 7.291 7.88 7.291a7.94 7.94 0 0 0 4.431-1.326 22.595 22.595 0 0 1-.87-7.652L388.746 192a7.5 7.5 0 0 1 14.976.842l-3.965 70.549a7.547 7.547 0 0 0 2.083 5.657c1.512 1.599 3.57 2.479 5.797 2.479h15.993c2.227 0 4.285-.88 5.797-2.479 1.463-1.547 2.202-3.555 2.084-5.657zm32.331-147.087c-1.512-1.599-3.57-2.479-5.797-2.479h-15.993c-1.614 0-3.15.471-4.443 1.334.481 1.634.783 3.346.883 5.114l7.996 142.276a22.626 22.626 0 0 1-.87 7.653 7.994 7.994 0 0 0 4.431 1.325c4.188 0 7.65-3.202 7.88-7.291l7.997-142.275c.117-2.102-.623-4.111-2.084-5.657zm48.158.574v278.243C512 420.419 491.217 441 465.672 441h-31.063c-4.143 0-7.5-3.358-7.5-7.5s3.357-7.5 7.5-7.5h31.063C482.946 426 497 412.148 497 395.122v-79.811H333.385V426h72.104c4.143 0 7.5 3.358 7.5 7.5s-3.357 7.5-7.5 7.5H46.328C20.783 441 0 420.419 0 395.122V116.878C0 91.581 20.783 71 46.328 71h38.828a7.5 7.5 0 0 1 0 15H46.328C29.054 86 15 99.852 15 116.878v278.243C15 412.148 29.054 426 46.328 426h272.057V86H114.277a7.5 7.5 0 0 1 0-15h351.395C491.217 71 512 91.581 512 116.878zm-15 0C497 99.852 482.946 86 465.672 86H333.385v214.311H497V116.878zM195.377 239.121a7.5 7.5 0 0 0-7.5 7.5v9.594a7.5 7.5 0 0 0 15 0v-9.594a7.5 7.5 0 0 0-7.5-7.5zm40.657 102.808.971-.959a7.5 7.5 0 1 0-10.544-10.668l-.971.959a7.5 7.5 0 0 0 5.272 12.834c1.905 0 3.81-.721 5.272-2.166zM133.691 163.283a7.5 7.5 0 0 0-7.5 7.5v57.567a7.5 7.5 0 0 0 15 0v-57.567a7.5 7.5 0 0 0-7.5-7.5zm-5.272 158.383-.971.959a7.5 7.5 0 0 0 5.272 12.834c1.904 0 3.81-.721 5.272-2.166l.971-.959a7.5 7.5 0 0 0 .062-10.606 7.498 7.498 0 0 0-10.606-.062zM94.93 287.605l-.971.959a7.5 7.5 0 0 0 5.272 12.834c1.904 0 3.81-.721 5.272-2.166l.971-.959a7.5 7.5 0 0 0 .062-10.606 7.498 7.498 0 0 0-10.606-.062zm207.028-81.691c0 23.684-8.379 46.091-23.748 63.912 5.629 8.552 8.587 18.417 8.587 28.734 0 6.876-1.306 13.521-3.886 19.804 2.58 6.283 3.886 12.928 3.886 19.804 0 29.096-23.909 52.767-53.297 52.767-14.547 0-28.141-5.706-38.278-16.066a7.5 7.5 0 1 1 10.722-10.49c7.292 7.453 17.078 11.557 27.556 11.557 21.117 0 38.297-16.942 38.297-37.767a36.965 36.965 0 0 0-3.836-16.487 7.503 7.503 0 0 1 0-6.635 36.962 36.962 0 0 0 3.836-16.487c0-6.316-1.555-12.396-4.534-17.851-39.114 33.325-98.408 31.654-135.501-5.01-.487-.481-.974-.973-1.458-1.471h-16.026c-11.83 0-23.036-2.71-33.012-7.533-10.983 6.912-17.73 18.953-17.73 31.865a36.975 36.975 0 0 0 3.835 16.487 7.503 7.503 0 0 1 0 6.635 36.961 36.961 0 0 0-3.835 16.487c0 20.825 17.18 37.767 38.297 37.767 10.479 0 20.265-4.104 27.555-11.556a7.502 7.502 0 0 1 10.722 0c7.291 7.452 17.077 11.556 27.556 11.556 2.664 0 5.323-.271 7.904-.806a7.5 7.5 0 1 1 3.042 14.688 54.116 54.116 0 0 1-10.946 1.117c-12.116 0-23.571-3.958-32.917-11.266-9.346 7.308-20.801 11.266-32.917 11.266-29.388 0-53.297-23.671-53.297-52.767 0-6.877 1.305-13.522 3.885-19.804-2.58-6.282-3.885-12.927-3.885-19.804 0-15.706 7.106-30.476 19.022-40.407-17.488-13.686-28.729-34.862-28.729-58.587 0-41.169 33.846-74.662 75.449-74.662h38.828c30.067 0 56.911 17.665 68.888 44.156l36.66-36.235a7.5 7.5 0 0 1 10.261-.267 100.651 100.651 0 0 1 3.807 3.571c18.853 18.635 29.237 43.418 29.237 69.785zm-91.549-25.403c-8.206-24.091-31.239-40.606-57.304-40.606h-38.828c-33.332 0-60.449 26.764-60.449 59.662s27.117 59.662 60.449 59.662h16.492l79.64-78.718zm76.549 25.403c0-21.468-8.137-41.705-22.97-57.272l-119.686 118.3c33.184 30.742 85.482 30.104 117.873-1.911 15.982-15.795 24.783-36.79 24.783-59.117zm-33.827-14.284h-9.707a7.5 7.5 0 0 0 0 15h9.707a7.5 7.5 0 0 0 0-15zm-90.318-13.955a7.5 7.5 0 0 0-7.5 7.5v28.784a7.5 7.5 0 0 0 15 0v-28.784a7.5 7.5 0 0 0-7.5-7.5zm68.723 46.65a7.498 7.498 0 0 0-10.606.063 7.498 7.498 0 0 0 .063 10.606l6.864 6.784a7.475 7.475 0 0 0 5.271 2.166 7.498 7.498 0 0 0 5.272-12.834l-6.864-6.785z"/></svg>
