<svg xmlns="http://www.w3.org/2000/svg" viewBox="0 0 32 32"><defs><style>.cls-1{fill:#30acc2}.cls-2{fill:#68c7d3}</style></defs><g id="Drink"><circle class="cls-1" cx="22" cy="8" r="7"/><circle class="cls-2" cx="22" cy="8" r="5"/><path class="cls-1" d="M21 7h7v2h-7z"/><path class="cls-1" transform="rotate(-45 23.763 6.237)" d="M20.27 5.23h7v2h-7z"/><path class="cls-1" transform="rotate(-90 22 5.5)" d="M18.5 4.5h7v2h-7z"/><path class="cls-1" transform="rotate(-135 20.232 6.235)" d="M16.73 5.23h7v2h-7z"/><path class="cls-1" transform="rotate(-180 19.5 8)" d="M16 7h7v2h-7z"/><path class="cls-1" transform="rotate(135 20.234 9.77)" d="M16.73 8.77h7v2h-7z"/><path class="cls-1" transform="rotate(90 22 10.5)" d="M18.5 9.5h7v2h-7z"/><path class="cls-1" transform="rotate(45 23.774 9.768)" d="M20.27 8.77h7v2h-7z"/><path d="M23 7c-.83 10-.39 4.76-2 24H7C5.33 10.88 5.72 15.55 5 7z" style="fill:#d1e6e9"/><path class="cls-1" d="M10.01 19.12 8.11 3H3V1h6.89l2.1 17.88-1.98.24z"/><path d="M20.4 14.14 19.16 29H8.84L7.66 14.89c2.39.57 2.55-.89 4.53-.89 1.8 0 1.8 1 3.6 1s1.8-1 3.61-1a3 3 0 0 1 1 .14z" style="fill:#a1d8df"/><path class="cls-2" transform="rotate(45 13.002 25.006)" d="M11 23h4v4h-4z"/><path class="cls-2" transform="rotate(72.77 16.001 19.001)" d="M14 17h4v4h-4z"/></g></svg>
