<svg xmlns="http://www.w3.org/2000/svg" viewBox="0 0 64 64"><g data-name="16-microwave"><path style="fill:#918778" d="M50 25h10v18H50z"/><path style="fill:#a0968c" d="M50 47h10v5H50z"/><path style="fill:#da684e" d="M50 19h10v6H50z"/><path d="M50 52h10v-5H50zm10-27v-6H50v24h10zm3-10v38a2.006 2.006 0 0 1-2 2H47V15z" style="fill:#bd4c3d"/><path d="M47 15v40H3a2.006 2.006 0 0 1-2-2V15zm-4 34V21H5v28z" style="fill:#da684e"/><path d="M63 15H1l4.83-4.83A4 4 0 0 1 8.66 9h46.68a4 4 0 0 1 2.83 1.17z" style="fill:#e8e4dc"/><path d="M37 41.5c1.27.44 2 .95 2 1.5 0 .37-.34.73-.95 1.05C35.92 45.19 30.43 46 24 46s-11.92-.81-14.05-1.95C9.34 43.73 9 43.37 9 43c0-.55.73-1.06 2-1.5 2.59-.9 7.44-1.5 13-1.5s10.41.6 13 1.5z" style="fill:#da684e"/><path d="M38.05 43.05C35.92 44.19 30.43 45 24 45s-11.92-.81-14.05-1.95a2.4 2.4 0 0 1-.735-.552A.8.8 0 0 0 9 43c0 .37.34.73.95 1.05C12.08 45.19 17.57 46 24 46s11.92-.81 14.05-1.95c.61-.32.95-.68.95-1.05a.8.8 0 0 0-.215-.5 2.4 2.4 0 0 1-.735.55z" style="fill:#9a3e32"/><path d="M37 21v20.5c-2.59-.9-7.44-1.5-13-1.5s-10.41.6-13 1.5V21z" style="fill:#544f43"/><path d="M24 46c6.43 0 11.92-.81 14.05-1.95L43 49H5l4.95-4.95C12.08 45.19 17.57 46 24 46z" style="fill:#d6cec1"/><path d="M24 48c6.859 0 12.715-.81 14.987-1.95a2.941 2.941 0 0 0 .644-.419L38.05 44.05C35.92 45.19 30.43 46 24 46s-11.92-.81-14.05-1.95l-1.581 1.581a2.941 2.941 0 0 0 .644.419C11.285 47.19 17.141 48 24 48z" style="fill:#beb4aa"/><path d="M11 21v20.5c-1.27.44-2 .95-2 1.5 0 .37.34.73.95 1.05L5 49V21zM43 21v28l-4.95-4.95c.61-.32.95-.68.95-1.05 0-.55-.73-1.06-2-1.5V21z" style="fill:#80786a"/><ellipse cx="24.5" cy="42.5" rx="11" ry="1.5" style="fill:#f58569"/><path style="fill:#544f43" d="M37 21h6v4h-6zM5 21h6v4H5z"/><path style="fill:#423e35" d="M11 21h26v4H11z"/><path d="M61 53H47v2h14a2.006 2.006 0 0 0 2-2v-2a2.006 2.006 0 0 1-2 2z" style="fill:#9a3e32"/><path d="M3 53a2.006 2.006 0 0 1-2-2v2a2.006 2.006 0 0 0 2 2h44v-2z" style="fill:#bd4c3d"/><path style="fill:#80786a" d="M52 30h2v1h-2zM56 30h2v1h-2zM52 33h2v1h-2zM56 33h2v1h-2z"/><path style="fill:#ff9873" d="M50 25h4l6-6h-4l-6 6z"/><path style="fill:#da684e" d="M60 25v-6l-6 6h6z"/><path style="fill:#f58569" d="M50 19v6l6-6h-6z"/><path d="M14.83 13A3 3 0 0 1 12 9H8.66a4 4 0 0 0-2.83 1.17L1 15h62l-2-2z" style="fill:#d6cec1"/><path style="fill:#f58569" d="M1 15h46v2H1z"/><path d="m35.5 42.5 1.116-1.116a33.681 33.681 0 0 0-6.846-1.154l-.894.894c3.897.231 6.624.76 6.624 1.376zM25.008 44.992a58.026 58.026 0 0 0 8.709-.709l1.392-1.392c-1.136.574-4.695 1.01-9.093 1.093z" style="fill:#da684e"/><path d="M24.5 41c1.556 0 3.034.045 4.376.124l.894-.894A70.477 70.477 0 0 0 24 40l-1.016 1.016c.497-.009 1-.016 1.516-.016z" style="fill:#f58569"/><path d="M9.95 43.05a6.729 6.729 0 0 0 .691.309l2.4-2.405A17.63 17.63 0 0 0 11 41.5c-1.06.367-1.736.783-1.934 1.23a1.092 1.092 0 0 1 .149-.232 2.4 2.4 0 0 0 .735.552z" style="fill:#ff9873"/><path d="m19.161 44.839.963-.963c-3.9-.231-6.624-.76-6.624-1.376 0-.758 4.128-1.383 9.484-1.484L24 40a55.252 55.252 0 0 0-10.954.954l-2.4 2.405a31.9 31.9 0 0 0 8.515 1.48z" style="fill:#ffa38c"/><path d="m25.008 44.992 1.008-1.008a75.047 75.047 0 0 1-5.892-.108l-.963.963a73.849 73.849 0 0 0 5.847.153z" style="fill:#f58569"/><path d="M35.5 42.5c0 .136-.144.266-.391.391l-1.392 1.392a15.485 15.485 0 0 0 4.333-1.233 2.4 2.4 0 0 0 .735-.552 1.092 1.092 0 0 1 .149.232c-.2-.447-.874-.863-1.934-1.23-.116-.04-.26-.076-.384-.116z" style="fill:#ff9873"/><path d="M9 43a.619.619 0 0 1 .055-.246A.655.655 0 0 0 9 43zM38.945 42.754A.619.619 0 0 1 39 43a.655.655 0 0 0-.055-.246z" style="fill:#da684e"/><path d="M19.161 44.839a31.9 31.9 0 0 1-8.52-1.48l-.691.691c1.453.778 4.47 1.4 8.281 1.719zM24 46a63.6 63.6 0 0 0 8.534-.534l1.183-1.183a58.026 58.026 0 0 1-8.709.709z" style="fill:#9a3e32"/><path d="M9.95 43.05a2.4 2.4 0 0 1-.735-.552 1.092 1.092 0 0 0-.149.232l-.011.024A.619.619 0 0 0 9 43c0 .37.34.73.95 1.05l.691-.691a6.729 6.729 0 0 1-.691-.309zM24 45c-1.694 0-3.32-.058-4.839-.161l-.93.93A69.57 69.57 0 0 0 24 46l1.008-1.008C24.674 45 24.339 45 24 45z" style="fill:#da684e"/><path d="M38.05 43.05a15.485 15.485 0 0 1-4.333 1.233l-1.183 1.183a18.339 18.339 0 0 0 5.516-1.416c.61-.32.95-.68.95-1.05a.619.619 0 0 0-.055-.246l-.011-.024a1.092 1.092 0 0 0-.149-.232 2.4 2.4 0 0 1-.735.552z" style="fill:#f58569"/><path d="M36.616 41.384 37 41v-8l-7.23 7.23a33.681 33.681 0 0 1 6.846 1.154z" style="fill:#544f43"/><path d="M37 41.5V41l-.384.384c.124.04.268.076.384.116z" style="fill:#80786a"/><path d="M29 25H18l-7 7v9.5a17.63 17.63 0 0 1 2.046-.546zM29.77 40.23 37 33v-6L24 40c2.046 0 3.993.083 5.77.23z" style="fill:#70695b"/><path style="fill:#544f43" d="M11 25v7l7-7h-7z"/><path d="M29 25 13.046 40.954A55.252 55.252 0 0 1 24 40l13-13v-2z" style="fill:#a0968c"/><path d="M9.013 46.05a2.941 2.941 0 0 1-.644-.419L5 49h10l1.366-1.366a24.357 24.357 0 0 1-7.353-1.584z" style="fill:#e8e4dc"/><path d="M16.366 47.634 15 49h6l1.025-1.025a72.741 72.741 0 0 1-5.659-.341z" style="fill:#ded9d0"/><path d="M24 48c-.67 0-1.327-.01-1.975-.025L21 49h8l1.238-1.238A79.057 79.057 0 0 1 24 48z" style="fill:#d6cec1"/><path d="M38.987 46.05c-1.539.772-4.724 1.392-8.749 1.712L29 49h14l-3.369-3.369a2.941 2.941 0 0 1-.644.419z" style="fill:#e8e4dc"/><path d="m9.95 44.05-1.581 1.581a2.941 2.941 0 0 0 .644.419 24.357 24.357 0 0 0 7.353 1.584l1.865-1.865c-3.811-.318-6.831-.941-8.281-1.719zM18.231 45.769l-1.865 1.865c1.72.176 3.63.294 5.659.341L24 46a69.57 69.57 0 0 1-5.769-.231zM30.238 47.762c4.025-.32 7.21-.94 8.749-1.712a2.941 2.941 0 0 0 .644-.419L38.05 44.05a18.339 18.339 0 0 1-5.516 1.416z" style="fill:#cdc3b4"/><path d="m24 46-1.975 1.975a79.057 79.057 0 0 0 8.213-.213l2.3-2.3A63.6 63.6 0 0 1 24 46z" style="fill:#beb4aa"/><path d="M9.95 44.05C9.34 43.73 9 43.37 9 43a.655.655 0 0 1 .055-.246l.011-.024c.2-.447.874-.863 1.934-1.23V32l-6 6v11l3.369-3.369z" style="fill:#918778"/><path style="fill:#80786a" d="M11 25H5v13l6-6v-7zM9.055 42.754l.011-.024z"/><path d="M37 41.5c1.06.367 1.736.783 1.934 1.23l.011.024A.655.655 0 0 1 39 43c0 .37-.34.73-.95 1.05l1.581 1.581L43 49V35l-6 6zM37 27l2-2h-2v2z" style="fill:#beb4aa"/><path style="fill:#918778" d="M37 27v6l6-6v-2h-4l-2 2z"/><path style="fill:#80786a" d="m37 41 6-6v-8l-6 6v8zM38.934 42.73l.011.024z"/><path d="m35.5 42.5-.391.391c.247-.125.391-.255.391-.391z" style="fill:#f58569"/><path d="M13.5 42.5c0 .616 2.727 1.145 6.624 1.376l2.86-2.86c-5.356.101-9.484.726-9.484 1.484z" style="fill:#ffbe9c"/><path d="m26.016 43.984 2.86-2.86a75.047 75.047 0 0 0-5.892-.108l-2.86 2.86a75.047 75.047 0 0 0 5.892.108z" style="fill:#ffa676"/><path d="m28.876 41.124-2.86 2.86c4.4-.083 7.957-.519 9.093-1.093l.391-.391c0-.616-2.727-1.145-6.624-1.376z" style="fill:#f58569"/><path style="fill:#544f43" d="M39 25h4v-4l-4 4z"/><path style="fill:#80786a" d="m39 25 4-4h-6v4h2z"/><path style="fill:#544f43" d="M5 21h6v4H5z"/><path style="fill:#423e35" d="m18 25 4-4H11v4h7z"/><path style="fill:#70695b" d="M37 25v-4h-4l-4 4h8z"/><path style="fill:#544f43" d="m29 25 4-4H22l-4 4h11z"/><path style="fill:#da684e" d="M47 15h16v2H47z"/><path style="fill:#80786a" d="M52 36h2v1h-2zM56 36h2v1h-2zM52 39h2v1h-2zM56 39h2v1h-2z"/><path d="m63.706 14.292-4.827-4.828A4.968 4.968 0 0 0 55.343 8H8.657a4.968 4.968 0 0 0-3.536 1.464L.294 14.292A.994.994 0 0 0 0 15v38a3 3 0 0 0 3 3h58a3 3 0 0 0 3-3V15a.994.994 0 0 0-.294-.708zM62 53a1 1 0 0 1-1 1H48V22h-2v32H3a1 1 0 0 1-1-1V16h5v-2H3.414l3.121-3.122A2.983 2.983 0 0 1 8.657 10h46.686a2.983 2.983 0 0 1 2.122.878L60.586 14H13v2h33v4h2v-4h14z"/><path d="M9 14h2v2H9zM43 20H5a1 1 0 0 0-1 1v28a1 1 0 0 0 1 1h38a1 1 0 0 0 1-1V21a1 1 0 0 0-1-1zm-1 6.586-9.707 9.707 1.414 1.414L42 29.414v17.172l-2.467-2.467A1.671 1.671 0 0 0 40 43c0-.905-.785-1.6-2-2.146V37h-2v3.178a49.566 49.566 0 0 0-9.632-1.132L42 23.414zM37.883 43c-.976.758-5.659 2-13.883 2-1.253 0-2.414-.032-3.5-.083L24.41 41c7.964.045 12.514 1.255 13.473 2zM17.85 44.736c-4.43-.406-7.035-1.194-7.733-1.736.874-.679 4.729-1.743 11.427-1.958zm-7.664.492a23.587 23.587 0 0 0 5.858 1.314L14.586 48H7.414zm8.438 1.562c2.59.2 4.792.21 5.376.21 1.237 0 9.73-.065 13.814-1.772L40.586 48H17.414zM10 22v6h2v-6h7.586l-2.293 2.293 1.414 1.414L22.414 22h8.172L16.293 36.293l1.414 1.414L33.414 22H36v2h2v-2h2.586l-17 17A56.212 56.212 0 0 0 12 40.178V36h-2v4.854C8.785 41.4 8 42.1 8 43a1.671 1.671 0 0 0 .467 1.119L6 46.586v-8.172l8.707-8.707-1.414-1.414L6 35.586V22zM50 53h10a1 1 0 0 0 1-1v-5a1 1 0 0 0-1-1H50a1 1 0 0 0-1 1v5a1 1 0 0 0 1 1zm1-5h8v3h-8zM52 21h2v2h-2zM56 21h2v2h-2z"/><path d="M50 44h10a1 1 0 0 0 1-1V19a1 1 0 0 0-1-1H50a1 1 0 0 0-1 1v24a1 1 0 0 0 1 1zm1-2V26h8v16zm0-22h8v4h-8z"/><path d="M52 28h2v2h-2zM56 28h2v2h-2zM52 31h2v2h-2zM56 31h2v2h-2zM52 34h2v2h-2zM56 34h2v2h-2zM52 37h2v2h-2zM56 37h2v2h-2zM14.293 27.293l1-1 1.414 1.414-1 1z"/></g></svg>
