<svg xmlns="http://www.w3.org/2000/svg" viewBox="0 0 64 64"><g data-name="28-fry"><path d="M59 37v2c-.16 4.05-2.69 8-6 8H40.64a3.293 3.293 0 0 0 2.32-.96l6.87-6.87A4 4 0 0 0 51 36.34v-1.87a5.449 5.449 0 0 0-1-3.13V30a9.4 9.4 0 0 1 .08-1.15l.01-.01C50.6 27.9 53.48 23 58 23c0 0-4 5-1 8 1.07 1.07 1.83 3.42 2 6zM41 25s1-5 4-5c0 0 1 6 2 8v1h-3.63a4.014 4.014 0 0 0-2.45.84L40 31h-.02a11.528 11.528 0 0 0-.12-1.81 7.365 7.365 0 0 0-2.63-4.48q-.285-.24-.57-.45A7.211 7.211 0 0 1 34.25 21s-.04-.13-.12-.37C34.55 19.64 36.12 17 41 17c0 0-2 5 0 8zM35 41.67l3.02 4.02A3.292 3.292 0 0 0 40.64 47H11c-2.76 0-5-3.13-5-7 0-2 .8-4.28 2-5 5-3 1-11 0-12 0 0 7 0 9 4l.15-.05c1.64 5.53 5.39 12.06 13.86 12.94L31 40v1a2.006 2.006 0 0 0 2 2 1.955 1.955 0 0 0 1.41-.59 1.86 1.86 0 0 0 .48-.78z" style="fill:#ea3d38"/><path d="M50.08 28.85A9.4 9.4 0 0 0 50 30v1.34a5.449 5.449 0 0 1 1 3.13v1.87a4.007 4.007 0 0 1-1.174 2.834L42.96 46.04a3.279 3.279 0 0 1-4.94-.35L35 41.67l-.11-.04A1.9 1.9 0 0 0 35 41v-1l-.04-.2C37.87 39.2 40 37.27 40 35v-4c0-.15 0-.3-.02 0H40l.92-1.16a4.014 4.014 0 0 1 2.45-.84H47v-1.7a1.957 1.957 0 0 1 .09-.589C47.909 24.1 54.069 4.79 59.4 1.32A2.044 2.044 0 0 1 60.5 1h.5a1.955 1.955 0 0 1 1.41.59A1.955 1.955 0 0 1 63 3v.36a2.058 2.058 0 0 1-.36 1.15c-2 2.84-11.59 16.76-12.55 24.33z" style="fill:#beb4aa"/><path d="m6 50 .3.9-.3.1H3a2.006 2.006 0 0 1-2-2v-2h5zM58 50v-3h5v2a2.006 2.006 0 0 1-2 2h-3l-.3-.1z" style="fill:#ea735c"/><path d="M36 55a3.906 3.906 0 0 1-.12.97L36 56h8c0-1.582 2.557-4.477 4.38-6H33.419C34.62 51.277 36 53.5 36 55zM52 55a3.906 3.906 0 0 1-.12.97L52 56h4l1.7-5.1.3-.9h-7.069A13.713 13.713 0 0 1 52 55zM6.3 50.9 8 56h4l.12-.03A3.906 3.906 0 0 1 12 55a13.713 13.713 0 0 1 1.069-5H6zM20 56h8l.12-.03A3.906 3.906 0 0 1 28 55c0-1.5 1.38-3.723 2.581-5H15.62c1.823 1.523 4.38 4.418 4.38 6z" style="fill:#d6cec1"/><path style="fill:#da684e" d="M1 60h62v3H1z"/><path d="M3 60a2 2 0 0 0 2 2h54a2 2 0 0 0 2-2h2v3H1v-3z" style="fill:#85392b"/><path d="M51.48 56.97A4.007 4.007 0 0 1 48 59c-1.85 0-3.41-.56-3.86-2.04A3.129 3.129 0 0 1 44 56c0-2.21 5-7 6-7s2 3.79 2 6a3.994 3.994 0 0 1-.52 1.97zM35.46 57A4 4 0 0 1 28 55c0-2.21 3-6 4-6s4 3.79 4 6a3.989 3.989 0 0 1-.54 2zM12.52 56.97A3.994 3.994 0 0 1 12 55c0-2.21 1-6 2-6s6 4.79 6 7a3.129 3.129 0 0 1-.14.96C19.41 58.44 17.85 59 16 59a4.007 4.007 0 0 1-3.48-2.03z" style="fill:#4c8db0"/><path d="M34.163 57.8a2.549 2.549 0 0 1-4.326 0 2.325 2.325 0 0 1-.337-1.2c0-1.326 1.875-3.6 2.5-3.6s2.5 2.274 2.5 3.6a2.325 2.325 0 0 1-.337 1.2zM50.153 57.8a2.54 2.54 0 0 1-4.316 0 2.325 2.325 0 0 1-.337-1.2c0-1.326 3.867-3.6 4.491-3.6s.5 2.274.5 3.6a2.325 2.325 0 0 1-.338 1.2zM13.847 57.8a2.54 2.54 0 0 0 4.316 0 2.325 2.325 0 0 0 .337-1.2c0-1.326-3.867-3.6-4.491-3.6s-.5 2.274-.5 3.6a2.325 2.325 0 0 0 .338 1.2z" style="fill:#65adaf"/><path d="M53 47H6v3l.3.9L8 56h4l.12-.03A3.906 3.906 0 0 1 12 55c0-2.21 1-6 2-6s6 4.79 6 7h8l.12-.03A3.906 3.906 0 0 1 28 55c0-2.21 3-6 4-6s4 3.79 4 6a3.906 3.906 0 0 1-.12.97L36 56h8c0-2.21 5-7 6-7s2 3.79 2 6a3.906 3.906 0 0 1-.12.97L52 56h4l1.7-5.1.3-.9v-3z" style="fill:#e8e4dc"/><path d="M60 49a1 1 0 0 1 1-1h2v-1h-5v3l-.3.9.3.1a2 2 0 0 0 2-2zM4 49a1 1 0 0 0-1-1H1v-1h5v3l.3.9-.3.1a2 2 0 0 1-2-2z" style="fill:#a34235"/><path d="M63 3.36V3a1.955 1.955 0 0 0-.59-1.41A1.955 1.955 0 0 0 61 1h-.5a2.044 2.044 0 0 0-1.1.32c-5.331 3.47-11.492 22.785-12.31 25.391a1.957 1.957 0 0 0-.09.589V29h-3.63a4.014 4.014 0 0 0-2.45.84L40 31h-.02c.02-.3.02-.15.02 0v4c0 2.27-2.13 4.2-5.04 4.8l.04.2v1a1.9 1.9 0 0 1-.11.63l.11.04 3.02 4.02a3.252 3.252 0 0 0 4.587.639L40.169 43.4a2 2 0 0 1 .122-2.694L43 38a3.918 3.918 0 0 0 .706-4.579.98.98 0 0 1 .88-1.421H46.4a1.993 1.993 0 0 0 1.946-1.541C49.586 25.112 54.077 7.538 60 5a4.832 4.832 0 0 1 2.632-.479l.008-.011A2.058 2.058 0 0 0 63 3.36z" style="fill:#a0968c"/><path d="M46.566 34.954a8.2 8.2 0 0 1-.487 3.155.637.637 0 0 0-.048.477.469.469 0 0 0 .171.177 1.7 1.7 0 0 0 1.798-.04 4.112 4.112 0 0 0 1.3-1.423c.786-1.264 1.151-3.022-.242-4.014-1.189-.846-2.55.314-2.492 1.668z" style="fill:#d6cec1"/><path d="M35 40v1a1.9 1.9 0 0 1-.11.63 1.86 1.86 0 0 1-.48.78A1.955 1.955 0 0 1 33 43a2.006 2.006 0 0 1-2-2v-1l.01-.11A16.033 16.033 0 0 0 33 40a9.577 9.577 0 0 0 1.96-.2z" style="fill:#ffe0db"/><path d="M23.34 30.61a13.6 13.6 0 0 1-2.25-3.52 5.094 5.094 0 0 0 2.77.68 2.988 2.988 0 0 0 2.08-.64.01.01 0 0 0 .01-.01 9.546 9.546 0 0 0-.03 5.91l-.06.08a22.905 22.905 0 0 1-2.52-2.5z" style="fill:#f9b4a8"/><path d="M40 31v4c0 2.27-2.13 4.2-5.04 4.8A9.577 9.577 0 0 1 33 40a16.033 16.033 0 0 1-1.99-.11c-8.47-.88-12.22-7.41-13.86-12.94a31 31 0 0 1-1.1-5.43 9.226 9.226 0 0 1-.05-1.05 9.484 9.484 0 0 1 .88-4.1 7.665 7.665 0 0 1 4.1-4.08 4.893 4.893 0 0 1 1.74-.29h1.51a5.165 5.165 0 0 1 1.69.28c1.24.42 3.39 1.33 4.08 2.72l-.1.15A8.036 8.036 0 0 0 25.64 14c-2.88 0-4.34 2.02-5.08 4.33a12.469 12.469 0 0 0 .53 8.76 13.6 13.6 0 0 0 2.25 3.52 22.905 22.905 0 0 0 2.52 2.5A12.4 12.4 0 0 0 34.25 36c3.18 0 5.75-2.24 5.75-5z" style="fill:#ffd0c9"/><path d="M26 17a2 2 0 1 0 2 2 2.006 2.006 0 0 0-2-2zm11 8a3.315 3.315 0 0 1-.43 1.42 1.9 1.9 0 0 1-.69.69 1.974 1.974 0 0 1-.89.21 3.968 3.968 0 0 1-2.32-.48c-.71-.41-1.24-1.1-1.94-1.53a1.449 1.449 0 0 0-1.26-.19 11.768 11.768 0 0 0-3.52 2 .01.01 0 0 1-.01.01 2.988 2.988 0 0 1-2.08.64 5.094 5.094 0 0 1-2.77-.68 12.469 12.469 0 0 1-.53-8.76c.74-2.31 2.2-4.33 5.08-4.33a8.036 8.036 0 0 1 4.26 1.15 10.653 10.653 0 0 1 4.23 5.48c.08.24.12.37.12.37a7.211 7.211 0 0 0 2.41 3.26q.285.21.57.45z" style="fill:#f26f65"/><path d="M37.23 24.71a7.365 7.365 0 0 1 2.63 4.48 9.974 9.974 0 0 1 .12 1.37A3.168 3.168 0 0 1 40 31c0 2.76-2.57 5-5.75 5a12.4 12.4 0 0 1-8.39-2.89l.06-.08a9.546 9.546 0 0 1 .03-5.91 11.768 11.768 0 0 1 3.52-2 1.449 1.449 0 0 1 1.26.19c.7.43 1.23 1.12 1.94 1.53a3.968 3.968 0 0 0 2.32.48 1.974 1.974 0 0 0 .89-.21 1.9 1.9 0 0 0 .69-.69A3.315 3.315 0 0 0 37 25z" style="fill:#f26f65"/><path d="M20.412 18.888c.049-.186.089-.373.148-.558.729-2.275 2.163-4.258 4.956-4.319A4.777 4.777 0 0 0 23.805 12H22.72a4.893 4.893 0 0 0-1.74.29 7.665 7.665 0 0 0-4.1 4.08c-.091.189-.159.388-.235.583a5.131 5.131 0 0 0 3.767 1.935z" style="fill:#ffd0c9"/><path d="M36.94 35.418a6.422 6.422 0 0 1-2.69.582 12.4 12.4 0 0 1-8.39-2.89 22.905 22.905 0 0 1-2.52-2.5 13.6 13.6 0 0 1-2.25-3.52 12.524 12.524 0 0 1-.678-8.2 5.131 5.131 0 0 1-3.767-1.935A9.724 9.724 0 0 0 16 20.47a9.226 9.226 0 0 0 .05 1.05 31 31 0 0 0 1.1 5.43c1.64 5.53 5.39 12.06 13.86 12.94A16.033 16.033 0 0 0 33 40a9.577 9.577 0 0 0 1.96-.2 8.72 8.72 0 0 0 1.082-.3c1.114-1.858 1.158-3.193.898-4.082z" style="fill:#fac0b8"/><path d="M36.94 35.418c.264.889.216 2.224-.9 4.084C38.383 38.7 40 36.977 40 35v-4a4.956 4.956 0 0 1-3.06 4.418z" style="fill:#ffd0c9"/><path d="M22.355 35.128a20.254 20.254 0 0 1-3.781-6.122 6.983 6.983 0 0 1-.483-2.617.356.356 0 0 1 .042-.209.279.279 0 0 1 .145-.095.865.865 0 0 1 .656.071 2.1 2.1 0 0 1 .53.419c2.032 2.072 2.358 5.161 4.211 7.372.385.459 2.114 1.842 1.151 2.379-.982.547-1.907-.57-2.471-1.198z" style="fill:#faaca0"/><circle cx="26" cy="19" r="2" style="fill:#f9b4a8"/><path d="M28.609 30.378a1.666 1.666 0 0 0 .491 1.392 1.936 1.936 0 0 0 1.39.535.6.6 0 0 0 .23-.039.518.518 0 0 0 .219-.206 1.744 1.744 0 0 0 .194-.913c.01-.674.1-1.8-.754-2a1.5 1.5 0 0 0-1.77 1.231zM36.259 29.608c.017-.166.01-.435-.166-.512a.649.649 0 0 0-.564.149 1.606 1.606 0 0 0-.334.9.324.324 0 0 0 .011.152.264.264 0 0 0 .157.137.607.607 0 0 0 .64-.181 1.106 1.106 0 0 0 .256-.645zM37.464 28.832a.376.376 0 0 0-.495-.047 2.426 2.426 0 0 0-.485.6.449.449 0 0 0-.056.273.354.354 0 0 0 .061.206.424.424 0 0 0 .258.134.415.415 0 0 0 .242 0 .431.431 0 0 0 .152-.127 1.3 1.3 0 0 0 .363-.9.284.284 0 0 0-.04-.139zM30.259 21.608c.017-.166.01-.435-.166-.512a.649.649 0 0 0-.564.149 1.606 1.606 0 0 0-.334.9.324.324 0 0 0 .011.152.264.264 0 0 0 .157.137.607.607 0 0 0 .64-.181 1.106 1.106 0 0 0 .256-.645zM31.464 20.832a.376.376 0 0 0-.495-.047 2.426 2.426 0 0 0-.485.6.449.449 0 0 0-.056.273.354.354 0 0 0 .061.206.424.424 0 0 0 .258.134.415.415 0 0 0 .242 0 .431.431 0 0 0 .152-.127 1.3 1.3 0 0 0 .363-.9.284.284 0 0 0-.04-.139zM31.5 32.264c-.283.139-.487.433-.8.5a1.734 1.734 0 0 0-.287.056.2.2 0 0 0-.133.23.257.257 0 0 0 .1.106 2.728 2.728 0 0 0 1.648.427c.441-.008 1.854-.318 1.389-1.059-.292-.458-1.51-.462-1.917-.26z" style="fill:#d15349"/><path d="M56.893 40.48a5.181 5.181 0 0 0-2.382.393 12.018 12.018 0 0 0-2.337.96c2.61-1.413 4.594-4.528 3.722-7.515-.587-2.015-1.628-3.864-2.4-5.816a13.913 13.913 0 0 1-.854-3.03 14.936 14.936 0 0 0-2.552 3.368l-.01.01A9.4 9.4 0 0 0 50 30v1.34a5.449 5.449 0 0 1 1 3.13v1.87a4 4 0 0 1-1.17 2.83l-6.87 6.87a3.293 3.293 0 0 1-2.32.96h9.022a12.929 12.929 0 0 0 2.37-.907c2.06-1.045 4.503-3.181 4.861-5.613zM36.66 24.26q.285.21.57.45a7.365 7.365 0 0 1 2.63 4.48 11.528 11.528 0 0 1 .12 1.81H40l.92-1.16a4.014 4.014 0 0 1 2.45-.84H47v-1a11.357 11.357 0 0 1-.639-1.766 12.473 12.473 0 0 0-1.275-1.59 2.969 2.969 0 0 1-1.072-1.866 13.573 13.573 0 0 0-1.606 2.1 4.567 4.567 0 0 0-.681 2.518 8.545 8.545 0 0 1-3.185-3.583 6 6 0 0 1-.141-4.723 7.914 7.914 0 0 0-3.643 3 6.853 6.853 0 0 0 1.902 2.17zM38.02 45.69 35 41.67l-.11-.04a1.86 1.86 0 0 1-.48.78A1.955 1.955 0 0 1 33 43a2.006 2.006 0 0 1-2-2v-1l.01-.11a14.361 14.361 0 0 1-9.388-4.621 7.906 7.906 0 0 0-.54 2.608 18.888 18.888 0 0 0-6.6-7.589 3.5 3.5 0 0 1 .49 1.968 10.775 10.775 0 0 1-.751 4.1c-.575 1.458-1.463 2.773-2.077 4.215a5.993 5.993 0 0 0-.339 4.565A3.9 3.9 0 0 0 13.48 47h27.16a3.292 3.292 0 0 1-2.62-1.31z" style="fill:#c43b48"/><path d="M15 46h2v2h-2zM15.974 15.938A10.471 10.471 0 0 0 15 20.472a10.261 10.261 0 0 0 .061 1.163c.476 4.212 2.932 17.254 14.939 19.131V41a3 3 0 0 0 6 0v-.442c2.928-.892 5-3.045 5-5.558v-3.956l.531-.412A3.019 3.019 0 0 1 43.372 30H47a1 1 0 0 0 1-1v-1.7a.973.973 0 0 1 .046-.3 148.083 148.083 0 0 1 5.867-15.59l-1.813-.826a141.946 141.946 0 0 0-5.236 13.594 75.072 75.072 0 0 1-.873-4.342A1 1 0 0 0 45 19c-1.891 0-3.125 1.4-3.892 2.818a13.026 13.026 0 0 1 .821-4.448A1 1 0 0 0 41 16a9.452 9.452 0 0 0-5.58 1.553l1.158 1.631a6.606 6.606 0 0 1 3.027-1.1c-.494 1.862-1 5.12.563 7.469a1 1 0 0 0 1.812-.353c.186-.913.939-3.246 2.221-3.975A42.566 42.566 0 0 0 45.914 28h-2.542a5 5 0 0 0-2.586.74 8.623 8.623 0 0 0-3.538-5.292 6.209 6.209 0 0 1-2.029-2.713 11.556 11.556 0 0 0-4.389-6.151l.065-.032c-.812-1.625-2.978-2.648-4.652-3.22A6.232 6.232 0 0 0 24.226 11h-1.508a5.948 5.948 0 0 0-2.092.354 8.591 8.591 0 0 0-4.652 4.584zM34 41a1 1 0 0 1-2 0v-.032c.329.016.658.032 1 .032s.672-.021 1-.052zm4.872-11.654A10.724 10.724 0 0 1 39 31c0 2.206-2.129 4-4.746 4a11.427 11.427 0 0 1-7.393-2.357 8.639 8.639 0 0 1-.041-4.9c.124-.087.248-.172.372-.26a7.95 7.95 0 0 1 2.522-1.387.923.923 0 0 1 .243-.038.682.682 0 0 1 .251.113 5.784 5.784 0 0 1 .8.643 7.285 7.285 0 0 0 1.156.9 5.019 5.019 0 0 0 2.887.615A3.117 3.117 0 0 0 36.35 28a2.908 2.908 0 0 0 1.059-1.029 3.074 3.074 0 0 0 .222-.411 6.08 6.08 0 0 1 1.241 2.786zm-14.389 1.042a55.926 55.926 0 0 1-.394-.44 12.574 12.574 0 0 1-.954-1.223c.234.019.465.042.719.044h.084c.189 0 .394-.008.6-.029a10.407 10.407 0 0 0-.055 1.648zm8.817-9.083A8.21 8.21 0 0 0 35.989 25a2.168 2.168 0 0 1-.258.882 1.01 1.01 0 0 1-.326.354 1.434 1.434 0 0 1-.48.094 3.12 3.12 0 0 1-1.748-.344 5.419 5.419 0 0 1-.831-.661 7.374 7.374 0 0 0-1.1-.862 2.589 2.589 0 0 0-1.1-.4 2.743 2.743 0 0 0-.924.088 9.526 9.526 0 0 0-3.195 1.7c-.217.154-.433.307-.652.456a3.04 3.04 0 0 1-.7.384 2.924 2.924 0 0 1-.814.08 4.488 4.488 0 0 1-1.967-.376 11.4 11.4 0 0 1-.387-7.76C22.293 16.188 23.642 15 25.636 15c5.841 0 7.583 6.011 7.664 6.305zm-11.971-8.077A3.92 3.92 0 0 1 22.718 13h1.508a4.327 4.327 0 0 1 .6.049c-1.88.23-4.067 1.357-5.221 4.976a13.812 13.812 0 0 0 2.983 13.249C25.042 34.044 28.167 37 34.254 37a7.168 7.168 0 0 0 4.724-1.724C38.757 37.321 36.112 39 33 39c-12.6 0-15.354-12.3-15.952-17.592a8.359 8.359 0 0 1-.048-.936 8.53 8.53 0 0 1 .78-3.678 6.755 6.755 0 0 1 3.549-3.566z"/><path d="M26 16a3 3 0 1 0 3 3 3 3 0 0 0-3-3zm0 4a1 1 0 1 1 1-1 1 1 0 0 1-1 1zM20 9V7a7.009 7.009 0 0 0-7 7h2a5.006 5.006 0 0 1 5-5zM55.875 7.483l-1.75-.966a52.761 52.761 0 0 0-1.063 2.038l1.791.888c.335-.676.676-1.334 1.022-1.96z"/><path d="M63.453 5.088A2.982 2.982 0 0 0 64 3.361V3a3 3 0 0 0-3-3h-.5a3.022 3.022 0 0 0-1.646.483 13.069 13.069 0 0 0-3.514 3.978l1.683 1.078a11.456 11.456 0 0 1 2.925-3.379A1.026 1.026 0 0 1 60.5 2h.5a1 1 0 0 1 1 1v.361a.994.994 0 0 1-.182.575C58.812 8.2 49 22.7 49 30v1.335a1 1 0 0 0 .181.574A4.444 4.444 0 0 1 50 34.468v1.875a2.984 2.984 0 0 1-.879 2.122l-6.867 6.867a2.366 2.366 0 0 1-3.439-.244L37.55 43.4l-1.6 1.2L37 46H19v2h34a4.674 4.674 0 0 0 .471.031c.113 0 .224-.023.336-.031H57v1.838L55.279 55H53c0-.918-.56-7-3-7-1.468 0-5.84 4.168-6.8 7H37c0-2.486-3.225-7-5-7s-5 4.514-5 7h-6.2c-.963-2.832-5.335-7-6.8-7-2.44 0-3 6.082-3 7H8.721L7 49.838V48h6v-2h-2c-2.168 0-4-2.748-4-6 0-1.934.783-3.7 1.515-4.143A5.958 5.958 0 0 0 11.4 31.3a13.662 13.662 0 0 0-1.5-7.14 13.033 13.033 0 0 1 3.678 1.032l.858-1.806A16.946 16.946 0 0 0 8 22a1 1 0 0 0-.707 1.707 12.07 12.07 0 0 1 2.121 7.346 3.928 3.928 0 0 1-1.929 3.09C5.854 35.123 5 37.831 5 40a9.29 9.29 0 0 0 2.045 6H1a1 1 0 0 0-1 1v2a3 3 0 0 0 3 3h2.613l1.439 4.316A1 1 0 0 0 8 57h3.424a5.02 5.02 0 0 0 1.607 2H1a1 1 0 0 0-1 1v3a1 1 0 0 0 1 1h62a1 1 0 0 0 1-1v-3a1 1 0 0 0-1-1H50.969a5.02 5.02 0 0 0 1.607-2H56a1 1 0 0 0 .948-.684L58.387 52H61a3 3 0 0 0 3-3v-2a1 1 0 0 0-1-1h-5.536A11.813 11.813 0 0 0 60 39v-2.065c-.191-2.916-1.048-5.4-2.291-6.642-2.329-2.329 1.04-6.626 1.075-6.669A1 1 0 0 0 58 22a8.352 8.352 0 0 0-5.5 2.243l1.307 1.514a7.733 7.733 0 0 1 2.125-1.339c-1.013 1.985-1.908 5.02.362 7.289.869.869 1.556 3.022 1.707 5.293v1.949c-.134 2.625-1.161 5.106-2.617 6.319A3.082 3.082 0 0 1 53.8 46h-9.386l6.121-6.121A4.969 4.969 0 0 0 52 36.343v-1.875a6.419 6.419 0 0 0-1-3.435V30c0-5.342 6.708-16.759 12.453-24.912zM3 50a1 1 0 0 1-1-1v-1h3v2zm29 .052c.849.538 3 3.339 3 4.948a3 3 0 0 1-6 0c0-1.609 2.151-4.41 3-4.948zm-17.869.062C15.471 50.91 19 54.6 19 56c0 .495 0 2-3 2a3 3 0 0 1-3-3 12.1 12.1 0 0 1 1.131-4.886zM20.878 57h6.546a5.02 5.02 0 0 0 1.607 2h-9.452a3.426 3.426 0 0 0 1.299-2zM62 62H2v-1h60zm-27.031-3a5.02 5.02 0 0 0 1.607-2h6.546a3.426 3.426 0 0 0 1.3 2zM48 58c-3 0-3-1.505-3-2 0-1.4 3.529-5.09 4.869-5.886A12.1 12.1 0 0 1 51 55a3 3 0 0 1-3 3zm14-9a1 1 0 0 1-1 1h-2v-2h3z"/><path d="M30 13h2c0-.562.217-.8.707-1.293a3.48 3.48 0 0 0 0-5.414C32.217 5.8 32 5.562 32 5s.217-.8.707-1.293A3.564 3.564 0 0 0 34 1h-2c0 .562-.217.8-.707 1.293A3.564 3.564 0 0 0 30 5a3.564 3.564 0 0 0 1.293 2.707C31.783 8.2 32 8.438 32 9s-.217.8-.707 1.293A3.564 3.564 0 0 0 30 13zM38 13h2c0-.562.217-.8.707-1.293a3.48 3.48 0 0 0 0-5.414C40.217 5.8 40 5.562 40 5s.217-.8.707-1.293A3.564 3.564 0 0 0 42 1h-2c0 .562-.217.8-.707 1.293A3.564 3.564 0 0 0 38 5a3.564 3.564 0 0 0 1.293 2.707C39.783 8.2 40 8.438 40 9s-.217.8-.707 1.293A3.564 3.564 0 0 0 38 13z"/></g></svg>
