<svg xmlns="http://www.w3.org/2000/svg" viewBox="0 0 64 64"><g data-name="18-chopping board"><path d="M59 11v42a2.006 2.006 0 0 1-2 2H11a2.006 2.006 0 0 1-2-2V11a2.006 2.006 0 0 1 2-2h46a2.006 2.006 0 0 1 2 2z" style="fill:#ffb185"/><path d="M63 9v46a4 4 0 0 1-4 4H9a4 4 0 0 1-4-4V36H3a2.006 2.006 0 0 1-2-2v-4a2.006 2.006 0 0 1 2-2h2V9a4 4 0 0 1 4-4h50a4 4 0 0 1 4 4zm-4 44V11a2.006 2.006 0 0 0-2-2H11a2.006 2.006 0 0 0-2 2v42a2.006 2.006 0 0 0 2 2h46a2.006 2.006 0 0 0 2-2z" style="fill:#da684e"/><path d="M57 8H11a3 3 0 0 0-3 3v42a3 3 0 0 0 3 3h46a3 3 0 0 0 3-3V11a3 3 0 0 0-3-3zm2 45a2.006 2.006 0 0 1-2 2H11a2.006 2.006 0 0 1-2-2V11a2.006 2.006 0 0 1 2-2h46a2.006 2.006 0 0 1 2 2z" style="fill:#9a3e32"/><path d="M2 34v-4a2 2 0 0 1 2-2H3a2 2 0 0 0-2 2v4a2 2 0 0 0 2 2h1a2 2 0 0 1-2-2z" style="fill:#a64733"/><circle cx="4" cy="32" r="1" style="fill:#bc593b"/><path d="M42.77 16A9.24 9.24 0 0 1 52 25.26c0 4.39-4.92 7.74-8 7.74 0 0-13 0-15 5-2.17 5.41-6.57 5-6.57 5C14 43 12 34.79 12 28.94 12 20.16 15.77 16 22.57 16zM25 23a3 3 0 1 0-3 3 3 3 0 0 0 3-3z" style="fill:#f26f65"/><path d="M52 25.26A9.24 9.24 0 0 0 42.77 16h-20.2C15.77 16 12 20.16 12 28.94 12 34.79 14 43 22.43 43c0 0 4.4.41 6.57-5 2-5 15-5 15-5 3.08 0 8-3.35 8-7.74zM44.38 13C50.25 13 55 18.64 55 25.6c0 5.97-5.46 10.4-9 10.4 0 0-12 0-14 4-3.22 6.44-11 7-11 7-8 0-12-8.44-12-16.4C9 18.66 13.33 13 21.15 13z" style="fill:#e65753"/><path d="M55 25.6V32c0 5.97-5.46 10-9 10 0 0-.82-.01-2 0-2.46.01-6.5.38-8 3-4 7-14 8-14 8-9 0-13-8.04-13-16v-6.4C9 38.56 13 47 21 47c0 0 7.78-.56 11-7 2-4 14-4 14-4 3.54 0 9-4.43 9-10.4z" style="fill:#fac0b8"/><path d="M21 49.5a4.472 4.472 0 0 0-.8-2.553C12.741 46.4 9 38.286 9 30.6V37c0 7.2 3.289 14.448 10.579 15.767A4.478 4.478 0 0 0 21 49.5z" style="fill:#faa499"/><path d="M37.624 36.9C35.1 37.484 32.783 38.435 32 40c-3.22 6.44-11 7-11 7-.275 0-.534-.034-.8-.053a4.471 4.471 0 0 1-.622 5.82A13.436 13.436 0 0 0 22 53s10-1 14-8a4.279 4.279 0 0 1 .808-1 5.973 5.973 0 0 1 .816-7.094z" style="fill:#ffd0c9"/><path d="M50 38a2.987 2.987 0 0 0-1.523-2.6A6.314 6.314 0 0 1 46 36a43.592 43.592 0 0 0-8.376.9 5.973 5.973 0 0 0-.816 7.1c1.839-1.713 5.09-1.989 7.192-2 1.18-.01 2 0 2 0a7.792 7.792 0 0 0 3.9-1.272A3.008 3.008 0 0 0 50 40z" style="fill:#fac0b8"/><path d="M48.477 35.4A2.987 2.987 0 0 1 50 38v2a3.008 3.008 0 0 1-.1.728A10.4 10.4 0 0 0 55 32v-6.4a11.174 11.174 0 0 1-6.523 9.8z" style="fill:#ffd0c9"/><path d="M25.528 46.7a8.128 8.128 0 0 1-1.293.493 26.415 26.415 0 0 1-8.341.133c-.314-.041-.712-.04-.853.241a.645.645 0 0 0 .171.666 3.511 3.511 0 0 0 2.2.994A22.2 22.2 0 0 0 24.5 49.2a12.614 12.614 0 0 0 5.347-2.1 3.041 3.041 0 0 0 .987-1.035 1.284 1.284 0 0 0-.065-1.359.534.534 0 0 0-.218-.173.63.63 0 0 0-.251-.033 6.606 6.606 0 0 0-3.072 1.384 9.829 9.829 0 0 1-1.7.816zM28.507 48.489a10.394 10.394 0 0 1-2.263.891c-.467.124-1.007.262-1.217.7a.332.332 0 0 0-.039.206c.035.18.263.233.445.24a6.324 6.324 0 0 0 3.253-.775c.311-.169 2.435-1.6 1.334-1.759a2.721 2.721 0 0 0-1.513.497z" style="fill:#ffe0db"/><path d="M46.382 37.125a10.726 10.726 0 0 0 3.647-1.282 34.437 34.437 0 0 0 3.29-2.672c.164-.13.415-.252.559-.1a.394.394 0 0 1 .085.2 3.134 3.134 0 0 1-.9 2.519 8.912 8.912 0 0 1-4.488 2.666 16.64 16.64 0 0 1-3.3.507 6.1 6.1 0 0 1-2.675-.246 1.21 1.21 0 0 1-.444-.3.61.61 0 0 1-.154-.5c.114-.591 1.393-.385 1.823-.435.859-.104 1.712-.202 2.557-.357z" style="fill:#ffedeb"/><path d="M48.082 39.927a22.438 22.438 0 0 1-2.35.075 2.616 2.616 0 0 0-.611.077.158.158 0 0 0-.114.077c-.036.089.074.163.163.188a4.634 4.634 0 0 0 .948.163l-.655.271c-.072.03-.156.121-.1.173a.1.1 0 0 0 .06.02 6.9 6.9 0 0 0 1.969-.115 9.1 9.1 0 0 0 2.833-.953c.212-.118 1.015-.469.7-.831-.148-.169-.352 0-.508.076a14.03 14.03 0 0 1-.7.309 7.023 7.023 0 0 1-1.635.47z" style="fill:#ffe0db"/><circle cx="22" cy="23" r="2.5" style="fill:none"/><path d="M22 20a3 3 0 1 0 3 3 3 3 0 0 0-3-3zm0 5.5a2.5 2.5 0 1 1 2.5-2.5 2.5 2.5 0 0 1-2.5 2.5z" style="fill:#f26f65"/><path d="M22 19.5a3.5 3.5 0 1 0 3.5 3.5 3.5 3.5 0 0 0-3.5-3.5zm0 6.5a3 3 0 1 1 3-3 3 3 0 0 1-3 3z" style="fill:#f26f65"/><path d="M14.722 21.038a11.762 11.762 0 0 0-.92 1.972 10.794 10.794 0 0 0-.755 4.869 5.781 5.781 0 0 0 2.292 4.176 6.656 6.656 0 0 0 3.652.945 5.967 5.967 0 0 0 2.534-.4 8.532 8.532 0 0 0 2.455-1.992q1.605-1.635 3.356-3.1a17.652 17.652 0 0 0 2.428-2.258A5.005 5.005 0 0 0 31 22.17a4.641 4.641 0 0 0-2.153-3.713 9.352 9.352 0 0 0-4.1-1.32c-3.817-.486-7.814.21-10.025 3.901zM31.882 24.537a5.984 5.984 0 0 0-.87 2.905 3.4 3.4 0 0 0 1.773 2.424 10.073 10.073 0 0 0 5.82 1.106 25.858 25.858 0 0 0 8.8-2.049c2.1-.9 4.1-2.832 3.487-5.538a6.229 6.229 0 0 0-1.54-2.779 10.536 10.536 0 0 0-4.924-2.922A21.175 21.175 0 0 0 38.792 17a17.974 17.974 0 0 0-4.312.364 3.472 3.472 0 0 0-1.426.614 2.435 2.435 0 0 0-.565 2.9c.485 1.042-.178 2.689-.607 3.659zM20.942 33.834c-1.262.155-2.659.094-3.658.8a3.256 3.256 0 0 0-1.235 2.254 3.123 3.123 0 0 0 .064 1.4 4.681 4.681 0 0 0 1.1 1.629 6.373 6.373 0 0 0 1.972 1.645 5.423 5.423 0 0 0 2.032.429 6.037 6.037 0 0 0 2.625-.384 8.135 8.135 0 0 0 2.7-2.262c.888-.975 1.768-1.957 2.656-2.932q.675-.741 1.359-1.475a8 8 0 0 0 1.18-1.218 1.282 1.282 0 0 0 .164-1.258 8.023 8.023 0 0 0-.838-1.351 2.842 2.842 0 0 0-1.114-.972 2.6 2.6 0 0 0-2.225.3 15.634 15.634 0 0 0-1.746 1.4 12.78 12.78 0 0 1-2.229 1.181 8.349 8.349 0 0 1-2.807.814z" style="fill:#ea3d38"/><circle cx="22" cy="23" r="3" style="fill:#fac0b8"/><path d="M42.137 18.162c-.309.117-.646.364-.637.725a.886.886 0 0 0 .489.667 4.061 4.061 0 0 1 1.423 1.039 4.864 4.864 0 0 1 .387.905 3.9 3.9 0 0 0 3.033 2.483 1.44 1.44 0 0 0 1.36-.427 1.465 1.465 0 0 0 .252-.582 2.982 2.982 0 0 0-.578-2.349 5.575 5.575 0 0 0-1.827-1.485c-1.2-.671-2.539-1.491-3.902-.976z" style="fill:#f69082"/><path d="M19.76 28.852a6.7 6.7 0 0 0-1.222-1.152 2.315 2.315 0 0 0-2.135.166 2.31 2.31 0 0 0-1.4 2.047 2.56 2.56 0 0 0 1.53 1.847 5.693 5.693 0 0 0 2.681.745 1.923 1.923 0 0 0 1.093-.275c.374-.257.587-.7.942-.988.243-.195 2.706-1.2 1.337-1.671-.41-.141-1.019.084-1.48-.018a2.9 2.9 0 0 1-1.346-.701z" style="fill:#f15d51"/><path d="M16.435 24.888a1.068 1.068 0 0 0-.272-.347.786.786 0 0 0-.788.038 2.2 2.2 0 0 0-1.139 1.484 1.061 1.061 0 0 0 0 .531 1.105 1.105 0 0 0 1.043.653 4.489 4.489 0 0 0 1.8-.4c1.421-.532-.259-1.327-.644-1.959zM27.637 19.246a.743.743 0 0 0-.47.54c-.089.44.231.849.338 1.285a3.673 3.673 0 0 1-.032 1.249 1.613 1.613 0 0 0 .239 1.2 1.1 1.1 0 0 0 1.167.307 1.6 1.6 0 0 0 .918-.845 3.007 3.007 0 0 0 .264-1.244 2.705 2.705 0 0 0-.149-1.054c-.265-.684-1.464-1.723-2.275-1.438z" style="fill:#f15c59"/><path d="M29.35 17.1a.808.808 0 0 0-.3.124.561.561 0 0 0-.151.623 1.137 1.137 0 0 0 .43.519c.184.135.387.243.566.385a10.952 10.952 0 0 0 .946.874.462.462 0 0 0 .3.087c.158-.021.263-.17.348-.3a1.784 1.784 0 0 0 .393-1.2 2.048 2.048 0 0 0-1-1.2 2.288 2.288 0 0 0-1.532.088z" style="fill:#f8a9a7"/><path d="M28.758 31.727a5.566 5.566 0 0 1-.743.787 3.864 3.864 0 0 0-.971 1.681.728.728 0 0 0-.018.43.567.567 0 0 0 .321.307 1.687 1.687 0 0 0 1.514-.417l.664-.458a5.725 5.725 0 0 0 .968-.777A1.753 1.753 0 0 0 31 32.209a.689.689 0 0 0-.118-.455 1.046 1.046 0 0 0-.281-.228c-.286-.182-.664-.541-1.033-.525-.444.018-.614.434-.81.726zM23.05 37.308a19.167 19.167 0 0 1-1.979.076 6.95 6.95 0 0 0-2.442.579c-.332.147-.7.423-.616.763.037.145.155.262.191.407.068.274-.169.572-.05.829a.642.642 0 0 0 .212.225 4.523 4.523 0 0 0 2.255.778 13.725 13.725 0 0 0 2.423-.055 3.752 3.752 0 0 0 1.067-.193 3.014 3.014 0 0 0 1.192-.985c.512-.638 1.1-1.8.309-2.48-.634-.544-1.857-.052-2.562.056z" style="fill:#f15d51"/><path d="M46.6 24.67a2.783 2.783 0 0 1-1.106.093 2.992 2.992 0 0 1-.8-.269 17.845 17.845 0 0 0-1.726-.814 2.475 2.475 0 0 0-1.861 0 .994.994 0 0 0-.615.806c-.01.45.408.793.521 1.229.168.645-.361 1.336-.143 1.966.2.577.908.779 1.516.807a9.621 9.621 0 0 0 4.971-1.41 6.163 6.163 0 0 0 1.315-.9 2.575 2.575 0 0 0 .791-1.36 1.27 1.27 0 0 0-.059-.745c-.313-.708-.767-.346-1.23-.068a5.893 5.893 0 0 1-1.574.665z" style="fill:#ec5852"/><path d="M22 57a23.669 23.669 0 0 0 4.424-1h-9.417A12.4 12.4 0 0 0 22 57z" style="fill:#b55641"/><path d="M15.171 55a11.1 11.1 0 0 0 1.836 1h9.417A23.815 23.815 0 0 0 29 55z" style="fill:#80332a"/><path d="M55 32c0 5.97-5.46 10-9 10 0 0-.82-.01-2 0-2.46.01-6.5.38-8 3-4 7-14 8-14 8-9 0-13-8.04-13-16v4c0 5.546 1.949 11.123 6.171 14H29a15.085 15.085 0 0 0 7-6c1.5-2.62 5.54-2.99 8-3 1.18-.01 2 0 2 0a8.487 8.487 0 0 0 4.891-1.958c.318.025.7.065 1.109.128V55h3V44.17a14.605 14.605 0 0 0-2-.17v-2.1a9.811 9.811 0 0 0 2-5.9zm-3.01 11.067.029-.031z" style="fill:#e9986a"/><path style="fill:#b55641" d="M52 56h3v3h-3z"/><path style="fill:#a3502b" d="M52 55h3v1h-3z"/><path d="M59 47v16h-2a2.006 2.006 0 0 1-2-2V44.17c1.74.28 4 .99 4 2.83z" style="fill:#635d50"/><path d="M55 44.17a14.605 14.605 0 0 0-2-.17V9a9.806 9.806 0 0 1 1.76-5.24A5.469 5.469 0 0 1 59 1v46c0-1.84-2.26-2.55-4-2.83z" style="fill:#d6cec1"/><path d="M57 60.458V48.274c0-1.133 1.077-1.7 1.707-.9l.293.372V47c0-1.84-2.26-2.55-4-2.83V61a2.006 2.006 0 0 0 2 2h2a2.32 2.32 0 0 1-2-2.542z" style="fill:#423e35"/><path d="M57 42a2 2 0 0 1-2-2V9c0-2.419 1.718-6.436 4-6.9V1a5.469 5.469 0 0 0-4.24 2.76A9.806 9.806 0 0 0 53 9v35a14.605 14.605 0 0 1 2 .17c1.74.28 4 .99 4 2.83v-5z" style="fill:#f7f3eb"/><path d="M60 4.1V1a1 1 0 0 0-1-1c-2.342 0-4.307 1.791-5.554 4H9a5.006 5.006 0 0 0-5 5v18H3a3 3 0 0 0-3 3v4a3 3 0 0 0 3 3h1v18a5.006 5.006 0 0 0 5 5h43v-2H9a3 3 0 0 1-3-3V36a1 1 0 0 0-1-1H3a1 1 0 0 1-1-1v-4a1 1 0 0 1 1-1h2a1 1 0 0 0 1-1V9a3 3 0 0 1 3-3h43.547a10.335 10.335 0 0 0-.471 2H11a3 3 0 0 0-3 3v42a3 3 0 0 0 3 3h37v-2H11a1 1 0 0 1-1-1v-6.681A12.82 12.82 0 0 0 22.091 54h.009c.428-.043 10.561-1.136 14.768-8.5.921-1.61 3.389-2.474 7.138-2.5 1.172-.006 1.982 0 1.994 0a8.822 8.822 0 0 0 4.533-1.479l-1.064-1.693A6.928 6.928 0 0 1 46.009 41s-.823-.007-2.015 0c-4.567.027-7.549 1.206-8.862 3.5-3.56 6.228-12.469 7.411-13.187 7.5-6.8-.027-10.5-5.137-11.59-11.1C12.5 45.052 16.083 48 21.068 48c.341-.024 8.388-.68 11.823-7.55C34.148 37.939 41.6 37 46 37a8.479 8.479 0 0 0 4.559-1.6l-1.118-1.658A6.6 6.6 0 0 1 46 35c-1.292 0-12.682.128-14.895 4.553C28.187 45.39 21 46 21 46c-7.222 0-11-7.747-11-15.4C10 19.585 13.753 14 21.154 14h23.231a8.411 8.411 0 0 1 5.02 1.706L50.6 14.1a10.393 10.393 0 0 0-6.21-2.1H21.154A11.442 11.442 0 0 0 10 19.127V11a1 1 0 0 1 1-1h41v10.868A10.232 10.232 0 0 0 42.77 15h-20.2C17.291 15 11 17.419 11 28.941 11 42.887 19.718 44 22.325 44h.016a3.152 3.152 0 0 0 .315.013c1.162 0 5.176-.4 7.273-5.637C31.361 34.79 40.572 34 44 34c2.612 0 6.262-2.045 8-5.117V44a1 1 0 0 0 1 1c.288 0 .632.017 1 .051V61a3 3 0 0 0 3 3h2a1 1 0 0 0 1-1v-3.1a5.009 5.009 0 0 0 4-4.9V9a5.009 5.009 0 0 0-4-4.9zM44 32c-1.4 0-13.74.158-15.929 5.629-1.842 4.6-5.4 4.386-5.636 4.371C13.919 42 13 32.868 13 28.941 13 20.906 16.13 17 22.568 17h20.2A8.257 8.257 0 0 1 51 25.265C51 28.917 46.7 32 44 32zm14 30h-1a1 1 0 0 1-1-1V45.407c1.1.309 2 .815 2 1.593zm4-7a3 3 0 0 1-2 2.816V12h-2v32.039a10.906 10.906 0 0 0-4-1V9c0-2.594 1.858-5.952 4-6.8V10h2V6.184A3 3 0 0 1 62 9z"/><path d="M50 54h2v2h-2zM39.293 26.293l5-5 1.414 1.415-5 5zM33.292 26.293l5-5 1.414 1.414-5 5zM22 19a4 4 0 1 0 4 4 4 4 0 0 0-4-4zm0 6a2 2 0 1 1 2-2 2 2 0 0 1-2 2zM3 31h2v2H3z"/></g></svg>
