<svg viewBox="0 0 64 64" xmlns="http://www.w3.org/2000/svg" xml:space="preserve" style="fill-rule:evenodd;clip-rule:evenodd;stroke-linecap:round;stroke-linejoin:round;stroke-miterlimit:2"><path style="fill:none" d="M0 0h64v64H0z"/><path d="M53.466 12.11a1.94 1.94 0 0 0-1.942-1.942H12.476a1.941 1.941 0 0 0-1.942 1.942v39.78a1.94 1.94 0 0 0 1.942 1.942h39.048a1.941 1.941 0 0 0 1.942-1.942V12.11zM32 10.168v43.664" style="fill:none;stroke:#444f58;stroke-width:2px"/><path d="M24.32 18.095h-6.197v3.099a3.099 3.099 0 0 0 3.098 3.098h.001a3.098 3.098 0 0 0 3.098-3.098v-3.099zM24.32 18.095h1.667a.847.847 0 0 1 .847.912c-.079.914-.54 2.187-2.514 2.187M18.737 15.248V14.23M21.222 15.248V14.23M23.706 15.248V14.23M17.563 24.292h7.317M16.62 32h9.294M38.086 32h9.294M16.62 36.156h7.317M38.086 36.156h7.317M16.62 40.311h9.294M38.086 40.311h7.317M16.62 44.467h7.317M38.086 44.467h9.294M45.906 18.198a3.554 3.554 0 0 0-3.556-3.556h-.002a3.555 3.555 0 0 0-3.556 3.556v.659h7.114v-.659zM38.792 24.292h7.114M38.792 21.956l.584-.584a.826.826 0 0 1 1.169 0s0 0 0 0a.824.824 0 0 0 1.168 0l.026-.027a.861.861 0 0 1 1.219 0l.027.027a.826.826 0 0 0 1.168 0s0 0 0 0a.825.825 0 0 1 1.168 0l.585.584M10.534 51.505h-.592A1.941 1.941 0 0 1 8 49.563V14.437c0-1.073.869-1.942 1.942-1.942h.592M56 14.437v35.126" style="fill:none;stroke:#444f58;stroke-width:2px"/></svg>
