<svg xmlns="http://www.w3.org/2000/svg" xmlns:xlink="http://www.w3.org/1999/xlink" width="422.6099853515625" height="259.09033203125" viewBox="0 0 422.6099853515625 259.09033203125" fill="none">
<path d="M422.61 114.06L251.68 114.06C251.68 114.06 251.81 80.6812 273.151 80.6812C294.257 80.6812 302.168 103.589 314.651 103.589C327.132 103.589 324.935 67.21 346.857 67.21C363.702 67.21 378.163 96.7606 403.413 105.319C419.631 110.822 422.61 114.06 422.61 114.06Z"   fill="#F2F6F9" >
</path>
<path d="M23.94 41.7L190.77 41.7C190.77 41.7 182.542 16.5599 165.37 16.5599C152.509 16.5599 149.406 27.4549 137.062 27.4549C124.717 27.4549 116.446 0 97.779 0C78.1381 0 68.4486 31.4076 50.7329 34.8499C28.9833 39.0725 23.94 41.7 23.94 41.7Z"   fill="#F2F6F9" >
</path>
<path d="M173.43 259.09L389.07 259.09C389.07 259.09 378.435 228.803 356.237 228.803C339.615 228.803 335.604 241.927 319.647 241.927C303.689 241.927 292.998 208.85 268.87 208.85C243.483 208.85 230.961 246.689 208.06 250.835C179.947 255.922 173.43 259.09 173.43 259.09Z"   fill="#F2F6F9" >
</path>
<path d="M180.5 215.42L0 215.42C0 215.42 5.90235 187.746 22.7502 187.746C37.2877 187.746 49.587 204.247 61.8447 204.247C74.1025 204.247 80.2178 167.7 104.159 167.7C126.433 167.7 144.317 206.055 161.768 209.44C176.811 212.358 180.5 215.42 180.5 215.42Z"   fill="#F2F6F9" >
</path>
<path d="M334.642 155.354L349.754 171.63L354.434 171.63C354.452 169.606 355.191 167.655 356.519 166.128C357.846 164.601 359.676 163.597 361.678 163.299C363.681 163 365.723 163.426 367.44 164.499C369.156 165.572 370.433 167.222 371.041 169.153L371.26 169.211L378.62 171.17L371.37 173.1C371.056 178.73 368.928 184.107 365.303 188.427C361.678 192.747 356.754 195.779 351.264 197.068C345.774 198.357 340.014 197.835 334.847 195.58C329.678 193.325 325.378 189.458 322.591 184.557L321.473 183.854C317.456 181.33 314.606 177.314 313.549 172.689C312.493 168.064 313.316 163.209 315.841 159.191C316.299 158.464 317.026 157.947 317.866 157.755C318.703 157.563 319.583 157.711 320.313 158.166L325.663 161.529C326.648 159.119 328.148 156.954 330.058 155.184C330.688 154.6 331.525 154.29 332.385 154.322C333.245 154.354 334.055 154.725 334.642 155.354Z"   fill="#F2F6F9" >
</path>
<path d="M13.3453 88.3722C13.5723 88.1609 13.8388 87.9964 14.1296 87.8883C14.42 87.7801 14.7294 87.7304 15.0394 87.7418C15.3493 87.7532 15.654 87.8256 15.9357 87.9547C16.218 88.0837 16.4717 88.2675 16.6824 88.4949L27.6817 100.341L31.0889 100.341C31.0899 98.8613 31.622 97.4314 32.5885 96.3107C33.5549 95.1904 34.8909 94.454 36.3547 94.2358C37.818 94.0175 39.3113 94.3316 40.5625 95.1214C41.8141 95.9109 42.74 97.1239 43.173 98.5387L43.3355 98.5811L48.69 100.001L43.4156 101.406C43.192 105.506 41.6462 109.424 39.0091 112.571C36.3724 115.719 32.7863 117.928 28.7888 118.867C24.7914 119.806 20.5969 119.424 16.8345 117.779C13.0721 116.134 9.9438 113.315 7.91836 109.742L7.10589 109.243C4.18168 107.406 2.10664 104.483 1.33709 101.117C0.568009 97.7505 1.16735 94.2165 3.0035 91.292C3.33631 90.7631 3.8646 90.387 4.47395 90.2466C5.08283 90.1062 5.72269 90.2124 6.25337 90.542L10.1455 92.9892C10.8631 91.2354 11.9549 89.6595 13.3453 88.3722Z"   fill="#F2F6F9" >
</path>
<path d="M271.458 48.3876C269.08 46.8945 267.392 44.5179 266.768 41.7804C266.14 39.0428 266.628 36.1689 268.12 33.7905C268.39 33.3592 268.822 33.053 269.317 32.9392C269.815 32.8253 270.335 32.913 270.767 33.183L273.935 35.1832C274.517 33.7587 275.405 32.4785 276.535 31.4327C276.907 31.0864 277.403 30.9025 277.912 30.9212C278.42 30.94 278.9 31.1601 279.248 31.5329L288.193 41.1692L290.96 41.1692C290.96 39.9643 291.39 38.7996 292.175 37.8865C292.962 36.9735 294.05 36.3734 295.24 36.1954C296.432 36.0176 297.647 36.2737 298.665 36.9173C299.685 37.5608 300.437 38.5491 300.787 39.7013L300.917 39.7365L305.27 40.8892L300.98 42.0242C300.792 45.3546 299.532 48.535 297.387 51.0902C295.243 53.6453 292.33 55.4379 289.082 56.2007C285.835 56.9632 282.43 56.6546 279.372 55.3216C276.315 53.988 273.77 51.7013 272.12 48.8027L271.458 48.3876Z"   fill="#F2F6F9" >
</path>
<path d="M217.024 145.386C216.653 155.352 212.34 164.762 205.031 171.547C197.722 178.331 188.018 181.935 178.052 181.564C168.087 181.194 158.677 176.879 151.892 169.57L130.752 146.797C125.065 140.67 120.64 133.483 117.73 125.646C114.821 117.808 113.483 109.475 113.794 101.121C114.105 92.7668 116.059 84.5556 119.542 76.9568C123.026 69.358 127.973 62.5198 134.1 56.8322C136.344 54.7497 139.323 53.6439 142.382 53.7577C145.441 53.8714 148.33 55.1959 150.412 57.4395L207.007 118.408C213.792 125.716 217.395 135.421 217.024 145.386Z"   fill="#FFC774" >
</path>
<g  mask="url(#mask-pFJ6EiWGJW)">
<path    stroke="rgba(255, 161, 97, 1)" stroke-width="7.75"  stroke-linecap="round"  d="M213.82 138.301L233.22 127.371">
</path>
<path    stroke="rgba(255, 161, 97, 1)" stroke-width="7.75"  stroke-linecap="round"  d="M241.12 164.1L231.47 146.96">
</path>
<path    stroke="rgba(255, 161, 97, 1)" stroke-width="7.75"  stroke-linecap="round"  d="M158.38 178.781L148.73 161.641">
</path>
<path    stroke="rgba(255, 161, 97, 1)" stroke-width="7.75"  stroke-linecap="round"  d="M205.12 154.031L195.47 136.891">
</path>
<path    stroke="rgba(255, 161, 97, 1)" stroke-width="7.75"  stroke-linecap="round"  d="M215.18 118.031L205.53 100.891">
</path>
<path    stroke="rgba(255, 161, 97, 1)" stroke-width="7.75"  stroke-linecap="round"  d="M158.49 125.88L169.42 145.29">
</path>
<path    stroke="rgba(255, 161, 97, 1)" stroke-width="7.75"  stroke-linecap="round"  d="M183.82 172.32L194.75 191.73">
</path>
<path    stroke="rgba(255, 161, 97, 1)" stroke-width="7.75"  stroke-linecap="round"  d="M132.68 153.191L149.82 143.541">
</path>
<path    stroke="rgba(255, 161, 97, 1)" stroke-width="7.75"  stroke-linecap="round"  d="M206.56 174.88L223.7 165.23">
</path>
<path    stroke="rgba(255, 161, 97, 1)" stroke-width="7.75"  stroke-linecap="round"  d="M168.71 164.3L185.85 154.65">
</path>
<path    stroke="rgba(255, 161, 97, 1)" stroke-width="7.75"  stroke-linecap="round"  d="M178.75 127.251L195.89 117.601">
</path>
<path    stroke="rgba(255, 161, 97, 1)" stroke-width="7.75"  stroke-linecap="round"  d="M152.07 81.3204L171.48 70.4004">
</path>
<path    stroke="rgba(255, 161, 97, 1)" stroke-width="7.75"  stroke-linecap="round"  d="M179.38 107.13L169.73 89.9902">
</path>
<path    stroke="rgba(255, 161, 97, 1)" stroke-width="7.75"  stroke-linecap="round"  d="M96.64 121.82L86.99 104.68">
</path>
<path    stroke="rgba(255, 161, 97, 1)" stroke-width="7.75"  stroke-linecap="round"  d="M143.37 97.0702L133.72 79.9302">
</path>
<path    stroke="rgba(255, 161, 97, 1)" stroke-width="7.75"  stroke-linecap="round"  d="M153.44 61.0604L143.79 43.9204">
</path>
<path    stroke="rgba(255, 161, 97, 1)" stroke-width="7.75"  stroke-linecap="round"  d="M96.74 68.9204L107.67 88.3304">
</path>
<path    stroke="rgba(255, 161, 97, 1)" stroke-width="7.75"  stroke-linecap="round"  d="M122.07 115.351L132.99 134.761">
</path>
<path    stroke="rgba(255, 161, 97, 1)" stroke-width="7.75"  stroke-linecap="round"  d="M70.94 96.2203L88.08 86.5703">
</path>
<path    stroke="rgba(255, 161, 97, 1)" stroke-width="7.75"  stroke-linecap="round"  d="M144.82 117.921L161.96 108.271">
</path>
<path    stroke="rgba(255, 161, 97, 1)" stroke-width="7.75"  stroke-linecap="round"  d="M106.97 107.33L124.11 97.6802">
</path>
<path    stroke="rgba(255, 161, 97, 1)" stroke-width="7.75"  stroke-linecap="round"  d="M117.01 70.2906L134.15 60.6406">
</path>
</g>
<path d="M84.4047 101.38L71.91 150.677L151.495 153.36L154.15 142.892L84.4047 101.38Z"   fill="#3361C2" >
</path>
<path d="M225.28 233.97L192.91 229.003L197.275 217.31L210.304 220.333L225.28 233.97Z"   fill="#24272D" >
</path>
<path d="M258.11 224.54L225.74 219.574L230.106 207.88L243.133 210.903L258.11 224.54Z"   fill="#24272D" >
</path>
<path d="M214.201 96.75L249.997 140.353C252.182 143.047 253.802 146.151 254.767 149.483C255.732 152.814 256.017 156.306 255.61 159.749L249.265 211.88L226.069 211.63L233.039 157.154L198.733 133.153C192.448 127.653 188.282 119.918 187.015 111.403L185.92 104.015L214.201 96.75Z"   fill="#EA6F57" >
</path>
<path d="M215.317 85.9581L222.681 79.3807C222.681 79.3807 215.951 89.793 214.223 97.3656L182.24 97.3656C182.24 97.3656 184.27 82.3657 184.838 73.7854L187.343 54.1809C196.937 49.5432 212.674 49.1806 219.591 50.8158C226.508 52.4505 233.538 80.0903 233.538 80.0903L249.38 102.59L233.863 112.56L215.317 85.9581Z" fill-rule="evenodd"  fill="#24272D" >
</path>
<path d="M251.05 146.76C267.729 146.76 281.25 133.239 281.25 116.56C281.25 99.881 267.729 86.3599 251.05 86.3599C234.371 86.3599 220.85 99.881 220.85 116.56C220.85 133.239 234.371 146.76 251.05 146.76Z"   fill="#3361C2" >
</path>
<path d="M281.25 116.56C281.25 167.883 239.647 209.49 188.327 209.49C137.006 209.49 95.4 167.883 95.4 116.56L281.25 116.56Z"   fill="#3361C2" >
</path>
<path    stroke="rgba(255, 255, 255, 1)" stroke-width="0.75"    d="M219.998 63.1299L224.69 74.7048L219.72 87.3899">
</path>
<path d="M188.303 128.804C183.401 121.785 181.098 113.278 181.791 104.746L182.378 97.3101L211.485 97.3101L236.486 148.616C238.003 151.749 238.882 155.154 239.071 158.631C239.26 162.107 238.756 165.587 237.588 168.867L219.108 220.66L192.961 220.66L209.573 158.989L188.303 128.804Z"   fill="#EA6F57" >
</path>
<path d="M238.897 108.282C237.785 108.492 236.445 107.94 235.547 108.63C235.797 109.28 235.845 110.707 239.172 113.517C241.077 115.125 244.422 115.567 243.672 119.548C242.63 122.59 237.887 122.77 236.582 122.235C232.77 120.673 229.755 117.485 228.183 114.897C227.468 113.652 226.852 112.353 226.34 111.012L230.082 103.422L232.187 103.422C233.046 103.404 233.904 103.494 234.74 103.69C236.3 104.022 236.872 105.155 239.49 105.282C242.447 105.43 240.322 108.002 238.897 108.282Z"   fill="#EA6F57" >
</path>
<path d="M223.824 90.3801L237.85 100.982L224.117 115.65L192.098 93.7823C192.098 93.7823 181.097 67.2698 188.72 59.8198L223.824 90.3801Z"   fill="#24272D" >
</path>
<path d="M223.16 35.3298C228.357 35.3298 232.57 29.9504 232.57 23.3148C232.57 16.6792 228.357 11.2998 223.16 11.2998C217.963 11.2998 213.75 16.6792 213.75 23.3148C213.75 29.9504 217.963 35.3298 223.16 35.3298Z"   fill="#24272D" >
</path>
<path d="M212.829 55.3099C213.945 54.4652 214.755 53.2796 215.135 51.933L221.109 30.8605C221.365 30.0408 221.453 29.1784 221.37 28.3242C221.286 27.4696 221.032 26.6407 220.623 25.886C220.214 25.1311 219.658 24.4661 218.987 23.9297C218.317 23.3933 217.546 22.9967 216.719 22.7628C215.893 22.5292 215.029 22.4631 214.176 22.5691C213.324 22.6748 212.502 22.95 211.758 23.3787C211.014 23.807 210.363 24.3802 209.844 25.0642C209.325 25.7483 208.948 26.5292 208.736 27.3609L202.763 48.436C202.492 49.3925 202.447 50.3985 202.631 51.3754C202.815 52.3521 203.223 53.2728 203.822 54.0659C204.421 54.8588 205.197 55.5019 206.087 55.9452C206.977 56.3881 207.957 56.6193 208.951 56.62L208.951 56.6125C210.351 56.6118 211.713 56.1546 212.829 55.3099Z"   fill="#EA6F57" >
</path>
<path d="M210.067 29.629L208.377 36.0083C207.756 38.3541 208.084 40.8501 209.291 42.9554C210.498 45.0606 212.486 46.6056 214.824 47.2547L215.946 47.5673C217.252 47.9279 218.622 47.9963 219.957 47.7678C221.292 47.5392 222.561 47.0192 223.672 46.2447C224.784 45.4705 225.711 44.4607 226.388 43.2872C227.065 42.1138 227.476 40.8053 227.59 39.4556L228.157 32.7662C228.34 30.6076 227.757 28.4539 226.51 26.6823C225.264 24.9106 223.434 23.6342 221.341 23.0771C218.977 22.4514 216.461 22.7899 214.347 24.0187C212.233 25.2471 210.694 27.2653 210.067 29.629Z"   fill="#EA6F57" >
</path>
<path    stroke="rgba(37, 40, 45, 1)" stroke-width="0.75"    d="M223.657 33.5298L225.25 39.4173L222.92 39.4598">
</path>
<path d="M220.85 35.8298C221.474 35.8298 221.98 35.3239 221.98 34.6998C221.98 34.0757 221.474 33.5698 220.85 33.5698C220.226 33.5698 219.72 34.0757 219.72 34.6998C219.72 35.3239 220.226 35.8298 220.85 35.8298Z"   fill="#24272D" >
</path>
<path d="M226.28 35.8298C226.904 35.8298 227.41 35.3239 227.41 34.6998C227.41 34.0757 226.904 33.5698 226.28 33.5698C225.656 33.5698 225.15 34.0757 225.15 34.6998C225.15 35.3239 225.656 35.8298 226.28 35.8298Z"   fill="#24272D" >
</path>
<path    stroke="rgba(37, 40, 45, 1)" stroke-width="0.75"    d="M218.57 40.4199C219.141 41.6224 220.53 41.6999 220.53 41.6999">
</path>
<path d="M168.409 40.7129C167.159 55.3163 179.514 50.5692 179.514 50.5692C179.514 50.5692 171.621 66.5979 189.284 65.2606C206.946 63.9232 211.766 51.3766 211.084 44.2026C210.812 41.3425 209.334 39.1276 207.642 36.9904C217.322 35.503 217.174 28.8636 217.174 28.8636C217.174 28.8636 232.694 34.8931 232.569 23.0016C232.444 11.11 220.202 7.29771 212.967 7.42282C211.443 7.45467 209.932 7.71705 208.487 8.2001C203.829 9.71529 200.221 12.185 194.041 12.2823C176.966 12.5522 175.326 28.676 175.326 28.676C175.326 28.676 169.249 30.8283 168.409 40.7129Z"   fill="#24272D" >
</path>
<path d="M212.646 39.0829L212.649 39.082C214.763 38.1909 215.754 35.7553 214.863 33.642L213.395 30.1606C212.504 28.0472 210.067 27.0563 207.953 27.9474L207.951 27.9485C205.837 28.8393 204.846 31.275 205.737 33.3884L207.205 36.8695C208.096 38.983 210.533 39.9738 212.646 39.0829Z"   fill="#EA6F57" >
</path>
<path    stroke="rgba(37, 40, 45, 1)" stroke-width="0.75"    d="M210.99 35.5101L208.9 30.5801">
</path>
<path d="M306.89 114.92L280.719 121.888L276.72 122.95C275.665 122.95 274.62 122.743 273.645 122.34C272.67 121.936 271.785 121.345 271.04 120.599C270.292 119.853 269.702 118.968 269.3 117.993C268.895 117.019 268.69 115.975 268.69 114.92L306.89 114.92Z"   fill="#FFC774" >
</path>
<path d="M255.03 106.89C256.881 106.89 258.38 105.39 258.38 103.54C258.38 101.69 256.881 100.19 255.03 100.19C253.181 100.19 251.68 101.69 251.68 103.54C251.68 105.39 253.181 106.89 255.03 106.89Z"   fill="#FFC774" >
</path>
<path d="M300.657 101.03L268.53 126.444L284.843 147.06L316.97 121.646L300.657 101.03Z"   fill="#EA6F57" >
</path>
<path    stroke="rgba(255, 255, 255, 1)" stroke-width="0.75"    d="M272.24 127.37L293.688 125.225L300.73 104.83">
</path>
<path    stroke="rgba(255, 255, 255, 1)" stroke-width="0.75"    d="M285.33 142L288.43 128.73">
</path>
<path    stroke="rgba(255, 255, 255, 1)" stroke-width="0.75"    d="M312.09 120.94L298.46 120.871">
</path>
<path d="M306.89 114.91L268.69 114.91C268.69 113.855 268.895 112.811 269.297 111.836C269.703 110.861 270.292 109.976 271.04 109.23C271.785 108.484 272.67 107.892 273.645 107.489C274.62 107.086 275.665 106.879 276.72 106.88L280.72 107.945L306.89 114.91Z"   fill="#FFC774" >
</path>
<path    stroke="rgba(255, 255, 255, 1)" stroke-width="0.75"    d="M229.92 94.9899L209.943 80.1097L205.18 66.3599">
</path>
<path    stroke="rgba(255, 255, 255, 1)" stroke-width="0.75"    d="M197.22 97.2901C197.22 97.2901 192.137 94.3248 190.821 90.4496C189.506 86.5741 184.32 69.6001 184.32 69.6001">
</path>
<path    stroke="rgba(255, 255, 255, 1)" stroke-width="0.75"    d="M212.36 153.87L209.57 158.987L212.36 162.53">
</path>
<path d="M129.903 176.411L103.583 159.88C96.5024 155.434 90.3683 149.637 85.5284 142.82C80.6896 136.002 77.2405 128.299 75.3789 120.147C73.5162 111.997 73.2785 103.56 74.6784 95.3175C76.0771 87.0748 79.0862 79.1889 83.5326 72.1089C85.1622 69.5191 87.7528 67.681 90.7356 66.9998C93.7185 66.3186 96.8504 66.8497 99.4421 68.4753L169.897 112.725C178.342 118.03 184.334 126.471 186.555 136.193C188.776 145.914 187.045 156.121 181.741 164.566C176.437 173.012 167.997 179.004 158.275 181.225C148.553 183.447 138.348 181.715 129.903 176.411Z"   fill="#FFC774" >
</path>
<g  mask="url(#mask-Imaeh8P9IE)">
<path    stroke="rgba(255, 161, 97, 1)" stroke-width="7.75"  stroke-linecap="round"  d="M181.93 128.03L197.68 112.29">
</path>
<path    stroke="rgba(255, 161, 97, 1)" stroke-width="7.75"  stroke-linecap="round"  d="M215.18 145.53L201.27 131.62">
</path>
<path    stroke="rgba(255, 161, 97, 1)" stroke-width="7.75"  stroke-linecap="round"  d="M139.44 181.96L125.53 168.05">
</path>
<path    stroke="rgba(255, 161, 97, 1)" stroke-width="7.75"  stroke-linecap="round"  d="M177.79 145.53L163.88 131.62">
</path>
<path    stroke="rgba(255, 161, 97, 1)" stroke-width="7.75"  stroke-linecap="round"  d="M177.79 108.15L163.88 94.2402">
</path>
<path    stroke="rgba(255, 161, 97, 1)" stroke-width="7.75"  stroke-linecap="round"  d="M125.3 130.98L141.04 146.72">
</path>
<path    stroke="rgba(255, 161, 97, 1)" stroke-width="7.75"  stroke-linecap="round"  d="M162.2 168.88L177.94 184.63">
</path>
<path    stroke="rgba(255, 161, 97, 1)" stroke-width="7.75"  stroke-linecap="round"  d="M107.8 164.23L121.71 150.32">
</path>
<path    stroke="rgba(255, 161, 97, 1)" stroke-width="7.75"  stroke-linecap="round"  d="M184.8 165.22L198.71 151.31">
</path>
<path    stroke="rgba(255, 161, 97, 1)" stroke-width="7.75"  stroke-linecap="round"  d="M145.49 165.22L159.4 151.31">
</path>
<path    stroke="rgba(255, 161, 97, 1)" stroke-width="7.75"  stroke-linecap="round"  d="M145.19 126.84L159.1 112.93">
</path>
<path    stroke="rgba(255, 161, 97, 1)" stroke-width="7.75"  stroke-linecap="round"  d="M107.13 89.7998L122.87 74.0498">
</path>
<path    stroke="rgba(255, 161, 97, 1)" stroke-width="7.75"  stroke-linecap="round"  d="M140.37 107.3L126.46 93.3901">
</path>
<path    stroke="rgba(255, 161, 97, 1)" stroke-width="7.75"  stroke-linecap="round"  d="M64.64 143.72L50.73 129.81">
</path>
<path    stroke="rgba(255, 161, 97, 1)" stroke-width="7.75"  stroke-linecap="round"  d="M102.99 107.3L89.08 93.3901">
</path>
<path    stroke="rgba(255, 161, 97, 1)" stroke-width="7.75"  stroke-linecap="round"  d="M102.99 69.91L89.08 56">
</path>
<path    stroke="rgba(255, 161, 97, 1)" stroke-width="7.75"  stroke-linecap="round"  d="M50.5 92.7402L66.24 108.49">
</path>
<path    stroke="rgba(255, 161, 97, 1)" stroke-width="7.75"  stroke-linecap="round"  d="M87.39 130.64L103.13 146.38">
</path>
<path    stroke="rgba(255, 161, 97, 1)" stroke-width="7.75"  stroke-linecap="round"  d="M33 125.99L46.91 112.08">
</path>
<path    stroke="rgba(255, 161, 97, 1)" stroke-width="7.75"  stroke-linecap="round"  d="M109.99 126.99L123.9 113.08">
</path>
<path    stroke="rgba(255, 161, 97, 1)" stroke-width="7.75"  stroke-linecap="round"  d="M70.69 126.99L84.6 113.08">
</path>
<path    stroke="rgba(255, 161, 97, 1)" stroke-width="7.75"  stroke-linecap="round"  d="M70.38 88.5999L84.29 74.6899">
</path>
</g>
<path    stroke="rgba(255, 255, 255, 1)" stroke-width="0.75"    d="M118.24 80.0898L170.555 113.003C170.555 113.003 176.428 117.153 179.13 121.37">
</path>
<defs>
<mask id="mask-pFJ6EiWGJW" style="mask-type:alpha" maskUnits="userSpaceOnUse">
<path d="M130.752 146.747C125.065 140.62 120.64 133.433 117.73 125.595C114.821 117.758 113.483 109.426 113.794 101.071C114.104 92.717 116.058 84.5058 119.542 76.907C123.026 69.3082 127.973 62.47 134.1 56.7824C136.344 54.6999 139.323 53.5941 142.382 53.7079C145.44 53.8216 148.33 55.1461 150.412 57.3897L207.007 118.358C213.792 125.666 217.395 135.371 217.024 145.336C216.653 155.302 212.34 164.713 205.031 171.497C197.722 178.282 188.018 181.885 178.052 181.515C168.087 181.144 158.677 176.829 151.892 169.521L130.752 146.747Z"   fill="#000000" >
</path>
</mask>
<mask id="mask-Imaeh8P9IE" style="mask-type:alpha" maskUnits="userSpaceOnUse">
<path d="M85.5284 142.57C80.6896 135.752 77.2405 128.049 75.3789 119.897C73.5173 111.747 73.2785 103.31 74.6784 95.0675C76.0771 86.8248 79.0862 78.9389 83.5326 71.8589C85.1622 69.2691 87.7528 67.431 90.7356 66.7498C93.7185 66.0686 96.8504 66.5997 99.4421 68.2253L169.897 112.475C178.342 117.78 184.334 126.221 186.555 135.943C188.777 145.664 187.045 155.871 181.741 164.316C176.437 172.762 167.997 178.754 158.275 180.975C148.553 183.197 138.348 181.465 129.903 176.161L103.583 159.63C96.5024 155.184 90.3683 149.387 85.5284 142.57Z"   fill="#000000" >
</path>
</mask>
</defs>
</svg>
