<svg xmlns="http://www.w3.org/2000/svg" xmlns:xlink="http://www.w3.org/1999/xlink" width="438.02777099609375" height="273.1240234375" viewBox="0 0 438.02777099609375 273.1240234375" fill="none">
<path d="M230.914 103.504C253.161 103.504 271.194 85.4697 271.194 63.2238C271.194 40.978 253.161 22.9438 230.914 22.9438C208.668 22.9438 190.634 40.978 190.634 63.2238C190.634 85.4697 208.668 103.504 230.914 103.504Z"   fill="#E9EEF2" >
</path>
<path d="M284.144 219.044L177.684 219.044L218.05 60.0239L243.778 60.0239L284.144 219.044Z"   fill="#E9EEF2" >
</path>
<path d="M350.364 59.5938L350.364 114.054L312.304 114.054L312.304 73.3863L326.1 59.5938L350.364 59.5938Z"   fill="#E9EEF2" >
</path>
<path d="M326.104 59.5938L326.104 73.3838L312.304 73.3838L326.104 59.5938Z"   fill="#DCE2E5" >
</path>
<path d="M331.334 87.8139C333.975 87.8139 336.114 85.6738 336.114 83.0339C336.114 80.394 333.975 78.2539 331.334 78.2539C328.693 78.2539 326.554 80.394 326.554 83.0339C326.554 85.6738 328.693 87.8139 331.334 87.8139Z"   fill="#DCE2E5" >
</path>
<path d="M337.654 101.534L325.014 101.534L329.806 82.6538L332.861 82.6538L337.654 101.534Z"   fill="#DCE2E5" >
</path>
<path d="M341.644 68.2739L341.644 122.734L303.584 122.734L303.584 82.0665L317.38 68.2739L341.644 68.2739Z"   fill="#E9EEF2" >
</path>
<path d="M317.384 68.2739L317.384 82.0639L303.584 82.0639L317.384 68.2739Z"   fill="#DCE2E5" >
</path>
<path d="M322.604 96.4936C325.245 96.4936 327.384 94.3535 327.384 91.7136C327.384 89.0737 325.245 86.9336 322.604 86.9336C319.963 86.9336 317.824 89.0737 317.824 91.7136C317.824 94.3535 319.963 96.4936 322.604 96.4936Z"   fill="#DCE2E5" >
</path>
<path d="M328.924 110.224L316.284 110.224L321.076 91.3438L324.131 91.3438L328.924 110.224Z"   fill="#DCE2E5" >
</path>
<path d="M137.893 122.464L137.895 122.464C140.507 122.464 142.624 120.348 142.624 117.737L142.624 72.0614C142.624 69.4504 140.507 67.334 137.895 67.334L137.893 67.334C135.281 67.334 133.164 69.4504 133.164 72.0614L133.164 117.737C133.164 120.348 135.281 122.464 137.893 122.464Z"   fill="#DCE2E5" >
</path>
<path d="M124.321 108.164C122.445 108.164 120.924 109.686 120.924 111.564C120.924 113.441 122.445 114.964 124.321 114.964L137.347 114.964C139.223 114.964 140.744 113.441 140.744 111.564C140.744 109.686 139.223 108.164 137.347 108.164L124.321 108.164Z"   fill="#DCE2E5" >
</path>
<path d="M129.562 98.354C127.685 98.354 126.164 99.8761 126.164 101.754C126.164 103.632 127.685 105.154 129.562 105.154L138.615 105.154C140.492 105.154 142.014 103.632 142.014 101.754C142.014 99.8761 140.492 98.354 138.615 98.354L129.562 98.354Z"   fill="#DCE2E5" >
</path>
<path d="M150.464 44.9236C153.796 48.2562 155.664 52.7807 155.664 57.4936C155.664 61.0082 154.626 64.4412 152.674 67.3636C150.721 70.2857 147.941 72.5684 144.694 73.9136C141.447 75.2585 137.871 75.6096 134.424 74.9236C130.977 74.2381 127.809 72.549 125.324 70.0636C122.839 67.5783 121.149 64.4103 120.464 60.9636C119.778 57.5166 120.129 53.9406 121.474 50.6936C122.819 47.4467 125.102 44.6662 128.024 42.7136C130.946 40.7614 134.379 39.7236 137.894 39.7236C142.607 39.7236 147.131 41.591 150.464 44.9236ZM146.924 53.7536C147.664 55.539 147.85 57.4983 147.474 59.3936C147.097 61.2888 146.171 63.037 144.804 64.4036C143.438 65.7703 141.699 66.6967 139.804 67.0736C137.909 67.451 135.939 67.2632 134.154 66.5236C132.369 65.7844 130.848 64.5304 129.774 62.9236C128.7 61.3169 128.124 59.4261 128.124 57.4936C128.124 54.9036 129.153 52.4253 130.984 50.5936C132.815 48.762 135.304 47.7236 137.894 47.7236C139.826 47.7236 141.717 48.3003 143.324 49.3736C144.931 50.447 146.184 51.9685 146.924 53.7536Z" fill-rule="evenodd"  fill="#DCE2E5" >
</path>
<path d="M369.564 31.1136C371.816 31.1136 373.644 29.2868 373.644 27.0336C373.644 24.7803 371.816 22.9536 369.564 22.9536L330.144 22.9536C327.892 22.9536 326.064 24.7803 326.064 27.0336C326.064 29.2868 327.892 31.1136 330.144 31.1136L369.564 31.1136Z"   fill="#E9EEF2" >
</path>
<path d="M361.304 38.7323C361.304 40.3514 362.616 41.664 364.233 41.664C365.852 41.664 367.164 40.3514 367.164 38.7323L367.164 27.4956C367.164 25.8766 365.852 24.564 364.233 24.564C362.616 24.564 361.304 25.8766 361.304 27.4956L361.304 38.7323Z"   fill="#E9EEF2" >
</path>
<path d="M352.844 34.2219C352.844 35.8412 354.156 37.1539 355.775 37.1539C357.392 37.1539 358.704 35.8412 358.704 34.2219L358.704 26.4158C358.704 24.7966 357.392 23.4839 355.775 23.4839C354.156 23.4839 352.844 24.7966 352.844 26.4158L352.844 34.2219Z"   fill="#E9EEF2" >
</path>
<path d="M309.064 14.2838C311.584 12.5985 314.552 11.6938 317.584 11.6938C319.596 11.6938 321.584 12.0931 323.444 12.8638C325.306 13.6343 327.002 14.7598 328.424 16.1838C329.849 17.6079 330.974 19.3031 331.744 21.1638C332.514 23.0246 332.914 25.0197 332.914 27.0338C332.914 30.0665 332.019 33.0222 330.334 35.5438C328.652 38.0655 326.256 40.0327 323.454 41.1938C320.654 42.3544 317.569 42.6652 314.594 42.0738C311.62 41.4822 308.886 40.0183 306.744 37.8738C304.599 35.7294 303.136 32.9985 302.544 30.0238C301.952 27.0495 302.264 23.9662 303.424 21.1638C304.584 18.3618 306.544 15.9692 309.064 14.2838ZM314.784 33.7938C313.444 33.239 312.302 32.2992 311.494 31.0938C310.689 29.8885 310.254 28.4736 310.254 27.0238C310.254 25.0805 311.028 23.2179 312.404 21.8438C313.779 20.4698 315.638 19.6938 317.584 19.6938C319.034 19.6938 320.456 20.1284 321.664 20.9338C322.869 21.7393 323.809 22.8745 324.364 24.2138C324.919 25.5532 325.066 27.032 324.784 28.4538C324.499 29.8756 323.799 31.179 322.774 32.2038C321.748 33.229 320.447 33.9312 319.024 34.2138C317.601 34.4968 316.124 34.3486 314.784 33.7938Z" fill-rule="evenodd"  fill="#E9EEF2" >
</path>
<path d="M49.7789 171.074C57.5967 171.074 63.9339 164.736 63.9339 156.919C63.9339 149.101 57.5967 142.764 49.7789 142.764C41.9614 142.764 35.6239 149.101 35.6239 156.919C35.6239 164.736 41.9614 171.074 49.7789 171.074Z"   fill="#DCE2E5" >
</path>
<path d="M38.759 50.8839C49.5698 50.8839 58.334 42.1198 58.334 31.3089C58.334 20.498 49.5698 11.7339 38.759 11.7339C27.9481 11.7339 19.184 20.498 19.184 31.3089C19.184 42.1198 27.9481 50.8839 38.759 50.8839Z"   fill="#E9EEF2" >
</path>
<path d="M72.8539 236.764L26.7039 236.764L35.5079 199.068L38.1103 187.928L44.2021 161.844L55.3556 161.844L61.4474 187.928L64.0498 199.068L72.8539 236.764Z"   fill="#DCE2E5" >
</path>
<path d="M403.304 68.4437C412.995 68.4437 420.854 60.5863 420.854 50.8937C420.854 41.2012 412.995 33.3438 403.304 33.3438C393.612 33.3438 385.754 41.2012 385.754 50.8937C385.754 60.5863 393.612 68.4437 403.304 68.4437Z"   fill="#DCE2E5" >
</path>
<path d="M432.264 112.104L374.344 112.104L396.304 55.6738L410.303 55.6738L432.264 112.104Z"   fill="#DCE2E5" >
</path>
<path d="M371.689 189.864C382.218 189.864 390.754 181.328 390.754 170.799C390.754 160.27 382.218 151.734 371.689 151.734C361.16 151.734 352.624 160.27 352.624 170.799C352.624 181.328 361.16 189.864 371.689 189.864Z"   fill="#E9EEF2" >
</path>
<path d="M396.874 244.544L346.494 244.544L365.597 169.284L377.771 169.284L396.874 244.544Z"   fill="#E9EEF2" >
</path>
<path d="M426.564 145.054C431.259 145.054 435.064 141.248 435.064 136.554C435.064 131.859 431.259 128.054 426.564 128.054C421.869 128.054 418.064 131.859 418.064 136.554C418.064 141.248 421.869 145.054 426.564 145.054Z" stroke="rgba(233, 238, 242, 1)" stroke-width="2.5"   >
</path>
<path    stroke="rgba(233, 238, 242, 1)" stroke-width="2.5"    d="M417.524 162.284L423.644 144.534">
</path>
<path    stroke="rgba(233, 238, 242, 1)" stroke-width="2.5"    d="M422.604 162.664L417.654 160.914">
</path>
<path    stroke="rgba(233, 238, 242, 1)" stroke-width="2.5"    d="M423.994 157.124L419.824 155.634">
</path>
<path d="M85.9489 20.5338C89.8508 20.5338 93.0139 17.3707 93.0139 13.4688C93.0139 9.56695 89.8508 6.40381 85.9489 6.40381C82.0471 6.40381 78.8839 9.56695 78.8839 13.4688C78.8839 17.3707 82.0471 20.5338 85.9489 20.5338Z" stroke="rgba(233, 238, 242, 1)" stroke-width="2.5"   >
</path>
<path    stroke="rgba(233, 238, 242, 1)" stroke-width="2.5"    d="M101.644 29.814L90.7739 18.624">
</path>
<path    stroke="rgba(233, 238, 242, 1)" stroke-width="2.5"    d="M103.834 26.1836L100.684 29.2036">
</path>
<path    stroke="rgba(233, 238, 242, 1)" stroke-width="2.5"    d="M100.244 23.084L97.574 25.624">
</path>
<path d="M311.059 175.424C314.823 175.424 317.874 172.373 317.874 168.609C317.874 164.845 314.823 161.794 311.059 161.794C307.295 161.794 304.244 164.845 304.244 168.609C304.244 172.373 307.295 175.424 311.059 175.424Z" stroke="rgba(233, 238, 242, 1)" stroke-width="2.5"   >
</path>
<path    stroke="rgba(233, 238, 242, 1)" stroke-width="2.5"    d="M323.354 186.684L314.964 174.194">
</path>
<path    stroke="rgba(233, 238, 242, 1)" stroke-width="2.5"    d="M319.504 188.024L322.974 185.644">
</path>
<path    stroke="rgba(233, 238, 242, 1)" stroke-width="2.5"    d="M317.294 184.024L320.214 182.004">
</path>
<path    stroke="rgba(233, 238, 242, 1)" stroke-width="2.5"    d="M22.5839 181.644L0.883911 159.944">
</path>
<path    stroke="rgba(233, 238, 242, 1)" stroke-width="2.5"    d="M433.584 22.5838L411.884 0.883789">
</path>
<path    stroke="rgba(233, 238, 242, 1)" stroke-width="2.5"    d="M102.214 143.634L80.5139 121.934">
</path>
<path    stroke="rgba(233, 238, 242, 1)" stroke-width="2.5"    d="M437.144 229.894L415.444 208.194">
</path>
<path    stroke="rgba(233, 238, 242, 1)" stroke-width="2.5"    d="M177.504 32.2039L155.804 10.5039">
</path>
<path    stroke="rgba(233, 238, 242, 1)" stroke-width="2.5"    d="M80.824 83.9238L101.904 62.8438">
</path>
<path    stroke="rgba(233, 238, 242, 1)" stroke-width="2.5"    d="M303.264 248.984L324.334 227.904">
</path>
<path    stroke="rgba(233, 238, 242, 1)" stroke-width="2.5"    d="M135.314 247.274L117.004 228.964">
</path>
<path d="M47.3039 37.1938L30.2239 37.1938L30.2239 94.1138L47.3039 94.1138L47.3039 37.1938Z"   fill="#E9EEF2" >
</path>
<path d="M332.924 76.9536L332.924 131.414L294.864 131.414L294.864 90.7462L308.66 76.9536L332.924 76.9536Z"   fill="#E9EEF2" >
</path>
<path d="M308.664 76.9536L308.664 90.7436L294.864 90.7436L308.664 76.9536Z"   fill="#DCE2E5" >
</path>
<path d="M313.884 105.174C316.525 105.174 318.664 103.034 318.664 100.394C318.664 97.7539 316.525 95.6138 313.884 95.6138C311.243 95.6138 309.104 97.7539 309.104 100.394C309.104 103.034 311.243 105.174 313.884 105.174Z"   fill="#DCE2E5" >
</path>
<path d="M320.214 118.904L307.574 118.904L312.366 100.024L315.422 100.024L320.214 118.904Z"   fill="#DCE2E5" >
</path>
<path    stroke="rgba(255, 255, 255, 1)" stroke-width="0.75"  stroke-linecap="square"  d="M308.654 76.9487L332.914 76.9487">
</path>
<path    stroke="rgba(255, 255, 255, 1)" stroke-width="0.75"  stroke-linecap="square"  d="M332.919 76.9536L332.919 123.444">
</path>
<path    stroke="rgba(255, 255, 255, 1)" stroke-width="0.75"  stroke-linecap="square"  d="M317.374 68.2686L341.634 68.2686">
</path>
<path    stroke="rgba(255, 255, 255, 1)" stroke-width="0.75"  stroke-linecap="square"  d="M341.639 68.2739L341.639 114.054">
</path>
<path d="M91.6639 193.492C91.6639 194.969 91.0777 196.385 90.0339 197.43C88.9906 198.475 87.5751 199.062 86.0983 199.064L35.5139 199.064L38.1165 187.914L86.0983 187.914C86.83 187.914 87.5549 188.059 88.2309 188.339C88.9064 188.62 89.5207 189.031 90.0372 189.549C90.5544 190.067 90.9643 190.682 91.2433 191.359C91.5224 192.036 91.665 192.76 91.6639 193.492Z"   fill="#E9EEF2" >
</path>
<path d="M124.174 193.504C124.174 197.644 122.944 201.691 120.644 205.134C118.344 208.577 115.08 211.259 111.254 212.844C107.429 214.428 103.215 214.842 99.154 214.034C95.093 213.226 91.3615 211.232 88.434 208.304C85.506 205.376 83.5116 201.645 82.704 197.584C81.8959 193.523 82.3096 189.309 83.894 185.484C85.4787 181.658 88.1614 178.394 91.604 176.094C95.0469 173.794 99.1034 172.564 103.244 172.564C108.796 172.564 114.118 174.768 118.044 178.694C121.97 182.62 124.174 187.952 124.174 193.504ZM94.144 199.564C92.943 197.767 92.304 195.656 92.304 193.494C92.304 190.596 93.4644 187.813 95.514 185.764C97.5638 183.715 100.336 182.564 103.234 182.564C105.396 182.564 107.507 183.203 109.304 184.404C111.101 185.605 112.507 187.317 113.334 189.314C114.161 191.311 114.376 193.504 113.954 195.624C113.532 197.744 112.493 199.696 110.964 201.224C109.435 202.752 107.484 203.793 105.364 204.214C103.244 204.636 101.051 204.421 99.054 203.594C97.057 202.767 95.3449 201.362 94.144 199.564Z" fill-rule="evenodd"  fill="#E9EEF2" >
</path>
<path d="M246.05 172.544L229.913 108.544L178.636 108.134L178.454 183.671L170.654 261.634L200.393 261.634L211.493 170.286L216.743 194.286L212.701 261.634L243.188 261.634L247.48 187.635C247.775 182.56 247.292 177.471 246.05 172.544Z"   fill="#274992" >
</path>
<path    stroke="rgba(255, 255, 255, 1)" stroke-width="0.75"  stroke-linecap="square"  d="M215.084 136.204L211.644 172.264">
</path>
<path d="M283.731 16.203L284.231 16.4057C284.356 16.4563 284.471 16.5328 284.566 16.6302C284.661 16.7275 284.733 16.8435 284.781 16.9711C284.828 17.0985 284.848 17.2341 284.838 17.3698C284.83 17.5054 284.793 17.6378 284.73 17.7581C283.303 20.5083 278.829 28.6109 278.981 28.6685L279.249 28.9183L288.35 16.6831C288.485 16.4892 288.688 16.3515 288.917 16.2957C289.148 16.24 289.39 16.2703 289.6 16.3807L290.277 16.7431C290.395 16.8046 290.497 16.8891 290.58 16.9917C290.662 17.0941 290.722 17.2127 290.757 17.3395C290.792 17.4666 290.802 17.5993 290.782 17.7299C290.765 17.8602 290.72 17.9855 290.652 18.0982C288.903 21.0232 282.153 30.4484 282.303 30.5135L282.648 30.7785L291.317 21.0532C291.46 20.8493 291.677 20.7081 291.92 20.6592C292.165 20.6104 292.42 20.6575 292.63 20.7907L293.15 21.1232C293.257 21.192 293.352 21.2812 293.425 21.3859C293.497 21.4906 293.549 21.6092 293.577 21.7339C293.605 21.859 293.607 21.9881 293.585 22.114C293.562 22.2403 293.517 22.3606 293.447 22.4683L285.338 32.171L285.65 32.5561L292.929 26.0234C293.087 25.8451 293.304 25.7306 293.542 25.7021C293.777 25.6736 294.017 25.7327 294.212 25.8683L294.462 26.0407C294.669 26.1872 294.812 26.4085 294.857 26.6577C294.904 26.9069 294.852 27.1646 294.712 27.3758C293.712 28.8933 290.375 31.6261 287.875 34.8185C285.935 37.2912 285.103 39.5163 282.321 42.3638C281.146 43.5712 279.256 44.8389 278.221 45.5538L270.125 40.8437L269.572 37.7211C269.41 36.198 269.327 34.6676 269.322 33.136C269.322 30.7435 270.62 27.7583 268.41 23.7907C266.2 19.8231 270.66 22.2208 271.79 24.0934C272.744 25.6559 272.754 29.176 273.837 30.3434C274.287 30.0195 274.689 29.6329 275.029 29.196L282.528 16.6231C282.643 16.4198 282.831 16.2653 283.051 16.188C283.271 16.1109 283.513 16.1162 283.731 16.203Z"   fill="#3361C2" >
</path>
<path d="M214.409 261.634L208.644 273.124L260.484 273.124L238.89 261.634L214.409 261.634Z"   fill="#162C56" >
</path>
<path d="M172.416 261.634L166.654 273.124L218.484 273.124L196.894 261.634L172.416 261.634Z"   fill="#162C56" >
</path>
<path d="M271.604 85.6517C274.407 83.5355 276.364 80.4887 277.122 77.0601L284.284 44.6639L266.717 40.0039L254.103 66.893C254.103 66.893 234.353 59.7207 208.976 60.2785C179.062 60.9357 164.83 82.3198 158.727 96.2115C158.167 97.4862 157.929 98.8801 158.04 100.269C158.15 101.657 158.605 102.996 159.36 104.166C160.116 105.336 161.15 106.298 162.371 106.969C163.593 107.64 164.96 107.998 166.353 108.009L229.908 108.534L236.266 87.097L261.832 88.6095C265.337 88.8171 268.802 87.7686 271.604 85.6517Z"   fill="#EF6E45" >
</path>
<g  mask="url(#mask-tNjp6Zbw6x)">
<path    stroke="rgba(255, 161, 97, 1)" stroke-width="7.75"  stroke-linecap="round"  d="M182.304 84.1242L165.694 67.5142">
</path>
<path    stroke="rgba(255, 161, 97, 1)" stroke-width="7.75"  stroke-linecap="round"  d="M210.364 51.814L191.954 70.224">
</path>
<path    stroke="rgba(255, 161, 97, 1)" stroke-width="7.75"  stroke-linecap="round"  d="M210.854 76.124L222.154 87.424">
</path>
<path    stroke="rgba(255, 161, 97, 1)" stroke-width="7.75"  stroke-linecap="round"  d="M245.304 52.8643L228.914 69.2543">
</path>
<path    stroke="rgba(255, 161, 97, 1)" stroke-width="7.75"  stroke-linecap="round"  d="M268.314 95.0641L249.434 76.1841">
</path>
<path    stroke="rgba(255, 161, 97, 1)" stroke-width="7.75"  stroke-linecap="round"  d="M290.134 49.124L271.544 67.714">
</path>
<path    stroke="rgba(255, 161, 97, 1)" stroke-width="7.75"  stroke-linecap="round"  d="M249.494 28.7441L269.394 48.6441">
</path>
<path    stroke="rgba(255, 161, 97, 1)" stroke-width="7.75"  stroke-linecap="round"  d="M190.254 99.454L200.844 88.874">
</path>
<path    stroke="rgba(255, 161, 97, 1)" stroke-width="7.75"  stroke-linecap="round"  d="M147.414 109.314L165.714 91.0142">
</path>
<path    stroke="rgba(255, 161, 97, 1)" stroke-width="7.75"  stroke-linecap="round"  d="M231.074 118.544L216.874 104.344">
</path>
<path    stroke="rgba(255, 255, 255, 1)" stroke-width="3.5"  stroke-linecap="square"  d="M204.494 106.534L235.234 107.044">
</path>
</g>
<path    stroke="rgba(51, 97, 194, 1)" stroke-width="16.25" stroke-linejoin="round" stroke-linecap="round"  d="M211.824 61.9137L212.604 33.3438">
</path>
<path d="M223.758 53.0184C225.374 52.3006 226.811 51.2353 227.969 49.8985C229.126 48.5617 229.974 46.9862 230.454 45.2842C230.933 43.5818 231.031 41.7948 230.741 40.0506L229.309 31.4151C228.845 28.6242 227.414 26.086 225.265 24.246C223.117 22.406 220.389 21.3825 217.56 21.3547C215.981 21.3383 214.413 21.6336 212.948 22.2235C211.482 22.8131 210.147 23.6858 209.019 24.7914C207.891 25.8973 206.991 27.2145 206.372 28.668C205.752 30.1215 205.425 31.683 205.41 33.2627L205.334 41.868C205.303 45.0344 206.52 48.0856 208.723 50.3602C210.925 52.6348 213.935 53.9494 217.1 54.0187L218.62 54.0514C220.388 54.0887 222.142 53.7362 223.758 53.0184Z"   fill="#3361C2" >
</path>
<path d="M203.109 44.5295C204.574 46.4866 207.346 46.8857 209.302 45.421C211.257 43.9565 211.655 41.1829 210.191 39.226L208.689 37.2182C207.224 35.2611 204.452 34.862 202.496 36.3267C200.541 37.7912 200.143 40.565 201.607 42.5217L203.109 44.5295Z"   fill="#3361C2" >
</path>
<path    stroke="rgba(255, 255, 255, 1)" stroke-width="0.75"  stroke-linecap="square"  d="M206.344 42.8939L203.304 39.7139">
</path>
<path    stroke="rgba(255, 255, 255, 1)" stroke-width="0.75"  stroke-linecap="square"  d="M224.501 35.4136L225.384 42.3859L222.914 42.7136">
</path>
<path d="M216.67 45.4194C216.326 46.2249 216.315 47.1345 216.64 47.9481C216.966 48.7617 217.601 49.4124 218.405 49.7573C219.21 50.1022 220.119 50.1129 220.931 49.7873C221.744 49.4614 222.394 48.826 222.739 48.0204C223.456 46.3447 221.709 45.7695 220.033 45.0492C218.357 44.3289 217.387 43.7436 216.67 45.4194Z"   fill="#FFFFFF" >
</path>
<path d="M209.948 42.3636L212.158 29.4371L212.68 26.3689C213.504 27.1012 214.442 27.6925 215.457 28.1193C219.145 29.6895 229.679 27.9667 230.457 20.3982C231.102 14.2249 224.982 18.298 221.65 18.2205C216.417 18.0956 212.54 15.3751 205.803 19.8557C197.736 25.2213 202.783 36.1078 202.783 36.1078C202.783 36.1078 206.398 34.3226 209.948 42.3636Z"   fill="#24272D" >
</path>
<path d="M220.124 54.0537L215.594 54.0562L220.064 57.6837L220.124 54.0537Z"   fill="#24272D" >
</path>
<path d="M218.419 38.4236C219.101 38.4236 219.654 37.8707 219.654 37.1886C219.654 36.5065 219.101 35.9536 218.419 35.9536C217.737 35.9536 217.184 36.5065 217.184 37.1886C217.184 37.8707 217.737 38.4236 218.419 38.4236Z"   fill="#FFFFFF" >
</path>
<path d="M227.409 38.4236C228.091 38.4236 228.644 37.8707 228.644 37.1886C228.644 36.5065 228.091 35.9536 227.409 35.9536C226.727 35.9536 226.174 36.5065 226.174 37.1886C226.174 37.8707 226.727 38.4236 227.409 38.4236Z"   fill="#FFFFFF" >
</path>
<path d="M181.455 152.598L181.204 152.551C177.543 151.863 174.017 154.273 173.329 157.933L153.181 265.074C152.493 268.735 154.902 272.26 158.563 272.951L158.814 272.995C162.475 273.686 166 271.276 166.689 267.615L186.837 160.473C187.525 156.812 185.115 153.287 181.455 152.598Z"   fill="#FFBA5F" >
</path>
<path d="M157.528 253.045L157.481 253.295C156.793 256.958 159.203 260.484 162.863 261.171L174.584 263.377C178.245 264.064 181.771 261.656 182.459 257.993L182.506 257.743C183.195 254.08 180.785 250.554 177.125 249.866L165.403 247.661C161.742 246.973 158.217 249.383 157.528 253.045Z"   fill="#FFBA5F" >
</path>
<path d="M165.468 233.963L165.421 234.214C164.733 237.874 167.143 241.399 170.803 242.088L186.325 245.006C189.985 245.695 193.511 243.285 194.199 239.625L194.247 239.374C194.935 235.714 192.525 232.188 188.865 231.5L173.343 228.581C169.682 227.893 166.157 230.302 165.468 233.963Z"   fill="#FFBA5F" >
</path>
<path d="M154.834 135.164C155.203 127.268 158.607 119.812 164.324 114.354C170.042 108.896 177.639 105.854 185.544 105.854C187.461 105.854 189.371 106.028 191.254 106.384C199.021 107.853 205.919 112.26 210.524 118.684C215.129 125.109 217.088 133.058 215.984 140.884C214.88 148.71 210.806 155.814 204.604 160.714C198.402 165.614 190.543 167.941 182.674 167.204C174.804 166.467 167.529 162.721 162.344 156.754C157.159 150.788 154.466 143.059 154.834 135.164ZM185.604 151.534C184.664 151.534 183.737 151.448 182.814 151.274C179.156 150.583 175.885 148.546 173.644 145.574C171.403 142.601 170.342 138.901 170.684 135.194C171.025 131.487 172.737 128.037 175.484 125.524C178.231 123.011 181.821 121.615 185.544 121.604C186.48 121.604 187.414 121.69 188.334 121.864C191.992 122.555 195.262 124.592 197.504 127.564C199.745 130.536 200.805 134.237 200.464 137.944C200.123 141.651 198.41 145.101 195.664 147.614C192.917 150.128 189.327 151.522 185.604 151.534Z" fill-rule="evenodd"  fill="#FFBA5F" >
</path>
<path d="M193.964 106.876L198.48 110.768C198.48 110.768 196.837 122.46 202.071 122.46C202.071 122.46 201.863 124.312 202.891 124.617C203.919 124.922 207.302 120.897 207.302 120.897C207.302 120.897 211.405 119.897 212.636 116.203C213.866 112.508 215.099 103.588 213.968 102.769C212.838 101.948 200.94 100.204 200.94 100.204C200.94 100.204 195.914 100.204 193.964 106.876Z"   fill="#3361C2" >
</path>
<path    stroke="rgba(255, 255, 255, 1)" stroke-width="0.75"  stroke-linecap="square"  d="M184.414 89.2539L203.334 98.9739">
</path>
<path    stroke="rgba(255, 255, 255, 1)" stroke-width="0.75"  stroke-linecap="square"  d="M200.974 78.6436L188.214 90.8236">
</path>
<path    stroke="rgba(255, 255, 255, 1)" stroke-width="0.75"  stroke-linecap="square"  d="M237.804 82.8936L235.544 91.7636">
</path>
<path    stroke="rgba(255, 255, 255, 1)" stroke-width="0.75"  stroke-linecap="square"  d="M203.684 99.1338C194.221 100.206 193.874 107.384 193.874 107.384">
</path>
<path    stroke="rgba(255, 255, 255, 1)" stroke-width="0.75"  stroke-linecap="square"  d="M219.806 189.864L216.734 194.286L220.114 197.904">
</path>
<path    stroke="rgba(255, 255, 255, 1)" stroke-width="0.75"  stroke-linecap="square"  d="M178.544 166.904C176.194 166.371 172.194 164.654 172.194 164.654">
</path>
<path    stroke="rgba(255, 255, 255, 1)" stroke-width="0.75"  stroke-linecap="square"  d="M159.394 247.774L156.314 263.874">
</path>
<path    stroke="rgba(255, 255, 255, 1)" stroke-width="0.75"  stroke-linecap="square"  d="M161.544 237.314L160.164 244.494">
</path>
<defs>
<mask id="mask-tNjp6Zbw6x" style="mask-type:alpha" maskUnits="userSpaceOnUse">
<path d="M162.371 106.969C163.593 107.64 164.96 107.998 166.353 108.009L193.602 108.226L229.908 108.534L236.266 87.097L261.832 88.6095C265.337 88.8171 268.802 87.7686 271.604 85.6517C274.407 83.5355 276.364 80.4887 277.122 77.0601L284.284 44.6639L266.717 40.0039L254.103 66.893C254.103 66.893 234.353 59.7207 208.976 60.2785C179.062 60.9357 164.83 82.3198 158.727 96.2115C158.167 97.4862 157.929 98.8801 158.04 100.269C158.15 101.657 158.605 102.996 159.36 104.166C160.116 105.336 161.15 106.298 162.371 106.969Z"   fill="#000000" >
</path>
</mask>
</defs>
</svg>
