<svg xmlns="http://www.w3.org/2000/svg" xmlns:xlink="http://www.w3.org/1999/xlink" width="406.52001953125" height="371.429931640625" viewBox="0 0 406.52001953125 371.429931640625" fill="none">
<path d="M363.79 208.59C363.79 298.524 290.884 371.43 200.95 371.43C111.016 371.43 38.1101 298.524 38.1101 208.59C38.1101 118.656 111.016 45.75 200.95 45.75C290.884 45.75 363.79 118.656 363.79 208.59Z"   fill="#5C87C6" >
</path>
<path d="M406.52 292.546C406.52 312.809 315.517 329.236 203.26 329.236C91.0026 329.236 0 312.809 0 292.546C0 272.283 91.0026 255.856 203.26 255.856C315.517 255.856 406.52 272.283 406.52 292.546Z"   fill="#FFFFFF" >
</path>
<path d="M83.1197 311.786C59.7597 306.996 31.9097 298.496 31.9097 285.246C31.9097 279.176 37.5897 273.676 48.9097 268.676C86.1897 260.836 141.58 255.866 203.33 255.866C265.08 255.866 320.4 260.836 357.68 268.676C368.97 273.636 374.68 279.176 374.68 285.246C374.68 298.496 346.84 306.996 323.47 311.786C291.3 318.386 248.68 322.016 203.3 322.016C157.92 322.016 115.24 318.386 83.1197 311.786ZM72.7597 265.136C109.21 259.596 155.56 256.546 203.29 256.546C251.02 256.546 297.34 259.596 333.78 265.136C367.05 273.466 370.64 281.966 370.64 285.246C370.64 293.246 352.7 301.696 322.64 307.876C290.78 314.416 248.38 318.016 203.27 318.016C158.16 318.016 115.76 314.416 83.8997 307.876C53.8297 301.696 35.8997 293.236 35.8997 285.246C35.8997 281.966 39.4997 273.466 72.7597 265.136Z" fill-rule="evenodd"  fill="#CEDDF0" >
</path>
<path d="M203.26 329.236C141.97 329.236 87.01 324.346 49.75 316.596L49.75 318.406C49.7424 323.452 53.3386 327.785 58.3 328.706C95.17 335.476 146.5 339.706 203.3 339.706C260.1 339.706 311.38 335.506 348.3 328.706C353.259 327.781 356.854 323.451 356.85 318.406L356.85 316.596C319.5 324.346 264.55 329.236 203.26 329.236Z"   fill="#FFFFFF" >
</path>
<path d="M49.75 316.596L49.75 320.446C87.01 328.186 141.97 333.086 203.26 333.086C264.55 333.086 319.5 328.186 356.77 320.446L356.77 316.596C319.5 324.346 264.55 329.236 203.26 329.236C141.97 329.236 87.01 324.346 49.75 316.596Z"   fill="#CEDDF0" >
</path>
<g style="mix-blend-mode:multiply">
<path d="M134.72 311.406C143.85 314.466 157.08 316.266 171.72 316.006C179.137 315.917 186.537 315.248 193.85 314.006C201.22 312.73 208.776 313.013 216.03 314.836C226.436 317.184 237.096 318.219 247.76 317.916C275.13 317.436 297.2 310.006 297.05 301.306C296.9 292.606 274.57 285.896 247.19 286.386C234.09 286.616 222.19 288.386 213.4 291.226C204.58 286.916 188.94 284.226 171.16 284.516C163.106 284.629 155.077 285.432 147.16 286.916C139.55 281.386 121.85 277.716 101.29 278.076C73.9198 278.556 51.8498 285.986 51.9998 294.686C52.1498 303.386 74.4598 310.046 101.84 309.566C105.58 309.496 109.22 309.306 112.72 308.996C120.141 308.27 127.632 309.091 134.72 311.406Z"   fill="#521306" >
</path>
</g>
<path d="M336.76 291.066C336.76 302.691 292.808 312.116 238.59 312.116C184.372 312.116 140.42 302.691 140.42 291.066C140.42 279.44 184.372 270.016 238.59 270.016C292.808 270.016 336.76 279.44 336.76 291.066Z"   fill="#580D10" >
</path>
<path d="M282.3 314.056C283.501 315.219 284.961 316.079 286.56 316.566C293.311 318.609 300.46 314.895 302.67 308.196C302.72 308.036 302.77 307.876 302.81 307.726C303.135 306.387 304.009 305.246 305.216 304.582C306.424 303.918 307.855 303.793 309.16 304.236C310.944 304.887 312.861 305.086 314.74 304.816C321.428 303.9 326.303 298.018 325.96 291.276C325.96 290.976 325.91 290.686 325.87 290.396C325.73 289.073 326.123 287.749 326.962 286.717C327.801 285.685 329.017 285.03 330.34 284.896C332.112 284.712 333.836 284.21 335.43 283.416C341.81 280.316 344.08 272.326 340.75 266.056C340.66 265.886 340.57 265.716 340.47 265.546C339.771 264.351 339.6 262.919 339.996 261.592C340.392 260.266 341.32 259.163 342.56 258.546C343.91 257.876 345.125 256.96 346.14 255.846C348.564 253.154 349.738 249.562 349.37 245.958C349.002 242.354 347.128 239.073 344.21 236.926C343.066 236.087 342.332 234.802 342.191 233.391C342.05 231.979 342.515 230.574 343.47 229.526C344.638 228.341 345.494 226.884 345.96 225.286C347.572 219.661 345.226 213.652 340.23 210.606L227.48 301.526C228.195 305.526 230.76 308.953 234.398 310.766C238.035 312.578 242.315 312.564 245.94 310.726L246.24 310.566C247.424 309.861 248.847 309.676 250.172 310.054C251.497 310.433 252.607 311.342 253.24 312.566C255.108 316.329 258.698 318.941 262.854 319.561C267.009 320.18 271.205 318.73 274.09 315.676C274.378 315.357 274.648 315.023 274.9 314.676C275.757 313.549 277.051 312.839 278.462 312.72C279.873 312.602 281.267 313.088 282.3 314.056Z"   fill="#FCF1DB" >
</path>
<path d="M299.69 291.426C282.768 300.944 262.459 302.333 244.4 295.206C265.444 306.641 291.246 304.62 310.254 290.05C329.262 275.48 337.915 251.088 332.34 227.796C335.242 253.642 322.378 278.711 299.69 291.426Z"   fill="#F8DEAA" >
</path>
<path     fill="#F8DEAA"  d="M300.188 253.12C301 252.473 301.135 251.29 300.488 250.478C299.841 249.665 298.659 249.531 297.846 250.178L261.207 279.343C260.395 279.99 260.26 281.172 260.907 281.985C261.553 282.797 262.736 282.931 263.549 282.285L300.188 253.12">
</path>
<path d="M307.45 246.356C307.45 247.411 306.595 248.266 305.54 248.266C304.485 248.266 303.63 247.411 303.63 246.356C303.63 245.301 304.485 244.446 305.54 244.446C306.595 244.446 307.45 245.301 307.45 246.356Z"   fill="#F8DEAA" >
</path>
<path d="M266.93 306.246L265.8 313.786C265.714 314.359 265.329 314.843 264.79 315.056C264.25 315.268 263.638 315.177 263.185 314.816C262.731 314.455 262.504 313.879 262.59 313.306L263.71 305.766C263.828 305.097 264.348 304.572 265.016 304.447C265.684 304.322 266.358 304.625 266.71 305.206L266.74 305.246C266.905 305.552 266.971 305.901 266.93 306.246Z"   fill="#F8DEAA" >
</path>
<path d="M292.11 302.246C292.366 302.499 292.531 302.829 292.58 303.186L293.58 310.746C293.699 311.634 293.073 312.452 292.185 312.571C291.296 312.69 290.479 312.064 290.36 311.176L289.36 303.616C289.271 302.927 289.629 302.257 290.252 301.948C290.874 301.639 291.624 301.758 292.12 302.246L292.11 302.246Z"   fill="#F8DEAA" >
</path>
<path d="M313.34 290.176C313.695 290.232 314.022 290.404 314.27 290.666L319.51 296.206C319.908 296.628 320.051 297.23 319.885 297.785C319.719 298.341 319.27 298.766 318.705 298.9C318.141 299.035 317.548 298.858 317.15 298.436L311.9 292.896C311.291 292.239 311.322 291.215 311.97 290.596C312.335 290.248 312.842 290.092 313.34 290.176Z"   fill="#F8DEAA" >
</path>
<path d="M328.34 271.056C328.677 270.989 329.026 271.027 329.34 271.166L336.26 274.366C337.088 274.741 337.455 275.718 337.08 276.546C336.705 277.374 335.728 277.741 334.9 277.366L327.98 274.166C327.354 273.872 326.981 273.215 327.051 272.526C327.121 271.838 327.617 271.268 328.29 271.106L328.34 271.056Z"   fill="#F8DEAA" >
</path>
<path d="M334.91 246.366C335.176 246.096 335.532 245.933 335.91 245.906L343.47 244.906C344.336 244.84 345.102 245.464 345.211 246.326C345.32 247.188 344.735 247.984 343.88 248.136L336.31 249.076C335.883 249.13 335.452 249.011 335.112 248.747C334.773 248.482 334.552 248.093 334.5 247.666C334.436 247.193 334.586 246.716 334.91 246.366Z"   fill="#F8DEAA" >
</path>
<path d="M259.12 259.676C258.421 258.481 258.249 257.049 258.645 255.722C259.041 254.396 259.97 253.293 261.21 252.676C262.563 252.006 263.781 251.091 264.8 249.976C269.367 245.028 269.266 237.372 264.57 232.546C264.043 232.001 263.471 231.503 262.86 231.056C261.716 230.217 260.982 228.932 260.841 227.521C260.699 226.11 261.164 224.705 262.12 223.656C263.288 222.471 264.144 221.014 264.61 219.416C266.221 213.791 263.876 207.782 258.88 204.736L146.2 295.696C146.906 299.702 149.471 303.135 153.112 304.947C156.753 306.76 161.038 306.737 164.66 304.886L164.95 304.726C166.14 304.025 167.568 303.847 168.894 304.235C170.22 304.624 171.326 305.543 171.95 306.776C173.818 310.537 177.407 313.148 181.561 313.765C185.714 314.383 189.908 312.931 192.79 309.876C193.08 309.566 193.35 309.256 193.61 308.876C194.467 307.749 195.761 307.039 197.172 306.921C198.583 306.802 199.977 307.288 201.01 308.256C202.205 309.419 203.662 310.277 205.26 310.756C212.014 312.833 219.186 309.107 221.37 302.386C221.37 302.236 221.47 302.076 221.51 301.926C221.835 300.587 222.708 299.446 223.916 298.782C225.124 298.119 226.555 297.993 227.86 298.436C229.643 299.087 231.561 299.283 233.44 299.006C240.124 298.091 244.997 292.214 244.66 285.476C244.66 285.176 244.66 284.886 244.58 284.596C244.402 283.268 244.772 281.926 245.603 280.876C246.435 279.826 247.657 279.158 248.99 279.026C250.761 278.842 252.485 278.34 254.08 277.546C260.46 274.446 262.73 266.456 259.41 260.186L259.12 259.676Z"   fill="#FCF1DB" >
</path>
<path d="M218.4 285.596C201.481 295.11 181.177 296.498 163.12 289.376C184.161 300.786 209.945 298.753 228.938 284.187C247.932 269.621 256.582 245.247 251.02 221.966C253.925 247.805 241.074 272.871 218.4 285.596Z"   fill="#F8DEAA" >
</path>
<path     fill="#F8DEAA"  d="M218.887 247.283C219.699 246.637 219.833 245.454 219.187 244.642C218.54 243.829 217.357 243.695 216.545 244.342L179.906 273.507C179.093 274.153 178.959 275.336 179.606 276.148C180.252 276.961 181.435 277.095 182.247 276.449L218.887 247.283">
</path>
<path d="M226.16 240.526C226.16 241.581 225.305 242.436 224.25 242.436C223.195 242.436 222.34 241.581 222.34 240.526C222.34 239.471 223.195 238.616 224.25 238.616C225.305 238.616 226.16 239.471 226.16 240.526Z"   fill="#F8DEAA" >
</path>
<path d="M181.3 307.486L182.42 299.936C182.541 299.269 183.063 298.746 183.73 298.624C184.397 298.501 185.07 298.805 185.42 299.386L185.45 299.416C185.622 299.719 185.689 300.071 185.64 300.416L184.51 307.966C184.424 308.539 184.039 309.023 183.5 309.236C182.96 309.448 182.348 309.357 181.895 308.996C181.441 308.635 181.214 308.059 181.3 307.486Z"   fill="#F8DEAA" >
</path>
<path d="M210.82 296.416C211.078 296.667 211.243 296.999 211.29 297.356L212.29 304.916C212.379 305.792 211.757 306.581 210.883 306.698C210.01 306.814 209.203 306.215 209.06 305.346L208.06 297.786C208 297.359 208.113 296.925 208.374 296.582C208.635 296.238 209.022 296.013 209.45 295.956C209.953 295.893 210.457 296.063 210.82 296.416Z"   fill="#F8DEAA" >
</path>
<path d="M247.02 265.226C247.356 265.152 247.707 265.191 248.02 265.336L254.95 268.536C255.701 268.949 256.005 269.873 255.643 270.651C255.282 271.429 254.38 271.794 253.58 271.486L246.66 268.286C246.033 267.99 245.662 267.331 245.734 266.642C245.807 265.954 246.306 265.386 246.98 265.226L247.02 265.226Z"   fill="#F8DEAA" >
</path>
<path d="M253.62 240.536C253.889 240.269 254.242 240.103 254.62 240.066L262.19 239.126C263.052 239.069 263.809 239.695 263.915 240.552C264.021 241.41 263.44 242.201 262.59 242.356L255.02 243.296C254.593 243.35 254.162 243.231 253.822 242.967C253.483 242.702 253.262 242.313 253.21 241.886C253.13 241.397 253.281 240.898 253.62 240.536Z"   fill="#F8DEAA" >
</path>
<path d="M119.72 302.406C120.919 303.564 122.375 304.42 123.97 304.906C130.724 306.955 137.88 303.24 140.09 296.536C140.09 296.386 140.18 296.226 140.22 296.076C140.545 294.737 141.418 293.595 142.625 292.93C143.832 292.265 145.263 292.136 146.57 292.576C148.355 293.236 150.277 293.436 152.16 293.156C158.844 292.236 163.713 286.355 163.37 279.616C163.358 279.321 163.331 279.028 163.29 278.736C163.112 277.409 163.482 276.068 164.314 275.019C165.145 273.971 166.368 273.305 167.7 273.176C169.474 272.987 171.2 272.486 172.8 271.696C179.17 268.596 181.44 260.596 178.12 254.336C178.03 254.166 177.93 253.996 177.83 253.826C177.132 252.629 176.961 251.197 177.359 249.87C177.758 248.543 178.688 247.441 179.93 246.826C183.525 245.006 186.039 241.584 186.7 237.609C187.362 233.634 186.092 229.582 183.28 226.696C182.754 226.148 182.181 225.646 181.57 225.196C180.429 224.357 179.697 223.074 179.556 221.666C179.415 220.257 179.878 218.854 180.83 217.806C182 216.622 182.855 215.165 183.32 213.566C184.933 207.943 182.592 201.935 177.6 198.886L64.9097 289.896C65.1343 291.138 65.5385 292.341 66.1097 293.466C67.6522 296.501 70.3378 298.799 73.575 299.853C76.8123 300.907 80.3358 300.631 83.3697 299.086L83.6597 298.926C84.8438 298.221 86.2664 298.036 87.5916 298.414C88.9167 298.793 90.0268 299.702 90.6597 300.926C92.5275 304.687 96.1167 307.297 100.271 307.915C104.424 308.533 108.618 307.081 111.5 304.026C111.79 303.716 112.07 303.396 112.32 303.026C113.177 301.899 114.471 301.189 115.882 301.07C117.292 300.952 118.687 301.438 119.72 302.406Z"   fill="#FCF1DB" >
</path>
<path d="M163.34 281.896C163.423 281.176 163.447 280.45 163.41 279.726L147.13 292.836C147.81 293.051 148.51 293.199 149.22 293.276L163.34 281.896Z"   fill="#E9B349" >
</path>
<path d="M244.62 287.706C244.685 287.155 244.715 286.601 244.71 286.046L228.91 298.786C229.442 298.921 229.983 299.018 230.53 299.076L244.62 287.706Z"   fill="#E9B349" >
</path>
<path d="M137.12 279.766C120.197 289.279 99.8902 290.667 81.8298 283.546C102.871 294.956 128.655 292.923 147.648 278.357C166.642 263.791 175.292 239.416 169.73 216.136C172.639 241.973 159.793 267.04 137.12 279.766Z"   fill="#F8DEAA" >
</path>
<path     fill="#F8DEAA"  d="M137.602 241.455C138.414 240.808 138.548 239.625 137.902 238.813C137.255 238.001 136.072 237.866 135.26 238.513L98.6207 267.678C97.8083 268.325 97.674 269.508 98.3206 270.32C98.9673 271.132 100.15 271.267 100.962 270.62L137.602 241.455">
</path>
<path d="M144.87 234.696C144.87 235.751 144.015 236.606 142.96 236.606C141.905 236.606 141.05 235.751 141.05 234.696C141.05 233.641 141.905 232.786 142.96 232.786C144.015 232.786 144.87 233.641 144.87 234.696Z"   fill="#F8DEAA" >
</path>
<path d="M104.16 293.586C104.332 293.889 104.399 294.241 104.35 294.586L103.23 302.136C103.057 302.986 102.25 303.552 101.392 303.424C100.534 303.296 99.9267 302.519 100.01 301.656L101.14 294.106C101.202 293.68 101.43 293.296 101.776 293.039C102.121 292.782 102.554 292.673 102.98 292.736C103.487 292.814 103.925 293.13 104.16 293.586Z"   fill="#F8DEAA" >
</path>
<path d="M129.53 290.586C129.788 290.837 129.954 291.169 130 291.526L131 299.086C131.119 299.975 130.494 300.792 129.605 300.911C128.716 301.03 127.899 300.405 127.78 299.516L126.78 291.956C126.662 291.064 127.288 290.245 128.18 290.126C128.677 290.061 129.176 290.231 129.53 290.586Z"   fill="#F8DEAA" >
</path>
<path d="M150.77 278.506C151.125 278.564 151.451 278.736 151.7 278.996L156.94 284.536C157.384 284.949 157.561 285.575 157.401 286.159C157.241 286.744 156.769 287.192 156.177 287.321C155.585 287.451 154.969 287.241 154.58 286.776L149.34 281.236C148.863 280.73 148.759 279.977 149.082 279.361C149.404 278.745 150.082 278.402 150.77 278.506Z"   fill="#F8DEAA" >
</path>
<path d="M165.73 259.396C166.066 259.324 166.417 259.363 166.73 259.506L173.65 262.706C174.478 263.084 174.843 264.063 174.465 264.891C174.087 265.719 173.108 266.084 172.28 265.706L165.36 262.506C164.734 262.21 164.363 261.551 164.435 260.862C164.507 260.174 165.006 259.606 165.68 259.446L165.73 259.396Z"   fill="#F8DEAA" >
</path>
<path d="M172.34 234.696C172.595 234.444 172.925 234.283 173.28 234.236L180.85 233.296C181.738 233.186 182.549 233.817 182.66 234.706C182.77 235.595 182.138 236.406 181.25 236.516L173.68 237.516C173.253 237.57 172.822 237.451 172.482 237.187C172.143 236.922 171.922 236.533 171.87 236.106C171.792 235.588 171.967 235.064 172.34 234.696Z"   fill="#F8DEAA" >
</path>
<path d="M232.06 284.346C232.417 284.398 232.745 284.571 232.99 284.836L238.23 290.376C238.846 291.028 238.816 292.055 238.165 292.671C237.513 293.287 236.486 293.258 235.87 292.606L230.63 287.066C230.013 286.414 230.04 285.385 230.69 284.766C231.055 284.418 231.562 284.262 232.06 284.346Z"   fill="#F8DEAA" >
</path>
<path d="M59.3199 215.026C59.3199 218.119 56.8127 220.626 53.7199 220.626C50.6271 220.626 48.1199 218.119 48.1199 215.026C48.1199 211.933 50.6271 209.426 53.7199 209.426C56.8127 209.426 59.3199 211.933 59.3199 215.026Z"   fill="#580D10" >
</path>
<path d="M350.5 112.476L94.0099 94.2361L93.4399 100.896L349.57 123.156L350.5 112.476L350.5 112.476Z"   fill="#30A663" >
</path>
<path d="M93.9599 94.8559L93.4399 100.896L234.83 113.186L236.64 104.376L94.0799 94.2458L93.9599 94.8559L93.9599 94.8559Z"   fill="#152040" >
</path>
<path d="M346.28 138.036L93.1799 92.676L91.8999 99.236L344.22 148.566L346.28 138.036L346.28 138.036Z"   fill="#30A663" >
</path>
<path d="M298.47 118.716L301.11 118.946L302.28 109.046L299.63 108.856L298.47 118.716L298.47 118.716Z"   fill="#FCF1DB" >
</path>
<path d="M307.35 119.486L310 119.716L311.18 109.686L308.53 109.496L307.35 119.486L307.35 119.486Z"   fill="#FCF1DB" >
</path>
<path d="M109.64 186.196C109.703 188.477 110.332 190.708 111.47 192.686C115.508 199.638 123.697 203.032 131.47 200.976L148.65 2.97594C147.212 2.00967 145.638 1.2647 143.98 0.765939C139.505 -0.598163 134.672 -0.127241 130.546 2.07493C126.419 4.27709 123.337 8.02976 121.98 12.5059L121.86 12.9459C121.431 14.8029 120.248 16.3973 118.595 17.3461C116.943 18.2949 114.969 18.5122 113.15 17.9459C107.649 16.2236 101.653 17.2976 97.0921 20.8225C92.5311 24.3474 89.98 29.8784 90.2597 35.6359C90.2597 36.2159 90.3497 36.7859 90.4297 37.3559C90.7328 39.2752 90.2067 41.2328 88.9822 42.7415C87.7578 44.2501 85.9502 45.1678 84.0097 45.2659C81.7221 45.3509 79.4874 45.9781 77.4897 47.0959C69.0291 51.8256 65.9157 62.4603 70.4897 71.0059L70.8197 71.5859C71.8376 73.1799 72.1379 75.1285 71.6471 76.955C71.1562 78.7814 69.9195 80.317 68.2397 81.1859C65.8944 82.3377 63.8734 84.0562 62.3597 86.1859C56.8942 93.6816 58.0854 104.115 65.0997 110.186C65.4097 110.446 65.7297 110.696 66.0997 110.936C67.5844 112.021 68.5639 113.663 68.8129 115.485C69.0619 117.307 68.5589 119.152 67.4197 120.596C65.9203 122.525 64.7759 124.706 64.0397 127.036C61.0397 136.296 66.8097 146.146 76.1697 148.806L76.9497 149.016C78.7845 149.471 80.3509 150.661 81.2799 152.308C82.209 153.954 82.4187 155.91 81.8597 157.716C81.2425 159.69 80.995 161.762 81.1297 163.826C81.4905 168.774 83.9229 173.34 87.8282 176.4C91.7335 179.46 96.7489 180.729 101.64 179.896C103.556 179.549 105.528 180.04 107.058 181.245C108.588 182.449 109.528 184.252 109.64 186.196Z"   fill="#FCF1DB" >
</path>
<path d="M90.0198 84.0558C96.6823 58.2608 114.606 36.837 138.82 25.7258C107.523 35.7128 85.0278 63.1725 81.3955 95.8224C77.7632 128.472 93.6735 160.205 122.01 176.826C93.6633 155.148 81.06 118.598 90.0198 84.0558Z"   fill="#F8DEAA" >
</path>
<path d="M293.88 138.716L296.49 139.226L298.7 129.516L296.08 129.046L293.88 138.716L293.88 138.716Z"   fill="#FCF1DB" >
</path>
<path d="M302.64 140.436L305.24 140.946L307.48 131.086L304.87 130.616L302.64 140.436L302.64 140.436Z"   fill="#FCF1DB" >
</path>
<path d="M107.66 38.2961C107.179 38.1696 106.754 37.8884 106.45 37.4961L100.06 29.2161C99.3063 28.2419 99.4856 26.8394 100.46 26.0861C101.434 25.3327 102.836 25.5119 103.59 26.4861L109.98 34.7761C110.559 35.53 110.597 36.5686 110.074 37.3627C109.551 38.1568 108.581 38.5316 107.66 38.2961Z"   fill="#F8DEAA" >
</path>
<path d="M86.5097 66.2659C86.0183 66.276 85.5372 66.125 85.1397 65.8359L76.6897 59.6459C75.6963 58.9174 75.4812 57.5193 76.2097 56.5259C76.9382 55.5324 78.3363 55.3174 79.3297 56.0459L87.7697 62.2359C88.5158 62.806 88.8249 63.7823 88.5428 64.6779C88.2607 65.5734 87.4478 66.1964 86.5097 66.2359L86.5097 66.2659Z"   fill="#F8DEAA" >
</path>
<path d="M78.28 98.766C77.8859 99.0652 77.4047 99.2268 76.91 99.226L66.44 99.146C65.2092 99.146 64.21 98.1468 64.21 96.916C64.21 95.6853 65.2092 94.686 66.44 94.686L76.9 94.756C77.8525 94.763 78.6955 95.3744 78.9981 96.2776C79.3007 97.1809 78.9961 98.1766 78.24 98.756L78.28 98.766Z"   fill="#F8DEAA" >
</path>
<path d="M82.9797 131.746C82.7278 132.171 82.3404 132.498 81.8797 132.676L72.1297 136.486C71.3791 136.821 70.5051 136.716 69.8554 136.212C69.2057 135.709 68.8856 134.889 69.0224 134.078C69.1592 133.268 69.7308 132.598 70.5097 132.336L80.2597 128.516C81.4084 128.073 82.699 128.64 83.1497 129.786C83.403 130.43 83.3401 131.155 82.9797 131.746Z"   fill="#F8DEAA" >
</path>
<path d="M90.88 168.856L97.13 160.466C97.7036 159.716 98.6871 159.409 99.5854 159.699C100.484 159.989 101.102 160.812 101.13 161.756L101.15 161.756C101.162 162.252 101.007 162.738 100.71 163.136L94.45 171.526C93.983 172.191 93.1912 172.549 92.3834 172.461C91.5755 172.373 90.8796 171.853 90.5668 171.103C90.2541 170.353 90.3741 169.492 90.88 168.856Z"   fill="#F8DEAA" >
</path>
<path d="M129.927 123.557C131.297 123.684 132.525 122.717 132.727 121.357L135.497 91.5867C137.297 91.1618 139.151 91.0068 140.997 91.1267L133.117 181.937C126.895 178.86 123.064 172.412 123.337 165.477C123.35 161.523 121.72 157.742 118.837 155.037C111.362 147.9 111.027 136.075 118.087 128.527C121.566 124.864 122.898 119.66 121.607 114.777C119.436 106.667 122.9 98.0994 130.097 93.7767L127.577 120.877C127.524 122.251 128.557 123.429 129.927 123.557ZM131.613 133.341C131.439 134.013 131.001 134.59 130.403 134.941C129.804 135.292 129.094 135.387 128.423 135.211C127.03 134.845 126.198 133.424 126.563 132.031C126.927 130.638 128.349 129.798 129.743 130.161C131.136 130.524 131.974 131.947 131.613 133.341Z" fill-rule="evenodd"  fill="#580D10" >
</path>
<path     fill="#F8DEAA"  d="M127.664 120.819C127.532 122.238 128.575 123.495 129.994 123.627L130.004 123.628C131.423 123.76 132.68 122.716 132.812 121.298L138.76 57.3035C138.891 55.8847 137.848 54.6277 136.429 54.4958L136.42 54.4949C135.001 54.363 133.744 55.4062 133.612 56.825L127.664 120.819">
</path>
<path d="M131.7 132.686C131.7 134.133 130.527 135.306 129.08 135.306C127.633 135.306 126.46 134.133 126.46 132.686C126.46 131.239 127.633 130.066 129.08 130.066C130.527 130.066 131.7 131.239 131.7 132.686Z"   fill="#F8DEAA" >
</path>
<path d="M93.0599 93.286L91.8999 99.236L231.19 126.466L233.92 117.906L93.2399 92.686L93.0599 93.286L93.0599 93.286Z"   fill="#152040" >
</path>
<path d="M55.0697 243.836C51.7775 242.047 50.4249 238.02 51.9697 234.606C52.8006 232.838 54.3329 231.497 56.196 230.908C58.0591 230.32 60.0835 230.536 61.7797 231.506C65.3697 233.556 67.9197 233.686 71.0997 228.556C72.9369 225.522 74.0236 222.094 74.2697 218.556C75.0897 208.036 78.4397 200.276 84.2697 195.476C84.9075 194.942 85.5752 194.444 86.2697 193.986C88.674 192.455 91.7255 192.372 94.21 193.769C96.6944 195.166 98.2085 197.816 98.1497 200.666L98.1497 200.666C98.1052 202.994 97.0005 205.174 95.1497 206.586C91.0469 209.724 88.5222 214.499 88.2397 219.656C87.8173 225.426 86.0206 231.012 82.9997 235.946C77.4897 244.896 69.5297 248.466 60.9597 246.236C58.9022 245.69 56.9228 244.884 55.0697 243.836Z"   fill="#580D10" >
</path>
</svg>
