<svg xmlns="http://www.w3.org/2000/svg" xmlns:xlink="http://www.w3.org/1999/xlink" width="325.679931640625" height="354.72998046875" viewBox="0 0 325.679931640625 354.72998046875" fill="none">
<path d="M325.68 191.89C325.68 281.824 252.774 354.73 162.84 354.73C72.906 354.73 0 281.824 0 191.89C0 101.956 72.906 29.05 162.84 29.05C252.774 29.05 325.68 101.956 325.68 191.89Z"   fill="#5C87C6" >
</path>
<path d="M317.375 93.887C317.215 87.597 306.825 82.087 294.165 81.577C281.505 81.067 271.375 85.757 271.535 92.057C271.695 98.357 282.075 103.857 294.735 104.367C307.395 104.877 317.525 100.197 317.375 93.887Z"   fill="#E99606" >
</path>
<path d="M294.685 102.137C284.505 101.727 276.145 97.2971 276.025 92.2371C275.905 87.177 284.025 83.397 294.225 83.8071C304.425 84.217 312.755 88.647 312.875 93.707C312.995 98.7671 304.855 102.547 294.685 102.137Z"   fill="#E99606" >
</path>
<path d="M286.77 153.443C286.77 204.612 226.584 246.093 152.34 246.093C78.0963 246.093 17.9099 204.612 17.9099 153.443C17.9099 102.274 78.0963 60.7927 152.34 60.7927C226.584 60.7927 286.77 102.274 286.77 153.443Z"   fill="#DE653C" >
</path>
<path d="M286.77 153.443C286.77 204.612 226.584 246.093 152.34 246.093C78.0963 246.093 17.9099 204.612 17.9099 153.443C17.9099 102.274 78.0963 60.7927 152.34 60.7927C226.584 60.7927 286.77 102.274 286.77 153.443Z"   fill="#E99606" >
</path>
<path d="M270.625 214.757C257.895 231.757 240.375 247.427 219.025 259.757C198.025 271.917 175.975 279.207 155.165 281.837L161.065 340.837C161.256 342.811 162.883 344.336 164.865 344.397C191.865 345.167 223.095 337.187 252.645 320.127C284.155 301.937 307.645 276.947 319.985 251.487C320.815 249.708 320.23 247.589 318.605 246.487L270.625 214.757Z"   fill="#580D10" >
</path>
<path d="M267.437 86.8584C291.906 129.24 261.895 192.376 200.406 227.877C138.917 263.378 69.2339 257.8 44.765 215.418C20.296 173.037 50.3069 109.901 111.796 74.3999C173.285 38.8991 242.968 44.4769 267.437 86.8584Z"   fill="#42090D" >
</path>
<path d="M274.925 121.807C273.615 116.3 271.513 111.011 268.685 106.107C245.755 66.3869 180.445 61.1069 122.815 94.4369C65.1854 127.767 37.0554 186.877 59.9854 226.597C63.26 232.252 67.4541 237.321 72.3954 241.597C105.245 257.807 154.505 253.787 199.395 227.867C245.505 201.257 273.915 159.097 274.925 121.807Z"   fill="#CB2600" >
</path>
<path d="M274.925 121.807C273.615 116.3 271.513 111.011 268.685 106.107C245.755 66.3869 180.445 61.1069 122.815 94.4369C65.1854 127.767 37.0554 186.877 59.9854 226.597C63.26 232.252 67.4541 237.321 72.3954 241.597C105.245 257.807 154.505 253.787 199.395 227.867C245.505 201.257 273.915 159.097 274.925 121.807Z"   fill="#CB2600" >
</path>
<path d="M274.505 111.767C273.41 109.105 272.099 106.536 270.585 104.087C247.445 66.7572 181.585 61.8372 123.435 93.0872C65.2852 124.337 36.9252 179.987 60.0552 217.327L60.1552 217.487C65.8094 226.449 74.5555 233.025 84.7352 235.967C117.175 245.527 160.645 240.077 200.735 218.527C233.985 200.647 258.105 175.297 269.535 149.527C274.065 136.687 275.865 123.857 274.505 111.767Z"   fill="#FF5527" >
</path>
<path d="M83.1553 81.307L83.4753 81.307L84.3353 81.187L84.8653 81.097L85.5453 80.987L86.1353 80.867L86.7853 80.737L87.4053 80.607L88.0453 80.457L88.6953 80.307L89.3253 80.147L89.9953 79.967L90.6253 79.787L91.3253 79.587L91.9453 79.387L92.6553 79.167L93.2653 78.967L94.0153 78.707L94.5453 78.517L96.2553 77.887L96.6753 77.717L97.4853 77.387C97.6753 77.307 97.8753 77.237 98.0653 77.147L98.8553 76.817C105.214 74.0475 111.198 70.4859 116.665 66.217L116.665 66.217C118.676 64.6481 120.59 62.9583 122.395 61.157L122.395 61.157C122.655 60.907 122.905 60.647 123.145 60.387L123.295 60.237L123.975 59.517L124.145 59.327L124.785 58.607L124.855 58.527C125.295 58.027 125.705 57.527 126.105 57.027C126.145 56.9828 126.182 56.9361 126.215 56.887L126.635 56.347L126.945 55.937L127.285 55.457L127.625 54.977L127.915 54.557C128.045 54.367 128.165 54.177 128.285 53.977L128.495 53.647C128.885 53.027 129.235 52.407 129.495 51.807L129.565 51.667C129.695 51.407 129.825 51.137 129.945 50.877C129.945 50.877 129.945 50.767 130.015 50.707C130.135 50.447 130.245 50.197 130.345 49.937L130.395 49.817C131.475 47.017 131.685 44.467 130.845 42.367L130.845 42.367C130.724 42.0601 130.581 41.7626 130.415 41.477C126.185 34.147 108.895 36.207 91.8053 46.077C74.7153 55.947 64.2753 69.887 68.5053 77.217C68.8045 77.7188 69.1638 78.1823 69.5753 78.597L70.0453 79.037L70.2253 79.187C70.3553 79.297 70.4853 79.407 70.6253 79.507L70.8153 79.637C70.9653 79.737 71.1153 79.837 71.2753 79.927L71.4553 80.037L72.0053 80.317L72.1553 80.397C72.6637 80.6312 73.1884 80.8284 73.7253 80.987L73.7253 80.987C73.9853 81.067 74.2453 81.137 74.5153 81.197L74.7453 81.197L75.4053 81.337L75.7053 81.337L76.3353 81.427L76.6853 81.427L77.2953 81.427L77.6853 81.427L78.3153 81.427L79.7853 81.427L80.4653 81.427L80.8853 81.427L81.6553 81.427L82.0153 81.427L83.1553 81.307Z"   fill="#E99606" >
</path>
<path d="M270.145 81.667L270.135 81.657L270.135 81.657L270.145 81.667L270.145 81.667Z"   fill="#580D10" >
</path>
<path d="M201.445 231.417C145.935 263.417 84.0353 263.497 51.6953 234.417L69.2953 254.417L69.2953 254.417C96.9053 290.017 161.575 292.997 219.045 259.817C276.225 226.727 305.975 169.607 289.445 127.947L289.445 127.887C289.175 127.217 288.895 126.537 288.605 125.887L278.605 101.887C288.605 144.657 257.545 199.037 201.445 231.417Z"   fill="#580D10" >
</path>
<path d="M270.145 81.667L270.135 81.657L270.135 81.657L270.145 81.667L270.145 81.667Z"   fill="#580D10" >
</path>
<path d="M104.745 118.947L82.3553 94.6069C40.6953 130.717 23.4353 180.227 43.7553 215.427C43.7553 215.427 14.3553 145.807 104.745 118.947Z"   fill="#580D10" >
</path>
<path d="M140.355 60.6369C142.945 64.9869 146.105 69.8969 149.875 75.1469C163.825 45.2069 226.745 56.8469 226.745 56.8469L227.445 56.4169C202.895 48.1169 171.665 49.3569 140.355 60.6369Z"   fill="#580D10" >
</path>
<path d="M62.0552 153.947C64.1092 154.252 65.9581 155.36 67.1952 157.027C70.6386 161.673 76.9942 163.042 82.0452 160.227C84.0327 159.094 86.3141 158.582 88.5952 158.757C89.9147 158.86 91.2421 158.769 92.5352 158.487C98.3282 157.208 102.575 152.249 102.948 146.328C103.322 140.407 99.7315 134.954 94.1452 132.957C91.6746 132.027 89.915 129.814 89.5652 127.197C89.5693 127.154 89.5693 127.11 89.5652 127.067C88.6412 121.448 83.7497 117.347 78.0552 117.417L77.7952 117.417C74.6214 117.514 71.5341 116.374 69.1852 114.237C64.2517 109.752 56.7433 109.665 51.7074 114.035C46.6715 118.405 45.6997 125.851 49.4452 131.367C51.5488 134.395 52.5608 138.048 52.3152 141.727C52.2454 142.465 52.2454 143.209 52.3152 143.947C53.1152 151.277 58.3852 153.357 62.0552 153.947Z"   fill="#15663F" >
</path>
<path d="M320.085 247.237L270.675 214.627C257.895 231.747 240.375 247.427 219.035 259.747L219.035 259.747L216.445 261.197L215.785 261.557C214.915 262.037 214.045 262.557 213.165 262.977L213.165 262.977L210.485 264.367L209.885 264.667L207.215 265.997L207.215 265.997C226.775 268.167 252.955 263.087 279.325 242.797C282.776 240.108 287.282 239.178 291.515 240.281C295.748 241.384 299.227 244.395 300.925 248.427C304.415 256.897 305.925 268.567 299.085 282.427L299.085 282.427L299.995 281.427L300.995 280.267L301.915 279.157C302.235 278.787 302.545 278.417 302.845 278.037C303.145 277.657 303.455 277.287 303.755 276.917C304.055 276.547 304.355 276.167 304.645 275.787L305.515 274.667C305.815 274.287 306.105 273.897 306.395 273.517L307.225 272.407L308.105 271.207C308.365 270.847 308.625 270.497 308.875 270.137L309.795 268.817L310.465 267.817C310.975 267.077 311.465 266.327 311.955 265.587L312.385 264.917C312.745 264.364 313.095 263.814 313.435 263.267C313.635 262.957 313.815 262.647 314.005 262.337C314.295 261.877 314.585 261.407 314.865 260.937L315.445 259.937L316.225 258.577L316.785 257.577C317.045 257.127 317.295 256.667 317.535 256.207L318.065 255.207C318.315 254.727 318.565 254.207 318.805 253.777L319.275 252.857C319.535 252.337 319.795 251.857 320.045 251.277C320.175 251.027 320.295 250.767 320.415 250.517L320.785 249.727C321.192 248.837 320.896 247.784 320.085 247.237Z"   fill="#42090D" >
</path>
<path d="M101.444 165.58C104.026 171.599 99.2937 179.408 90.8735 183.02C82.4532 186.632 73.5338 184.681 70.9513 178.662C68.3689 172.642 73.1013 164.834 81.5216 161.221C89.9418 157.609 98.8612 159.56 101.444 165.58Z"   fill="#F6EDE7" >
</path>
<path d="M84.0355 162.647C83.7358 161.938 83.3531 161.266 82.8955 160.647C82.4355 160.807 81.9655 160.987 81.5055 161.187C73.0855 164.797 68.3555 172.607 70.9355 178.627C71.4783 179.876 72.2992 180.984 73.3355 181.867C82.0755 177.557 86.8355 169.197 84.0355 162.647Z"   fill="#5B3729" >
</path>
<path d="M161.814 189.7C172.434 202.033 172.686 219.227 162.378 228.103C152.07 236.979 135.105 234.175 124.485 221.842C113.865 209.508 113.612 192.314 123.92 183.439C134.228 174.563 151.194 177.366 161.814 189.7Z"   fill="#CB2600" >
</path>
<path d="M177.388 158.899C190.937 160.104 200.535 176.675 198.825 195.913C197.115 215.15 184.744 229.769 171.195 228.565C157.646 227.36 148.048 210.789 149.758 191.551C151.468 172.314 163.839 157.695 177.388 158.899Z"   fill="#CB2600" >
</path>
<path d="M81.9 163.567C84.4825 169.587 79.75 177.395 71.3298 181.007C62.9095 184.62 53.9901 182.668 51.4076 176.649C48.8252 170.629 53.5576 162.821 61.9779 159.209C70.3981 155.596 79.3175 157.548 81.9 163.567Z"   fill="#F6EDE7" >
</path>
<path d="M87.4453 173.397C88.47 173.089 89.5812 173.378 90.3253 174.147L93.9653 177.917L92.1853 173.507C91.7243 172.378 92.0295 171.082 92.9453 170.277L97.8753 165.937L91.4453 168.197C90.436 168.556 89.3108 168.316 88.5353 167.577L85.5353 164.737L86.6353 168.237C86.9795 169.309 86.6624 170.484 85.8253 171.237L81.4453 175.197L87.4453 173.397Z"   fill="#BDABA0" >
</path>
<path d="M58.8355 124.617C60.7063 125.107 62.3087 126.314 63.2955 127.977C65.9969 132.644 71.7579 134.559 76.7155 132.437C78.6704 131.593 80.833 131.353 82.9255 131.747C84.1352 131.973 85.3713 132.024 86.5955 131.897C92.0986 131.311 96.5456 127.146 97.4908 121.693C98.436 116.24 95.6502 110.821 90.6655 108.417C88.4843 107.315 87.0801 105.109 87.0055 102.667L87.0055 102.547C86.7139 97.2489 82.597 92.9577 77.3155 92.447L77.0655 92.447C74.1176 92.2181 71.3743 90.8518 69.4155 88.637C65.2959 83.985 58.3474 83.1507 53.2436 86.6953C48.1399 90.2398 46.4951 97.0422 49.4155 102.527C51.0572 105.546 51.6282 109.032 51.0355 112.417C50.9058 113.076 50.8389 113.746 50.8355 114.417C50.8355 121.287 55.5155 123.747 58.8355 124.617Z"   fill="#269A54" >
</path>
<path d="M63.7653 108.947C65.9053 110.037 85.9253 136.947 115.945 145.637L126.685 130.797C126.685 130.797 85.5853 132.887 62.9053 96.637C62.9053 96.637 65.3853 104.817 77.6653 117.957L63.7653 108.947Z" fill-rule="evenodd"  fill="#FFFFFF" >
</path>
<path d="M68.9654 144.197C71.3654 144.407 99.9655 161.917 131.055 158.807L135.495 141.037C135.495 141.037 98.1355 158.287 63.5854 133.037C63.5854 133.037 68.9354 139.707 85.2254 147.327L68.9654 144.197Z" fill-rule="evenodd"  fill="#FFFFFF" >
</path>
<path d="M193.245 317.397C191.685 317.397 190.145 317.397 188.615 317.267C188.164 317.241 187.742 317.037 187.442 316.699C187.141 316.361 186.988 315.918 187.015 315.467C187.074 314.529 187.876 313.811 188.815 313.857C206.815 314.857 227.005 309.547 245.575 298.857C265.175 287.537 280.785 271.267 288.405 254.217C288.789 253.359 289.797 252.973 290.655 253.357C291.514 253.741 291.899 254.749 291.515 255.607C283.615 273.297 267.515 290.147 247.285 301.807C229.705 311.927 210.705 317.397 193.245 317.397Z"   fill="#923E23" >
</path>
<path d="M267.345 155.097C260.345 160.427 252.345 164.707 246.465 162.557C230.005 156.557 255.935 128.927 265.035 119.877C268.651 116.304 271.916 112.393 274.785 108.197C291.375 83.7472 283.215 68.0572 283.215 68.0572L301.925 46.3672L207.765 128.857C185.445 148.327 194.635 185.287 223.615 191.467C231.181 193.027 239.043 192.235 246.145 189.197C254.877 178.954 262.023 167.46 267.345 155.097Z"   fill="#C5211E" >
</path>
<path d="M276.679 75.1507C277.361 76.0196 276.832 77.5726 275.499 78.6195C274.165 79.6664 272.531 79.8107 271.849 78.9419C271.167 78.073 271.695 76.52 273.029 75.4731C274.363 74.4262 275.997 74.2819 276.679 75.1507Z"   fill="#FFFFFF" >
</path>
<path d="M257.865 127.337C259.285 125.777 260.635 124.337 261.865 123.037C257.205 114.288 248.853 108.103 239.125 106.197C239.125 106.197 251.345 111.247 257.865 127.337Z"   fill="#F84646" >
</path>
<path d="M247.165 140.777C248.245 139.167 249.415 137.557 250.635 135.967C238.585 123.387 220.035 121.567 220.035 121.567C230.947 124.808 240.484 131.561 247.165 140.777Z"   fill="#F84646" >
</path>
<path d="M241.565 152.087C241.949 150.633 242.465 149.218 243.105 147.857C219.485 141.927 201.025 148.357 201.025 148.357C201.025 148.357 222.895 145.407 241.565 152.087Z"   fill="#F84646" >
</path>
<path d="M241.125 155.447C227.585 159.026 215.992 167.782 208.845 179.827C208.845 179.827 217.925 165.137 242.115 159.227C241.446 158.081 241.103 156.774 241.125 155.447Z"   fill="#F84646" >
</path>
<path d="M249.355 163.057C244.496 169.111 242.327 176.892 243.355 184.587C243.355 184.587 244.995 171.667 254.245 162.377C252.664 162.873 251.012 163.103 249.355 163.057Z"   fill="#F84646" >
</path>
<path d="M257.905 143.757C257.905 143.757 253.305 139.757 247.465 140.337C246.635 141.557 245.855 142.777 245.145 143.987C251.245 141.847 257.905 143.757 257.905 143.757Z"   fill="#C5211E" >
</path>
<path d="M256.545 147.557C256.545 147.557 244.935 145.297 241.175 156.347C241.185 156.488 241.205 156.629 241.235 156.767L241.835 158.707C242.047 159.146 242.309 159.558 242.615 159.937C244.795 150.497 256.545 147.557 256.545 147.557Z"   fill="#C5211E" >
</path>
<path d="M256.375 150.567C256.375 150.567 248.375 154.667 248.865 163.027C249.846 163.113 250.833 163.079 251.805 162.927C251.925 156.277 256.375 150.567 256.375 150.567Z"   fill="#C5211E" >
</path>
<path d="M260.235 57.6369C257.625 60.3069 254.925 63.0769 252.235 65.7169L251.685 65.1469C254.395 62.5169 257.095 59.7469 259.685 57.0869C262.835 53.8469 266.105 50.5069 269.435 47.3469C272.075 44.8369 274.505 42.6769 276.875 40.7469C286.875 32.6069 298.635 24.5169 310.395 26.1769C313.395 26.5969 315.495 27.9469 316.535 30.0869C317.915 32.9269 317.325 37.1669 314.995 41.1669C306.825 55.1969 293.755 67.5069 283.245 77.4069L282.705 76.8269C293.175 66.9569 306.195 54.6769 314.305 40.7669C316.495 36.9969 317.075 33.0369 315.815 30.4369C314.885 28.5169 313.025 27.3469 310.275 26.9569C298.805 25.3369 287.205 33.3269 277.365 41.3569C275.015 43.2769 272.595 45.4269 269.965 47.9169C266.645 51.0669 263.385 54.4069 260.235 57.6369Z"   fill="#C5211E" >
</path>
<path d="M274.385 38.2972C284.385 30.1572 296.135 22.0672 307.905 23.7272C310.905 24.1472 313.005 25.4972 314.045 27.6372C315.415 30.4772 314.825 34.7172 312.505 38.7072C304.345 52.7172 291.265 65.0472 280.765 74.9572L280.225 74.3772C290.685 64.5072 303.715 52.2272 311.815 38.3172C314.015 34.5472 314.595 30.5872 313.335 27.9872C312.405 26.0672 310.535 24.8972 307.795 24.5072C296.325 22.8872 284.725 30.8772 274.885 38.9072C271.715 41.4972 268.435 44.4772 264.575 48.2872L264.025 47.7172C267.895 43.8972 271.195 40.8972 274.385 38.2972Z"   fill="#C5211E" >
</path>
<path d="M207.765 128.807L246.635 94.747C248.382 92.7253 250.011 90.6051 251.515 88.397C266.795 65.877 259.285 51.397 259.285 51.397L276.505 31.397L189.795 107.397C171.665 123.277 176.145 151.687 195.795 162.017C193.711 149.616 198.249 137.027 207.765 128.807Z"   fill="#C5211E" >
</path>
<path d="M192.085 159.727C193.278 160.582 194.527 161.353 195.825 162.037C193.727 149.635 198.253 137.037 207.765 128.807L246.635 94.7469C248.382 92.7252 250.011 90.6051 251.515 88.3969C253.856 84.9932 255.865 81.3734 257.515 77.5869L203.695 124.727C193.705 133.386 189.251 146.814 192.085 159.727Z"   fill="#9F1F25" >
</path>
<path d="M253.265 58.0039C253.893 58.8032 253.405 60.2336 252.175 61.1986C250.946 62.1637 249.44 62.298 248.813 61.4986C248.185 60.6993 248.673 59.2689 249.903 58.3039C251.132 57.3388 252.638 57.2045 253.265 58.0039Z"   fill="#FFFFFF" >
</path>
<path d="M218.675 86.6172C218.675 86.6172 229.205 90.9572 235.335 104.617L239.165 101.267C234.783 93.6436 227.307 88.2982 218.675 86.6172Z"   fill="#F84646" >
</path>
<path d="M235.335 104.647L239.165 101.297C238.189 99.6328 237.064 98.0598 235.805 96.5972L232.545 99.4472C233.598 101.112 234.53 102.85 235.335 104.647Z"   fill="#C5211E" >
</path>
<path d="M201.105 100.757C209.774 103.299 217.529 108.28 223.445 115.107L227.115 111.897C216.055 102.197 201.105 100.757 201.105 100.757Z"   fill="#F84646" >
</path>
<path d="M222.365 108.367L219.365 111.017C220.798 112.3 222.153 113.666 223.425 115.107L227.095 111.897C225.609 110.604 224.028 109.424 222.365 108.367Z"   fill="#C5211E" >
</path>
<path d="M213.985 123.347C196.395 120.967 183.595 125.427 183.595 125.427C192.634 124.421 201.769 124.681 210.735 126.197L213.985 123.347Z"   fill="#F84646" >
</path>
<path d="M203.175 125.197C205.615 125.407 208.175 125.727 210.735 126.197L213.985 123.347C211.331 122.993 208.661 122.773 205.985 122.687L203.655 124.687L203.175 125.197Z"   fill="#C5211E" >
</path>
<g style="mix-blend-mode:screen">
<path d="M190.795 154.407C192.327 152.19 194.131 150.174 196.165 148.407C196.295 147.817 196.425 147.237 196.585 146.657C194.416 149.052 192.477 151.647 190.795 154.407Z"   fill="#C5211E" >
</path>
</g>
<path d="M284.335 12.877C287.095 13.267 289.055 14.517 290.015 16.497C291.285 19.117 290.745 23.037 288.595 26.727C281.045 39.627 269.005 50.987 259.335 60.107L258.795 59.527C268.425 50.447 280.415 39.137 287.885 26.327C289.885 22.867 290.435 19.227 289.275 16.847C288.425 15.087 286.715 14.017 284.195 13.657C273.655 12.167 262.975 19.527 253.915 26.917C248.381 31.6162 243.115 36.6242 238.145 41.917L236.265 43.837L235.695 43.287L237.575 41.367C242.579 36.0503 247.877 31.019 253.445 26.297C262.635 18.807 273.445 11.347 284.335 12.877Z"   fill="#C5211E" >
</path>
<path d="M286.275 24.487C278.755 37.377 266.725 48.727 257.045 57.847L256.505 57.267C266.135 48.187 278.135 36.877 285.595 24.067C287.595 20.607 288.145 16.967 286.985 14.587C286.135 12.827 284.425 11.757 281.905 11.397C271.365 9.91699 260.685 17.267 251.635 24.657C246.098 29.3563 240.829 34.3642 235.855 39.657L235.415 40.117L234.845 39.557L235.295 39.107C240.286 33.798 245.571 28.7735 251.125 24.057C260.315 16.567 271.175 9.10699 282.015 10.637C284.775 11.027 286.735 12.277 287.695 14.257C288.975 16.877 288.425 20.797 286.275 24.487Z"   fill="#C5211E" >
</path>
<path d="M180.777 20.7613C187.782 22.5039 192.82 26.493 192.029 29.6712C191.238 32.8494 184.919 34.0131 177.914 32.2705C170.909 30.5279 165.872 26.5388 166.662 23.3606C167.453 20.1824 173.772 19.0187 180.777 20.7613Z"   fill="#580D10" >
</path>
<path d="M179.045 22.807C173.165 21.347 167.825 22.187 166.645 24.657C167.265 27.547 171.845 30.737 177.905 32.247C180.922 33.0585 184.072 33.2524 187.165 32.817C188.074 32.4389 188.771 31.6827 189.075 30.747C189.775 27.917 185.285 24.357 179.045 22.807Z"   fill="#C5211E" >
</path>
<path d="M195.215 134.087C194.521 128.419 198.157 123.121 203.695 121.731C209.234 120.341 214.941 123.293 217.005 128.617C218.111 131.592 220.195 134.102 222.915 135.737C223.463 136.062 223.982 136.433 224.465 136.847C229.255 141.027 228.125 145.767 226.705 148.627C225.91 150.225 225.781 152.074 226.345 153.767C227.479 157.097 226.751 160.779 224.435 163.427C223.567 164.433 222.502 165.249 221.305 165.827C219.529 166.68 218.047 168.04 217.045 169.737C216.468 170.716 215.754 171.609 214.925 172.387C211.171 175.848 205.58 176.408 201.214 173.761C196.849 171.113 194.761 165.896 196.095 160.967C196.675 158.761 195.991 156.415 194.315 154.867L194.235 154.797C190.721 151.375 190.229 145.902 193.075 141.907L193.215 141.727C194.85 139.537 195.567 136.797 195.215 134.087Z"   fill="#269A54" >
</path>
<path d="M212.805 142.487C212.255 144.647 218.805 174.927 206.685 201.117L189.825 199.597C189.825 199.597 216.235 172.227 204.735 134.417C204.735 134.417 208.935 141.117 210.635 157.647L212.805 142.487Z" fill-rule="evenodd"  fill="#FFFFFF" >
</path>
<path d="M179.045 22.807C173.165 21.347 167.825 22.187 166.645 24.657C167.265 27.547 171.845 30.737 177.905 32.247C180.922 33.0585 184.072 33.2524 187.165 32.817C188.074 32.4389 188.771 31.6827 189.075 30.747C189.775 27.917 185.285 24.357 179.045 22.807Z"   fill="#9F1F25" >
</path>
<path d="M175.355 22.3871C174.925 22.2771 174.505 22.1871 174.085 22.0971C170.375 21.9871 167.475 22.9171 166.645 24.6571C167.265 27.5471 171.845 30.7371 177.905 32.2471C180.13 32.815 182.42 33.0807 184.715 33.0371C185.492 32.6101 186.064 31.8897 186.305 31.0371C187.075 27.9671 182.175 24.0771 175.355 22.3871Z"   fill="#C5211E" >
</path>
<path d="M226.637 32.5877C232.239 37.1402 234.99 43.0335 232.782 45.7508C230.574 48.4681 224.242 46.9804 218.64 42.428C213.039 37.8755 210.288 31.9822 212.496 29.2649C214.704 26.5476 221.036 28.0353 226.637 32.5877Z"   fill="#580D10" >
</path>
<path d="M218.615 42.4771C213.015 37.9271 210.535 31.7971 212.745 29.0771L162.445 90.8472C168.206 97.4639 174.4 103.691 180.985 109.487L232.745 45.7971C230.545 48.5172 224.215 47.0271 218.615 42.4771Z" fill-rule="evenodd"  fill="#EB673B" >
</path>
<path d="M223.815 34.1971C219.245 30.4871 214.155 29.0771 211.815 30.7071C211.155 33.7071 213.815 38.5871 218.625 42.4671C221.194 44.6641 224.253 46.211 227.545 46.9771C228.22 46.839 228.834 46.4886 229.295 45.9771C231.255 43.5171 228.805 38.2671 223.815 34.1971Z"   fill="#C5211E" >
</path>
<path d="M223.815 34.1971C219.245 30.4871 214.155 29.0771 211.815 30.7071C211.155 33.7071 213.815 38.5871 218.625 42.4671C221.194 44.6641 224.253 46.211 227.545 46.9771C228.22 46.839 228.834 46.4886 229.295 45.9771C231.255 43.5171 228.805 38.2671 223.815 34.1971Z"   fill="#9F1F25" >
</path>
<path d="M220.925 33.847C218.155 31.5871 215.155 30.3171 212.925 30.2271C212.537 30.3285 212.169 30.4941 211.835 30.7171C211.175 33.7171 213.835 38.597 218.645 42.4771C218.955 42.7371 219.275 42.9771 219.585 43.2071C220.776 43.8882 222.046 44.4221 223.365 44.7971C224.222 45.0334 225.138 44.7527 225.715 44.077L225.715 44.077C227.445 41.9571 225.275 37.3871 220.925 33.847Z"   fill="#C5211E" >
</path>
<path d="M231.805 70.617L241.325 62.277L240.855 61.697C236.225 56.147 230.295 53.477 227.605 55.697C224.915 57.917 226.485 64.257 231.115 69.807C231.335 70.097 231.565 70.357 231.805 70.617Z"   fill="#EB673B" >
</path>
<path d="M231.805 70.617L241.325 62.277L240.855 61.697C236.225 56.147 230.295 53.477 227.605 55.697C224.915 57.917 226.485 64.257 231.115 69.807C231.335 70.097 231.565 70.357 231.805 70.617Z"   fill="#580D10" >
</path>
<path d="M231.805 70.6169L239.315 64.0369C238.935 63.5069 238.545 62.9769 238.105 62.4569C234.225 57.7969 229.305 55.4569 226.745 56.8469C225.395 59.6569 227.105 65.0269 231.115 69.8469C231.335 70.0969 231.575 70.3569 231.805 70.6169Z"   fill="#C5211E" >
</path>
<g style="mix-blend-mode:multiply">
<path d="M231.805 70.6169L239.315 64.0369C238.935 63.5069 238.545 62.9769 238.105 62.4569C234.225 57.7969 229.305 55.4569 226.745 56.8469C225.395 59.6569 227.105 65.0269 231.115 69.8469C231.335 70.0969 231.575 70.3569 231.805 70.6169Z"   fill="#C5211E" >
</path>
</g>
<path d="M202.975 40.9969L200.355 44.2069C201.991 44.986 203.774 45.4087 205.585 45.4469L205.775 45.4469C208.865 45.4469 211.075 44.0269 213.205 42.6469L213.895 42.2069C214.948 41.5608 216.189 41.2894 217.415 41.4369C216.203 40.3398 215.107 39.1199 214.145 37.7969C213.309 38.0389 212.51 38.3992 211.775 38.8669L211.065 39.3169C209.155 40.5569 207.655 41.5369 205.665 41.4869C204.748 41.4684 203.84 41.303 202.975 40.9969Z"   fill="#FFB084" >
</path>
<path d="M129.855 216.057C121.575 201.707 123.265 185.227 133.625 179.247C137.239 177.226 141.457 176.566 145.515 177.387C141.091 176.062 136.333 176.418 132.155 178.387C121.025 183.807 117.765 200.007 124.865 214.577C130.565 226.287 141.225 233.367 150.965 232.897C143.145 231.197 135.125 225.197 129.855 216.057Z"   fill="#F6C972" >
</path>
<path d="M201.555 55.677C202.885 56.047 204.255 56.427 205.715 56.677C212.19 57.8534 218.858 57.3402 225.075 55.187L231.535 47.187C228.505 50.817 224.065 52.487 220.725 53.287C215.979 54.3558 211.067 54.4713 206.275 53.627C204.965 53.387 203.665 53.027 202.405 52.627C199.85 51.75 197.157 51.3401 194.455 51.417L191.075 55.587C191.47 55.3873 191.878 55.2136 192.295 55.067C195.485 53.987 198.295 54.767 201.555 55.677Z"   fill="#FFB084" >
</path>
<path d="M232.445 46.197C232.335 46.357 232.215 46.507 232.105 46.657L232.465 46.207L232.445 46.197Z"   fill="#FFB084" >
</path>
<path d="M232.445 46.197C232.335 46.357 232.215 46.507 232.105 46.657L232.465 46.207L232.445 46.197Z"   fill="#FFB084" >
</path>
<path d="M189.935 73.9572C185.675 73.8672 181.885 72.8572 177.675 74.0672C176.926 74.2849 176.188 74.5419 175.465 74.8372L170.015 81.5472C172.273 80.3084 174.719 79.4503 177.255 79.0072C181.585 78.2772 185.255 79.7072 189.455 80.2772C195.007 80.9774 200.645 80.4587 205.975 78.7572L219.705 61.8672C211.445 69.0772 201.135 74.1972 189.935 73.9572Z"   fill="#FFB084" >
</path>
<path d="M165.215 93.9371C166.105 94.9371 167.015 95.9371 167.945 96.9371C169.817 95.6395 171.83 94.5592 173.945 93.7171C180.691 91.1259 188.051 90.5798 195.105 92.1471L197.905 88.7071C181.125 84.6171 170.045 90.4271 165.215 93.9371Z"   fill="#FFB084" >
</path>
<path d="M160.035 200.927C158.525 179.927 177.035 164.287 180.905 160.927C180.905 160.927 152.315 159.287 155.325 201.307C156.765 221.307 167.265 237.037 179.325 237.967L181.225 237.147C170.375 234.197 161.355 219.347 160.035 200.927Z"   fill="#F6C972" >
</path>
<path d="M180.655 160.907C167.745 161.827 158.515 179.757 160.035 200.907C161.355 219.327 170.375 234.147 181.195 237.087C187.426 234.345 193.502 231.264 199.395 227.857L200.865 226.997C205.255 219.617 207.605 209.067 206.785 197.557C205.265 176.397 193.565 159.977 180.655 160.907Z"   fill="#FADDAA" >
</path>
<path d="M179.195 171.637C180.965 171.057 183.335 173.407 184.485 176.887C185.635 180.367 185.125 183.667 183.365 184.247C181.605 184.827 179.235 182.477 178.085 178.997C176.935 175.517 177.445 172.197 179.195 171.637Z"   fill="#FADDAA" >
</path>
<path d="M169.605 191.757C169.765 189.907 172.495 188.617 175.705 188.897C178.915 189.177 181.395 190.897 181.235 192.747C181.075 194.597 178.345 195.877 175.135 195.607C171.925 195.337 169.445 193.607 169.605 191.757Z"   fill="#FADDAA" >
</path>
<path d="M173.775 203.307C173.485 202.417 174.485 201.307 176.015 200.787C177.545 200.267 179.015 200.587 179.315 201.477C179.615 202.367 178.605 203.477 177.075 203.987C175.545 204.497 174.065 204.197 173.775 203.307Z"   fill="#FADDAA" >
</path>
<path d="M183.835 215.537C181.955 218.087 179.075 219.147 177.385 217.897C175.695 216.647 175.855 213.587 177.725 211.047C179.595 208.507 182.485 207.447 184.175 208.687C185.865 209.927 185.705 212.997 183.835 215.537Z"   fill="#FADDAA" >
</path>
<path d="M196.495 181.127C195.815 182.307 194.605 182.897 193.805 182.427C193.005 181.957 192.895 180.627 193.575 179.427C194.255 178.227 195.465 177.657 196.275 178.127C197.085 178.597 197.175 179.947 196.495 181.127Z"   fill="#FADDAA" >
</path>
<path d="M223.585 174.347C223.585 174.347 202.475 170.407 200.215 197.077C199.305 207.767 203.485 217.277 210.095 221.217L211.695 220.127C206.245 215.607 202.965 206.967 203.785 197.377C204.915 183.947 218.865 176.427 223.585 174.347Z"   fill="#F6C972" >
</path>
<path d="M184.445 176.887C183.295 173.407 180.925 171.057 179.155 171.637C178.4 171.96 177.851 172.633 177.685 173.437C177.849 173.275 178.047 173.152 178.265 173.077C179.745 172.597 181.715 174.557 182.675 177.467C183.635 180.377 183.225 183.137 181.745 183.617C181.526 183.687 181.294 183.708 181.065 183.677C181.679 184.226 182.524 184.44 183.325 184.247C185.125 183.667 185.625 180.367 184.445 176.887Z"   fill="#521306" >
</path>
<path d="M175.565 190.517C178.295 190.747 180.475 192.027 180.985 193.517C181.123 193.274 181.208 193.005 181.235 192.727C181.395 190.867 178.915 189.147 175.705 188.877C172.495 188.607 169.765 189.877 169.605 191.737C169.587 192.018 169.624 192.3 169.715 192.567C170.445 191.197 172.845 190.287 175.565 190.517Z"   fill="#521306" >
</path>
<path d="M155.325 201.267C154.748 194.891 155.146 188.463 156.505 182.207C148.975 176.837 140.315 175.387 133.625 179.207C123.265 185.207 121.575 201.667 129.855 216.017C135.125 225.137 143.145 231.187 150.965 232.857C155.892 233.054 160.74 231.574 164.715 228.657C159.675 222.027 156.125 212.297 155.325 201.267Z"   fill="#FADDAA" >
</path>
<path d="M141.185 206.037C139.325 206.827 137.605 206.967 137.335 206.347C137.065 205.727 138.335 204.577 140.215 203.777C142.095 202.977 143.795 202.837 144.055 203.467C144.315 204.097 143.035 205.197 141.185 206.037Z"   fill="#FADDAA" >
</path>
<path d="M146.745 214.467C146.325 215.777 145.465 216.667 144.815 216.467C144.165 216.267 143.985 215.037 144.405 213.737C144.825 212.437 145.675 211.537 146.325 211.737C146.975 211.937 147.155 213.197 146.745 214.467Z"   fill="#FADDAA" >
</path>
<path d="M146.575 196.897C145.095 197.837 142.805 196.897 141.465 194.807C140.125 192.717 140.245 190.237 141.735 189.287C143.225 188.337 145.505 189.287 146.845 191.377C148.185 193.467 148.065 195.947 146.575 196.897Z"   fill="#FADDAA" >
</path>
<path d="M150.525 223.797C150.076 223.797 149.672 223.526 149.5 223.112C149.328 222.697 149.423 222.22 149.74 221.902C150.058 221.585 150.535 221.49 150.95 221.661C151.365 221.833 151.635 222.238 151.635 222.687C151.635 223.3 151.138 223.797 150.525 223.797Z"   fill="#FADDAA" >
</path>
<path d="M151.635 201.317C151.186 201.317 150.78 201.045 150.609 200.629C150.438 200.213 150.535 199.735 150.854 199.419C151.174 199.102 151.653 199.009 152.067 199.184C152.482 199.359 152.749 199.767 152.745 200.217C152.74 200.826 152.245 201.317 151.635 201.317Z"   fill="#FADDAA" >
</path>
<path d="M156.845 223.077C156.185 223.197 155.405 221.947 155.115 220.287C154.825 218.627 155.115 217.177 155.795 217.067C156.475 216.957 157.235 218.197 157.535 219.857C157.835 221.517 157.515 222.957 156.845 223.077Z"   fill="#FADDAA" >
</path>
<path d="M176.445 201.927C177.394 201.529 178.473 201.595 179.365 202.107C179.433 201.903 179.433 201.682 179.365 201.477C179.075 200.587 177.595 200.287 176.065 200.787C174.535 201.287 173.535 202.417 173.825 203.307C173.892 203.509 174.022 203.684 174.195 203.807C174.612 202.864 175.444 202.169 176.445 201.927Z"   fill="#521306" >
</path>
<path d="M196.275 178.197C196.133 178.117 195.977 178.066 195.815 178.047C196.305 178.882 196.262 179.925 195.705 180.717C195.301 181.592 194.429 182.156 193.465 182.167C193.556 182.292 193.672 182.398 193.805 182.477C194.605 182.947 195.805 182.357 196.495 181.177C197.185 179.997 197.075 178.607 196.275 178.197Z"   fill="#521306" >
</path>
<path d="M177.725 212.517C179.605 209.967 182.485 208.917 184.175 210.157C184.795 210.651 185.194 211.37 185.285 212.157C185.587 210.893 185.159 209.567 184.175 208.717C182.485 207.477 179.605 208.527 177.725 211.077C176.627 212.454 176.107 214.204 176.275 215.957C176.469 214.709 176.967 213.527 177.725 212.517Z"   fill="#521306" >
</path>
<path d="M150.525 221.577L150.445 221.577C150.686 221.785 150.825 222.088 150.825 222.407C150.833 222.979 150.396 223.46 149.825 223.507C150.023 223.686 150.279 223.786 150.545 223.787C151.158 223.787 151.655 223.29 151.655 222.677C151.655 222.064 151.158 221.567 150.545 221.567L150.525 221.577Z"   fill="#521306" >
</path>
<path d="M211.705 198.727C211.538 198.727 211.372 198.757 211.215 198.817C211.814 199.022 212.215 199.585 212.215 200.217C212.215 200.849 211.814 201.412 211.215 201.617C211.373 201.672 211.538 201.702 211.705 201.707C212.533 201.707 213.205 201.035 213.205 200.207C213.205 199.379 212.533 198.707 211.705 198.707L211.705 198.727Z"   fill="#521306" >
</path>
<path d="M233.605 198.697C232.919 198.697 232.278 199.038 231.895 199.607C232.484 199.339 233.165 199.372 233.725 199.696C234.285 200.019 234.654 200.593 234.715 201.237L233.145 202.747L233.255 202.747C234.055 201.987 234.855 201.217 235.635 200.447C235.486 199.441 234.622 198.696 233.605 198.697Z"   fill="#521306" >
</path>
<path d="M223.615 181.857C223.108 181.835 222.617 182.041 222.275 182.417L222.275 182.417C223.455 182.517 224.275 184.107 224.135 185.957C224.079 186.926 223.695 187.846 223.045 188.567C224.215 188.647 225.295 187.237 225.455 185.397C225.615 183.557 224.795 181.957 223.615 181.857Z"   fill="#521306" >
</path>
<path d="M146.845 191.377C145.505 189.277 143.215 188.377 141.735 189.287C141.474 189.452 141.249 189.67 141.075 189.927C142.485 189.687 144.215 190.627 145.315 192.347C146.415 194.067 146.535 196.047 145.715 197.217C146.02 197.168 146.313 197.059 146.575 196.897C148.065 195.947 148.175 193.477 146.845 191.377Z"   fill="#521306" >
</path>
<path d="M140.585 204.657C141.634 204.121 142.814 203.899 143.985 204.017C144.094 203.855 144.12 203.651 144.055 203.467C143.795 202.837 142.055 202.977 140.215 203.777C138.375 204.577 137.065 205.777 137.335 206.347C137.428 206.519 137.593 206.64 137.785 206.677C138.501 205.744 139.474 205.041 140.585 204.657Z"   fill="#521306" >
</path>
<path d="M145.215 214.797C145.585 213.617 146.325 212.797 146.945 212.797C146.875 212.257 146.665 211.867 146.325 211.797C145.675 211.587 144.815 212.477 144.405 213.797C143.995 215.117 144.175 216.327 144.815 216.527C144.882 216.538 144.949 216.538 145.015 216.527C144.954 215.943 145.022 215.352 145.215 214.797Z"   fill="#521306" >
</path>
<path d="M157.535 219.857C157.235 218.197 156.465 216.947 155.795 217.067C155.589 217.115 155.415 217.255 155.325 217.447C155.925 217.647 156.535 218.777 156.795 220.217C157.024 221.163 156.947 222.158 156.575 223.057C156.664 223.081 156.757 223.081 156.845 223.057C157.515 222.957 157.825 221.517 157.535 219.857Z"   fill="#521306" >
</path>
<path d="M232.225 186.977C232.075 186.913 231.906 186.913 231.755 186.977C232.007 189.216 231.07 191.423 229.285 192.797C229.338 192.953 229.454 193.08 229.605 193.147C230.245 193.427 231.355 192.257 232.075 190.547C232.795 188.837 232.865 187.247 232.225 186.977Z"   fill="#521306" >
</path>
<path d="M221.005 203.597C220.454 203.216 219.766 203.089 219.115 203.247C219.394 203.307 219.657 203.427 219.885 203.597C221.055 204.457 221.115 206.367 220.015 207.867C219.478 208.62 218.686 209.153 217.785 209.367C219.097 209.566 220.403 208.979 221.125 207.867C222.225 206.367 222.175 204.457 221.005 203.597Z"   fill="#521306" >
</path>
<path d="M217.085 216.247L217.465 215.977L218.935 214.867L219.325 214.567L220.775 213.447L221.155 213.147L222.605 211.997L222.965 211.717L224.405 210.537L224.735 210.267L226.185 209.057L226.475 208.807L227.935 207.557L228.185 207.337L229.655 206.037L229.865 205.847L231.345 204.517L231.525 204.357L233.005 202.977L233.145 202.847L234.625 201.427L234.735 201.327L236.225 199.857L236.295 199.797L237.795 198.287C238.305 197.767 238.795 197.287 239.295 196.737L239.295 196.737C239.075 184.797 232.445 175.107 223.585 174.347C213.795 173.517 204.925 183.827 203.785 197.347C202.965 206.937 206.245 215.577 211.695 220.097L211.695 220.097L213.405 218.907L213.645 218.737L215.235 217.607L215.565 217.367C216.075 216.997 216.565 216.627 217.085 216.247Z"   fill="#FADDAA" >
</path>
<path d="M211.705 201.707C210.882 201.707 210.215 201.04 210.215 200.217C210.215 199.394 210.882 198.727 211.705 198.727C212.528 198.727 213.195 199.394 213.195 200.217C213.195 201.04 212.528 201.707 211.705 201.707Z"   fill="#FADDAA" >
</path>
<path d="M214.705 192.007C215.255 191.417 216.615 191.787 217.705 192.827C218.795 193.867 219.295 195.197 218.705 195.827C218.115 196.457 216.795 196.047 215.705 195.007C214.615 193.967 214.155 192.607 214.705 192.007Z"   fill="#FADDAA" >
</path>
<path d="M221.125 207.867C220.025 209.367 218.185 209.867 217.015 209.017C215.845 208.167 215.785 206.247 216.895 204.747C218.005 203.247 219.835 202.747 221.005 203.597C222.175 204.447 222.225 206.367 221.125 207.867Z"   fill="#FADDAA" >
</path>
<path d="M225.445 185.397C225.285 187.247 224.195 188.667 223.015 188.567C221.835 188.467 221.015 186.877 221.155 185.027C221.295 183.177 222.395 181.757 223.585 181.857C224.775 181.957 225.635 183.537 225.445 185.397Z"   fill="#FADDAA" >
</path>
<path d="M229.575 193.167C228.935 192.897 228.995 191.297 229.725 189.577C230.455 187.857 231.555 186.707 232.195 186.977C232.835 187.247 232.775 188.857 232.045 190.567C231.315 192.277 230.245 193.447 229.605 193.197L229.575 193.167Z"   fill="#FADDAA" >
</path>
<path d="M231.515 200.757C231.455 199.638 232.304 198.678 233.422 198.601C234.54 198.525 235.513 199.36 235.605 200.477C234.825 201.247 234.025 202.017 233.225 202.777C232.253 202.594 231.547 201.746 231.545 200.757L231.515 200.757Z"   fill="#FADDAA" >
</path>
<path d="M217.735 192.827C216.615 191.827 215.255 191.417 214.735 192.007C214.634 192.12 214.565 192.258 214.535 192.407C216.577 192.417 218.269 193.992 218.425 196.027C218.57 195.985 218.701 195.905 218.805 195.797C219.325 195.197 218.865 193.877 217.735 192.827Z"   fill="#521306" >
</path>
<path d="M110.605 189.117C107.735 193.657 102.605 205.067 114.205 216.727L113.605 214.057C112.815 210.489 112.656 206.81 113.135 203.187L114.815 190.647C114.926 189.839 114.594 189.033 113.945 188.537L113.945 188.537C113.436 188.141 112.783 187.978 112.147 188.088C111.511 188.198 110.951 188.572 110.605 189.117Z"   fill="#CB2600" >
</path>
<path     fill="#580D10"  d="M110.653 198.483C110.762 198.736 111.056 198.854 111.31 198.745L111.319 198.741C111.573 198.632 111.69 198.338 111.582 198.084L110.556 195.695C110.448 195.441 110.154 195.324 109.9 195.433L109.891 195.437C109.637 195.546 109.519 195.84 109.628 196.093L110.653 198.483">
</path>
<path     fill="#580D10"  d="M110.66 206.535C110.899 206.673 111.205 206.591 111.343 206.352L111.348 206.343C111.486 206.104 111.404 205.798 111.165 205.66L109.39 204.635C109.151 204.497 108.845 204.579 108.707 204.818L108.702 204.827C108.564 205.066 108.646 205.372 108.885 205.51L110.66 206.535">
</path>
<path d="M102.445 165.787C98.0354 168.597 88.7954 176.527 94.1454 191.627L94.7354 189.017C95.5169 185.545 96.9048 182.237 98.8354 179.247L105.525 168.887C105.958 168.221 106.003 167.376 105.645 166.667L105.645 166.667C105.358 166.105 104.848 165.69 104.239 165.523C103.631 165.355 102.98 165.451 102.445 165.787Z"   fill="#CB2600" >
</path>
<path     fill="#580D10"  d="M98.6017 174.068C98.5921 174.338 98.8035 174.565 99.074 174.575C99.3444 174.585 99.5715 174.373 99.5811 174.103L99.6712 171.574C99.6808 171.304 99.4694 171.077 99.1989 171.067C98.9285 171.058 98.7014 171.269 98.6918 171.539L98.6017 174.068">
</path>
<path     fill="#580D10"  d="M97.0504 175.786C97.2047 176.008 97.5099 176.063 97.7323 175.909C97.9547 175.755 98.01 175.45 97.8558 175.227L96.7217 173.592C96.5675 173.37 96.2622 173.314 96.0399 173.469C95.8175 173.623 95.7622 173.928 95.9164 174.15L97.0504 175.786">
</path>
<path d="M39.4941 50.0277C42.9872 52.8665 44.9972 56.1788 43.9836 57.426C42.97 58.6732 39.3166 57.3831 35.8236 54.5443C32.3305 51.7056 30.3205 48.3932 31.334 47.146C32.3476 45.8988 36.001 47.189 39.4941 50.0277Z"   fill="#FF5527" >
</path>
<path d="M138.258 18.4283C139.711 20.4516 140.092 22.6636 139.11 23.3691C138.127 24.0745 136.153 23.0062 134.7 20.983C133.248 18.9597 132.866 16.7477 133.849 16.0422C134.831 15.3368 136.805 16.4051 138.258 18.4283Z"   fill="#FF5527" >
</path>
<path d="M146.445 31.2568C149.255 24.6386 147.907 16.9869 143.005 11.7268L140.225 8.72685C139.092 7.09395 139.33 4.8767 140.783 3.52107C142.237 2.16545 144.465 2.08272 146.015 3.32685L148.795 6.32685C155.817 13.8712 157.748 24.838 153.725 34.3269L151.945 38.5069C150.635 41.6045 150.036 44.957 150.195 48.3168C150.281 50.4931 148.61 52.3378 146.435 52.4669L146.245 52.5069C144.146 52.4844 142.421 50.8426 142.295 48.7468C142.07 44.1914 142.881 39.6441 144.665 35.4468L146.445 31.2568Z"   fill="#FF5527" >
</path>
<path d="M138.265 28.8669C138.265 29.734 137.562 30.4369 136.695 30.4369C135.828 30.4369 135.125 29.734 135.125 28.8669C135.125 27.9998 135.828 27.2969 136.695 27.2969C137.562 27.2969 138.265 27.9998 138.265 28.8669Z"   fill="#FF5527" >
</path>
<path d="M161.495 8.78704C161.495 9.65413 160.793 10.357 159.925 10.357C159.058 10.357 158.355 9.65413 158.355 8.78704C158.355 7.91995 159.058 7.21704 159.925 7.21704C160.793 7.21704 161.495 7.91995 161.495 8.78704Z"   fill="#FF5527" >
</path>
<path d="M24.27 80.4899C24.27 82.7487 22.4388 84.5799 20.18 84.5799C17.9211 84.5799 16.09 82.7487 16.09 80.4899C16.09 78.2311 17.9211 76.3999 20.18 76.3999C22.4388 76.3999 24.27 78.2311 24.27 80.4899Z"   fill="#FF5527" >
</path>
<path d="M71.5553 80.137L71.3753 80.027C71.2153 79.937 71.0653 79.837 70.9153 79.737L70.7253 79.607C70.5853 79.507 70.4553 79.397 70.3253 79.287L70.1453 79.137L69.7853 78.797L69.6953 78.707L69.6953 78.707C74.9153 85.817 99.6953 121.897 105.015 172.057C105.176 173.601 105.949 175.016 107.161 175.986C108.373 176.956 109.924 177.399 111.465 177.217C124.905 175.627 141.465 169.897 157.905 160.397C174.345 150.897 187.665 139.397 195.765 128.507C196.692 127.266 197.083 125.704 196.849 124.173C196.616 122.641 195.779 121.267 194.525 120.357C148.805 87.097 130.945 42.467 130.945 42.467C131.785 44.567 131.575 47.117 130.495 49.917L130.445 50.037C130.345 50.297 130.235 50.547 130.115 50.807C130.115 50.867 130.065 50.927 130.045 50.977C129.925 51.237 129.795 51.507 129.665 51.767L129.595 51.907C129.285 52.507 128.935 53.127 128.595 53.747L128.385 54.077C128.265 54.277 128.145 54.467 128.015 54.657L127.725 55.077L127.385 55.557L127.045 56.037L126.735 56.447L126.315 56.987C126.282 57.0361 126.245 57.0829 126.205 57.127C125.805 57.627 125.395 58.127 124.955 58.627L124.885 58.707L124.245 59.427L124.075 59.617L123.395 60.337L123.245 60.487C123.005 60.747 122.755 61.007 122.495 61.257L122.495 61.257C120.69 63.0583 118.776 64.7481 116.765 66.317L116.765 66.317C111.299 70.586 105.314 74.1475 98.9553 76.917L98.1653 77.247C97.9753 77.337 97.7753 77.407 97.5853 77.487L96.7753 77.817L96.3553 77.987L94.6453 78.617L94.1153 78.807L93.3653 79.067L92.7553 79.267L92.0453 79.487L91.4253 79.687L90.7253 79.887L90.0953 80.067L89.4253 80.247L88.7953 80.407L88.1453 80.557L87.5053 80.707L86.8853 80.837L86.2353 80.967L85.6453 81.087L84.9653 81.197L84.4353 81.287L83.5753 81.407L83.2553 81.407L82.1153 81.527L81.7553 81.527L80.9853 81.527L80.5653 81.527L79.8853 81.527L78.4153 81.527L77.7853 81.527L77.3953 81.527L76.7853 81.527L76.4353 81.527L75.8053 81.437L75.5053 81.437L74.8453 81.297L74.6153 81.297C74.3453 81.237 74.0853 81.167 73.8253 81.087L73.8253 81.087C73.2885 80.9285 72.7637 80.7313 72.2553 80.497L72.1053 80.417L71.5553 80.137Z"   fill="#580D10" >
</path>
<path d="M116.765 66.317C111.299 70.586 105.315 74.1475 98.9554 76.917L98.1654 77.247C97.9754 77.337 97.7754 77.407 97.5854 77.487L96.7754 77.817L96.3554 77.987L94.6454 78.617L94.1154 78.807L93.3654 79.067L92.7554 79.267L92.0454 79.487L91.4254 79.687L90.7254 79.887L90.0954 80.067L89.4254 80.247L88.7954 80.407L88.1454 80.557L87.5054 80.707L86.8854 80.837L86.2354 80.967L85.6454 81.087L84.9654 81.197L84.4354 81.287L83.5754 81.407L83.2554 81.407L82.1154 81.527L81.7554 81.527L80.9854 81.527L80.5654 81.527L79.8854 81.527L78.4154 81.527L77.7854 81.527L77.3954 81.527L76.7854 81.527L76.4354 81.527L76.3054 81.527C83.5954 84.467 96.1754 87.277 114.405 83.647C130.876 80.2847 147.246 89.8212 152.445 105.807C159.075 126.567 160.395 153.707 133.445 171.707L133.445 171.707L137.445 170.207C144.5 167.412 151.339 164.1 157.905 160.297C174.295 150.767 187.555 139.277 195.655 128.407C196.582 127.166 196.973 125.604 196.74 124.073C196.507 122.541 195.669 121.167 194.415 120.257C148.805 87.097 130.945 42.467 130.945 42.467C131.785 44.567 131.575 47.117 130.495 49.917L130.445 50.037C130.345 50.297 130.235 50.547 130.115 50.807C130.115 50.867 130.065 50.927 130.045 50.977C129.925 51.237 129.795 51.507 129.665 51.767L129.595 51.907C129.285 52.507 128.935 53.127 128.595 53.747L128.385 54.077C128.265 54.277 128.145 54.467 128.015 54.657L127.725 55.077L127.385 55.557L127.045 56.037L126.735 56.447L126.315 56.987C126.282 57.0361 126.245 57.0829 126.205 57.127C125.805 57.627 125.395 58.127 124.955 58.627L124.885 58.707L124.245 59.427L124.075 59.617L123.395 60.337L123.245 60.487C123.005 60.747 122.755 61.007 122.495 61.257L122.495 61.257C120.69 63.0583 118.776 64.7481 116.765 66.317L116.765 66.317Z"   fill="#42090D" >
</path>
<path d="M127.483 43.3376C131.299 49.9476 121.9 62.5187 106.489 71.4161C91.0789 80.3134 75.4924 82.1676 71.6761 75.5576C67.8598 68.9476 77.2589 56.3764 92.6694 47.4791C108.08 38.5818 123.667 36.7276 127.483 43.3376Z"   fill="#FF5527" >
</path>
<path d="M96.7052 54.4769C108.635 47.5969 120.645 44.4769 128.265 45.7769C128.17 44.9184 127.901 44.0882 127.475 43.3369C123.665 36.7269 108.075 38.5869 92.6652 47.4769C77.2552 56.3669 67.8552 68.9469 71.6652 75.5569C72.1064 76.2984 72.6911 76.9444 73.3852 77.4569C76.1052 70.1969 84.7752 61.3669 96.7052 54.4769Z"   fill="#DE653C" >
</path>
<path d="M96.7052 54.4769C108.635 47.5969 120.645 44.4769 128.265 45.7769C128.17 44.9184 127.901 44.0882 127.475 43.3369C123.665 36.7269 108.075 38.5869 92.6652 47.4769C77.2552 56.3669 67.8552 68.9469 71.6652 75.5569C72.1064 76.2984 72.6911 76.9444 73.3852 77.4569C76.1052 70.1969 84.7752 61.3669 96.7052 54.4769Z"   fill="#42090D" >
</path>
<path d="M152.825 79.197C159.131 87.5676 166.072 95.4408 173.585 102.747L173.655 102.747L192.025 29.747C191.235 32.927 184.915 34.087 177.905 32.347C170.895 30.607 165.905 26.617 166.655 23.437L152.825 79.197Z" fill-rule="evenodd"  fill="#EB673B" >
</path>
<path d="M182.165 32.9671C180.729 32.8351 179.305 32.5944 177.905 32.2471L176.905 31.9771C179.05 36.9825 183.902 40.2903 189.345 40.4571L190.345 36.5171C187.206 36.7196 184.161 35.3983 182.165 32.9671Z"   fill="#FFB084" >
</path>
<path d="M175.355 31.4871C174.922 31.3404 174.502 31.1804 174.095 31.0071C174.615 34.4571 177.005 44.2071 187.685 47.1071L187.965 45.9571C178.445 43.3671 175.985 35.1371 175.355 31.4871Z"   fill="#FFB084" >
</path>
<path d="M179.805 78.3969L180.805 74.3969C180.244 74.0906 179.726 73.7106 179.265 73.2669C175.065 69.1869 176.685 63.1269 178.265 57.2669C178.385 56.8469 178.495 56.4269 178.595 56.0269C179.052 54.4838 179.331 52.8935 179.425 51.2869C179.585 52.6489 179.585 54.0249 179.425 55.3869C179.185 58.3869 179.205 62.7069 182.235 65.2169C182.465 65.4047 182.705 65.5784 182.955 65.7369L183.375 64.0669L183.275 63.9969C180.825 61.9969 180.825 58.1769 181.045 55.5069C181.315 53.4432 181.155 51.3458 180.575 49.3469C179.725 46.9269 175.235 43.3469 174.775 42.9469L174.655 42.8569C172.165 40.8569 169.375 38.5869 167.655 35.7269C166.52 33.8193 165.664 31.7582 165.115 29.6069L163.415 36.4669C163.655 36.9169 163.895 37.3569 164.145 37.7769C166.245 41.2169 169.365 43.7769 172.145 45.9869L172.265 46.0769C173.167 46.714 173.981 47.4672 174.685 48.3169C175.945 50.0569 175.095 53.3169 174.635 55.0269C174.535 55.4269 174.425 55.8269 174.315 56.2469C172.625 62.5569 170.525 70.4069 176.385 76.1169C177.384 77.0697 178.542 77.8412 179.805 78.3969Z"   fill="#FFB084" >
</path>
<path d="M160.775 61.7871C159.835 60.9891 158.748 60.3812 157.575 59.9971L156.575 63.8571C157.166 64.1003 157.713 64.4381 158.195 64.8571C161.335 67.4871 162.195 71.6871 163.135 76.1271C163.507 78.1081 163.998 80.065 164.605 81.9871C165.605 84.9871 168.525 93.5071 175.325 95.9271L176.345 92.0071C173.145 90.6871 170.525 87.0071 168.395 80.6771C167.841 78.9055 167.393 77.1023 167.055 75.2771C166.055 70.5971 164.965 65.2771 160.775 61.7871Z"   fill="#FFB084" >
</path>
<path d="M157.965 74.997C161.485 79.997 162.755 86.157 163.045 91.527L163.885 92.467C163.685 86.737 162.445 79.957 158.585 74.467C157.559 72.9809 156.342 71.6361 154.965 70.467L154.745 71.327C155.966 72.4133 157.047 73.6459 157.965 74.997Z"   fill="#FFB084" >
</path>
<path d="M166.715 203.287C165.892 203.287 165.225 202.62 165.225 201.797C165.225 200.974 165.892 200.307 166.715 200.307C167.538 200.307 168.205 200.974 168.205 201.797C168.205 202.62 167.538 203.287 166.715 203.287Z"   fill="#DB4D3E" >
</path>
<path d="M189.795 107.417L231.795 70.617C231.555 70.357 231.325 70.097 231.105 69.827C226.475 64.277 224.905 57.967 227.595 55.717L172.595 101.637C176.395 105.397 180.485 109.137 184.855 112.777C186.309 110.821 187.965 109.025 189.795 107.417Z"   fill="#EB673B" >
</path>
<path d="M217.535 64.127L214.535 66.657C215.343 67.8216 216.279 68.8916 217.325 69.847C220.118 72.3336 223.545 73.9984 227.225 74.657L231.225 71.167C223.445 70.777 219.445 67.017 217.535 64.127Z"   fill="#FFB084" >
</path>
<path d="M187.445 98.1969C185.036 97.5746 182.838 96.3137 181.085 94.5469L178.085 97.0869C180.357 99.4943 183.267 101.204 186.475 102.017C188.087 102.446 189.748 102.665 191.415 102.667C192.895 102.662 194.371 102.497 195.815 102.177L204.385 94.6669C198.745 97.3869 193.445 99.8069 187.445 98.1969Z"   fill="#FFB084" >
</path>
<path d="M61.2954 238.197C55.0454 237.197 48.0154 248.827 45.5854 264.197C43.1554 279.567 46.2354 292.747 52.4854 293.747C58.7354 294.747 65.7654 283.117 68.1954 267.747C70.6254 252.377 67.5354 239.197 61.2954 238.197Z"   fill="#E99606" >
</path>
<path d="M65.9754 267.397C64.0254 279.717 58.3654 289.057 53.3454 288.267C48.3254 287.477 45.8454 276.827 47.7954 264.507C49.7454 252.187 55.4054 242.837 60.4354 243.637C65.4654 244.437 67.9354 255.037 65.9754 267.367L65.9754 267.397Z"   fill="#E99606" >
</path>
<path d="M68.3553 166.907C67.3407 167.26 66.214 167.017 65.4353 166.277L62.4353 163.437L63.5353 166.947C63.8819 168.017 63.5688 169.191 62.7353 169.947L58.3953 173.887L64.3953 172.087C65.4249 171.777 66.5414 172.071 67.2853 172.847L70.9253 176.617L69.1353 172.207C68.6774 171.078 68.9821 169.783 69.8953 168.977L74.8153 164.657L68.3553 166.907Z"   fill="#BDABA0" >
</path>
<path d="M32.5854 11.7469C30.7129 10.6759 29.5683 8.67379 29.5952 6.51678C29.6221 4.35976 30.8163 2.38688 32.7149 1.36284C34.6136 0.338803 36.9181 0.424588 38.7354 1.58695L55.2554 11.5869C63.9721 16.9068 69.297 26.3751 69.3154 36.5869C69.2991 42.5479 72.3669 48.0934 77.4254 51.2469L79.7154 52.6869C81.9891 54.0847 83.0514 56.8274 82.3123 59.3921C81.5732 61.9568 79.2143 63.7136 76.5454 63.6869L76.5054 63.6069C75.3902 63.6095 74.2974 63.2938 73.3554 62.6969L71.0654 61.2669C62.5514 55.941 57.3989 46.5894 57.4454 36.5469C57.4242 30.5 54.267 24.8972 49.1054 21.7469L32.5854 11.7469Z"   fill="#FF5527" >
</path>
<path d="M77.0539 5.7282C77.4805 8.89177 76.5352 11.6305 74.9425 11.8452C73.3497 12.06 71.7127 9.66956 71.2861 6.50599C70.8595 3.34241 71.8048 0.603719 73.3976 0.388939C74.9903 0.174159 76.6273 2.56463 77.0539 5.7282Z"   fill="#FF5527" >
</path>
<path d="M234.895 67.4971C236.895 65.8571 236.455 61.9971 233.895 58.8771C233.655 58.5871 233.395 58.3171 233.135 58.0571C230.645 56.5071 228.265 55.9871 226.735 56.8471C225.645 59.1271 226.565 63.0771 229.075 67.0471C231.195 68.4071 233.445 68.6671 234.895 67.4971Z"   fill="#C5211E" >
</path>
<path d="M149.955 100.687C155.175 101.242 160.098 103.389 164.055 106.837C168.359 110.532 170.787 115.956 170.675 121.627C170.575 125.757 169.125 129.267 167.845 132.357C166.849 134.471 166.175 136.723 165.845 139.037C165.405 144.597 167.705 149.477 169.725 152.597C170.753 154.142 170.842 156.129 169.954 157.758C169.067 159.388 167.351 160.392 165.495 160.367L165.445 160.357C163.733 160.362 162.137 159.491 161.215 158.047C157.254 152.226 155.334 145.256 155.755 138.227C156.152 134.858 157.09 131.576 158.535 128.507C159.615 125.887 160.535 123.627 160.605 121.367C160.725 116.737 156.385 111.477 148.905 110.687C146.144 110.397 144.14 107.923 144.43 105.162C144.72 102.401 147.194 100.397 149.955 100.687Z"   fill="#FF5527" >
</path>
<path d="M268.295 131.337L268.735 128.337C268.758 128.166 268.848 128.012 268.985 127.909C269.122 127.805 269.295 127.761 269.465 127.787C269.663 127.822 269.835 127.943 269.935 128.117C270.009 128.24 270.034 128.386 270.005 128.527L269.565 131.527C269.541 131.696 269.45 131.847 269.313 131.949C269.176 132.05 269.004 132.093 268.835 132.067C268.666 132.045 268.512 131.955 268.41 131.817C268.308 131.679 268.267 131.506 268.295 131.337Z"   fill="#F8DEAA" >
</path>
<path d="M197.435 120.447L192.635 124.017L192.635 114.907L197.435 111.337L197.435 120.447L197.435 120.447Z"   fill="#269A54" >
</path>
<path d="M209.665 96.5869L213.065 99.6569L206.225 101.027L202.825 97.9569L209.665 96.5869L209.665 96.5869Z"   fill="#4FDF6E" >
</path>
<path d="M257.025 173.657L257.245 178.227L251.445 174.347L251.225 169.767L257.025 173.657L257.025 173.657Z"   fill="#269A54" >
</path>
<path d="M123.015 197.347L125.615 201.117L118.635 200.867L116.035 197.097L123.015 197.347L123.015 197.347Z"   fill="#4FDF6E" >
</path>
<path d="M245.785 107.577L249.885 109.617L243.655 112.767L239.555 110.727L245.785 107.577L245.785 107.577Z"   fill="#4FDF6E" >
</path>
<path d="M250.205 93.7369L253.185 91.7969L252.845 97.2069L249.865 99.1469L250.205 93.7369L250.205 93.7369Z"   fill="#269A54" >
</path>
<path d="M236.565 167.227L239.545 165.287L239.205 170.697L236.225 172.637L236.565 167.227L236.565 167.227Z"   fill="#4FDF6E" >
</path>
<path d="M235.395 90.0771L239.955 90.5071L235.275 95.6871L230.715 95.2571L235.395 90.0771L235.395 90.0771Z"   fill="#269A54" >
</path>
<path d="M220.615 124.707L225.175 125.147L220.495 130.327L215.935 129.887L220.615 124.707L220.615 124.707Z"   fill="#4FDF6E" >
</path>
<path d="M95.9354 196.967L101.965 195.787L93.5454 205.107L87.5154 206.287L95.9354 196.967L95.9354 196.967Z"   fill="#4FDF6E" >
</path>
<path d="M118.555 221.297L117.335 216.677L124.955 221.867L126.175 226.487L118.555 221.297L118.555 221.297Z"   fill="#4FDF6E" >
</path>
<path    stroke="rgba(255, 255, 255, 1.00)" stroke-width="3" stroke-linejoin="round" stroke-linecap="round"  d="M197.075 144.947L205.435 153.647M205.435 153.647L205.435 153.647Z">
</path>
<path    stroke="rgba(255, 255, 255, 1.00)" stroke-width="3" stroke-linejoin="round" stroke-linecap="round"  d="M198.995 162.547L204.605 162.547M204.605 162.547L204.605 162.547Z">
</path>
<path    stroke="rgba(255, 255, 255, 1.00)" stroke-width="3" stroke-linejoin="round" stroke-linecap="round"  d="M223.315 140.757L223.315 140.757ZM223.315 140.757L216.095 150.507">
</path>
<path    stroke="rgba(255, 255, 255, 1.00)" stroke-width="3" stroke-linejoin="round" stroke-linecap="round"  d="M64.3553 143.707L64.3553 143.707ZM64.3553 143.707L57.4053 147.007">
</path>
<path    stroke="rgba(255, 255, 255, 1.00)" stroke-width="3" stroke-linejoin="round" stroke-linecap="round"  d="M78.0154 151.607L78.0154 151.607ZM78.0154 151.607L73.5554 155.327">
</path>
<path    stroke="rgba(255, 255, 255, 1.00)" stroke-width="3" stroke-linejoin="round" stroke-linecap="round"  d="M87.0954 135.627L87.0954 135.627ZM87.0954 135.627L87.0354 141.427">
</path>
<path    stroke="rgba(255, 255, 255, 1.00)" stroke-width="3" stroke-linejoin="round" stroke-linecap="round"  d="M82.7654 103.617L82.7654 103.617ZM82.7654 103.617L82.2654 110.967">
</path>
<path    stroke="rgba(255, 255, 255, 1.00)" stroke-width="3" stroke-linejoin="round" stroke-linecap="round"  d="M76.0354 98.927L76.0354 98.927ZM76.0354 98.927L75.5354 106.277">
</path>
<path    stroke="rgba(255, 255, 255, 1.00)" stroke-width="3" stroke-linejoin="round" stroke-linecap="round"  d="M53.7354 108.347L61.0754 107.777M61.0754 107.777L61.0754 107.777Z">
</path>
<path    stroke="rgba(255, 255, 255, 1.00)" stroke-width="3" stroke-linejoin="round" stroke-linecap="round"  d="M222.275 159.227L222.275 159.227ZM222.275 159.227L216.745 161.887">
</path>
<path d="M19.5754 106.181C17.9522 104.726 17.2563 102.499 17.7625 100.378C18.2687 98.2581 19.8955 96.5854 22.001 96.0205C34.9687 92.0193 49.0587 96.473 57.371 107.201C62.588 113.928 71.3936 116.774 79.561 114.371L102.341 107.561C105.455 106.705 108.681 108.494 109.606 111.588C110.53 114.682 108.813 117.947 105.741 118.941L82.961 125.751C79.979 126.642 76.8834 127.097 73.771 127.101C63.671 127.104 54.1378 122.434 47.951 114.451C42.6884 107.648 33.7606 104.819 25.541 107.351C23.4885 108.085 21.1987 107.636 19.5754 106.181Z"   fill="#FF5527" >
</path>
<path d="M148.575 119.807C148.575 122.066 146.744 123.897 144.485 123.897C142.226 123.897 140.395 122.066 140.395 119.807C140.395 117.548 142.226 115.717 144.485 115.717C146.744 115.717 148.575 117.548 148.575 119.807Z"   fill="#FF5527" >
</path>
<path d="M139.815 132.887C139.815 133.87 139.018 134.667 138.035 134.667C137.052 134.667 136.255 133.87 136.255 132.887C136.255 131.904 137.052 131.107 138.035 131.107C139.018 131.107 139.815 131.904 139.815 132.887Z"   fill="#FF5527" >
</path>
<path d="M204.275 160.617C204.318 158.688 204.934 156.815 206.045 155.237C206.787 154.164 207.307 152.954 207.575 151.677C208.236 148.309 207.065 144.843 204.495 142.567C203.203 141.387 202.427 139.745 202.335 137.997C202.185 134.877 200.875 130.277 194.785 128.997C194.173 128.872 193.55 128.805 192.925 128.797C189.812 128.702 186.825 127.549 184.455 125.527C180.134 121.988 173.855 122.211 169.796 126.05C165.737 129.888 165.163 136.144 168.455 140.657C170.071 142.798 170.789 145.485 170.455 148.147L170.455 148.367C169.932 153.143 172.974 157.587 177.615 158.827L177.725 158.827C178.994 159.137 180.134 159.836 180.985 160.827C187.245 160.487 193.205 164.217 197.845 170.577C200.642 169.255 202.769 166.838 203.725 163.897C204.067 162.836 204.252 161.731 204.275 160.617Z"   fill="#15663F" >
</path>
<path d="M205.575 181.197C201.485 161.107 188.175 145.627 187.195 143.447L191.755 155.247C183.755 143.897 177.965 140.727 177.965 140.727C184.999 147.411 190.108 155.862 192.755 165.197C197.545 169.197 201.555 175.557 204.085 183.407C204.535 182.639 205.032 181.901 205.575 181.197Z"   fill="#FFFFFF" >
</path>
<path    stroke="rgba(255, 255, 255, 1.00)" stroke-width="3" stroke-linejoin="round" stroke-linecap="round"  d="M183.395 159.947L187.795 157.627M187.795 157.627L187.795 157.627Z">
</path>
<path    stroke="rgba(255, 255, 255, 1.00)" stroke-width="3" stroke-linejoin="round" stroke-linecap="round"  d="M188.095 139.987L188.715 132.887M188.715 132.887L188.715 132.887Z">
</path>
<path    stroke="rgba(255, 255, 255, 1.00)" stroke-width="3" stroke-linejoin="round" stroke-linecap="round"  d="M197.125 149.717L197.745 142.617M197.745 142.617L197.745 142.617Z">
</path>
<path    stroke="rgba(255, 255, 255, 1.00)" stroke-width="3" stroke-linejoin="round" stroke-linecap="round"  d="M174.875 150.817L181.835 149.297M181.835 149.297L181.835 149.297Z">
</path>
<path d="M179.495 108.197C185.005 93.627 204.295 75.537 214.795 66.447L172.575 101.677C174.782 103.844 177.089 106.017 179.495 108.197Z"   fill="#D53205" >
</path>
<path d="M221.735 60.6172L221.735 60.6172L221.735 60.6172L221.735 60.6172L221.735 60.6172Z"   fill="#D53205" >
</path>
<path d="M221.735 60.6172L221.735 60.6172L221.735 60.6172L221.735 60.6172L221.735 60.6172Z"   fill="#D53205" >
</path>
<path d="M185.345 97.5071C183.733 96.8227 182.272 95.827 181.045 94.5771L180.695 94.8671L178.005 97.1171C179.464 98.6847 181.213 99.9548 183.155 100.857C183.835 99.7471 184.575 98.6272 185.345 97.5071Z"   fill="#FF8469" >
</path>
<path d="M221.735 60.6172L221.735 60.6172L221.735 60.6172L221.735 60.6172L221.735 60.6172Z"   fill="#D53205" >
</path>
<path d="M182.975 65.6471L176.665 90.7271C183.515 67.6171 205.065 38.5171 205.065 38.5171L182.975 65.6471Z"   fill="#D53205" >
</path>
<path d="M183.645 73.5171C182.763 73.4621 181.878 73.4621 180.995 73.5171L179.665 78.8071C180.152 78.8071 180.642 78.8271 181.135 78.8671C181.935 77.0771 182.775 75.2871 183.645 73.5171Z"   fill="#FF8469" >
</path>
<path d="M194.515 51.4671L191.155 55.5971C191.526 55.4166 191.907 55.2564 192.295 55.1171C192.923 54.9075 193.569 54.7601 194.225 54.6771C194.915 53.5571 195.595 52.4871 196.225 51.4571C195.656 51.4267 195.085 51.43 194.515 51.4671Z"   fill="#FF8469" >
</path>
<path d="M174.275 100.197L176.145 98.637C176.12 96.1513 176.251 93.6665 176.535 91.197L174.275 100.197Z"   fill="#D53205" >
</path>
<path d="M196.445 81.737L191.055 86.237C194.365 85.407 203.645 83.767 210.655 89.157L213.755 86.447C208.245 82.197 201.575 81.457 196.445 81.737Z"   fill="#FFB084" >
</path>
<path d="M195.005 85.527C196.185 84.227 197.382 82.9504 198.595 81.697C197.845 81.697 197.125 81.697 196.425 81.697L195.635 82.357L191.035 86.197C192.343 85.8881 193.669 85.6643 195.005 85.527Z"   fill="#FF8469" >
</path>
<path d="M102.255 54.007C88.6655 61.847 79.7555 72.547 80.4555 79.497C87.2955 79.737 96.9255 76.927 106.455 71.417C120.045 63.567 128.945 52.867 128.255 45.917C121.445 45.677 111.815 48.487 102.255 54.007Z"   fill="#CB2600" >
</path>
<path d="M198.479 190.167C199.396 191.755 198.421 194.034 196.302 195.257C194.184 196.48 191.723 196.185 190.806 194.597C189.889 193.009 190.864 190.73 192.982 189.507C195.101 188.283 197.562 188.579 198.479 190.167Z"   fill="#CB2600" >
</path>
<path d="M193.375 190.197C195.375 189.057 197.595 189.197 198.645 190.537C198.604 190.412 198.551 190.291 198.485 190.177C197.565 188.587 195.105 188.287 192.985 189.517C190.865 190.747 189.885 193.017 190.805 194.607C190.871 194.722 190.948 194.829 191.035 194.927C190.445 193.377 191.445 191.327 193.375 190.197Z"   fill="#521306" >
</path>
<path d="M199.253 207.418C200.727 209.371 200.734 211.85 199.271 212.954C197.807 214.058 195.426 213.37 193.952 211.417C192.479 209.464 192.471 206.985 193.935 205.881C195.399 204.777 197.78 205.465 199.253 207.418Z"   fill="#CB2600" >
</path>
<path d="M199.235 207.437C197.765 205.437 195.375 204.787 193.915 205.897C193.749 206.026 193.598 206.173 193.465 206.337C194.925 205.717 196.935 206.457 198.245 208.187C199.555 209.917 199.705 212.047 198.705 213.287C198.899 213.203 199.083 213.099 199.255 212.977C200.715 211.867 200.715 209.387 199.235 207.437Z"   fill="#521306" >
</path>
<path d="M198.355 270.037L198.355 270.037C184.562 275.905 170.036 279.871 155.175 281.827L160.445 334.197L160.445 334.197L161.375 302.807C161.66 292.944 168.037 284.295 177.375 281.107C192.795 275.867 198.355 270.037 198.355 270.037Z"   fill="#923E23" >
</path>
<path d="M282.815 162.027C285.193 162.628 286.789 164.864 286.575 167.307C286.075 179.747 282.575 196.657 270.655 214.797C291.985 186.197 299.815 154.057 289.445 127.947L289.445 127.887C289.175 127.217 288.895 126.537 288.605 125.887L278.605 101.887C288.605 144.657 257.545 199.037 201.445 231.417C182.255 242.647 161.176 250.282 139.245 253.947C178.315 249.017 245.075 230.787 277.005 164.887C277.979 162.636 280.438 161.426 282.815 162.027Z"   fill="#42090D" >
</path>
<path d="M108.985 255.627L108.985 255.627L109.465 255.627L108.985 255.627Z"   fill="#42090D" >
</path>
</svg>
