<svg xmlns="http://www.w3.org/2000/svg" xmlns:xlink="http://www.w3.org/1999/xlink" width="327.93017578125" height="378.41064453125" viewBox="0 0 327.93017578125 378.41064453125" fill="none">
<path d="M325.68 215.57C325.68 305.444 252.714 378.41 162.84 378.41C72.9662 378.41 0 305.444 0 215.57C0 212.65 0.07 209.75 0.23 206.87C4.91913 118.737 78.9651 50.3814 167.192 52.7399C255.418 55.0984 325.706 127.312 325.68 215.57Z"   fill="#5C87C6" >
</path>
<path d="M309.24 205.02C309.24 243.349 244.715 274.42 165.12 274.42C85.5247 274.42 21 243.349 21 205.02C21 166.692 85.5247 135.62 165.12 135.62C244.715 135.62 309.24 166.692 309.24 205.02Z"   fill="#5C86C5" >
</path>
<path d="M127.55 235.44L42.1602 178.29L100.84 81.98L184.71 150.05L127.55 235.44L127.55 235.44Z"   fill="#14452E" >
</path>
<path d="M306.16 219.35C306.16 249.764 243.014 274.42 165.12 274.42C87.2258 274.42 24.0801 249.764 24.0801 219.35C24.0801 188.936 87.2258 164.28 165.12 164.28C243.014 164.28 306.16 188.936 306.16 219.35Z"   fill="#F2B848" >
</path>
<path d="M127.55 235.44L42.1602 178.29L100.84 81.98L184.71 150.05L127.55 235.44L127.55 235.44Z"   fill="#0A331E" >
</path>
<path d="M165.12 274.42C86.9901 274.42 23.3901 244.48 21.1201 207.13C21.1201 208.49 21.0501 209.85 21.0501 211.22C21.0418 224.221 22.8527 237.16 26.4301 249.66C43.4901 309.13 99.1501 352.72 165.17 352.72C231.19 352.72 286.84 309.13 303.84 249.66C307.422 237.161 309.233 224.222 309.22 211.22C309.22 209.85 309.22 208.49 309.16 207.13C306.84 244.48 243.25 274.42 165.12 274.42Z"   fill="#FFFFFF" >
</path>
<path d="M186.63 212.038C189.135 212.142 191.497 213.24 193.19 215.09L193.97 215.93C197.876 220.183 203.315 222.706 209.086 222.941C214.856 223.175 220.482 221.102 224.72 217.18L225.45 216.5C227.312 214.775 229.791 213.874 232.326 214C234.861 214.126 237.238 215.269 238.92 217.17C242.791 221.545 248.262 224.175 254.096 224.465C259.93 224.754 265.635 222.68 269.92 218.71L270.71 217.99C272.542 216.287 274.977 215.384 277.476 215.48C279.975 215.575 282.334 216.662 284.03 218.5L295.58 230.97C296.141 231.584 296.822 232.078 297.58 232.42C300.281 229.439 302.629 226.157 304.58 222.64L304.54 222.62L293 210.15C284.848 201.356 271.113 200.828 262.31 208.97L261.53 209.7C259.668 211.424 257.189 212.326 254.654 212.2C252.119 212.073 249.742 210.931 248.06 209.03C244.19 204.655 238.719 202.025 232.884 201.735C227.05 201.445 221.345 203.52 217.06 207.49L216.32 208.17C214.48 209.874 212.037 210.775 209.531 210.671C207.025 210.568 204.664 209.47 202.97 207.62L202.19 206.78C198.284 202.526 192.845 200.004 187.075 199.769C181.305 199.535 175.679 201.608 171.44 205.53L170.5 206.41C168.657 208.112 166.213 209.011 163.706 208.908C161.199 208.805 158.837 207.708 157.14 205.86L156.37 205.02C152.462 200.765 147.02 198.242 141.248 198.009C135.475 197.777 129.848 199.853 125.61 203.78L124.67 204.66C122.827 206.362 120.383 207.261 117.876 207.158C115.369 207.055 113.007 205.958 111.31 204.11L110.54 203.27C106.637 199.03 101.209 196.515 95.4512 196.279C89.6933 196.043 84.0776 198.104 79.8402 202.01L67.4202 213.51C65.7079 214.973 64.9345 217.257 65.4048 219.46C65.8752 221.662 67.5139 223.431 69.6745 224.067C71.8351 224.704 74.1708 224.106 75.7602 222.51L88.1802 211.01C90.0229 209.307 92.4676 208.409 94.9743 208.512C97.481 208.615 99.8436 209.712 101.54 211.56L102.31 212.4C106.216 216.653 111.655 219.176 117.426 219.411C123.196 219.645 128.822 217.572 133.06 213.65L134.06 212.77C135.9 211.065 138.344 210.165 140.85 210.268C143.355 210.372 145.717 211.47 147.41 213.32L148.19 214.16C156.311 222.961 170.025 223.525 178.84 215.42L179.84 214.54C181.68 212.835 184.124 211.935 186.63 212.038Z"   fill="#FCEFD6" >
</path>
<path d="M163.758 217.289C161.252 217.188 158.89 216.094 157.19 214.25L156.42 213.4C152.514 209.146 147.074 206.623 141.303 206.39C135.532 206.158 129.906 208.234 125.67 212.16L124.73 213.03C122.887 214.731 120.444 215.63 117.938 215.529C115.432 215.428 113.07 214.334 111.37 212.49L110.6 211.64C106.698 207.379 101.259 204.849 95.4861 204.609C89.7135 204.369 84.083 206.438 79.8402 210.36L67.4202 221.87C65.7079 223.333 64.9345 225.617 65.4048 227.82C65.8752 230.022 67.5139 231.791 69.6745 232.427C71.8351 233.064 74.1708 232.466 75.7602 230.87L75.7102 230.88L88.1302 219.38C89.9692 217.671 92.4143 216.767 94.9226 216.869C97.4309 216.97 99.795 218.068 101.49 219.92L102.26 220.76C106.163 225.018 111.603 227.545 117.375 227.779C123.147 228.014 128.774 225.937 133.01 222.01L134.01 221.14C135.848 219.432 138.291 218.528 140.798 218.629C143.304 218.731 145.667 219.829 147.36 221.68L148.14 222.52C152.039 226.767 157.468 229.287 163.229 229.523C168.989 229.76 174.606 227.693 178.84 223.78L179.84 222.91C181.678 221.202 184.121 220.298 186.628 220.399C189.134 220.501 191.497 221.599 193.19 223.45L193.97 224.3C197.876 228.554 203.317 231.077 209.087 231.31C214.858 231.543 220.484 229.466 224.72 225.54L225.45 224.86C227.312 223.135 229.791 222.234 232.326 222.36C234.861 222.486 237.238 223.629 238.92 225.53C242.791 229.904 248.261 232.534 254.094 232.826C259.928 233.117 265.632 231.046 269.92 227.08L270.71 226.35C274.53 222.815 280.492 223.043 284.03 226.86L293.28 236.86C296.312 234.069 299.056 230.98 301.47 227.64L293.05 218.54C289.138 214.312 283.706 211.812 277.95 211.591C272.194 211.37 266.586 213.445 262.36 217.36L261.58 218.08C259.718 219.805 257.239 220.706 254.704 220.58C252.169 220.454 249.792 219.311 248.11 217.41C244.237 213.04 238.766 210.414 232.934 210.124C227.101 209.834 221.398 211.905 217.11 215.87L216.37 216.55C214.53 218.253 212.088 219.154 209.583 219.052C207.078 218.951 204.716 217.856 203.02 216.01L202.24 215.16C198.334 210.906 192.894 208.383 187.123 208.15C181.352 207.918 175.726 209.994 171.49 213.92L170.55 214.79C168.707 216.491 166.264 217.39 163.758 217.289Z"   fill="#F5C872" >
</path>
<path d="M232.326 225.05C234.861 225.176 237.238 226.319 238.92 228.22C242.791 232.594 248.261 235.224 254.094 235.515C259.928 235.807 265.632 233.736 269.92 229.77L270.71 229.04C274.53 225.505 280.492 225.733 284.03 229.55L291.92 238.07C295.018 235.346 297.847 232.333 300.37 229.07L293 221.21C289.088 216.982 283.656 214.482 277.9 214.261C272.144 214.04 266.536 216.115 262.31 220.03L261.53 220.75C259.668 222.475 257.189 223.376 254.654 223.25C252.119 223.124 249.742 221.981 248.06 220.08C244.187 215.71 238.716 213.084 232.884 212.794C227.051 212.504 221.348 214.575 217.06 218.54L216.32 219.22C214.48 220.923 212.038 221.824 209.533 221.722C207.028 221.621 204.666 220.526 202.97 218.68L202.19 217.83C198.284 213.576 192.844 211.053 187.073 210.82C181.302 210.587 175.676 212.664 171.44 216.59L170.5 217.46C168.657 219.161 166.214 220.06 163.708 219.959C161.202 219.858 158.84 218.764 157.14 216.92L156.37 216.07C152.464 211.816 147.024 209.293 141.253 209.06C135.482 208.827 129.856 210.904 125.62 214.83L124.68 215.7C122.837 217.401 120.394 218.3 117.888 218.199C115.382 218.098 113.02 217.004 111.32 215.16L110.55 214.31C106.645 210.069 101.215 207.554 95.4543 207.319C89.694 207.085 84.0767 209.15 79.8402 213.06L67.4202 224.57C65.7079 226.033 64.9345 228.317 65.4048 230.52C65.8752 232.722 67.5139 234.491 69.6745 235.127C71.8351 235.764 74.1708 235.166 75.7602 233.57L88.1802 222.07C90.0192 220.361 92.4643 219.457 94.9726 219.559C97.4809 219.66 99.845 220.758 101.54 222.61L102.31 223.45C106.213 227.708 111.653 230.234 117.425 230.469C123.197 230.704 128.824 228.627 133.06 224.7L134.06 223.83C135.898 222.122 138.341 221.218 140.848 221.319C143.354 221.421 145.717 222.519 147.41 224.37L148.19 225.21C152.087 229.442 157.506 231.952 163.254 232.188C169.002 232.425 174.609 230.368 178.84 226.47L179.84 225.6C181.678 223.892 184.121 222.988 186.628 223.089C189.134 223.191 191.497 224.289 193.19 226.14L193.97 226.99C197.876 231.244 203.317 233.767 209.087 234C214.858 234.233 220.484 232.156 224.72 228.23L225.45 227.55C227.312 225.825 229.791 224.924 232.326 225.05Z"   fill="#FCEFD6" >
</path>
<path d="M248.11 228.82C244.24 224.445 238.769 221.815 232.934 221.525C227.1 221.235 221.395 223.31 217.11 227.28L216.37 227.96C214.53 229.663 212.088 230.563 209.583 230.462C207.078 230.361 204.716 229.266 203.02 227.42L202.24 226.57C198.334 222.316 192.895 219.794 187.125 219.559C181.355 219.325 175.729 221.398 171.49 225.32L170.55 226.2C168.707 227.902 166.263 228.801 163.756 228.698C161.249 228.595 158.887 227.498 157.19 225.65L156.42 224.81C152.514 220.556 147.075 218.034 141.305 217.799C135.535 217.565 129.909 219.638 125.67 223.56L124.73 224.44C122.887 226.142 120.443 227.041 117.936 226.938C115.429 226.835 113.067 225.738 111.37 223.89L110.6 223.05C106.696 218.791 101.257 216.262 95.484 216.024C89.7114 215.786 84.0817 217.857 79.8402 221.78L67.4202 233.28C65.7079 234.743 64.9345 237.027 65.4048 239.23C65.8752 241.432 67.5139 243.201 69.6745 243.837C71.8351 244.474 74.1708 243.876 75.7602 242.28L75.7102 242.32L88.1302 230.78C89.9729 229.077 92.4176 228.179 94.9243 228.282C97.431 228.385 99.7936 229.482 101.49 231.33L102.26 232.17C106.166 236.423 111.605 238.946 117.376 239.181C123.146 239.415 128.772 237.342 133.01 233.42L134.01 232.54C135.85 230.836 138.294 229.935 140.8 230.038C143.305 230.142 145.667 231.24 147.36 233.09L148.14 233.93C152.039 238.175 157.466 240.695 163.225 240.935C168.984 241.175 174.601 239.116 178.84 235.21L179.84 234.33C181.68 232.626 184.124 231.725 186.63 231.828C189.135 231.932 191.497 233.03 193.19 234.88L193.97 235.72C197.876 239.973 203.315 242.496 209.086 242.731C214.856 242.965 220.482 240.892 224.72 236.97L225.45 236.29C227.312 234.565 229.791 233.664 232.326 233.79C234.861 233.916 237.238 235.059 238.92 236.96C242.791 241.335 248.262 243.965 254.096 244.255C259.93 244.544 265.635 242.47 269.92 238.5L270.71 237.78C272.542 236.077 274.977 235.174 277.476 235.27C279.975 235.365 282.334 236.452 284.03 238.29L287.33 241.85C290.597 239.369 293.657 236.626 296.48 233.65L293.05 229.94C284.898 221.146 271.163 220.618 262.36 228.76L261.58 229.49C259.718 231.215 257.239 232.116 254.704 231.99C252.169 231.863 249.792 230.721 248.11 228.82Z"   fill="#F5C872" >
</path>
<path d="M152.78 124.13L100.84 81.98L61.1702 147.08C74.2353 162.162 94.6734 168.613 114.03 163.764C133.386 158.915 148.369 143.591 152.78 124.13Z"   fill="#14452E" >
</path>
<path d="M261.53 231.81C259.668 233.535 257.189 234.436 254.654 234.31C252.119 234.184 249.742 233.041 248.06 231.14C244.19 226.765 238.719 224.135 232.884 223.845C227.05 223.556 221.345 225.63 217.06 229.6L216.32 230.28C214.48 231.984 212.037 232.885 209.531 232.782C207.025 232.678 204.664 231.58 202.97 229.73L202.19 228.89C198.284 224.637 192.845 222.114 187.075 221.879C181.305 221.645 175.679 223.718 171.44 227.64L170.5 228.52C168.657 230.223 166.213 231.121 163.706 231.018C161.199 230.915 158.837 229.818 157.14 227.97L156.37 227.13C152.464 222.877 147.025 220.354 141.255 220.119C135.485 219.885 129.859 221.958 125.62 225.88L124.68 226.76C122.837 228.463 120.393 229.361 117.886 229.258C115.379 229.155 113.017 228.058 111.32 226.21L110.55 225.37C106.645 221.129 101.215 218.614 95.4543 218.379C89.694 218.145 84.0767 220.21 79.8402 224.12L67.4202 235.62C65.7079 237.083 64.9345 239.367 65.4048 241.57C65.8752 243.772 67.5139 245.541 69.6745 246.177C71.8351 246.814 74.1708 246.216 75.7602 244.62L88.1802 233.12C90.0229 231.418 92.4676 230.519 94.9743 230.622C97.481 230.725 99.8436 231.822 101.54 233.67L102.31 234.51C106.212 238.751 111.639 241.268 117.397 241.506C123.155 241.744 128.771 239.684 133.01 235.78L134.01 234.9C135.85 233.196 138.294 232.295 140.8 232.399C143.305 232.502 145.667 233.6 147.36 235.45L148.14 236.29C152.045 240.529 157.474 243.042 163.233 243.275C168.992 243.507 174.607 241.441 178.84 237.53L179.84 236.65C181.68 234.946 184.124 234.045 186.63 234.149C189.135 234.252 191.497 235.35 193.19 237.2L193.97 238.04C197.876 242.293 203.315 244.816 209.086 245.051C214.856 245.285 220.482 243.212 224.72 239.29L225.45 238.61C227.312 236.885 229.791 235.984 232.326 236.11C234.861 236.236 237.238 237.379 238.92 239.28C242.791 243.655 248.262 246.285 254.096 246.575C259.93 246.865 265.635 244.79 269.92 240.82L270.71 240.1C272.542 238.397 274.977 237.494 277.476 237.59C279.975 237.686 282.334 238.772 284.03 240.61L286.03 242.81C289.337 240.386 292.453 237.711 295.35 234.81L293 232.26C284.848 223.466 271.113 222.938 262.31 231.08L261.53 231.81Z"   fill="#FCEFD6" >
</path>
<path d="M75.7201 253.23L88.1401 241.78C89.9792 240.074 92.4239 239.174 94.9301 239.28C97.4311 239.358 99.7955 240.439 101.49 242.28L102.27 243.12C106.176 247.373 111.615 249.896 117.386 250.131C123.156 250.365 128.782 248.292 133.02 244.37L133.96 243.49C135.803 241.788 138.248 240.889 140.754 240.992C143.261 241.095 145.624 242.192 147.32 244.04L148.09 244.88C151.996 249.133 157.435 251.656 163.206 251.891C168.976 252.125 174.602 250.052 178.84 246.13L179.84 245.25C181.68 243.547 184.122 242.646 186.627 242.748C189.132 242.849 191.494 243.944 193.19 245.79L193.97 246.64C197.875 250.893 203.312 253.415 209.081 253.65C214.849 253.884 220.473 251.812 224.71 247.89L225.45 247.21C227.312 245.485 229.791 244.584 232.326 244.71C234.861 244.836 237.238 245.979 238.92 247.88C242.791 252.255 248.262 254.885 254.096 255.175C259.93 255.464 265.635 253.39 269.92 249.42L270.7 248.7C273.282 246.294 276.995 245.541 280.31 246.75C284.038 244.383 287.596 241.76 290.96 238.9C282.579 231.953 270.35 232.287 262.36 239.68L261.57 240.41C259.71 242.134 257.232 243.035 254.699 242.909C252.166 242.783 249.79 241.64 248.11 239.74C244.238 235.367 238.767 232.739 232.934 232.45C227.101 232.16 221.397 234.233 217.11 238.2L216.38 238.88C214.537 240.582 212.093 241.481 209.586 241.378C207.079 241.275 204.717 240.178 203.02 238.33L202.25 237.49C198.344 233.237 192.905 230.714 187.135 230.479C181.365 230.245 175.739 232.318 171.5 236.24L170.56 237.12C168.717 238.822 166.273 239.721 163.766 239.618C161.259 239.515 158.897 238.418 157.2 236.57L156.43 235.73C152.524 231.477 147.085 228.954 141.315 228.719C135.545 228.485 129.919 230.558 125.68 234.48L124.73 235.36C122.89 237.064 120.447 237.965 117.941 237.861C115.435 237.758 113.074 236.66 111.38 234.81L110.6 233.97C106.694 229.714 101.252 227.189 95.4799 226.954C89.7073 226.72 84.0791 228.795 79.8401 232.72L67.4201 244.22C65.7544 245.697 65.0189 247.961 65.498 250.135C65.9771 252.309 67.5957 254.054 69.728 254.694C71.8604 255.335 74.1723 254.771 75.7701 253.22L75.7201 253.23Z"   fill="#F5C872" >
</path>
<path d="M141.255 231.169C135.484 230.935 129.858 233.008 125.62 236.93L124.68 237.81C122.837 239.511 120.394 240.41 117.888 240.309C115.382 240.208 113.019 239.114 111.32 237.27L110.55 236.42C106.645 232.179 101.214 229.664 95.4541 229.429C89.6938 229.195 84.0766 231.26 79.84 235.17L67.37 246.68C65.9413 247.999 65.2229 249.917 65.434 251.85C65.645 253.783 66.7604 255.501 68.44 256.48C68.88 256.68 69.33 256.87 69.79 257.06C71.8666 257.687 74.1198 257.165 75.71 255.69L88.13 244.19C89.9691 242.481 92.4141 241.577 94.9224 241.679C97.4308 241.78 99.7949 242.878 101.49 244.73L102.26 245.57C106.169 249.823 111.612 252.342 117.383 252.569C123.155 252.796 128.779 250.712 133.01 246.78L134.01 245.91C135.847 244.202 138.291 243.298 140.797 243.4C143.304 243.501 145.667 244.599 147.36 246.45L148.14 247.29C152.035 251.541 157.462 254.067 163.222 254.309C168.983 254.551 174.602 252.489 178.84 248.58L179.84 247.71C181.677 246.002 184.121 245.098 186.627 245.2C189.134 245.301 191.497 246.399 193.19 248.25L193.97 249.1C197.876 253.355 203.316 255.877 209.087 256.11C214.858 256.343 220.484 254.266 224.72 250.34L225.45 249.66C227.312 247.935 229.791 247.034 232.326 247.16C234.861 247.287 237.238 248.429 238.92 250.33C242.779 254.724 248.259 257.359 254.1 257.63C256.394 257.747 258.693 257.5 260.91 256.9C263.05 255.98 265.137 255.03 267.17 254.05C268.145 253.399 269.067 252.674 269.93 251.88L270.72 251.15C272.493 249.5 274.838 248.604 277.26 248.65C281.526 246.134 285.601 243.307 289.45 240.19C286.046 237.836 282.036 236.511 277.9 236.37C272.142 236.137 266.529 238.214 262.31 242.14L261.53 242.86C259.668 244.585 257.189 245.486 254.654 245.36C252.119 245.234 249.742 244.091 248.06 242.19C244.186 237.82 238.716 235.194 232.884 234.904C227.051 234.614 221.348 236.685 217.06 240.65L216.32 241.33C214.48 243.033 212.038 243.934 209.533 243.832C207.028 243.731 204.666 242.636 202.97 240.79L202.19 239.94C198.284 235.687 192.845 233.164 187.075 232.929C181.304 232.695 175.678 234.768 171.44 238.69L170.5 239.57C168.657 241.271 166.214 242.17 163.708 242.069C161.202 241.968 158.839 240.874 157.14 239.03L156.37 238.18C152.464 233.927 147.025 231.404 141.255 231.169Z"   fill="#FCEFD6" >
</path>
<path d="M281.3 246.12C280.439 245.987 279.571 245.901 278.7 245.86C272.945 245.626 267.335 247.704 263.12 251.63L262.33 252.36C260.465 254.079 257.988 254.977 255.454 254.851C252.921 254.725 250.545 253.586 248.86 251.69C244.989 247.316 239.519 244.686 233.686 244.395C227.853 244.103 222.148 246.174 217.86 250.14L217.13 250.82C215.291 252.529 212.846 253.433 210.338 253.331C207.829 253.23 205.465 252.132 203.77 250.28L203 249.43C199.094 245.176 193.654 242.653 187.883 242.42C182.112 242.188 176.486 244.264 172.25 248.19L171.25 249.06C169.413 250.768 166.969 251.672 164.463 251.571C161.956 251.469 159.593 250.371 157.9 248.52L157.12 247.67C153.216 243.416 147.777 240.894 142.008 240.661C136.238 240.428 130.614 242.505 126.38 246.43L125.43 247.3C123.59 249.003 121.148 249.904 118.643 249.802C116.138 249.701 113.776 248.606 112.08 246.76L111.3 245.91C107.394 241.656 101.954 239.133 96.1827 238.9C90.4118 238.668 84.786 240.744 80.55 244.67L68.13 256.17L68.02 256.29C72.03 258.06 76.27 259.72 80.7 261.26L88.89 253.68C90.7298 251.977 93.1721 251.077 95.6772 251.178C98.1822 251.279 100.544 252.374 102.24 254.22L103.02 255.07C106.926 259.324 112.366 261.847 118.137 262.08C123.908 262.313 129.534 260.236 133.77 256.31L134.71 255.44C136.553 253.739 138.996 252.84 141.502 252.941C144.008 253.042 146.371 254.136 148.07 255.98L148.84 256.83C152.746 261.084 158.186 263.607 163.957 263.84C169.728 264.073 175.354 261.996 179.59 258.07L180.59 257.2C182.431 255.499 184.873 254.601 187.377 254.702C189.881 254.803 192.242 255.896 193.94 257.74L194.72 258.59C198.624 262.843 204.062 265.365 209.83 265.6C215.599 265.835 221.223 263.762 225.46 259.84L226.2 259.15C228.065 257.429 230.544 256.532 233.078 256.66C235.612 256.787 237.988 257.93 239.67 259.83C240.817 261.124 242.113 262.279 243.53 263.27C258.16 258.69 270.97 252.88 281.3 246.12Z"   fill="#F5C872" >
</path>
<path d="M193.97 260.15C197.876 264.403 203.315 266.926 209.086 267.161C214.856 267.395 220.482 265.322 224.72 261.4L225.45 260.72C227.312 258.995 229.791 258.094 232.326 258.22C234.861 258.346 237.238 259.489 238.92 261.39C239.723 262.291 240.595 263.127 241.53 263.89C255.99 259.53 268.72 253.97 279.14 247.51C278.75 247.51 278.35 247.44 277.96 247.43C272.202 247.188 266.588 249.263 262.37 253.19L261.59 253.92C259.728 255.645 257.249 256.546 254.714 256.42C252.179 256.294 249.802 255.151 248.12 253.25C244.25 248.875 238.779 246.245 232.944 245.955C227.11 245.665 221.405 247.74 217.12 251.71L216.38 252.39C214.54 254.094 212.097 254.995 209.591 254.891C207.085 254.788 204.724 253.69 203.03 251.84L202.25 251C198.338 246.729 192.882 244.198 187.094 243.969C181.307 243.74 175.668 245.832 171.43 249.78L170.49 250.66C168.647 252.362 166.203 253.261 163.696 253.158C161.189 253.055 158.827 251.958 157.13 250.11L156.36 249.27C152.454 245.017 147.015 242.494 141.245 242.259C135.475 242.025 129.849 244.098 125.61 248.02L124.67 248.89C122.831 250.599 120.386 251.503 117.878 251.401C115.369 251.3 113.005 250.202 111.31 248.35L110.54 247.51C106.64 243.267 101.213 240.749 95.4554 240.509C89.6975 240.269 84.0801 242.327 79.8402 246.23L68.6802 256.56C72.7002 258.32 76.9335 259.967 81.3802 261.5L88.1302 255.24C89.9729 253.539 92.4162 252.64 94.9221 252.741C97.428 252.842 99.7908 253.936 101.49 255.78L102.26 256.63C106.166 260.883 111.605 263.406 117.376 263.641C123.146 263.875 128.772 261.802 133.01 257.88L134.01 257C135.85 255.296 138.294 254.395 140.8 254.498C143.305 254.602 145.667 255.7 147.36 257.55L148.14 258.39C152.043 262.631 157.472 265.145 163.231 265.38C168.99 265.614 174.605 263.549 178.84 259.64L179.84 258.76C181.68 257.057 184.122 256.156 186.627 256.258C189.132 256.359 191.494 257.454 193.19 259.3L193.97 260.15Z"   fill="#FCEFD6" >
</path>
<path d="M150.779 246.453C151.17 245.95 151.187 245.251 150.82 244.73C150.803 244.693 150.806 244.649 150.828 244.615C150.851 244.58 150.889 244.56 150.93 244.56C151.557 244.66 152.175 244.341 152.457 243.772C152.739 243.204 152.619 242.518 152.16 242.08C152.128 242.05 152.117 242.003 152.132 241.962C152.148 241.92 152.186 241.892 152.23 241.89C152.865 241.861 153.407 241.423 153.568 240.808C153.728 240.193 153.47 239.545 152.93 239.21C152.891 239.192 152.866 239.153 152.866 239.11C152.866 239.067 152.891 239.028 152.93 239.01C153.571 238.872 154.041 238.324 154.08 237.67C154.104 237.021 153.697 236.434 153.08 236.23C153.041 236.212 153.016 236.173 153.016 236.13C153.016 236.087 153.041 236.048 153.08 236.03C153.653 235.754 153.979 235.138 153.885 234.509C153.791 233.88 153.299 233.386 152.67 233.29C152.629 233.281 152.597 233.251 152.587 233.21C152.576 233.17 152.589 233.128 152.62 233.1C153.128 232.713 153.323 232.039 153.1 231.44C152.883 230.841 152.296 230.457 151.66 230.5C151.617 230.502 151.576 230.478 151.556 230.439C151.537 230.4 151.542 230.354 151.57 230.32C151.992 229.841 152.051 229.142 151.715 228.599C151.379 228.055 150.727 227.796 150.11 227.96C150.069 227.977 150.022 227.965 149.994 227.93C149.966 227.895 149.964 227.846 149.99 227.81C150.28 227.248 150.197 226.566 149.78 226.09C149.322 225.655 148.649 225.537 148.07 225.79C148.031 225.797 147.991 225.785 147.963 225.757C147.935 225.729 147.923 225.689 147.93 225.65C148.128 225.045 147.904 224.381 147.38 224.019C146.856 223.657 146.157 223.681 145.66 224.08C145.625 224.11 145.576 224.115 145.535 224.092C145.495 224.07 145.473 224.025 145.48 223.98C145.548 223.346 145.194 222.742 144.608 222.492C144.022 222.241 143.341 222.403 142.93 222.89C142.901 222.921 142.857 222.933 142.816 222.92C142.775 222.908 142.746 222.872 142.74 222.83C142.691 222.19 142.224 221.66 141.596 221.531C140.967 221.401 140.329 221.702 140.03 222.27C140.012 222.309 139.973 222.334 139.93 222.334C139.887 222.334 139.848 222.309 139.83 222.27C139.653 221.682 139.124 221.27 138.511 221.241C137.898 221.212 137.333 221.572 137.1 222.14C137.08 222.174 137.044 222.195 137.005 222.195C136.966 222.195 136.93 222.174 136.91 222.14C136.572 221.631 135.951 221.388 135.357 221.534C134.763 221.679 134.324 222.182 134.26 222.79C134.254 222.832 134.225 222.868 134.184 222.88C134.143 222.893 134.099 222.881 134.07 222.85C133.663 222.358 132.983 222.19 132.394 222.436C131.805 222.682 131.446 223.285 131.51 223.92C131.513 223.962 131.492 224.002 131.456 224.023C131.42 224.044 131.375 224.043 131.34 224.02C130.84 223.62 130.137 223.596 129.61 223.96C129.083 224.319 128.855 224.983 129.05 225.59C129.061 225.631 129.048 225.675 129.016 225.702C128.984 225.73 128.939 225.737 128.9 225.72C128.331 225.425 127.635 225.539 127.19 226.001C126.744 226.462 126.655 227.161 126.97 227.72C126.991 227.758 126.987 227.804 126.961 227.839C126.936 227.873 126.892 227.889 126.85 227.88C126.237 227.716 125.588 227.969 125.249 228.505C124.91 229.042 124.959 229.737 125.37 230.22C125.398 230.254 125.403 230.3 125.384 230.339C125.364 230.378 125.324 230.402 125.28 230.4C124.642 230.352 124.049 230.727 123.818 231.324C123.588 231.92 123.776 232.597 124.28 232.99C124.314 233.012 124.334 233.05 124.334 233.09C124.334 233.13 124.314 233.168 124.28 233.19C123.645 233.269 123.138 233.758 123.036 234.39C122.934 235.022 123.262 235.646 123.84 235.92C123.879 235.938 123.904 235.977 123.904 236.02C123.904 236.063 123.879 236.102 123.84 236.12C123.24 236.333 122.849 236.913 122.876 237.549C122.904 238.186 123.343 238.73 123.96 238.89C123.999 238.908 124.024 238.947 124.024 238.99C124.024 239.033 123.999 239.072 123.96 239.09C123.413 239.42 123.147 240.068 123.303 240.687C123.46 241.306 124.002 241.75 124.64 241.78C124.685 241.775 124.728 241.801 124.744 241.843C124.76 241.885 124.747 241.933 124.71 241.96C124.241 242.392 124.11 243.079 124.385 243.654C124.661 244.228 125.28 244.556 125.91 244.46C125.954 244.452 125.997 244.472 126.021 244.509C126.045 244.546 126.045 244.593 126.02 244.63C125.654 245.148 125.666 245.844 126.051 246.348C126.436 246.852 127.104 247.047 127.7 246.83C127.742 246.813 127.791 246.824 127.822 246.857C127.853 246.89 127.86 246.939 127.84 246.98C127.584 247.563 127.739 248.245 128.221 248.661C128.704 249.077 129.401 249.129 129.94 248.79C130.01 248.79 130.12 248.79 130.1 248.91C129.968 249.532 130.256 250.168 130.812 250.478C131.368 250.788 132.06 250.699 132.52 250.26C132.552 250.233 132.597 250.227 132.635 250.244C132.673 250.261 132.698 250.298 132.7 250.34C132.691 250.978 133.099 251.547 133.706 251.742C134.312 251.937 134.976 251.713 135.34 251.19C135.358 251.151 135.397 251.126 135.44 251.126C135.483 251.126 135.522 251.151 135.54 251.19C135.666 251.81 136.18 252.276 136.809 252.343C137.438 252.409 138.037 252.06 138.29 251.48C138.308 251.441 138.347 251.416 138.39 251.416C138.433 251.416 138.472 251.441 138.49 251.48C138.735 252.069 139.336 252.428 139.97 252.366C140.604 252.304 141.124 251.835 141.25 251.21C141.268 251.171 141.307 251.146 141.35 251.146C141.393 251.146 141.432 251.171 141.45 251.21C141.808 251.738 142.469 251.97 143.079 251.781C143.688 251.593 144.103 251.028 144.1 250.39C144.102 250.348 144.127 250.311 144.165 250.294C144.203 250.277 144.248 250.283 144.28 250.31C144.737 250.752 145.428 250.846 145.985 250.541C146.543 250.235 146.837 249.603 146.71 248.98C146.701 248.938 146.717 248.894 146.752 248.869C146.786 248.843 146.832 248.839 146.87 248.86C147.408 249.203 148.106 249.155 148.591 248.741C149.076 248.327 149.234 247.645 148.98 247.06C148.966 247.02 148.976 246.976 149.006 246.946C149.036 246.916 149.08 246.906 149.12 246.92C149.716 247.146 150.389 246.956 150.779 246.453Z"   fill="#F5C872" >
</path>
<path d="M203.71 261.3L202.94 260.45C199.034 256.197 193.595 253.674 187.825 253.439C182.055 253.205 176.429 255.278 172.19 259.2L171.19 260.08C169.35 261.784 166.907 262.685 164.401 262.582C161.895 262.478 159.534 261.38 157.84 259.53L157.06 258.69C153.156 254.437 147.718 251.915 141.95 251.68C136.181 251.446 130.557 253.518 126.32 257.44L125.37 258.32C123.53 260.024 121.087 260.925 118.581 260.822C116.075 260.718 113.714 259.62 112.02 257.77L111.24 256.93C107.334 252.677 101.895 250.154 96.1247 249.919C90.3546 249.685 84.7286 251.758 80.4901 255.68L76.2301 259.68C80.5301 261.26 84.9801 262.78 89.6001 264.13C93.4756 261.189 98.9533 261.683 102.24 265.27L103.02 266.11C103.684 266.825 104.395 267.493 105.15 268.11C111.95 269.61 119.017 270.857 126.35 271.85C129.101 270.861 131.625 269.327 133.77 267.34L134.71 266.46C136.553 264.758 138.998 263.859 141.504 263.962C144.011 264.065 146.373 265.162 148.07 267.01L148.84 267.85C151.821 271.116 155.735 273.385 160.05 274.35C161.73 274.35 163.42 274.35 165.12 274.35C166.62 274.35 168.12 274.35 169.59 274.35C173.331 273.516 176.783 271.7 179.59 269.09L180.59 268.21C182.43 266.506 184.874 265.605 187.379 265.709C189.885 265.812 192.247 266.91 193.94 268.76L194.72 269.6C195.726 270.71 196.842 271.715 198.05 272.6C215.021 270.777 231.748 267.149 247.95 261.78C239.709 253.483 226.375 253.209 217.8 261.16L217.07 261.84C215.227 263.541 212.784 264.44 210.278 264.339C207.772 264.238 205.409 263.144 203.71 261.3Z"   fill="#F5C872" >
</path>
<path d="M194.01 271.2C194.543 271.783 195.107 272.337 195.7 272.86C212.875 271.174 229.824 267.671 246.26 262.41C237.903 255.044 225.328 255.196 217.15 262.76L216.41 263.44C214.57 265.143 212.128 266.044 209.623 265.942C207.118 265.841 204.756 264.746 203.06 262.9L202.28 262.05C198.373 257.763 192.915 255.217 187.12 254.979C181.325 254.74 175.676 256.829 171.43 260.78L170.49 261.66C168.647 263.361 166.204 264.26 163.698 264.159C161.192 264.058 158.829 262.964 157.13 261.12L156.36 260.27C152.454 256.017 147.015 253.494 141.245 253.259C135.474 253.025 129.848 255.098 125.61 259.02L124.67 259.9C122.827 261.601 120.384 262.5 117.878 262.399C115.372 262.298 113.009 261.204 111.31 259.36L110.54 258.51C106.633 254.274 101.203 251.765 95.4448 251.535C89.687 251.304 84.0735 253.371 79.84 257.28L77 259.91C81.4267 261.57 86.0667 263.107 90.92 264.52C94.5792 262.978 98.8129 263.907 101.49 266.84L102.02 267.42C110.76 269.464 119.603 271.043 128.51 272.15C130.14 271.271 131.652 270.189 133.01 268.93L134.01 268.06C135.847 266.352 138.291 265.448 140.797 265.549C143.304 265.651 145.667 266.749 147.36 268.6L148.14 269.44C149.946 271.415 152.103 273.039 154.5 274.23C158.02 274.35 161.58 274.42 165.17 274.42C168.02 274.42 170.84 274.42 173.64 274.29C175.555 273.356 177.321 272.143 178.88 270.69L179.88 269.82C181.717 268.112 184.161 267.208 186.667 267.309C189.174 267.411 191.537 268.509 193.23 270.36L194.01 271.2Z"   fill="#FCEFD6" >
</path>
<path d="M120.4 271C135.195 273.301 150.147 274.444 165.12 274.42C177.857 274.432 190.581 273.61 203.21 271.96L202.96 271.72L202.18 270.87C198.274 266.617 192.835 264.094 187.065 263.859C181.295 263.625 175.669 265.698 171.43 269.62L170.49 270.5C168.647 272.202 166.203 273.101 163.696 272.998C161.189 272.895 158.827 271.798 157.13 269.95L156.36 269.11C152.454 264.857 147.015 262.334 141.245 262.099C135.475 261.865 129.849 263.938 125.61 267.86L124.67 268.74C123.469 269.854 121.997 270.633 120.4 271Z"   fill="#F5C872" >
</path>
<path d="M234.2 265.93L232.84 265.78C228.358 265.551 223.916 266.721 220.13 269.13C224.977 268.23 229.667 267.163 234.2 265.93Z"   fill="#F5C872" >
</path>
<path d="M113.21 269.78C112.51 269.335 111.872 268.8 111.31 268.19L110.54 267.35C103.969 260.204 93.4578 258.278 84.78 262.63C94.0927 265.623 103.589 268.012 113.21 269.78Z"   fill="#F5C872" >
</path>
<path d="M201.3 272.21C193.017 264.178 179.899 264.025 171.43 271.86L170.49 272.73C169.754 273.42 168.909 273.984 167.99 274.4C179.126 274.305 190.248 273.574 201.3 272.21Z"   fill="#FCEFD6" >
</path>
<path d="M160.1 274.37C158.967 273.846 157.948 273.106 157.1 272.19L156.33 271.35C152.424 267.097 146.985 264.574 141.215 264.339C135.445 264.105 129.819 266.178 125.58 270.1L124.64 270.97C124.42 271.18 124.19 271.36 123.96 271.54C135.936 273.239 148.006 274.184 160.1 274.37Z"   fill="#FCEFD6" >
</path>
<path d="M110.15 269.19C106.285 265.158 101.002 262.787 95.4201 262.58C92.8576 262.466 90.2951 262.805 87.8501 263.58C95.1842 265.825 102.627 267.697 110.15 269.19Z"   fill="#FCEFD6" >
</path>
<path d="M26.3801 249.66C27.7107 254.291 29.2794 258.85 31.0801 263.32L31.0801 263.32C52.2101 289.01 104.25 307.17 165.08 307.17C225.91 307.17 277.99 289.01 299.08 263.32C299.493 262.3 299.893 261.27 300.28 260.23C300.39 259.93 300.5 259.63 300.62 259.32C300.89 258.58 301.15 257.84 301.41 257.1C301.54 256.74 301.66 256.39 301.78 256.03C302.03 255.29 302.27 254.55 302.51 253.81C302.62 253.49 302.72 253.17 302.83 252.81C303.16 251.81 303.48 250.7 303.83 249.63L303.83 249.63C286.84 278.83 231.15 300.21 165.12 300.21C99.1201 300.21 43.4401 278.83 26.3801 249.66L26.3801 249.66Z"   fill="#EDEFF9" >
</path>
<path d="M165.12 352.72C145.285 352.75 125.651 348.735 107.42 340.92L104.04 353.16C103.249 356.003 104.68 358.993 107.39 360.16C144.003 375.794 185.391 375.909 222.09 360.48C224.815 359.327 226.262 356.331 225.47 353.48L222.09 341.24C204.061 348.846 184.687 352.75 165.12 352.72Z"   fill="#FFFFFF" >
</path>
<path d="M163.171 240.959C163.146 240.993 163.102 241.009 163.06 241C162.445 240.829 161.791 241.08 161.448 241.618C161.106 242.157 161.155 242.855 161.57 243.34C161.598 243.374 161.603 243.421 161.584 243.459C161.564 243.498 161.524 243.522 161.48 243.52C160.842 243.472 160.248 243.847 160.018 244.444C159.788 245.04 159.975 245.717 160.48 246.11C160.521 246.124 160.549 246.162 160.549 246.205C160.549 246.248 160.521 246.287 160.48 246.3C159.849 246.39 159.35 246.881 159.251 247.511C159.152 248.141 159.476 248.762 160.05 249.04C160.089 249.058 160.114 249.097 160.114 249.14C160.114 249.183 160.089 249.222 160.05 249.24C159.45 249.455 159.061 250.037 159.09 250.673C159.12 251.31 159.562 251.852 160.18 252.01C160.219 252.028 160.244 252.067 160.244 252.11C160.244 252.153 160.219 252.192 160.18 252.21C159.628 252.535 159.357 253.185 159.515 253.805C159.672 254.426 160.22 254.868 160.86 254.89C160.902 254.896 160.938 254.925 160.95 254.966C160.963 255.007 160.951 255.051 160.92 255.08C160.448 255.513 160.316 256.204 160.595 256.78C160.874 257.356 161.498 257.682 162.13 257.58C162.173 257.573 162.217 257.592 162.241 257.629C162.265 257.666 162.265 257.714 162.24 257.75C161.874 258.268 161.886 258.964 162.271 259.468C162.656 259.972 163.324 260.167 163.92 259.95C163.96 259.936 164.004 259.946 164.034 259.976C164.064 260.006 164.074 260.05 164.06 260.09C163.802 260.672 163.953 261.354 164.433 261.772C164.913 262.189 165.609 262.246 166.15 261.91C166.188 261.883 166.239 261.882 166.278 261.909C166.316 261.937 166.333 261.985 166.32 262.03C166.178 262.653 166.463 263.294 167.02 263.606C167.577 263.918 168.273 263.826 168.73 263.38C168.764 263.355 168.809 263.35 168.848 263.366C168.887 263.383 168.914 263.418 168.92 263.46C168.915 264.096 169.325 264.661 169.93 264.853C170.536 265.046 171.197 264.822 171.56 264.3C171.58 264.266 171.616 264.246 171.655 264.246C171.694 264.246 171.73 264.266 171.75 264.3C171.868 264.929 172.383 265.406 173.019 265.475C173.654 265.544 174.26 265.189 174.51 264.6C174.528 264.561 174.567 264.536 174.61 264.536C174.653 264.536 174.692 264.561 174.71 264.6C174.955 265.189 175.555 265.548 176.19 265.486C176.824 265.424 177.344 264.955 177.47 264.33C177.488 264.291 177.527 264.266 177.57 264.266C177.613 264.266 177.652 264.291 177.67 264.33C178.024 264.863 178.686 265.099 179.297 264.91C179.908 264.72 180.321 264.15 180.31 263.51C180.308 263.464 180.335 263.422 180.377 263.404C180.42 263.386 180.469 263.397 180.5 263.43C180.964 263.816 181.618 263.871 182.14 263.57C182.662 263.269 182.942 262.674 182.84 262.08C182.832 262.037 182.852 261.993 182.889 261.969C182.926 261.945 182.973 261.945 183.01 261.97C183.548 262.309 184.244 262.261 184.73 261.85C185.218 261.439 185.377 260.755 185.12 260.17C185.106 260.13 185.116 260.086 185.146 260.056C185.176 260.026 185.22 260.016 185.26 260.03C185.856 260.256 186.529 260.067 186.919 259.563C187.31 259.06 187.326 258.361 186.96 257.84C186.935 257.804 186.935 257.756 186.959 257.719C186.983 257.682 187.027 257.663 187.07 257.67C187.699 257.771 188.32 257.449 188.601 256.876C188.881 256.304 188.755 255.616 188.29 255.18C188.254 255.153 188.24 255.105 188.256 255.063C188.272 255.021 188.315 254.995 188.36 255C188.997 254.971 189.542 254.535 189.71 253.92C189.869 253.302 189.605 252.652 189.06 252.32C189.021 252.302 188.996 252.263 188.996 252.22C188.996 252.177 189.021 252.138 189.06 252.12C189.712 251.997 190.196 251.443 190.23 250.78C190.264 250.144 189.879 249.559 189.28 249.34C189.241 249.322 189.216 249.283 189.216 249.24C189.216 249.197 189.241 249.158 189.28 249.14C189.853 248.864 190.179 248.248 190.085 247.619C189.991 246.99 189.499 246.496 188.87 246.4C188.831 246.382 188.806 246.343 188.806 246.3C188.806 246.257 188.831 246.218 188.87 246.2C189.391 245.815 189.59 245.129 189.356 244.524C189.123 243.92 188.515 243.546 187.87 243.61C187.826 243.607 187.788 243.581 187.769 243.542C187.75 243.502 187.754 243.456 187.78 243.42C188.193 242.94 188.247 242.247 187.912 241.709C187.578 241.171 186.933 240.913 186.32 241.07C186.278 241.076 186.236 241.06 186.21 241.027C186.183 240.994 186.175 240.95 186.19 240.91C186.487 240.354 186.407 239.673 185.99 239.2C185.533 238.764 184.861 238.643 184.28 238.89C184.242 238.902 184.201 238.893 184.172 238.866C184.143 238.839 184.131 238.799 184.14 238.76C184.328 238.154 184.1 237.497 183.577 237.137C183.055 236.777 182.359 236.799 181.86 237.19C181.825 237.213 181.78 237.214 181.744 237.193C181.708 237.172 181.687 237.132 181.69 237.09C181.764 236.454 181.412 235.846 180.824 235.592C180.236 235.339 179.552 235.5 179.14 235.99C179.111 236.022 179.067 236.033 179.026 236.021C178.985 236.008 178.956 235.972 178.95 235.93C178.887 235.3 178.421 234.783 177.801 234.655C177.18 234.527 176.548 234.816 176.24 235.37C176.222 235.409 176.183 235.434 176.14 235.434C176.097 235.434 176.058 235.409 176.04 235.37C175.839 234.774 175.28 234.371 174.65 234.37C174.061 234.365 173.528 234.723 173.31 235.27C173.29 235.304 173.254 235.325 173.215 235.325C173.176 235.325 173.14 235.304 173.12 235.27C172.782 234.761 172.16 234.518 171.567 234.664C170.973 234.81 170.534 235.312 170.47 235.92C170.46 235.962 170.429 235.996 170.388 236.008C170.346 236.021 170.301 236.01 170.27 235.98C169.861 235.498 169.186 235.336 168.603 235.581C168.02 235.826 167.662 236.42 167.72 237.05C167.727 237.095 167.705 237.14 167.665 237.162C167.625 237.185 167.575 237.18 167.54 237.15C167.045 236.747 166.344 236.717 165.817 237.078C165.29 237.438 165.063 238.103 165.26 238.71C165.275 238.754 165.261 238.802 165.225 238.831C165.19 238.86 165.14 238.863 165.1 238.84C164.531 238.553 163.842 238.671 163.401 239.131C162.96 239.59 162.87 240.284 163.18 240.84C163.201 240.878 163.197 240.924 163.171 240.959Z"   fill="#F5C872" >
</path>
<path d="M327.63 37.77L91.3901 48.67L91.5801 54.81L327.93 47.63L327.63 37.77L327.63 37.77Z"   fill="#D01F1A" >
</path>
<path d="M165.12 359.91C185.337 359.94 205.34 355.769 223.86 347.66L222.09 341.23C185.401 356.654 144.025 356.542 107.42 340.92L105.65 347.33C124.369 355.655 144.633 359.942 165.12 359.91Z"   fill="#EDEFF9" >
</path>
<path d="M198.594 179.38C198.594 181.887 197.596 184.291 195.82 186.06L195.01 186.87C190.906 190.934 188.592 196.465 188.578 202.241C188.565 208.016 190.855 213.558 194.94 217.64L195.85 218.55C197.627 220.321 198.625 222.727 198.625 225.235C198.625 227.744 197.627 230.149 195.85 231.92L195.04 232.72C190.938 236.787 188.625 242.319 188.612 248.096C188.599 253.872 190.887 259.415 194.97 263.5L203.22 271.74C207.98 271.073 212.647 270.307 217.22 269.44C216.93 268.437 216.394 267.523 215.66 266.78L203.66 254.78C201.877 253.015 200.874 250.609 200.874 248.1C200.874 245.591 201.877 243.186 203.66 241.42L204.47 240.61C208.574 236.547 210.889 231.015 210.902 225.24C210.915 219.464 208.625 213.922 204.54 209.84L203.63 208.93C201.849 207.162 200.847 204.755 200.847 202.245C200.847 199.735 201.849 197.329 203.63 195.56L204.44 194.75C211.83 187.428 212.987 175.894 207.2 167.25C201.747 166.443 196.163 165.797 190.45 165.31C191.532 167.719 193.043 169.912 194.91 171.78L195.82 172.7C197.596 174.469 198.594 176.873 198.594 179.38Z"   fill="#F5C872" >
</path>
<path d="M221.76 42.6599L91.3901 48.6699L91.5801 54.8099L221.76 50.8599L221.76 42.6599L221.76 42.6599Z"   fill="#F5C872" >
</path>
<path d="M116.24 248.106C116.227 253.882 118.515 259.426 122.598 263.511L130.838 271.751C135.605 271.084 140.272 270.317 144.838 269.451C144.549 268.445 144.009 267.53 143.268 266.791L131.268 254.791C129.493 253.021 128.494 250.618 128.494 248.111C128.494 245.604 129.493 243.2 131.268 241.431L132.088 240.621C136.192 236.557 138.507 231.026 138.52 225.25C138.533 219.475 136.244 213.933 132.158 209.851L131.238 208.941C129.462 207.17 128.464 204.764 128.464 202.256C128.464 199.747 129.462 197.342 131.238 195.571L132.058 194.761C136.162 190.697 138.477 185.166 138.49 179.39C138.503 173.615 136.214 168.073 132.128 163.991L131.208 163.081C129.432 161.31 128.434 158.904 128.434 156.396C128.434 153.887 129.432 151.482 131.208 149.711L132.028 148.911C136.13 144.844 138.444 139.311 138.457 133.535C138.47 127.759 136.182 122.216 132.098 118.131L131.388 117.431C129.594 115.635 128.599 113.192 128.628 110.654C128.656 108.116 129.705 105.696 131.538 103.941C135.764 99.9034 138.183 94.3331 138.248 88.4894C138.314 82.6458 136.021 77.0224 131.888 72.8908L131.138 72.1408C129.366 70.3735 128.37 67.9736 128.37 65.4708C128.37 62.968 129.366 60.5681 131.138 58.8008L143.138 46.8008C145.424 44.3857 145.372 40.5897 143.021 38.2383C140.669 35.8869 136.873 35.8348 134.458 38.1208L122.458 50.1208C113.981 58.6022 113.981 72.3494 122.458 80.8308L123.218 81.6108C125.013 83.4049 126.008 85.8471 125.978 88.3845C125.948 90.9219 124.895 93.3398 123.058 95.0908C118.833 99.1282 116.414 104.698 116.348 110.542C116.283 116.386 118.575 122.009 122.708 126.141L123.418 126.851C125.194 128.62 126.192 131.024 126.192 133.531C126.192 136.038 125.194 138.441 123.418 140.211L122.608 141.021C118.505 145.084 116.19 150.616 116.177 156.391C116.164 162.166 118.453 167.709 122.538 171.791L123.448 172.711C125.224 174.48 126.222 176.884 126.222 179.391C126.222 181.898 125.224 184.301 123.448 186.071L122.638 186.881C118.535 190.944 116.22 196.476 116.207 202.251C116.194 208.026 118.483 213.569 122.568 217.651L123.478 218.561C125.255 220.332 126.253 222.737 126.253 225.246C126.253 227.754 125.255 230.16 123.478 231.931L122.668 232.731C118.566 236.797 116.253 242.33 116.24 248.106Z"   fill="#FCEFD6" >
</path>
<path d="M132.668 171.79L133.588 172.71C135.364 174.479 136.362 176.883 136.362 179.39C136.362 181.897 135.364 184.3 133.588 186.07L132.768 186.88C128.665 190.943 126.35 196.475 126.337 202.25C126.324 208.026 128.613 213.568 132.698 217.65L133.618 218.56C135.395 220.331 136.393 222.736 136.393 225.245C136.393 227.753 135.395 230.159 133.618 231.93L132.798 232.73C128.696 236.796 126.383 242.329 126.37 248.105C126.357 253.881 128.645 259.425 132.728 263.51L139.628 270.4C141.368 270.1 143.095 269.767 144.808 269.4C144.527 268.393 143.989 267.477 143.248 266.74L131.248 254.74C129.473 252.97 128.474 250.567 128.474 248.06C128.474 245.553 129.473 243.149 131.248 241.38L132.068 240.57C136.172 236.506 138.487 230.975 138.5 225.199C138.513 219.424 136.224 213.882 132.138 209.8L131.218 208.89C129.442 207.119 128.444 204.713 128.444 202.205C128.444 199.696 129.442 197.291 131.218 195.52L132.038 194.71C136.142 190.646 138.457 185.115 138.47 179.339C138.483 173.564 136.194 168.022 132.108 163.94L131.188 163.03C129.412 161.259 128.414 158.853 128.414 156.345C128.414 153.836 129.412 151.431 131.188 149.66L132.008 148.86C136.11 144.793 138.424 139.26 138.437 133.484C138.45 127.708 136.162 122.165 132.078 118.08L131.368 117.38C129.574 115.584 128.579 113.141 128.608 110.603C128.636 108.065 129.685 105.645 131.518 103.89C135.743 99.8525 138.162 94.2822 138.228 88.4385C138.294 82.5949 136.001 76.9715 131.868 72.8399L131.118 72.0899C129.346 70.3225 128.35 67.9226 128.35 65.4199C128.35 62.9171 129.346 60.5172 131.118 58.7499L143.118 46.7499C145.239 44.6356 145.518 41.2971 143.778 38.8599L132.558 50.0799C124.081 58.5613 124.081 72.3084 132.558 80.7899L133.348 81.6099C135.142 83.4039 136.137 85.8449 136.108 88.3814C136.08 90.9179 135.031 93.3361 133.198 95.0899C128.973 99.1273 126.554 104.698 126.488 110.541C126.422 116.385 128.715 122.008 132.848 126.14L133.558 126.85C135.334 128.619 136.332 131.023 136.332 133.53C136.332 136.037 135.334 138.44 133.558 140.21L132.738 141.02C128.635 145.083 126.32 150.615 126.307 156.39C126.294 162.166 128.583 167.708 132.668 171.79Z"   fill="#F5C872" >
</path>
<path d="M134.838 171.78L135.748 172.7C137.532 174.466 138.535 176.871 138.535 179.38C138.535 181.889 137.532 184.295 135.748 186.06L134.938 186.87C130.835 190.934 128.52 196.465 128.507 202.241C128.494 208.016 130.783 213.558 134.868 217.64L135.778 218.55C137.56 220.319 138.562 222.725 138.562 225.235C138.562 227.745 137.56 230.152 135.778 231.92L134.968 232.72C130.866 236.787 128.553 242.32 128.54 248.096C128.527 253.872 130.815 259.415 134.898 263.5L141.468 270.07C146.378 269.19 151.168 268.19 155.808 267.07C155.728 266.98 155.648 266.88 155.558 266.79L143.558 254.79C141.783 253.021 140.784 250.617 140.784 248.11C140.784 245.603 141.783 243.2 143.558 241.43L144.368 240.62C148.472 236.557 150.787 231.025 150.8 225.25C150.813 219.474 148.524 213.932 144.438 209.85L143.528 208.94C141.752 207.169 140.754 204.764 140.754 202.255C140.754 199.747 141.752 197.341 143.528 195.57L144.338 194.76C148.442 190.697 150.757 185.165 150.77 179.39C150.783 173.614 148.494 168.072 144.408 163.99L143.498 163.08C141.722 161.309 140.724 158.904 140.724 156.395C140.724 153.887 141.722 151.481 143.498 149.71L144.308 148.91C148.41 144.844 150.724 139.311 150.737 133.535C150.75 127.759 148.462 122.215 144.378 118.13L143.668 117.43C141.874 115.634 140.879 113.192 140.908 110.654C140.936 108.115 141.985 105.696 143.818 103.94C148.044 99.9027 150.463 94.3324 150.528 88.4888C150.594 82.6451 148.301 77.0217 144.168 72.8901L143.418 72.1401C139.739 68.4547 139.739 62.4855 143.418 58.8001L155.418 46.8001C157.814 44.402 157.811 40.5104 155.413 38.1151C153.015 35.7198 149.124 35.722 146.728 38.1201L134.728 50.1201C126.251 58.6015 126.251 72.3487 134.728 80.8301L135.498 81.6101C137.292 83.4042 138.287 85.8451 138.258 88.3816C138.23 90.9182 137.181 93.3363 135.348 95.0901C131.124 99.1275 128.705 104.697 128.638 110.539C128.57 116.382 130.859 122.006 134.988 126.14L135.698 126.85C137.482 128.616 138.485 131.021 138.485 133.53C138.485 136.039 137.482 138.445 135.698 140.21L134.888 141.02C130.79 145.086 128.481 150.617 128.472 156.39C128.462 162.162 130.754 167.701 134.838 171.78Z"   fill="#FCEFD6" >
</path>
<path d="M148.612 133.53C148.612 136.037 147.614 138.44 145.838 140.21L145.018 141.02C140.921 145.087 138.611 150.619 138.6 156.392C138.589 162.166 140.877 167.707 144.958 171.79L145.868 172.71C147.644 174.479 148.642 176.883 148.642 179.39C148.642 181.897 147.644 184.3 145.868 186.07L145.048 186.88C140.951 190.947 138.641 196.479 138.63 202.252C138.619 208.026 140.907 213.567 144.988 217.65L145.898 218.56C147.675 220.331 148.673 222.736 148.673 225.245C148.673 227.753 147.675 230.159 145.898 231.93L145.078 232.73C140.98 236.799 138.67 242.332 138.659 248.107C138.648 253.883 140.936 259.425 145.018 263.51L149.918 268.41C151.918 267.99 153.875 267.543 155.788 267.07C155.708 266.98 155.628 266.88 155.538 266.79L143.538 254.79C141.763 253.02 140.764 250.617 140.764 248.11C140.764 245.603 141.763 243.199 143.538 241.43L144.348 240.62C148.452 236.556 150.767 231.025 150.78 225.249C150.793 219.474 148.504 213.932 144.418 209.85L143.508 208.94C141.732 207.169 140.734 204.763 140.734 202.255C140.734 199.746 141.732 197.341 143.508 195.57L144.318 194.76C148.422 190.696 150.737 185.165 150.75 179.389C150.763 173.614 148.474 168.072 144.388 163.99L143.478 163.08C141.702 161.309 140.704 158.903 140.704 156.395C140.704 153.886 141.702 151.481 143.478 149.71L144.288 148.91C148.39 144.843 150.704 139.31 150.717 133.534C150.73 127.758 148.442 122.215 144.358 118.13L143.648 117.43C141.854 115.634 140.859 113.192 140.888 110.653C140.916 108.115 141.965 105.695 143.798 103.94C148.024 99.9025 150.443 94.3322 150.508 88.4886C150.574 82.6449 148.281 77.0215 144.148 72.8899L143.398 72.1399C139.719 68.4545 139.719 62.4853 143.398 58.7999L155.398 46.7999C157.511 44.6819 157.79 41.3495 156.058 38.9099L144.838 50.1399C136.361 58.6213 136.361 72.3685 144.838 80.8499L145.628 81.6099C147.427 83.4013 148.425 85.8433 148.397 88.3816C148.369 90.9198 147.316 93.339 145.478 95.0899C141.253 99.1273 138.834 104.698 138.768 110.541C138.703 116.385 140.995 122.008 145.128 126.14L145.838 126.85C147.614 128.619 148.612 131.023 148.612 133.53Z"   fill="#F5C872" >
</path>
<path d="M167.703 38.1451C165.305 35.7498 161.414 35.752 159.018 38.1501L147.018 50.1501C138.541 58.6315 138.541 72.3787 147.018 80.8601L147.778 81.6101C149.572 83.4042 150.567 85.8451 150.538 88.3817C150.51 90.9182 149.461 93.3364 147.628 95.0901C143.403 99.1275 140.984 104.698 140.918 110.541C140.852 116.385 143.145 122.008 147.278 126.14L147.988 126.85C149.764 128.62 150.762 131.023 150.762 133.53C150.762 136.037 149.764 138.441 147.988 140.21L147.168 141.02C143.072 145.088 140.762 150.618 140.749 156.391C140.736 162.163 143.02 167.704 147.098 171.79L148.018 172.71C149.794 174.48 150.792 176.883 150.792 179.39C150.792 181.897 149.794 184.301 148.018 186.07L147.198 186.88C143.102 190.948 140.792 196.478 140.779 202.251C140.766 208.023 143.05 213.564 147.128 217.65L148.048 218.56C149.825 220.331 150.823 222.737 150.823 225.245C150.823 227.754 149.825 230.159 148.048 231.93L147.228 232.73C143.131 236.799 140.821 242.331 140.808 248.106C140.795 253.88 143.08 259.422 147.158 263.51L151.678 268.02C156.438 266.96 161.052 265.783 165.518 264.49L155.848 254.82C154.073 253.051 153.074 250.647 153.074 248.14C153.074 245.633 154.073 243.23 155.848 241.46L156.658 240.65C160.762 236.587 163.077 231.055 163.09 225.28C163.103 219.504 160.814 213.962 156.728 209.88L155.818 208.97C154.042 207.199 153.043 204.794 153.043 202.285C153.043 199.777 154.042 197.371 155.818 195.6L156.628 194.79C160.732 190.727 163.047 185.195 163.06 179.42C163.073 173.644 160.784 168.102 156.698 164.02L155.788 163.11C154.012 161.339 153.013 158.934 153.013 156.425C153.013 153.917 154.012 151.511 155.788 149.74L156.598 148.94C160.7 144.874 163.014 139.341 163.027 133.565C163.04 127.789 160.752 122.245 156.668 118.16L155.958 117.46C154.163 115.664 153.168 113.22 153.198 110.681C153.228 108.142 154.281 105.723 156.118 103.97C160.343 99.9327 162.762 94.3624 162.828 88.5188C162.894 82.6751 160.601 77.0517 156.468 72.9201L155.708 72.1701C152.029 68.4847 152.029 62.5155 155.708 58.8301L167.708 46.8301C170.104 44.432 170.101 40.5404 167.703 38.1451Z"   fill="#FCEFD6" >
</path>
<path d="M160.678 88.3815C160.65 90.918 159.601 93.3362 157.768 95.0899C153.544 99.1274 151.125 104.696 151.058 110.539C150.99 116.382 153.279 122.006 157.408 126.14L158.118 126.85C159.894 128.619 160.892 131.023 160.892 133.53C160.892 136.037 159.894 138.441 158.118 140.21L157.308 141.02C153.204 145.083 150.89 150.615 150.877 156.39C150.863 162.166 153.153 167.708 157.238 171.79L158.148 172.71C159.924 174.479 160.922 176.883 160.922 179.39C160.922 181.897 159.924 184.301 158.148 186.07L157.338 186.88C153.234 190.943 150.92 196.475 150.907 202.25C150.893 208.026 153.183 213.568 157.268 217.65L158.178 218.56C159.955 220.331 160.953 222.736 160.953 225.245C160.953 227.753 159.955 230.159 158.178 231.93L157.368 232.73C153.266 236.796 150.953 242.329 150.94 248.105C150.927 253.881 153.215 259.425 157.298 263.51L159.838 266.05C161.758 265.55 163.652 265.03 165.518 264.49L155.848 254.82C154.072 253.051 153.074 250.647 153.074 248.14C153.074 245.633 154.072 243.229 155.848 241.46L156.658 240.65C160.762 236.586 163.077 231.055 163.09 225.279C163.103 219.504 160.814 213.962 156.728 209.88L155.818 208.97C154.042 207.199 153.043 204.793 153.043 202.285C153.043 199.776 154.042 197.371 155.818 195.6L156.628 194.79C160.732 190.726 163.047 185.195 163.06 179.419C163.073 173.644 160.784 168.102 156.698 164.02L155.788 163.11C154.012 161.339 153.013 158.933 153.013 156.425C153.013 153.916 154.012 151.511 155.788 149.74L156.598 148.94C160.7 144.873 163.014 139.341 163.027 133.564C163.04 127.788 160.752 122.245 156.668 118.16L155.958 117.46C154.163 115.664 153.168 113.22 153.198 110.681C153.228 108.142 154.281 105.723 156.118 103.97C160.343 99.9325 162.762 94.3622 162.828 88.5186C162.894 82.675 160.601 77.0516 156.468 72.9199L155.708 72.1699C152.029 68.4846 152.029 62.5153 155.708 58.8299L167.708 46.8299C169.825 44.7138 170.104 41.3784 168.368 38.9399L157.138 50.1599C148.661 58.6414 148.661 72.3885 157.138 80.8699L157.918 81.6099C159.712 83.404 160.707 85.845 160.678 88.3815Z"   fill="#F5C872" >
</path>
<path d="M159.418 217.651L160.328 218.561C162.105 220.332 163.103 222.737 163.103 225.246C163.103 227.754 162.105 230.16 160.328 231.931L159.518 232.731C155.416 236.797 153.103 242.33 153.09 248.106C153.077 253.882 155.365 259.426 159.448 263.511L161.538 265.601C166.138 264.361 170.575 263.007 174.848 261.541L168.038 254.781C166.263 253.011 165.264 250.608 165.264 248.101C165.264 245.594 166.263 243.19 168.038 241.421L168.858 240.611C172.956 236.543 175.265 231.012 175.277 225.238C175.288 219.465 173 213.924 168.918 209.841L168.008 208.931C166.232 207.16 165.234 204.754 165.234 202.246C165.234 199.737 166.232 197.332 168.008 195.561L168.828 194.751C172.926 190.683 175.235 185.152 175.247 179.378C175.258 173.605 172.97 168.064 168.888 163.981L167.978 163.071C166.202 161.3 165.204 158.894 165.204 156.386C165.204 153.877 166.202 151.472 167.978 149.701L168.798 148.901C172.895 144.832 175.205 139.3 175.218 133.525C175.232 127.751 172.947 122.209 168.868 118.121L168.158 117.421C166.364 115.625 165.369 113.182 165.398 110.644C165.426 108.106 166.475 105.686 168.308 103.931C172.534 99.8934 174.953 94.3231 175.018 88.4794C175.084 82.6358 172.791 77.0124 168.658 72.8808L167.908 72.1308C166.136 70.3634 165.14 67.9635 165.14 65.4608C165.14 62.958 166.136 60.5581 167.908 58.7908L179.908 46.7908C182.194 44.3757 182.142 40.5797 179.791 38.2283C177.439 35.8769 173.643 35.8248 171.228 38.1108L159.228 50.1108C150.751 58.5922 150.751 72.3394 159.228 80.8208L160.068 81.6108C161.863 83.4048 162.858 85.8471 162.828 88.3845C162.798 90.9219 161.745 93.3398 159.908 95.0908C155.683 99.1282 153.264 104.698 153.198 110.542C153.133 116.386 155.425 122.009 159.558 126.141L160.268 126.851C162.044 128.62 163.042 131.024 163.042 133.531C163.042 136.038 162.044 138.441 160.268 140.211L159.458 141.021C155.355 145.084 153.04 150.616 153.027 156.391C153.014 162.166 155.303 167.709 159.388 171.791L160.298 172.711C162.074 174.48 163.072 176.884 163.072 179.391C163.072 181.898 162.074 184.301 160.298 186.071L159.488 186.881C155.385 190.944 153.07 196.476 153.057 202.251C153.044 208.026 155.333 213.569 159.418 217.651Z"   fill="#FCEFD6" >
</path>
<path d="M170.448 218.56C172.23 220.328 173.232 222.735 173.232 225.245C173.232 227.755 172.23 230.161 170.448 231.93L169.638 232.73C161.165 241.126 161.054 254.786 169.388 263.32C171.238 262.74 173.048 262.15 174.838 261.54L168.038 254.78C166.263 253.01 165.264 250.607 165.264 248.1C165.264 245.593 166.263 243.189 168.038 241.42L168.858 240.61C172.956 236.542 175.265 231.011 175.277 225.237C175.288 219.464 173 213.923 168.918 209.84L168.008 208.93C166.232 207.159 165.234 204.753 165.234 202.245C165.234 199.736 166.232 197.331 168.008 195.56L168.828 194.75C172.926 190.682 175.235 185.151 175.247 179.377C175.258 173.604 172.97 168.063 168.888 163.98L167.978 163.07C166.202 161.299 165.204 158.893 165.204 156.385C165.204 153.876 166.202 151.471 167.978 149.7L168.798 148.9C172.895 144.831 175.205 139.299 175.218 133.524C175.232 127.75 172.947 122.208 168.868 118.12L168.158 117.42C166.364 115.624 165.369 113.182 165.398 110.643C165.426 108.105 166.475 105.685 168.308 103.93C172.534 99.8925 174.953 94.3222 175.018 88.4786C175.084 82.6349 172.791 77.0115 168.658 72.8799L167.908 72.1299C166.136 70.3626 165.14 67.9627 165.14 65.4599C165.14 62.9571 166.136 60.5572 167.908 58.7899L179.908 46.7899C182.025 44.6737 182.304 41.3383 180.568 38.8999L169.348 50.1199C160.871 58.6013 160.871 72.3485 169.348 80.8299L170.198 81.6099C171.992 83.404 172.987 85.8449 172.958 88.3815C172.93 90.918 171.881 93.3362 170.048 95.0899C165.823 99.1273 163.404 104.698 163.338 110.541C163.273 116.385 165.565 122.008 169.698 126.14L170.398 126.85C172.177 128.618 173.177 131.022 173.177 133.53C173.177 136.038 172.177 138.442 170.398 140.21L169.578 141.02C165.475 145.083 163.16 150.615 163.147 156.39C163.134 162.166 165.423 167.708 169.508 171.79L170.418 172.71C172.202 174.475 173.205 176.881 173.205 179.39C173.205 181.899 172.202 184.304 170.418 186.07L169.608 186.88C165.505 190.943 163.19 196.475 163.177 202.25C163.164 208.026 165.453 213.568 169.538 217.65L170.448 218.56Z"   fill="#F5C872" >
</path>
<path d="M180.388 195.6L181.198 194.79C185.302 190.727 187.617 185.195 187.63 179.42C187.643 173.644 185.354 168.102 181.268 164.02L180.358 163.11C178.577 161.342 177.575 158.935 177.575 156.425C177.575 153.915 178.577 151.509 180.358 149.74L181.168 148.94C185.27 144.874 187.584 139.341 187.597 133.565C187.61 127.789 185.322 122.245 181.238 118.16L180.528 117.46C178.734 115.664 177.739 113.222 177.768 110.684C177.796 108.145 178.845 105.726 180.678 103.97C184.904 99.9327 187.323 94.3624 187.388 88.5188C187.454 82.6751 185.161 77.0517 181.028 72.9201L180.278 72.1701C176.599 68.4847 176.599 62.5155 180.278 58.8301L192.278 46.8301C194.674 44.432 194.671 40.5404 192.273 38.1451C189.875 35.7498 185.984 35.752 183.588 38.1501L171.588 50.1501C163.111 58.6315 163.111 72.3787 171.588 80.8601L172.348 81.6101C174.142 83.4042 175.137 85.8451 175.108 88.3817C175.08 90.9182 174.031 93.3364 172.198 95.0901C167.974 99.1276 165.555 104.697 165.488 110.539C165.42 116.382 167.709 122.006 171.838 126.14L172.548 126.85C174.324 128.62 175.322 131.023 175.322 133.53C175.322 136.037 174.324 138.441 172.548 140.21L171.738 141.02C167.635 145.084 165.32 150.615 165.307 156.391C165.294 162.166 167.583 167.708 171.668 171.79L172.578 172.71C174.354 174.48 175.352 176.883 175.352 179.39C175.352 181.897 174.354 184.301 172.578 186.07L171.768 186.88C167.665 190.944 165.35 196.475 165.337 202.251C165.324 208.026 167.613 213.568 171.698 217.65L172.608 218.56C174.385 220.331 175.383 222.737 175.383 225.245C175.383 227.754 174.385 230.159 172.608 231.93L171.798 232.73C163.525 240.931 163.195 254.197 171.048 262.8C175.475 261.38 179.722 259.847 183.788 258.2L180.418 254.82C178.635 253.055 177.632 250.649 177.632 248.14C177.632 245.631 178.635 243.226 180.418 241.46L181.228 240.65C185.332 236.587 187.647 231.055 187.66 225.28C187.673 219.504 185.384 213.962 181.298 209.88L180.388 208.97C178.607 207.202 177.605 204.795 177.605 202.285C177.605 199.775 178.607 197.369 180.388 195.6Z"   fill="#FCEFD6" >
</path>
<path d="M181.298 209.88L180.388 208.97C178.607 207.201 177.605 204.795 177.605 202.285C177.605 199.775 178.607 197.368 180.388 195.6L181.198 194.79C185.302 190.726 187.617 185.195 187.63 179.419C187.643 173.644 185.354 168.102 181.268 164.02L180.358 163.11C178.577 161.341 177.575 158.935 177.575 156.425C177.575 153.915 178.577 151.508 180.358 149.74L181.168 148.94C185.27 144.873 187.584 139.341 187.597 133.564C187.61 127.788 185.322 122.245 181.238 118.16L180.528 117.46C178.734 115.664 177.739 113.222 177.768 110.683C177.796 108.145 178.845 105.725 180.678 103.97C184.904 99.9325 187.323 94.3622 187.388 88.5186C187.454 82.675 185.161 77.0516 181.028 72.9199L180.278 72.1699C176.599 68.4846 176.599 62.5153 180.278 58.8299L192.278 46.8299C194.391 44.7119 194.67 41.3795 192.938 38.9399L181.708 50.1599C173.231 58.6414 173.231 72.3885 181.708 80.8699L182.478 81.6099C184.277 83.4013 185.275 85.8433 185.247 88.3816C185.219 90.9198 184.166 93.339 182.328 95.0899C178.103 99.1273 175.684 104.698 175.618 110.541C175.553 116.385 177.845 122.008 181.978 126.14L182.688 126.85C184.464 128.619 185.462 131.023 185.462 133.53C185.462 136.037 184.464 138.441 182.688 140.21L181.868 141.02C177.771 145.087 175.461 150.619 175.45 156.392C175.439 162.166 177.727 167.707 181.808 171.79L182.718 172.71C184.494 174.479 185.492 176.883 185.492 179.39C185.492 181.897 184.494 184.301 182.718 186.07L181.898 186.88C177.801 190.947 175.491 196.479 175.48 202.252C175.469 208.026 177.757 213.567 181.838 217.65L182.748 218.56C184.525 220.331 185.523 222.736 185.523 225.245C185.523 227.753 184.525 230.159 182.748 231.93L181.928 232.73C174.613 239.997 173.406 251.402 179.038 260.04C180.658 259.44 182.242 258.827 183.788 258.2L180.418 254.82C178.635 253.054 177.632 250.649 177.632 248.14C177.632 245.631 178.635 243.225 180.418 241.46L181.228 240.65C185.332 236.586 187.647 231.055 187.66 225.279C187.673 219.504 185.384 213.962 181.298 209.88Z"   fill="#F5C872" >
</path>
<path d="M177.587 156.391C177.573 162.166 179.863 167.708 183.948 171.79L184.868 172.71C186.644 174.48 187.642 176.883 187.642 179.39C187.642 181.897 186.644 184.301 184.868 186.07L184.048 186.88C179.944 190.944 177.63 196.475 177.617 202.251C177.603 208.026 179.893 213.568 183.978 217.65L184.898 218.56C186.675 220.331 187.673 222.737 187.673 225.245C187.673 227.754 186.675 230.159 184.898 231.93L184.078 232.73C176.957 239.786 175.593 250.8 180.778 259.38C184.778 257.84 188.688 256.19 192.358 254.45C188.986 250.715 189.149 244.987 192.728 241.45L193.538 240.64C197.642 236.577 199.957 231.045 199.97 225.27C199.983 219.494 197.694 213.952 193.608 209.87L192.698 208.96C190.922 207.189 189.923 204.784 189.923 202.275C189.923 199.767 190.922 197.361 192.698 195.59L193.508 194.78C197.612 190.717 199.927 185.185 199.94 179.41C199.953 173.634 197.664 168.092 193.578 164.01L192.668 163.1C190.892 161.329 189.893 158.924 189.893 156.415C189.893 153.907 190.892 151.501 192.668 149.73L193.478 148.93C197.58 144.864 199.894 139.331 199.907 133.555C199.92 127.779 197.632 122.235 193.548 118.15L192.838 117.45C191.043 115.654 190.048 113.21 190.078 110.671C190.108 108.132 191.161 105.713 192.998 103.96C197.223 99.9227 199.642 94.3524 199.708 88.5088C199.774 82.6651 197.481 77.0417 193.348 72.9101L192.588 72.1601C188.909 68.4747 188.909 62.5055 192.588 58.8201L204.588 46.8201C206.984 44.422 206.981 40.5304 204.583 38.1351C202.185 35.7398 198.294 35.742 195.898 38.1401L183.898 50.1401C175.421 58.6215 175.421 72.3687 183.898 80.8501L184.628 81.6101C186.422 83.4042 187.417 85.8451 187.388 88.3817C187.36 90.9182 186.311 93.3364 184.478 95.0901C180.253 99.1275 177.834 104.698 177.768 110.541C177.702 116.385 179.995 122.008 184.128 126.14L184.838 126.85C186.614 128.62 187.612 131.023 187.612 133.53C187.612 136.037 186.614 138.441 184.838 140.21L184.018 141.02C179.914 145.084 177.6 150.615 177.587 156.391Z"   fill="#FCEFD6" >
</path>
<path d="M194.968 140.21L194.158 141.02C190.055 145.083 187.74 150.615 187.727 156.39C187.713 162.166 190.003 167.708 194.088 171.79L194.998 172.71C196.774 174.479 197.772 176.883 197.772 179.39C197.772 181.897 196.774 184.3 194.998 186.07L194.188 186.88C190.085 190.943 187.77 196.475 187.757 202.25C187.743 208.026 190.033 213.568 194.118 217.65L195.028 218.56C196.805 220.331 197.803 222.736 197.803 225.245C197.803 227.753 196.805 230.159 195.028 231.93L194.218 232.73C188.12 238.787 186.16 247.867 189.218 255.9C190.288 255.42 191.328 254.9 192.368 254.45C188.996 250.715 189.159 244.987 192.738 241.45L193.548 240.64C197.652 236.576 199.967 231.045 199.98 225.269C199.993 219.494 197.704 213.952 193.618 209.87L192.708 208.96C190.932 207.189 189.933 204.783 189.933 202.275C189.933 199.766 190.932 197.361 192.708 195.59L193.518 194.78C197.622 190.716 199.937 185.185 199.95 179.409C199.963 173.634 197.674 168.092 193.588 164.01L192.678 163.1C190.902 161.329 189.903 158.923 189.903 156.415C189.903 153.906 190.902 151.501 192.678 149.73L193.488 148.93C197.59 144.863 199.904 139.331 199.917 133.554C199.93 127.778 197.642 122.235 193.558 118.15L192.848 117.45C191.053 115.654 190.058 113.21 190.088 110.671C190.118 108.132 191.171 105.713 193.008 103.96C197.233 99.9225 199.652 94.3522 199.718 88.5086C199.784 82.665 197.491 77.0415 193.358 72.9099L192.598 72.1599C188.919 68.4745 188.919 62.5053 192.598 58.8199L204.598 46.8199C206.715 44.7038 206.994 41.3684 205.258 38.9299L194.028 50.1499C185.551 58.6313 185.551 72.3785 194.028 80.8599L194.768 81.6099C196.563 83.404 197.558 85.8462 197.528 88.3836C197.498 90.921 196.445 93.339 194.608 95.0899C190.388 99.1301 187.973 104.699 187.907 110.541C187.841 116.383 190.13 122.006 194.258 126.14L194.968 126.85C196.744 128.619 197.742 131.023 197.742 133.53C197.742 136.037 196.744 138.44 194.968 140.21Z"   fill="#F5C872" >
</path>
<path d="M281.84 194.78C282.21 194.43 282.55 194.05 282.84 193.68C279.36 191.321 275.754 189.151 272.04 187.18C263.788 195.695 263.895 209.256 272.28 217.64L273.19 218.55C274.967 220.321 275.965 222.727 275.965 225.235C275.965 227.744 274.967 230.149 273.19 231.92L272.37 232.72C266.745 238.318 264.607 246.531 266.79 254.16C270.708 252.293 274.529 250.231 278.24 247.98C278.271 245.523 279.27 243.176 281.02 241.45L281.83 240.64C285.934 236.577 288.249 231.045 288.262 225.27C288.275 219.495 285.985 213.952 281.9 209.87L280.99 208.96C279.214 207.189 278.215 204.784 278.215 202.275C278.215 199.767 279.214 197.361 280.99 195.59L281.84 194.78Z"   fill="#F5C872" >
</path>
<path d="M211.988 88.5195C212.054 82.6758 209.761 77.0524 205.628 72.9208L204.868 72.1708C201.189 68.4854 201.189 62.5162 204.868 58.8308L216.868 46.8308C219.154 44.4157 219.102 40.6197 216.751 38.2683C214.399 35.9169 210.603 35.8648 208.188 38.1508L196.188 50.1508C187.711 58.6322 187.711 72.3794 196.188 80.8608L196.918 81.6108C198.713 83.4049 199.708 85.8471 199.678 88.3845C199.648 90.9219 198.595 93.3398 196.758 95.0908C192.533 99.1282 190.114 104.699 190.048 110.542C189.982 116.386 192.275 122.009 196.408 126.141L197.118 126.851C198.894 128.62 199.892 131.024 199.892 133.531C199.892 136.038 198.894 138.441 197.118 140.211L196.298 141.021C192.201 145.088 189.891 150.62 189.88 156.393C189.869 162.167 192.157 167.707 196.238 171.791L197.148 172.711C198.924 174.48 199.922 176.884 199.922 179.391C199.922 181.898 198.924 184.301 197.148 186.071L196.328 186.881C192.231 190.948 189.921 196.48 189.91 202.253C189.899 208.027 192.187 213.567 196.268 217.651L197.178 218.561C198.955 220.332 199.953 222.737 199.953 225.246C199.953 227.754 198.955 230.16 197.178 231.931L196.358 232.731C190.493 238.563 188.44 247.215 191.058 255.061C195.058 253.221 198.802 251.277 202.288 249.231C202.245 248.866 202.221 248.498 202.218 248.131C202.222 245.624 203.226 243.223 205.008 241.461L205.828 240.651C209.926 236.583 212.235 231.052 212.247 225.278C212.258 219.505 209.97 213.964 205.888 209.881L204.978 208.971C203.202 207.2 202.204 204.794 202.204 202.286C202.204 199.777 203.202 197.372 204.978 195.601L205.798 194.791C209.896 190.723 212.205 185.192 212.217 179.418C212.228 173.645 209.94 168.104 205.858 164.021L204.948 163.111C203.172 161.34 202.174 158.934 202.174 156.426C202.174 153.917 203.172 151.512 204.948 149.741L205.768 148.941C209.867 144.872 212.176 139.338 212.188 133.563C212.199 127.788 209.911 122.246 205.828 118.161L205.128 117.461C203.334 115.665 202.339 113.222 202.368 110.684C202.396 108.146 203.445 105.726 205.278 103.971C209.503 99.9334 211.923 94.3631 211.988 88.5195Z"   fill="#FCEFD6" >
</path>
<path d="M78.672 199.917C101.615 208.82 115.749 227.541 110.243 241.731C104.736 255.921 81.673 260.207 58.7303 251.303C35.7875 242.4 21.6528 223.679 27.1596 209.489C32.6663 195.299 55.7292 191.013 78.672 199.917Z"   fill="#FCECD6" >
</path>
<path d="M78.672 199.917C101.615 208.82 115.749 227.541 110.243 241.731C104.736 255.921 81.673 260.207 58.7303 251.303C35.7875 242.4 21.6528 223.679 27.1596 209.489C32.6663 195.299 55.7292 191.013 78.672 199.917Z"   fill="#F2B848" >
</path>
<path d="M76.4916 200.323C98.4612 208.849 111.995 226.779 106.72 240.372C101.445 253.965 79.3588 258.072 57.3892 249.546C35.4195 241.02 21.8858 223.09 27.1608 209.497C32.4358 195.905 54.5219 191.797 76.4916 200.323Z"   fill="#FFFFFF" >
</path>
<path d="M60.9839 205.836C74.0102 210.891 82.0351 221.521 78.9081 229.579C75.7811 237.637 62.6862 240.071 49.6599 235.016C36.6336 229.961 28.6087 219.33 31.7357 211.273C34.8627 203.215 47.9576 200.781 60.9839 205.836Z"   fill="#F0A420" >
</path>
<path d="M58.6711 206.266C70.6676 210.921 78.0587 220.71 75.1794 228.129C72.3002 235.548 60.2409 237.789 48.2444 233.133C36.2478 228.478 28.8568 218.689 31.7361 211.27C34.6153 203.85 46.6745 201.61 58.6711 206.266Z"   fill="#F5C872" >
</path>
<path d="M121.571 240.426C121.583 240.467 121.572 240.511 121.54 240.54C121.078 240.975 120.952 241.659 121.229 242.23C121.507 242.801 122.123 243.125 122.75 243.03C122.794 243.022 122.837 243.042 122.861 243.079C122.885 243.116 122.885 243.163 122.86 243.2C122.494 243.718 122.506 244.414 122.891 244.918C123.276 245.422 123.944 245.617 124.54 245.4C124.582 245.383 124.631 245.394 124.662 245.427C124.693 245.46 124.7 245.509 124.68 245.55C124.413 246.132 124.563 246.82 125.046 247.239C125.53 247.658 126.232 247.707 126.77 247.36C126.809 247.342 126.855 247.346 126.89 247.371C126.925 247.396 126.944 247.437 126.94 247.48C126.798 248.102 127.084 248.744 127.64 249.056C128.197 249.368 128.893 249.276 129.35 248.83C129.384 248.805 129.429 248.8 129.468 248.816C129.507 248.832 129.534 248.868 129.54 248.91C129.527 249.546 129.934 250.116 130.54 250.31C131.148 250.505 131.813 250.282 132.18 249.76C132.194 249.719 132.232 249.691 132.275 249.691C132.318 249.691 132.357 249.719 132.37 249.76C132.491 250.387 133.007 250.862 133.643 250.929C134.278 250.995 134.882 250.639 135.13 250.05C135.148 250.011 135.187 249.986 135.23 249.986C135.273 249.986 135.312 250.011 135.33 250.05C135.575 250.639 136.176 250.998 136.81 250.936C137.444 250.874 137.964 250.405 138.09 249.78C138.11 249.746 138.146 249.725 138.185 249.725C138.224 249.725 138.26 249.746 138.28 249.78C138.643 250.303 139.301 250.533 139.91 250.35C140.513 250.157 140.918 249.593 140.91 248.96C140.916 248.918 140.943 248.882 140.982 248.866C141.021 248.85 141.066 248.855 141.1 248.88C141.553 249.329 142.248 249.426 142.807 249.119C143.366 248.811 143.656 248.173 143.52 247.55C143.507 247.505 143.524 247.456 143.562 247.429C143.601 247.402 143.652 247.402 143.69 247.43C144.226 247.779 144.928 247.73 145.41 247.31C145.892 246.895 146.05 246.215 145.8 245.63C145.786 245.59 145.796 245.546 145.826 245.516C145.856 245.486 145.9 245.476 145.94 245.49C146.536 245.716 147.209 245.526 147.6 245.023C147.99 244.52 148.007 243.821 147.64 243.3C147.58 243.23 147.64 243.12 147.75 243.13C148.38 243.24 149.007 242.921 149.289 242.347C149.571 241.773 149.441 241.082 148.97 240.65C148.938 240.62 148.927 240.573 148.942 240.532C148.958 240.49 148.996 240.462 149.04 240.46C149.683 240.446 150.239 240.007 150.402 239.384C150.564 238.762 150.294 238.107 149.74 237.78C149.701 237.762 149.676 237.723 149.676 237.68C149.676 237.637 149.701 237.598 149.74 237.58C150.368 237.458 150.841 236.937 150.9 236.3C150.931 235.664 150.547 235.082 149.95 234.86C149.911 234.842 149.886 234.803 149.886 234.76C149.886 234.717 149.911 234.678 149.95 234.66C150.523 234.384 150.85 233.768 150.755 233.139C150.661 232.51 150.169 232.016 149.54 231.92C149.492 231.923 149.449 231.892 149.437 231.846C149.424 231.799 149.447 231.751 149.49 231.73C150.004 231.34 150.199 230.657 149.967 230.054C149.736 229.452 149.133 229.075 148.49 229.13C148.447 229.132 148.406 229.108 148.387 229.069C148.367 229.03 148.372 228.984 148.4 228.95C148.817 228.469 148.874 227.772 148.54 227.23C148.207 226.686 147.556 226.425 146.94 226.59C146.899 226.601 146.856 226.588 146.828 226.556C146.8 226.524 146.793 226.479 146.81 226.44C147.103 225.88 147.023 225.198 146.61 224.72C146.151 224.288 145.479 224.17 144.9 224.42C144.86 224.434 144.816 224.424 144.786 224.394C144.756 224.364 144.746 224.32 144.76 224.28C144.949 223.678 144.726 223.023 144.21 222.66C143.695 222.285 142.996 222.285 142.48 222.66C142.445 222.683 142.4 222.684 142.364 222.663C142.328 222.642 142.307 222.602 142.31 222.56C142.376 221.927 142.024 221.324 141.44 221.07C140.853 220.815 140.169 220.978 139.76 221.47C139.731 221.501 139.687 221.513 139.646 221.5C139.605 221.488 139.576 221.452 139.57 221.41C139.513 220.774 139.046 220.25 138.42 220.12C137.796 219.991 137.161 220.288 136.86 220.85C136.839 220.888 136.799 220.912 136.755 220.912C136.711 220.912 136.671 220.888 136.65 220.85C136.478 220.26 135.95 219.844 135.337 219.815C134.723 219.786 134.158 220.149 133.93 220.72C133.91 220.754 133.874 220.775 133.835 220.775C133.796 220.775 133.76 220.754 133.74 220.72C133.413 220.233 132.826 219.988 132.25 220.1C131.624 220.217 131.151 220.735 131.09 221.37C131.081 221.412 131.049 221.446 131.008 221.458C130.966 221.471 130.921 221.46 130.89 221.43C130.485 220.939 129.806 220.773 129.22 221.02C128.636 221.269 128.28 221.868 128.34 222.5C128.347 222.545 128.325 222.59 128.285 222.612C128.245 222.635 128.195 222.63 128.16 222.6C127.661 222.208 126.965 222.187 126.443 222.547C125.92 222.906 125.692 223.564 125.88 224.17C125.886 224.212 125.87 224.254 125.837 224.28C125.804 224.307 125.76 224.315 125.72 224.3C125.154 224.007 124.462 224.121 124.02 224.58C123.582 225.041 123.493 225.733 123.8 226.29C123.823 226.33 123.82 226.379 123.791 226.415C123.762 226.451 123.714 226.465 123.67 226.45C123.058 226.282 122.409 226.533 122.07 227.07C121.731 227.608 121.78 228.304 122.19 228.79C122.218 228.824 122.223 228.87 122.204 228.909C122.184 228.948 122.144 228.972 122.1 228.97C121.462 228.922 120.869 229.297 120.638 229.894C120.408 230.49 120.596 231.167 121.1 231.56C121.139 231.578 121.164 231.617 121.164 231.66C121.164 231.703 121.139 231.742 121.1 231.76C120.466 231.842 119.962 232.333 119.863 232.964C119.763 233.595 120.092 234.217 120.67 234.49C120.709 234.508 120.734 234.547 120.734 234.59C120.734 234.633 120.709 234.672 120.67 234.69C120.07 234.905 119.681 235.486 119.711 236.123C119.74 236.76 120.183 237.302 120.8 237.46C120.839 237.478 120.864 237.517 120.864 237.56C120.864 237.603 120.839 237.642 120.8 237.66C120.254 237.99 119.987 238.638 120.143 239.257C120.3 239.876 120.842 240.32 121.48 240.35C121.522 240.356 121.558 240.385 121.571 240.426Z"   fill="#F78F88" >
</path>
<path    stroke="rgba(234, 103, 59, 1.00)" stroke-width="6" stroke-linejoin="round" stroke-linecap="round"  d="M135.3 225.85C139.701 225.862 143.528 228.868 144.583 233.141C145.639 237.413 143.651 241.855 139.762 243.915C135.873 245.974 131.082 245.123 128.14 241.85">
</path>
<path    stroke="rgba(234, 103, 59, 1.00)" stroke-width="6" stroke-linejoin="round" stroke-linecap="round"  d="M135.3 230.16C138.13 230.283 140.36 232.613 140.36 235.445C140.36 238.277 138.13 240.607 135.3 240.73">
</path>
<path    stroke="rgba(234, 103, 59, 1.00)" stroke-width="6" stroke-linejoin="round" stroke-linecap="round"  d="M135.42 240.72C131.64 240.809 128.397 238.044 127.885 234.299C127.373 230.553 129.755 227.02 133.42 226.09C134.027 225.928 134.652 225.847 135.28 225.85">
</path>
<path     fill="#F78F88"  d="M185.651 239.879C185.317 239.341 184.674 239.081 184.061 239.239C184.019 239.239 183.977 239.232 183.951 239.199C183.924 239.166 183.916 239.119 183.931 239.079C184.24 238.524 184.155 237.833 183.721 237.369C183.27 236.93 182.598 236.808 182.021 237.059C181.981 237.073 181.941 237.059 181.911 237.029C181.881 236.999 181.867 236.959 181.881 236.919C182.069 236.317 181.847 235.662 181.331 235.299C180.804 234.938 180.105 234.959 179.601 235.349C179.566 235.372 179.517 235.37 179.481 235.349C179.445 235.328 179.431 235.291 179.431 235.249C179.499 234.615 179.147 234.01 178.561 233.759C177.975 233.508 177.292 233.672 176.881 234.159C176.852 234.19 176.811 234.202 176.771 234.189C176.73 234.176 176.691 234.141 176.691 234.099C176.628 233.468 176.161 232.957 175.541 232.829C174.92 232.701 174.289 232.985 173.981 233.539C173.96 233.577 173.914 233.599 173.871 233.599C173.827 233.599 173.792 233.577 173.771 233.539C173.596 232.95 173.064 232.536 172.451 232.509C171.837 232.482 171.276 232.848 171.051 233.419C171.031 233.453 170.99 233.479 170.951 233.479C170.912 233.479 170.88 233.453 170.861 233.419C170.523 232.91 169.905 232.663 169.311 232.809C168.717 232.955 168.275 233.461 168.211 234.069C168.211 234.111 168.172 234.147 168.131 234.159C168.089 234.171 168.042 234.159 168.011 234.129C167.601 233.644 166.925 233.481 166.341 233.729C165.756 233.977 165.398 234.577 165.461 235.209C165.461 235.253 165.44 235.29 165.401 235.309C165.362 235.329 165.314 235.327 165.281 235.299C164.782 234.907 164.083 234.889 163.561 235.249C163.038 235.609 162.813 236.263 163.001 236.869C163.001 236.911 162.994 236.952 162.961 236.979C162.928 237.006 162.88 237.014 162.841 236.999C162.272 236.695 161.568 236.804 161.121 237.269C160.674 237.734 160.594 238.443 160.921 238.999C160.944 239.039 160.94 239.093 160.911 239.129C160.882 239.165 160.834 239.174 160.791 239.159C160.178 238.995 159.53 239.253 159.191 239.789C158.851 240.325 158.9 241.016 159.311 241.499C159.339 241.533 159.34 241.58 159.321 241.619C159.301 241.658 159.264 241.679 159.221 241.679C158.583 241.631 157.991 242.002 157.761 242.599C157.53 243.196 157.716 243.876 158.221 244.269C158.259 244.295 158.272 244.344 158.261 244.389C158.25 244.434 158.216 244.469 158.171 244.469C157.537 244.551 157.03 245.038 156.931 245.669C156.831 246.3 157.163 246.926 157.741 247.199C157.779 247.22 157.801 247.265 157.801 247.309C157.801 247.353 157.779 247.388 157.741 247.409C157.137 247.618 156.741 248.201 156.771 248.839C156.801 249.477 157.25 250.018 157.871 250.169C157.91 250.187 157.931 250.226 157.931 250.269C157.931 250.312 157.91 250.351 157.871 250.369C157.324 250.699 157.054 251.35 157.211 251.969C157.367 252.588 157.913 253.029 158.551 253.059C158.593 253.059 158.628 253.098 158.641 253.139C158.654 253.18 158.642 253.22 158.611 253.249C158.149 253.684 158.023 254.368 158.301 254.939C158.578 255.51 159.193 255.834 159.821 255.739C159.862 255.739 159.898 255.765 159.921 255.799C159.943 255.833 159.948 255.872 159.931 255.909C159.548 256.425 159.551 257.129 159.941 257.639C160.331 258.149 161.013 258.343 161.611 258.109C161.653 258.092 161.7 258.106 161.731 258.139C161.762 258.172 161.771 258.218 161.751 258.259C161.484 258.841 161.637 259.53 162.121 259.949C162.605 260.368 163.303 260.416 163.841 260.069C163.88 260.051 163.926 260.054 163.961 260.079C163.996 260.104 164.011 260.146 164.011 260.189C163.879 260.848 164.225 261.51 164.841 261.779C165.395 262.092 166.089 262.007 166.551 261.569C166.582 261.536 166.628 261.531 166.671 261.549C166.713 261.567 166.741 261.603 166.741 261.649C166.726 262.284 167.134 262.851 167.741 263.039C168.349 263.234 169.013 263.011 169.381 262.489C169.394 262.448 169.428 262.419 169.471 262.419C169.514 262.419 169.557 262.448 169.571 262.489C169.691 263.116 170.206 263.592 170.841 263.659C171.476 263.726 172.083 263.368 172.331 262.779C172.349 262.74 172.388 262.719 172.431 262.719C172.474 262.719 172.513 262.74 172.531 262.779C172.776 263.368 173.376 263.731 174.011 263.669C174.645 263.607 175.165 263.134 175.291 262.509C175.31 262.475 175.342 262.459 175.381 262.459C175.42 262.459 175.461 262.475 175.481 262.509C175.837 263.04 176.501 263.272 177.111 263.079C177.709 262.88 178.111 262.32 178.111 261.689C178.111 261.645 178.139 261.604 178.181 261.589C178.222 261.574 178.271 261.587 178.301 261.619C178.76 262.055 179.447 262.146 180.001 261.839C180.555 261.532 180.847 260.899 180.721 260.279C180.721 260.236 180.736 260.194 180.771 260.169C180.806 260.144 180.852 260.141 180.891 260.159C181.425 260.514 182.132 260.474 182.621 260.059C183.11 259.644 183.264 258.954 183.001 258.369C182.981 258.328 182.99 258.282 183.021 258.249C183.052 258.216 183.099 258.202 183.141 258.219C183.735 258.443 184.406 258.257 184.801 257.759C185.181 257.249 185.181 256.549 184.801 256.039C184.779 256.001 184.778 255.957 184.801 255.919C184.824 255.881 184.867 255.859 184.911 255.859C185.541 255.969 186.169 255.653 186.451 255.079C186.733 254.505 186.602 253.811 186.131 253.379C186.099 253.349 186.085 253.3 186.101 253.259C186.116 253.218 186.157 253.189 186.201 253.189C186.844 253.175 187.398 252.742 187.561 252.119C187.723 251.497 187.455 250.836 186.901 250.509C186.862 250.491 186.841 250.452 186.841 250.409C186.841 250.366 186.862 250.327 186.901 250.309C187.566 250.186 188.054 249.615 188.071 248.939C188.097 248.292 187.688 247.706 187.071 247.509C187.033 247.488 187.011 247.453 187.011 247.409C187.011 247.365 187.033 247.32 187.071 247.299C187.65 247.03 187.98 246.41 187.881 245.779C187.783 245.152 187.288 244.662 186.661 244.569C186.615 244.569 186.572 244.534 186.561 244.489C186.55 244.444 186.573 244.395 186.611 244.369C187.125 243.979 187.322 243.302 187.091 242.699C186.859 242.096 186.254 241.714 185.611 241.769C185.567 241.769 185.53 241.748 185.511 241.709C185.491 241.67 185.493 241.623 185.521 241.589C185.934 241.109 185.985 240.417 185.651 239.879">
</path>
<path    stroke="rgba(234, 103, 59, 1.00)" stroke-width="6" stroke-linejoin="round" stroke-linecap="round"  d="M172.47 238.5C176.871 238.512 180.698 241.518 181.753 245.79C182.808 250.063 180.821 254.505 176.932 256.565C173.043 258.624 168.251 257.773 165.31 254.5">
</path>
<path    stroke="rgba(234, 103, 59, 1.00)" stroke-width="6" stroke-linejoin="round" stroke-linecap="round"  d="M172.47 242.78C175.3 242.903 177.53 245.233 177.53 248.065C177.53 250.897 175.3 253.227 172.47 253.35">
</path>
<path    stroke="rgba(234, 103, 59, 1.00)" stroke-width="6" stroke-linejoin="round" stroke-linecap="round"  d="M172.59 253.37C169.871 253.489 167.304 252.114 165.896 249.785C164.489 247.456 164.465 244.544 165.835 242.192C167.205 239.841 169.75 238.425 172.47 238.5">
</path>
<path d="M116.43 218.23C117.214 218.314 118.002 218.357 118.79 218.36C121.722 218.364 124.624 217.772 127.32 216.62C140.16 212.67 149.34 201.83 149.34 187.49C149.326 173.051 139.894 160.31 126.087 156.083C112.281 151.855 97.3321 157.129 89.2356 169.085C81.1391 181.04 81.79 196.879 90.8401 208.13C93.6957 211.644 98.501 212.899 102.71 211.23L102.71 211.23C106.275 215.161 111.155 217.651 116.43 218.23L116.43 218.23Z"   fill="#ED805D" >
</path>
<path d="M94.8565 172.677C88.437 182.17 88.9659 194.74 96.1601 203.66C98.4271 206.448 102.242 207.44 105.58 206.11L105.58 206.11C108.409 209.223 112.279 211.193 116.46 211.65L116.46 211.65C117.081 211.719 117.705 211.752 118.33 211.75C120.657 211.754 122.96 211.284 125.1 210.37C135.26 207.26 142.54 198.66 142.54 187.28C142.537 175.821 135.054 165.706 124.097 162.35C113.14 158.995 101.276 163.185 94.8565 172.677Z"   fill="#EA673B" >
</path>
<path d="M112.502 217.401L111.772 217.161L111.532 217.081L110.872 216.831L110.572 216.711L109.972 216.451L109.632 216.301L109.072 216.031C108.952 215.974 108.835 215.91 108.722 215.841L108.192 215.561L107.832 215.351L107.332 215.051L106.962 214.811L106.502 214.501C106.372 214.421 106.252 214.321 106.122 214.231L105.692 213.921L105.312 213.621L104.902 213.291L104.522 212.961L104.152 212.631L103.742 212.251L103.422 211.941C103.192 211.711 102.962 211.471 102.742 211.231C98.5329 212.9 93.7276 211.645 90.872 208.131C83.0115 198.388 81.3671 185.029 86.632 173.671C91.8969 162.313 103.157 154.929 115.672 154.631C124.51 154.421 133.06 157.781 139.392 163.951C145.724 170.121 149.303 178.58 149.322 187.421C149.322 201.761 140.122 212.601 127.322 216.531C124.626 217.683 121.724 218.271 118.792 218.271L117.602 218.271C117.222 218.251 116.832 218.181 116.452 218.181C115.152 218.035 113.866 217.774 112.612 217.401L112.502 217.401ZM131.1 192.09C130.833 195.85 128.35 199.091 124.79 200.33C121.23 201.569 117.273 200.572 114.73 197.79C112.186 195.008 111.548 190.975 113.1 187.54C113.243 187.239 113.14 186.879 112.86 186.7C112.694 186.588 112.493 186.556 112.3 186.61C112.107 186.664 111.943 186.798 111.86 186.98C110.076 190.92 110.813 195.546 113.73 198.74C116.647 201.934 121.184 203.08 125.27 201.66C129.356 200.24 132.203 196.524 132.51 192.21L132.51 191.45C132.51 181.75 125.14 175.45 116.29 175.45C114.406 175.45 112.536 175.761 110.75 176.36L110.63 176.42C104.231 179.016 99.4504 184.5 97.7399 191.19C96.0295 197.88 97.5927 204.981 101.96 210.33C98.3394 211.132 94.5764 209.82 92.2399 206.94C83.6627 196.305 83.034 181.316 90.6899 170C98.3458 158.684 112.488 153.694 125.55 157.7C138.612 161.705 147.53 173.767 147.53 187.43C147.55 200.99 138.84 211.24 126.77 214.96C124.217 216.042 121.473 216.6 118.7 216.6L118.5 216.6L118.5 216.55C108.954 216.55 100.749 209.781 98.9299 200.41C97.1109 191.039 102.188 181.693 111.04 178.12C112.713 177.544 114.47 177.25 116.24 177.25C124.4 177.25 131.16 183.09 131.1 192.09Z" fill-rule="evenodd"  fill="#EDE1A6" >
</path>
<path d="M170.32 211.72C183.1 207.78 192.27 196.93 192.27 182.6C192.299 168.135 182.871 155.351 169.044 151.104C155.216 146.857 140.238 152.146 132.142 164.133C124.046 176.12 124.736 191.99 133.84 203.23C136.701 206.743 141.508 207.997 145.72 206.33L145.72 206.33C149.282 210.259 154.159 212.749 159.43 213.33L159.43 213.33C160.214 213.414 161.002 213.457 161.79 213.46C164.722 213.463 167.624 212.871 170.32 211.72Z"   fill="#ED805D" >
</path>
<path d="M149.26 201.23C152.095 204.352 155.977 206.327 160.17 206.78L160.17 206.78C160.791 206.852 161.415 206.889 162.04 206.89C164.379 206.883 166.692 206.403 168.84 205.48C178.98 202.36 186.26 193.78 186.26 182.39C186.231 170.946 178.744 160.858 167.799 157.514C156.854 154.171 145.009 158.354 138.589 167.828C132.17 177.302 132.677 189.855 139.84 198.78C142.109 201.565 145.922 202.557 149.26 201.23L149.26 201.23Z"   fill="#EA673B" >
</path>
<path d="M149.442 209.661L149.062 209.391L148.622 209.071L148.242 208.771L147.842 208.451L147.452 208.111L147.082 207.791L146.682 207.401C146.572 207.301 146.592 207.321 146.362 207.091C146.132 206.861 145.902 206.621 145.682 206.381C141.47 208.048 136.663 206.794 133.802 203.281C125.942 193.538 124.297 180.178 129.562 168.821C134.827 157.463 146.087 150.079 158.602 149.781C167.443 149.571 175.989 152.929 182.322 159.101C188.656 165.272 192.243 173.737 192.262 182.581C192.262 196.911 183.062 207.751 170.262 211.681C167.566 212.832 164.664 213.421 161.732 213.421L160.542 213.421C160.152 213.401 159.772 213.331 159.392 213.331C158.092 213.185 156.807 212.924 155.552 212.551L155.442 212.551C155.192 212.481 154.952 212.401 154.712 212.311L154.462 212.231L153.812 211.981L153.502 211.861L152.902 211.601L152.572 211.451L152.012 211.181L151.652 211.001L151.132 210.711L150.762 210.501L150.272 210.201L149.902 209.961L149.442 209.661ZM135.16 201.956C126.592 191.324 125.967 176.345 133.62 165.036C141.273 153.727 155.414 148.745 168.47 152.746C181.526 156.746 190.44 168.791 190.44 182.446C190.48 196.096 181.84 206.336 169.7 210.056L169.7 210.106C167.153 211.194 164.41 211.746 161.64 211.746L161.44 211.746C151.904 211.732 143.718 204.977 141.9 195.616C140.082 186.255 145.142 176.907 153.98 173.326C155.653 172.747 157.41 172.446 159.18 172.446C167.35 172.446 174.1 178.286 174.04 187.286C173.802 191.063 171.322 194.334 167.75 195.586C164.178 196.837 160.204 195.828 157.66 193.026C155.116 190.224 154.5 186.17 156.09 182.736C156.193 182.578 156.228 182.389 156.18 182.206C156.132 182.023 156.007 181.863 155.84 181.776C155.675 181.656 155.465 181.629 155.27 181.686C155.075 181.742 154.915 181.877 154.84 182.066C154.119 183.603 153.776 185.289 153.84 186.986C154.099 192.707 158.773 197.236 164.5 197.316C170.226 197.395 175.022 192.998 175.44 187.286L175.44 186.526C175.44 176.826 168.07 170.526 159.22 170.526C157.333 170.526 155.458 170.833 153.67 171.436L153.55 171.436C147.148 174.029 142.361 179.514 140.65 186.206C138.939 192.897 140.508 199.998 144.88 205.346C141.259 206.148 137.496 204.835 135.16 201.956Z" fill-rule="evenodd"  fill="#EDE1A6" >
</path>
<path d="M185.84 273.7C199.08 272.803 212.236 270.931 225.2 268.1C226.636 265.844 227.131 263.116 226.58 260.5C224.81 253.17 213.94 249.5 202.31 252.31C190.68 255.12 182.69 263.31 184.46 270.67C184.722 271.759 185.191 272.788 185.84 273.7Z"   fill="#580D10" >
</path>
<path d="M214.65 251.78C213.52 257.49 218.21 263.52 225.8 267.08C226.814 265.062 227.104 262.756 226.62 260.55C225.51 255.91 220.84 252.78 214.65 251.78Z"   fill="#2B0509" >
</path>
<path d="M232.34 266.42C241.582 264.102 250.642 261.114 259.45 257.48C260.31 250.31 252.22 242.79 240.9 240.48C229.18 238.05 218.44 242.06 216.9 249.48C215.51 256.15 222.25 263.36 232.34 266.42Z"   fill="#580D10" >
</path>
<path d="M280.77 49.0601L283.22 48.9901L283.22 39.8201L280.77 39.9401L280.77 49.0601L280.77 49.0601Z"   fill="#FFFFFF" >
</path>
<path d="M289.09 48.8099L291.53 48.7399L291.53 39.4399L289.09 39.5499L289.09 48.8099L289.09 48.8099Z"   fill="#FFFFFF" >
</path>
<path d="M324.84 0L90.3901 30.98L91.1001 37.08L325.98 9.79L324.84 0L324.84 0Z"   fill="#D01F1A" >
</path>
<path d="M90.4601 31.55L91.1001 37.08L220.76 22.02L220.76 13.75L90.4501 30.97L90.4601 31.55L90.4601 31.55Z"   fill="#F5C872" >
</path>
<path d="M280.12 15.2401L282.55 14.9501L281.77 5.82007L279.34 6.14007L280.12 15.2401L280.12 15.2401Z"   fill="#FFFFFF" >
</path>
<path d="M288.27 14.29L290.7 14.01L289.91 4.75L287.48 5.06L288.27 14.29L288.27 14.29Z"   fill="#FFFFFF" >
</path>
<path d="M212.84 258.26L206.16 260.59C205.117 260.94 203.965 260.691 203.16 259.94L200.07 257L201.21 260.63C201.549 261.736 201.222 262.938 200.37 263.72L195.89 267.78L202.13 265.92C203.197 265.603 204.352 265.904 205.13 266.7L208.89 270.6L207.05 266.04C206.588 264.871 206.903 263.538 207.84 262.7L212.84 258.26Z"   fill="#F5C872" >
</path>
<path d="M240.13 248.7L240.13 244.44L238.3 247.77C237.736 248.779 236.643 249.374 235.49 249.3L229.49 248.87L235.15 252.09C236.107 252.646 236.679 253.684 236.64 254.79L236.43 260.2L238.43 255.72C238.96 254.562 240.162 253.865 241.43 253.98L248.04 254.55L241.74 251.33C240.759 250.817 240.141 249.806 240.13 248.7Z"   fill="#F5C872" >
</path>
<path d="M128.6 262.43L125.16 266.17L120.38 259.02L123.82 255.29L128.6 262.43L128.6 262.43Z"   fill="#30A563" >
</path>
<path d="M96.9301 244.66L91.8501 244.63L93.9101 236.28L98.9901 236.3L96.9301 244.66L96.9301 244.66Z"   fill="#30A563" >
</path>
<path d="M107.53 223.56L107.84 227.06L101.95 226.2L101.63 222.69L107.53 223.56L107.53 223.56Z"   fill="#09823B" >
</path>
<path d="M160.19 219.44L165.01 221.04L160.47 228.34L155.65 226.74L160.19 219.44L160.19 219.44Z"   fill="#09823B" >
</path>
<path d="M247.03 129.09L251.85 130.68L247.31 137.99L242.49 136.39L247.03 129.09L247.03 129.09Z"   fill="#30A563" >
</path>
<path d="M216.37 161.26L218.05 156.47L225.27 161.14L223.59 165.93L216.37 161.26L216.37 161.26Z"   fill="#09823B" >
</path>
<path d="M256.44 174.6L260.37 171.39L264.1 179.14L260.16 182.35L256.44 174.6L256.44 174.6Z"   fill="#30A563" >
</path>
<path d="M194.26 227.1L196.66 223.33L201.91 228.77L199.51 232.53L194.26 227.1L194.26 227.1Z"   fill="#30A563" >
</path>
<path d="M152.1 251.61L156.22 254.58L149.7 260.19L145.58 257.22L152.1 251.61L152.1 251.61Z"   fill="#30A563" >
</path>
</svg>
