<svg xmlns="http://www.w3.org/2000/svg" xmlns:xlink="http://www.w3.org/1999/xlink" width="384.72998046875" height="266.18017578125" viewBox="0 0 384.72998046875 266.18017578125" fill="none">
<path d="M315.25 33.96L199.25 33.96L199.25 106.82L315.25 106.82L315.25 33.96Z"   fill="#F2F6F9" >
</path>
<path d="M205.83 100.04L205.83 40.7598L308.67 40.7598L308.67 100.04L205.83 100.04ZM207.83 98.0398L207.83 42.7598L306.67 42.7598L306.67 98.0398L207.83 98.0398Z" fill-rule="evenodd"  fill="#E2E6E8" >
</path>
<path d="M173.77 177.73L120.69 177.73L120.69 233.06L173.77 233.06L173.77 177.73Z"   fill="#F2F6F9" >
</path>
<path d="M301.52 196.17L230.64 196.17L230.64 229.27L301.52 229.27L301.52 196.17Z"   fill="#F2F6F9" >
</path>
<path d="M90.5899 29.5801L18.6899 29.5801L18.6899 109.43L90.5899 109.43L90.5899 29.5801Z"   fill="#F2F6F9" >
</path>
<path d="M182.65 4.18994L105.69 4.18994L105.69 87.5099L182.65 87.5099L182.65 4.18994Z"   fill="#F2F6F9" >
</path>
<path d="M186.46 101.48L109.54 101.48L109.54 166.42L186.46 166.42L186.46 101.48Z"   fill="#F2F6F9" >
</path>
<path d="M384.73 81.1499L331.85 81.1499L331.85 135.32L384.73 135.32L384.73 81.1499Z"   fill="#F2F6F9" >
</path>
<path d="M360.7 26.1899L333.31 26.1899L333.31 68.0399L360.7 68.0399L360.7 26.1899Z"   fill="#F2F6F9" >
</path>
<path d="M296.8 0L217.71 0L217.71 26.16L296.8 26.16L296.8 0Z"   fill="#F2F6F9" >
</path>
<path d="M360.69 155.43L331.85 155.43L331.85 216.05L360.69 216.05L360.69 155.43Z"   fill="#F2F6F9" >
</path>
<path d="M318.85 121.58L243.46 121.58L243.46 184.8L318.85 184.8L318.85 121.58Z"   fill="#F2F6F9" >
</path>
<path d="M86.74 123.39L0 123.39L0 177.79L86.74 177.79L86.74 123.39Z"   fill="#F2F6F9" >
</path>
<path d="M7.90002 170.87L7.90002 130.33L78.85 130.33L78.85 170.87L7.90002 170.87ZM10.65 168.12L10.65 133.08L76.1 133.08L76.1 168.12L10.65 168.12Z" fill-rule="evenodd"  fill="#E2E6E8" >
</path>
<path d="M256.69 173.47L256.69 132.93L305.61 132.93L305.61 173.47L256.69 173.47ZM259.44 170.72L259.44 135.68L302.86 135.68L302.86 170.72L259.44 170.72Z" fill-rule="evenodd"  fill="#E2E6E8" >
</path>
<path d="M121.08 156.14L121.08 111.76L174.92 111.76L174.92 156.14L121.08 156.14ZM123.83 153.39L123.83 114.51L172.17 114.51L172.17 153.39L123.83 153.39Z" fill-rule="evenodd"  fill="#E2E6E8" >
</path>
<path d="M30.4399 96.3199L30.4399 42.6699L78.8399 42.6699L78.8399 96.3199L30.4399 96.3199ZM36.6899 90.0699L36.6899 48.9199L72.5899 48.9199L72.5899 90.0699L36.6899 90.0699Z" fill-rule="evenodd"  fill="#E2E6E8" >
</path>
<path d="M114.58 78.3199L114.58 13.3999L173.77 13.3999L173.77 78.3199L114.58 78.3199ZM116.58 76.3199L116.58 15.3999L171.77 15.3999L171.77 76.3199L116.58 76.3199Z" fill-rule="evenodd"  fill="#E2E6E8" >
</path>
<path d="M131.5 222.18L131.5 188.63L162.96 188.63L162.96 222.18L131.5 222.18ZM135.5 218.18L135.5 192.63L158.96 192.63L158.96 218.18L135.5 218.18Z" fill-rule="evenodd"  fill="#E2E6E8" >
</path>
<path d="M339.08 207.94L339.08 163.53L353.46 163.53L353.46 207.94L339.08 207.94ZM339.83 207.19L339.83 164.28L352.71 164.28L352.71 207.19L339.83 207.19Z" fill-rule="evenodd"  fill="#E2E6E8" >
</path>
<path d="M226.68 18.3898L226.68 7.75977L287.83 7.75977L287.83 18.3898L226.68 18.3898ZM227.43 17.6398L227.43 8.50977L287.08 8.50977L287.08 17.6398L227.43 17.6398Z" fill-rule="evenodd"  fill="#E2E6E8" >
</path>
<path d="M343.91 123.39L343.91 93.0801L372.66 93.0801L372.66 123.39L343.91 123.39ZM348.16 119.14L348.16 97.3301L368.41 97.3301L368.41 119.14L348.16 119.14Z" fill-rule="evenodd"  fill="#E2E6E8" >
</path>
<path d="M108.92 190.5L58.46 190.5L58.46 220.29L108.92 220.29L108.92 190.5Z"   fill="#F2F6F9" >
</path>
<path d="M173.765 266.17C253.89 266.17 318.84 265.394 318.84 264.435C318.84 263.477 253.89 262.7 173.765 262.7C93.6429 262.7 28.6899 263.477 28.6899 264.435C28.6899 265.394 93.6429 266.17 173.765 266.17Z"   fill="#E4EFF7" >
</path>
<path    stroke="rgba(71, 80, 86, 1)" stroke-width="1.25"    d="M185.8 264.36L203.85 200.77">
</path>
<path    stroke="rgba(71, 80, 86, 1)" stroke-width="1.25"    d="M201.05 264.36L219.1 200.77">
</path>
<path    stroke="rgba(71, 80, 86, 1)" stroke-width="1.25"    d="M259.1 264.36L241.05 200.77">
</path>
<path    stroke="rgba(71, 80, 86, 1)" stroke-width="1.25"    d="M274.35 264.36L256.3 200.77">
</path>
<path d="M211.85 89.5502C217.71 89.5502 222.46 83.4836 222.46 76.0002C222.46 68.5168 217.71 62.4502 211.85 62.4502C205.99 62.4502 201.24 68.5168 201.24 76.0002C201.24 83.4836 205.99 89.5502 211.85 89.5502Z"   fill="#24272D" >
</path>
<path d="M129.942 139.229C129.814 138.919 129.749 138.587 129.75 138.252C129.752 138.061 129.829 137.879 129.964 137.744C130.099 137.609 130.281 137.532 130.472 137.53L161.9 137.53L161.9 140.81L132.295 140.81C131.96 140.809 131.629 140.743 131.319 140.614C131.01 140.485 130.729 140.296 130.493 140.059C130.256 139.821 130.069 139.539 129.942 139.229Z"   fill="#EA6F57" >
</path>
<path d="M159.548 144.81L143.622 144.81C142.61 144.81 141.79 145.631 141.79 146.644L141.79 146.646C141.79 147.659 142.61 148.48 143.622 148.48L159.548 148.48C160.56 148.48 161.38 147.659 161.38 146.646L161.38 146.644C161.38 145.631 160.56 144.81 159.548 144.81Z"   fill="#EA6F57" >
</path>
<path d="M145.31 138.17L168.54 138.17L168.54 145.45L149.618 145.45C148.475 145.45 147.38 144.996 146.572 144.189C145.764 143.381 145.31 142.286 145.31 141.144L145.31 138.17Z"   fill="#EA6F57" >
</path>
<path     fill="#FFFFFF"  d="M274.75 148.44C282.031 148.44 285.617 139.584 280.39 134.52C270.612 125.042 258.253 113.71 252.23 110.8C241.409 105.57 223.666 105.162 215.87 107.01C208.074 108.857 190.64 127.51 190.64 127.51L158.02 132.14L158.02 148.89L187.97 148.89C191.726 148.89 195.435 147.986 198.77 146.26L212.38 139.22C212.38 139.22 219.972 150.968 221.92 159.5L257.98 159.5C257.98 159.5 257.307 154.53 256.589 148.44L274.75 148.44">
</path>
<g  mask="url(#mask-qcWlvdgTuK)">
<path d="M179.88 134.26L170.931 120.86L161.98 134.26L179.88 134.26Z"   fill="#FFC774" >
</path>
<path d="M277.7 134.26L268.75 120.86L259.8 134.26L277.7 134.26Z"   fill="#FFC774" >
</path>
<path d="M211.79 134.26L202.84 120.86L193.89 134.26L211.79 134.26Z"   fill="#FFC774" >
</path>
<path d="M243.7 134.26L234.749 120.86L225.8 134.26L243.7 134.26Z"   fill="#FFC774" >
</path>
<path d="M228.37 115.76L219.419 102.36L210.47 115.76L228.37 115.76Z"   fill="#FFC774" >
</path>
<path d="M196.06 154.79L187.109 141.39L178.16 154.79L196.06 154.79Z"   fill="#FFC774" >
</path>
<path d="M228.37 154.79L219.419 141.39L210.47 154.79L228.37 154.79Z"   fill="#FFC774" >
</path>
<path d="M262.22 154.79L253.271 141.39L244.32 154.79L262.22 154.79Z"   fill="#FFC774" >
</path>
</g>
<path    stroke="rgba(37, 40, 45, 1)" stroke-width="0.75"    d="M256.593 148.475C257.623 158.142 257.979 159.5 257.979 159.5L221.919 159.5C219.972 150.968 212.382 139.219 212.382 139.219L198.766 146.258C195.431 147.984 191.73 148.886 187.974 148.885L158.02 148.885L158.02 132.136L190.638 127.509C190.638 127.509 208.074 108.858 215.869 107.01C223.665 105.162 241.41 105.575 252.231 110.805C258.253 113.714 270.613 125.046 280.392 134.524C285.619 139.588 282.027 148.443 274.746 148.443L248.691 148.443">
</path>
<path    stroke="rgba(37, 40, 45, 1)" stroke-width="0.75"    d="M248.69 124.755L262.74 124.755">
</path>
<path d="M265.47 189.5L194.62 189.5L194.62 201.27L265.47 201.27L265.47 189.5Z"   fill="#EA6F57" >
</path>
<path d="M200.08 264.44L230.824 264.44L234.7 264.398L231.734 251.95L217.825 253.073L200.08 264.44Z"   fill="#72A065" >
</path>
<path d="M129.85 246.832L156.304 262.495L159.659 264.43L166.16 246.65L152.159 245.11L129.85 246.832Z"   fill="#72A065" >
</path>
<path d="M234.199 109.834C233.735 110.666 233.112 111.398 232.364 111.988C231.617 112.578 230.761 113.016 229.844 113.275C229.201 113.457 228.535 113.549 227.867 113.55C226.288 113.549 224.754 113.034 223.495 112.082C222.236 111.13 221.323 109.793 220.893 108.274L214.157 84.5039C213.885 83.5843 213.799 82.6202 213.903 81.6668C214.006 80.7134 214.298 79.7903 214.761 78.9504C215.224 78.1106 215.849 77.3712 216.6 76.7745C217.35 76.1781 218.212 75.7363 219.134 75.4748C220.057 75.2132 221.022 75.1377 221.975 75.252C222.927 75.3659 223.847 75.6677 224.681 76.1398C225.516 76.6119 226.249 77.245 226.837 78.002C227.425 78.7595 227.858 79.6258 228.109 80.5512L234.845 104.322C235.105 105.238 235.182 106.196 235.071 107.142C234.96 108.088 234.664 109.003 234.199 109.834Z"   fill="#EA6F57" >
</path>
<path d="M228.503 90.31C229.204 92.9561 228.833 95.7716 227.472 98.1463C226.11 100.521 223.867 102.263 221.229 102.994L219.964 103.344C218.491 103.751 216.947 103.829 215.44 103.571C213.934 103.314 212.503 102.728 211.249 101.854C209.995 100.981 208.949 99.8424 208.185 98.5186C207.421 97.1952 206.958 95.7198 206.83 94.1971L206.187 86.6552C205.98 84.2194 206.639 81.7884 208.046 79.7899C209.454 77.791 211.521 76.3522 213.884 75.7262C216.551 75.0202 219.389 75.4028 221.774 76.7889C224.158 78.1751 225.895 80.4519 226.601 83.1181L228.503 90.31Z"   fill="#EA6F57" >
</path>
<path    stroke="rgba(37, 40, 45, 1)" stroke-width="0.75"    d="M211.281 87.52L209.49 94.16L212.11 94.21">
</path>
<path d="M214.445 90.1101C215.149 90.1101 215.72 89.5392 215.72 88.8351C215.72 88.1309 215.149 87.5601 214.445 87.5601C213.741 87.5601 213.17 88.1309 213.17 88.8351C213.17 89.5392 213.741 90.1101 214.445 90.1101Z"   fill="#24272D" >
</path>
<path d="M208.335 90.1101C209.039 90.1101 209.61 89.5392 209.61 88.8351C209.61 88.1309 209.039 87.5601 208.335 87.5601C207.631 87.5601 207.06 88.1309 207.06 88.8351C207.06 89.5392 207.631 90.1101 208.335 90.1101Z"   fill="#24272D" >
</path>
<path    stroke="rgba(37, 40, 45, 1)" stroke-width="0.75"    d="M217.02 95.29C216.374 96.6452 214.81 96.73 214.81 96.73">
</path>
<path d="M244.675 63.5637C263.926 63.8687 265.781 82.0506 265.781 82.0506C265.781 82.0506 272.633 84.4831 273.581 95.628C274.983 112.098 261.056 106.743 261.056 106.743C261.056 106.743 269.956 124.821 250.038 123.311C230.121 121.8 224.686 107.651 225.458 99.5609C225.766 96.3354 227.443 93.8382 229.338 91.4286C218.423 89.7485 218.588 82.2635 218.588 82.2635C218.588 82.2635 201.089 89.0607 201.231 75.6512C201.373 62.241 215.176 57.9409 223.333 58.0833C225.052 58.1193 226.756 58.4145 228.386 58.9586C233.635 60.6687 237.706 63.4585 244.675 63.5637Z"   fill="#24272D" >
</path>
<path d="M231.491 87.3678C232.495 84.9827 231.379 82.2342 228.996 81.2291C226.613 80.2237 223.867 81.3424 222.862 83.7275L221.209 87.6519C220.204 90.037 221.321 92.7856 223.704 93.7907C226.086 94.796 228.833 93.6773 229.838 91.2923L231.491 87.3678Z"   fill="#EA6F57" >
</path>
<path    stroke="rgba(37, 40, 45, 1)" stroke-width="0.75"    d="M225.57 89.7502L227.92 84.1802">
</path>
<g opacity="0.68">
</g>
<path    stroke="rgba(255, 255, 255, 1)" stroke-width="0.75"  stroke-linecap="square"  d="M251.51 126.045L262.12 126.045">
</path>
<path d="M252.23 159.5L194.023 159.5C189.657 159.5 185.385 160.781 181.74 163.185C178.094 165.588 175.233 169.008 173.512 173.022L144.31 241.151L169.83 253.15L199.021 189.499L250.616 189.499L252.23 159.5Z"   fill="#274992" >
</path>
<path d="M252.23 159.5L252.23 189.499L236.017 189.499L236.017 252.96L208.69 252.96L208.69 178.027C208.69 173.114 210.641 168.402 214.116 164.927C217.59 161.453 222.301 159.501 227.215 159.5L252.23 159.5Z"   fill="#274992" >
</path>
<path    stroke="rgba(255, 255, 255, 1)" stroke-width="0.75"  stroke-linecap="square"  d="M208.69 189.5L208.69 178.026C208.69 173.113 210.641 168.401 214.114 164.927C217.587 161.453 222.298 159.501 227.21 159.5">
</path>
<path d="M253.211 156.14L265.46 156.14L265.46 193.27L242 193.27L242 167.353C242 164.379 243.181 161.527 245.284 159.424C247.386 157.322 250.239 156.14 253.211 156.14Z"   fill="#EA6F57" >
</path>
<path d="M245.9 125.07L228.33 125.07L228.33 148.89L245.9 148.89L245.9 125.07Z"   fill="#72A065" >
</path>
<path d="M249.745 126.82L245.665 126.82C243.696 126.82 242.1 128.416 242.1 130.385L242.1 142.255C242.1 144.224 243.696 145.82 245.665 145.82L249.745 145.82C251.715 145.82 253.31 144.224 253.31 142.255L253.31 130.385C253.31 128.416 251.715 126.82 249.745 126.82Z"   fill="#72A065" >
</path>
<path d="M250.59 132.503L250.59 140.144C250.59 140.885 250.295 141.597 249.772 142.121C249.248 142.645 248.537 142.94 247.797 142.94L245.903 142.94L245.903 129.71L245.9 129.71L247.794 129.71C248.161 129.71 248.524 129.782 248.863 129.922C249.202 130.062 249.51 130.268 249.77 130.527C250.03 130.787 250.235 131.094 250.375 131.434C250.518 131.773 250.59 132.136 250.59 132.503Z"   fill="#FFFFFF" >
</path>
<path    stroke="rgba(255, 255, 255, 1)" stroke-width="5.75"  stroke-linecap="round"  d="M234.65 135.415L237.098 138.02L239.58 135.38">
</path>
<path    stroke="rgba(71, 80, 86, 1)" stroke-width="1.25"    d="M49.41 264.36L82.17 148.96">
</path>
<path    stroke="rgba(71, 80, 86, 1)" stroke-width="1.25"    d="M84.89 264.36L117.65 148.96">
</path>
<path    stroke="rgba(71, 80, 86, 1)" stroke-width="1.25"    d="M318.18 264.36L285.39 148.84">
</path>
<path    stroke="rgba(71, 80, 86, 1)" stroke-width="1.25"    d="M282.66 264.36L249.87 148.84">
</path>
<path d="M248.555 129.091C247.255 130.246 246.843 141.98 248.555 142.838C250.266 143.695 259.46 142.225 259.46 135.755C259.46 129.284 250.414 127.439 248.555 129.091Z"   fill="#EA6F57" >
</path>
<path    stroke="rgba(37, 40, 45, 1)" stroke-width="0.75"    d="M213.27 124.54L210.12 133.955L212.386 139.22">
</path>
<path d="M162.081 72.2289C162.644 72.7915 162.96 73.5545 162.96 74.3498L162.96 125.12C162.96 125.916 162.644 126.679 162.081 127.241C161.519 127.804 160.756 128.12 159.96 128.12L157.96 128.12C158.756 128.12 159.519 127.804 160.081 127.241C160.644 126.679 160.96 125.916 160.96 125.12L160.96 74.3498C160.96 73.5545 160.644 72.7915 160.081 72.2289C159.519 71.6663 158.756 71.3501 157.96 71.3501L159.96 71.3501C160.756 71.3501 161.519 71.6663 162.081 72.2289Z"   fill="#24272D" >
</path>
<path d="M157.969 71.3501L66.5805 71.3501C64.923 71.3501 63.58 72.6933 63.58 74.3498L63.58 125.12C63.58 126.777 64.923 128.12 66.5805 128.12L157.969 128.12C159.627 128.12 160.97 126.777 160.97 125.12L160.97 74.3498C160.97 72.6933 159.627 71.3501 157.969 71.3501Z"   fill="#72A065" >
</path>
<path d="M114.265 94.3301C117.217 94.3301 119.61 91.9372 119.61 88.9851C119.61 86.0331 117.217 83.6401 114.265 83.6401C111.313 83.6401 108.92 86.0331 108.92 88.9851C108.92 91.9372 111.313 94.3301 114.265 94.3301Z"   fill="#FFFFFF" >
</path>
<path d="M118.83 78.5499C118.83 78.5499 118.865 80.5171 117.676 81.7059C116.487 82.8947 114.52 82.8597 114.52 82.8597C114.52 82.8597 114.483 80.8925 115.674 79.7037C116.865 78.5149 118.83 78.5499 118.83 78.5499Z"   fill="#FFFFFF" >
</path>
<path d="M107.843 148.89L88.1 148.89L102.797 102.61L122.54 102.61L107.843 148.89Z"   fill="#72A065" >
</path>
<path    stroke="rgba(255, 255, 255, 1)" stroke-width="0.75"    d="M94.69 128.12L102.793 102.61L122.54 102.61">
</path>
<path d="M114.44 128.12L122.54 128.12L122.54 102.61L114.44 128.12Z"   fill="#24272D" >
</path>
<path d="M121.41 145.45L95.98 145.45L95.98 148.48L121.41 148.48L121.41 145.45Z"   fill="#72A065" >
</path>
<path    stroke="rgba(71, 80, 86, 1)" stroke-width="1.25"    d="M52.38 148.885L307.84 148.885">
</path>
<path d="M108.695 128.116C108.632 128.334 108.556 128.548 108.47 128.758C107.342 131.487 104.601 132.942 102.345 132.007C100.844 131.385 99.9367 129.865 99.8291 128.111C99.7784 127.177 99.9399 126.244 100.302 125.382C101.43 122.653 104.173 121.199 106.429 122.133C108.495 122.993 109.445 125.579 108.695 128.116Z"   fill="#FFFFFF" >
</path>
<path d="M108.695 128.11L99.8191 128.11C99.7683 127.177 99.9299 126.244 100.292 125.382C101.419 122.653 104.162 121.199 106.417 122.133C108.495 122.988 109.445 125.574 108.695 128.11Z"   fill="#24272D" >
</path>
<path d="M135.39 146.38C136.467 146.38 137.34 145.507 137.34 144.43C137.34 143.353 136.467 142.48 135.39 142.48C134.313 142.48 133.44 143.353 133.44 144.43C133.44 145.507 134.313 146.38 135.39 146.38Z"   fill="#72A065" >
</path>
<path    stroke="rgba(255, 255, 255, 1)" stroke-width="0.75"    d="M193.69 189.5L199.017 189.5L199.25 184.8">
</path>
<path    stroke="rgba(255, 255, 255, 1)" stroke-width="0.75"    d="M230.46 188.628L236.02 189.5L236.02 184.04">
</path>
<defs>
<mask id="mask-qcWlvdgTuK" style="mask-type:alpha" maskUnits="userSpaceOnUse">
<path     fill="#000000"  d="M248.7 148.44L256.599 148.44L274.76 148.44C282.041 148.44 285.628 139.584 280.4 134.52C270.622 125.042 258.263 113.71 252.24 110.8C241.419 105.57 223.676 105.162 215.88 107.01C208.084 108.857 190.65 127.51 190.65 127.51L158.03 132.14L158.03 148.89L187.98 148.89C191.736 148.89 195.445 147.986 198.78 146.26L212.39 139.22C212.39 139.22 219.982 150.968 221.93 159.5L257.99 159.5C257.99 159.5 257.317 154.53 256.599 148.44L248.7 148.44L248.7 124.75L248.7 148.44">
</path>
</mask>
</defs>
</svg>
