<svg xmlns="http://www.w3.org/2000/svg" xmlns:xlink="http://www.w3.org/1999/xlink" width="416.6099853515625" height="272.85986328125" viewBox="0 0 416.6099853515625 272.85986328125" fill="none">
<path d="M192.32 219.47C199.66 219.47 205.61 213.52 205.61 206.18C205.61 198.84 199.66 192.89 192.32 192.89C184.98 192.89 179.03 198.84 179.03 206.18C179.03 213.52 184.98 219.47 192.32 219.47Z"   fill="#FFC774" >
</path>
<path d="M225.361 213.369C227.244 215.252 228.738 217.488 229.757 219.949C230.776 222.409 231.3 225.046 231.3 227.71L234.3 227.71C234.3 224.653 233.698 221.625 232.529 218.801C231.359 215.976 229.644 213.41 227.482 211.248C225.32 209.086 222.754 207.371 219.93 206.202C217.105 205.032 214.077 204.43 211.02 204.43L211.02 207.43C213.684 207.43 216.321 207.954 218.781 208.973C221.242 209.992 223.478 211.486 225.361 213.369Z"   fill="#3971D3" >
</path>
<path d="M240.33 242.12C238.447 240.237 236.953 238.002 235.934 235.541C234.915 233.08 234.39 230.443 234.39 227.78L231.39 227.78C231.39 230.837 231.992 233.865 233.162 236.689C234.332 239.514 236.047 242.08 238.209 244.242C240.371 246.404 242.937 248.119 245.761 249.289C248.586 250.457 251.612 251.06 254.67 251.06L254.67 248.059C252.007 248.06 249.37 247.535 246.909 246.516C244.449 245.497 242.213 244.004 240.33 242.12Z"   fill="#3971D3" >
</path>
<g mask="url(#mask-paieyvh-QA)">
<path d="M246.81 223.1L225.66 223.1L225.66 234.53L246.81 234.53L246.81 223.1Z"   fill="#FFFFFF" >
</path>
</g>
<path d="M386.35 43.4801L288.88 43.4801C288.88 43.4801 295.532 26.8135 309.193 27.5159C322.853 28.2186 321.265 38.3246 329.266 38.3246C337.266 38.3246 342.949 17.5601 358.574 17.5601C379.345 17.5601 386.35 43.4801 386.35 43.4801Z"   fill="#F2F6F9" >
</path>
<path d="M216.29 71.9099L320.69 71.9099C316.79 63.646 310.855 56.3499 302.77 56.105C293.119 55.8149 288.77 67.3266 279.519 67.3266C270.269 67.3266 264.994 39.1699 246.889 39.1699C228.56 39.1699 220.09 57.7178 216.29 71.9099Z"   fill="#F2F6F9" >
</path>
<path d="M32.64 21.28L131.72 21.28C131.72 21.28 126.945 8.23664 114.72 8.23664C105.559 8.23664 101.439 13.7484 92.6439 13.7484C83.8485 13.7484 75.609 0 58.4286 0C41.0351 -0.0025536 32.64 21.28 32.64 21.28Z"   fill="#F2F6F9" >
</path>
<path d="M348.89 95.8625C348.89 104.85 332.62 132.04 332.62 132.04C332.62 132.04 316.35 104.85 316.35 95.8625C316.35 91.5463 318.065 87.4075 321.114 84.356C324.166 81.3044 328.306 79.5898 332.62 79.5898C336.934 79.5898 341.074 81.3044 344.126 84.356C347.175 87.4075 348.89 91.5463 348.89 95.8625Z"   fill="#3361C2" >
</path>
<path d="M332.62 104.12C337.37 104.12 341.22 100.27 341.22 95.5199C341.22 90.7701 337.37 86.9199 332.62 86.9199C327.87 86.9199 324.02 90.7701 324.02 95.5199C324.02 100.27 327.87 104.12 332.62 104.12Z"   fill="#FFC774" >
</path>
<path d="M333.31 147.09L330.31 147.09L330.31 163.09C330.31 165.456 329.372 167.726 327.7 169.4C326.025 171.072 323.758 172.01 321.39 172.01L321.39 172.02L278.26 172.02L278.26 173.52L278.22 172.02L278.14 172.02L278.14 173.528L278.12 172.02C273.603 172.077 269.292 173.91 266.115 177.125L266.11 177.12C262.936 180.337 261.15 184.678 261.15 189.2L264.15 189.2C264.15 185.469 265.616 181.89 268.235 179.235L268.24 179.24C270.862 176.584 274.428 175.067 278.16 175.02L321.39 175.02L321.39 175.01C324.553 175.01 327.585 173.754 329.82 171.52C332.057 169.284 333.31 166.252 333.31 163.09L333.31 147.09ZM268.235 179.235L266.11 177.13L266.115 177.125L268.24 179.23L268.235 179.235ZM278.16 175.02L278.14 173.528L278.14 175.02L278.16 175.02ZM261.15 189.2L264.15 189.2C264.15 192.933 265.618 196.514 268.24 199.17L266.11 201.28C262.936 198.062 261.15 193.722 261.15 189.2ZM266.11 201.28L268.24 199.17C270.857 201.822 274.415 203.338 278.14 203.39L382.99 203.39L382.99 205.379L382.98 206.39L278.26 206.39L278.26 204.89L278.22 206.39L278.14 206.39L278.14 204.882L278.16 203.39L278.14 203.39L278.14 204.882L278.12 206.39C273.601 206.333 269.287 204.498 266.11 201.28ZM383.09 203.391Q383.05 203.39 383.01 203.39L382.99 205.379L382.99 206.39C388.469 206.45 393.708 208.669 397.565 212.565L397.56 212.57C401.418 216.47 403.58 221.734 403.58 227.22C403.58 232.706 401.418 237.97 397.56 241.87L397.565 241.875C393.708 245.77 388.469 247.989 382.99 248.05L382.99 249.06L382.98 248.05L254.04 248.05L254.04 251.05L382.99 251.05L382.99 249.06L383.01 251.05C383.037 251.049 383.063 251.049 383.09 251.049L383.09 251.05L383.12 251.05L383.12 251.048C389.358 250.952 395.311 248.416 399.7 243.98L399.695 243.975C404.104 239.514 406.58 233.493 406.58 227.22C406.58 220.946 404.104 214.926 399.695 210.465L399.7 210.46C395.311 206.023 389.358 203.486 383.12 203.391L383.12 203.39L383.09 203.39L383.09 203.391ZM383.09 203.391L383.09 204.89L383.12 203.391L383.09 203.391ZM383.12 251.048L383.09 251.049L383.09 249.55L383.12 251.048ZM399.695 243.975L397.57 241.87L397.565 241.875L399.69 243.98L399.695 243.975ZM399.695 210.465L399.69 210.46L397.565 212.565L397.57 212.57L399.695 210.465Z" fill-rule="evenodd"  fill="#3971D3" >
</path>
<path d="M355.91 214.23L377.92 214.23L377.92 194.93L355.91 194.93L355.91 214.23Z"   fill="#FFFFFF" >
</path>
<path d="M323.92 214.23L342.1 214.23L342.1 194.93L323.92 194.93L323.92 214.23Z"   fill="#FFFFFF" >
</path>
<path d="M300.72 241.19L287.73 241.19L287.73 259.53L300.72 259.53L300.72 241.19Z"   fill="#FFFFFF" >
</path>
<path d="M298.23 165.23L286.71 165.23L286.71 184.53L298.23 184.53L298.23 165.23Z"   fill="#FFFFFF" >
</path>
<path d="M387.77 272.86L331.2 272.86C331.2 272.86 334.065 227.84 356.266 227.84C378.467 227.84 387.77 272.86 387.77 272.86Z"   fill="url(#linear_fill_aOy5islrh4)" >
</path>
<path d="M266.77 228.38L314.31 228.38C314.31 228.38 311.905 182.85 293.249 182.85C274.593 182.85 266.77 228.38 266.77 228.38Z"   fill="url(#linear_fill_rcRBSP_RMv)" >
</path>
<path d="M108.18 265.83C160.023 265.83 202.05 265.053 202.05 264.095C202.05 263.136 160.023 262.36 108.18 262.36C56.3375 262.36 14.3101 263.136 14.3101 264.095C14.3101 265.053 56.3375 265.83 108.18 265.83Z"   fill="#E4EFF7" >
</path>
<path    stroke="rgba(50, 55, 63, 1)" stroke-width="9"  stroke-linecap="round"  d="M182.34 60.2901L171.94 59.0801">
</path>
<path d="M175.272 59.5318C175.565 57.0125 174.72 54.8445 173.386 54.689C172.051 54.5335 170.731 56.4496 170.438 58.9686C170.145 61.4878 170.99 63.6558 172.324 63.8113C173.659 63.9669 174.979 62.0508 175.272 59.5318Z"   fill="#2B292D" >
</path>
<path    stroke="rgba(50, 55, 63, 1)" stroke-width="5.75"    d="M171.9 58.9899L158.11 57.3999">
</path>
<path d="M159.541 57.5673C159.726 55.9797 159.233 54.6175 158.439 54.525C157.646 54.4325 156.854 55.6448 156.669 57.2327C156.484 58.8206 156.977 60.1826 157.771 60.2751C158.564 60.3675 159.357 59.1553 159.541 57.5673Z"   fill="#2B292D" >
</path>
<path d="M159.35 54.6344C159.35 54.6344 159.325 54.1345 160.17 53.5919C163.669 51.3842 174.017 49.7491 173.447 58.9148C172.895 67.803 164.557 64.2427 161.25 62.0575C160.302 61.4324 160.542 60.5799 160.542 60.5799C160.542 60.5799 165.581 61.3175 165.746 58.1297C165.911 54.9421 159.35 54.6344 159.35 54.6344Z"   fill="#3361C2" >
</path>
<path d="M109.662 143.712C109.662 143.712 108.297 151.76 110.162 155.097C112.027 158.435 115.055 160.272 118.042 159.89C119.487 159.707 125.26 151.505 125.26 151.505L116.98 142.55L109.662 143.712Z"   fill="#3361C2" >
</path>
<path d="M146.11 264.07L110.99 264.07L113.642 253.552L129.346 253.38L146.11 264.07Z"   fill="#162C56" >
</path>
<path d="M188.991 188.04L189.211 190.212L208.1 191.107L177.002 207.35L175.07 190.995L188.991 188.04Z"   fill="#162C56" >
</path>
<path d="M174.735 92.7341L159.08 95.0468L162.255 118.796L129.661 119.601L133.411 142.518L106.411 145.99C102.878 119.553 123.274 80.5022 123.274 80.5022L124.023 85.029C126.846 79.5121 129.591 76.1144 144.158 76.4971C158.835 76.885 163.238 77.3645 163.238 77.3645L160.175 63.6552L174.407 59.6001L180.96 83.1491C181.251 84.191 181.316 85.2812 181.152 86.3499C180.989 87.4185 180.599 88.4397 180.011 89.3468C179.421 90.253 178.647 91.0236 177.738 91.6085C176.828 92.1925 175.805 92.576 174.735 92.7341Z"   fill="#FFC774" >
</path>
<g  mask="url(#mask-Kqhgok-zGe)">
<path d="M110.66 120.796C110.66 123.365 106.006 130.9 106.006 130.9C106.006 130.9 101.35 123.365 101.35 120.796C101.378 119.581 101.881 118.425 102.751 117.575C103.621 116.726 104.789 116.25 106.005 116.25C107.221 116.25 108.389 116.726 109.259 117.575C110.129 118.425 110.632 119.581 110.66 120.796Z"   fill="#B49AC9" >
</path>
<path d="M122.74 138.028C122.74 140.599 118.084 148.14 118.084 148.14C118.084 148.14 113.43 140.599 113.43 138.028C113.458 136.812 113.961 135.656 114.831 134.806C115.701 133.956 116.869 133.48 118.085 133.48C119.301 133.48 120.469 133.956 121.339 134.806C122.209 135.656 122.712 136.812 122.74 138.028Z"   fill="#B49AC9" >
</path>
<path d="M124.97 105.028C124.97 107.599 120.316 115.14 120.316 115.14C120.316 115.14 115.66 107.596 115.66 105.028C115.688 103.812 116.191 102.656 117.061 101.806C117.931 100.956 119.099 100.48 120.315 100.48C121.531 100.48 122.699 100.956 123.569 101.806C124.439 102.656 124.942 103.812 124.97 105.028Z"   fill="#B49AC9" >
</path>
<path d="M138.06 87.7957C138.06 90.3649 133.404 97.9 133.404 97.9C133.404 97.9 128.75 90.3649 128.75 87.7957C128.778 86.5807 129.281 85.4245 130.151 84.5751C131.021 83.7255 132.189 83.25 133.405 83.25C134.621 83.25 135.789 83.7255 136.659 84.5751C137.529 85.4245 138.032 86.5807 138.06 87.7957Z"   fill="#B49AC9" >
</path>
<path d="M150.14 105.022C150.14 107.591 145.485 115.13 145.485 115.13C145.485 115.13 140.83 107.589 140.83 105.022C140.83 103.788 141.32 102.605 142.193 101.733C143.066 100.86 144.25 100.37 145.485 100.37C146.719 100.37 147.904 100.86 148.777 101.733C149.649 102.605 150.14 103.788 150.14 105.022Z"   fill="#B49AC9" >
</path>
<path d="M152.37 72.028C152.37 74.5984 147.714 82.14 147.714 82.14C147.714 82.14 143.06 74.5935 143.06 72.028C143.088 70.8122 143.591 69.6557 144.461 68.8057C145.331 67.9556 146.499 67.48 147.715 67.48C148.931 67.48 150.099 67.9556 150.969 68.8057C151.839 69.6557 152.342 70.8122 152.37 72.028Z"   fill="#B49AC9" >
</path>
<path d="M166.39 87.0627C166.39 89.6327 161.735 97.1702 161.735 97.1702C161.735 97.1702 157.08 89.6327 157.08 87.0627C157.08 85.8287 157.57 84.6454 158.443 83.7729C159.316 82.9003 160.5 82.4102 161.735 82.4102C162.97 82.4102 164.154 82.9003 165.027 83.7729C165.899 84.6454 166.39 85.8287 166.39 87.0627Z"   fill="#B49AC9" >
</path>
<path d="M180.7 71.2919C180.7 73.8615 176.045 81.4001 176.045 81.4001C176.045 81.4001 171.39 73.8615 171.39 71.2919C171.39 70.0581 171.88 68.8749 172.753 68.0026C173.626 67.1303 174.81 66.6401 176.045 66.6401C177.279 66.6401 178.464 67.1303 179.337 68.0026C180.209 68.8749 180.7 70.0581 180.7 71.2919Z"   fill="#B49AC9" >
</path>
</g>
<path d="M197.536 133.432L191.616 189.234L172.801 193.254L172.841 143.561L148.689 148.204L130.919 253.548L111.48 253.82L118.27 142.221C118.509 138.341 119.01 134.482 119.77 130.669L121.922 119.779L153.519 118.954L184.018 118.511C185.923 118.485 187.81 118.866 189.556 119.625C191.302 120.385 192.867 121.508 194.145 122.92C195.424 124.331 196.387 125.998 196.972 127.811C197.556 129.623 197.749 131.539 197.536 133.432Z"   fill="#EA6F57" >
</path>
<path    stroke="rgba(255, 255, 255, 1)" stroke-width="0.75"    d="M126.94 88.7402L122.171 119.786C122.171 119.786 117.405 133.897 117.19 159.94">
</path>
<path    stroke="rgba(51, 97, 194, 1)" stroke-width="10" stroke-linejoin="round" stroke-linecap="round"  d="M141.33 76.5001L140.82 55.8101">
</path>
<path d="M139.434 55.2332L138.624 61.4148C138.325 63.6903 138.936 65.9922 140.323 67.8203C141.711 69.6481 143.764 70.8549 146.037 71.1785L147.129 71.3334C148.397 71.5138 149.689 71.4121 150.914 71.0362C152.138 70.6603 153.264 70.0193 154.212 69.1587C155.161 68.2981 155.908 67.2391 156.4 66.0568C156.892 64.875 157.118 63.5991 157.061 62.3196L156.782 55.983C156.689 53.9373 155.879 51.9895 154.494 50.4812C153.109 48.9729 151.237 48.0004 149.207 47.7341C146.916 47.434 144.601 48.0553 142.769 49.4614C140.936 50.8675 139.737 52.9434 139.434 55.2332Z"   fill="#3361C2" >
</path>
<path d="M140.332 60.2073C149.184 57.6422 149.217 53.6695 149.217 53.6695C149.217 53.6695 161.034 57.4724 159.467 46.342C157.899 35.2117 146.024 33.1167 139.294 34.109C137.876 34.3216 136.497 34.749 135.207 35.3769C131.045 37.3592 128.009 40.3645 122.254 41.202C106.351 43.5193 110.734 53.4523 110.734 53.4523C110.734 53.4523 102.072 56.4472 102.484 65.81C103.097 79.6505 113.307 78.59 113.307 78.59C113.307 78.59 105.887 94.5682 122.207 91.1782C138.527 87.7877 143.504 75.4502 141.997 68.8072C141.394 66.1624 142.159 62.0071 140.332 60.2073Z"   fill="#2B292D" >
</path>
<path d="M155.215 58.4401C155.853 58.4401 156.37 58.0237 156.37 57.5101C156.37 56.9964 155.853 56.5801 155.215 56.5801C154.577 56.5801 154.06 56.9964 154.06 57.5101C154.06 58.0237 154.577 58.4401 155.215 58.4401Z"   fill="#FFFFFF" >
</path>
<path d="M154.68 64.34C154.68 64.34 153.41 64.34 153.38 63.04L154.68 64.34Z"   fill="#3361C2" >
</path>
<path    stroke="rgba(255, 255, 255, 1)" stroke-width="0.75"  stroke-linecap="square"  d="M153.38 63.04C153.41 64.34 154.68 64.34 154.68 64.34">
</path>
<path d="M146.086 63.8462L146.284 63.7086C147.757 62.6587 148.26 60.3287 147.399 58.5287L145.816 55.2062C144.956 53.4087 143.047 52.7937 141.564 53.8412L141.369 53.9812C139.893 55.0312 139.39 57.3612 140.25 59.1612L141.836 62.4812C142.704 64.2862 144.613 64.8961 146.086 63.8462Z"   fill="#3361C2" >
</path>
<path    stroke="rgba(255, 255, 255, 1)" stroke-width="0.75"  stroke-linecap="square"  d="M144.36 60.56L141.96 55.54">
</path>
<path    stroke="rgba(255, 255, 255, 1)" stroke-width="0.75"    d="M148.94 148.78C148.94 148.78 145.32 148.815 141.985 147.755C137.925 146.465 136.62 145.32 136.62 145.32">
</path>
<path    stroke="rgba(255, 255, 255, 1)" stroke-width="0.75"  stroke-linecap="square"  d="M167.28 77.32L163.37 77">
</path>
<path d="M77.9846 225.11L68.1694 245.693C65.5461 251.192 61.4182 255.841 56.2639 259.093C51.1105 262.342 45.1401 264.07 39.0458 264.07L34.3158 264.07C21.4899 264.07 14.5375 249.07 22.8301 239.278L58.9713 196.883L58.9713 185.009C58.9713 182.35 60.0187 179.798 61.8867 177.907C63.7554 176.016 66.2939 174.938 68.9517 174.906L71.837 174.871C73.1735 174.855 74.5001 175.105 75.7389 175.605C76.9785 176.106 78.1062 176.847 79.0575 177.786C80.008 178.725 80.7633 179.844 81.2783 181.078C81.7941 182.311 82.0592 183.634 82.0599 184.971L94.31 184.971C94.31 193.901 93.5352 201.138 84.6044 201.138L79.5868 203.948L80.3368 211.843C80.7663 216.397 79.9532 220.982 77.9846 225.11Z"   fill="#FFC774" >
</path>
<path d="M78.955 185.72C79.4714 185.72 79.89 185.078 79.89 184.285C79.89 183.492 79.4714 182.85 78.955 182.85C78.4386 182.85 78.02 183.492 78.02 184.285C78.02 185.078 78.4386 185.72 78.955 185.72Z"   fill="#FFFFFF" >
</path>
<path    stroke="rgba(255, 255, 255, 1)" stroke-width="0.75"    d="M60.2701 257.17L52.4366 257.17C52.4366 257.17 51.9716 233.58 37.55 233.58">
</path>
<path d="M35.5001 263.99L29.0981 263.99C29.0981 263.99 10.0774 254.668 15.1795 232.359C20.2814 210.051 19.2465 259.305 35.5001 263.99Z"   fill="#FFC774" >
</path>
<path    stroke="rgba(41, 44, 51, 1)" stroke-width="4.5"    d="M56.87 197.32L81.3 205.65">
</path>
<path    stroke="rgba(255, 255, 255, 1)" stroke-width="0.75"    d="M64.6415 183.617L62.6298 193.616C62.4758 194.381 62.5458 195.174 62.8312 195.9C63.1168 196.626 63.6056 197.254 64.2391 197.709L71.014 202.568C71.3493 202.805 71.7435 202.946 72.153 202.975C72.5625 203.004 72.9722 202.919 73.3376 202.732C73.7031 202.544 74.01 202.261 74.2257 201.911C74.4411 201.561 74.5568 201.159 74.5601 200.748L74.5601 178.83">
</path>
<path d="M94.3263 184.97L90.4801 184.97C90.4801 184.97 90.4051 188.635 93.9664 188.64C94.2323 187.436 94.3533 186.204 94.3263 184.97Z"   fill="#292C33" >
</path>
<defs>
<mask id="mask-paieyvh-QA" style="mask-type:alpha" maskUnits="userSpaceOnUse">
<path d="M218.78 208.97C216.32 207.951 213.683 207.43 211.02 207.43L211.02 204.43C214.077 204.43 217.105 205.03 219.93 206.2C222.754 207.37 225.318 209.088 227.48 211.25C229.642 213.412 231.36 215.976 232.53 218.8C233.7 221.625 234.3 224.653 234.3 227.71L231.3 227.71C231.3 225.047 230.779 222.411 229.76 219.95C228.741 217.489 227.243 215.253 225.36 213.37C223.477 211.487 221.24 209.99 218.78 208.97ZM235.93 235.53C236.949 237.99 238.447 240.227 240.33 242.11C242.213 243.993 244.45 245.491 246.91 246.51C249.37 247.529 252.007 248.05 254.67 248.05L254.67 251.05C251.612 251.05 248.585 250.449 245.76 249.28C242.935 248.11 240.372 246.392 238.21 244.23C236.048 242.068 234.33 239.505 233.16 236.68C231.99 233.855 231.39 230.827 231.39 227.77L234.39 227.77C234.39 230.433 234.911 233.069 235.93 235.53Z" fill-rule="evenodd"  fill="#000000" >
</path>
</mask>
<linearGradient id="linear_fill_aOy5islrh4" x1="327.5797119140625" y1="224.85009765625" x2="327.6123046875" y2="268.92529296875" gradientUnits="userSpaceOnUse">
<stop offset="0.009999999776482582" stop-color="#DFE5EA"  />
<stop offset="1" stop-color="#FFFFFF"  />
</linearGradient>
<linearGradient id="linear_fill_rcRBSP_RMv" x1="492118.37255859375" y1="38791.76806640625" x2="492105.87255859375" y2="46913.62548828125" gradientUnits="userSpaceOnUse">
<stop offset="0.009999999776482582" stop-color="#DFE5EA"  />
<stop offset="1" stop-color="#FFFFFF"  />
</linearGradient>
<mask id="mask-Kqhgok-zGe" style="mask-type:alpha" maskUnits="userSpaceOnUse">
<path d="M181.152 86.3499C180.989 87.4185 180.599 88.4397 180.011 89.3468C179.421 90.253 178.647 91.0236 177.738 91.6085C176.828 92.1925 175.805 92.576 174.735 92.7341L159.08 95.0468L162.255 118.796L129.661 119.601L133.411 142.518L106.411 145.99C102.878 119.553 123.274 80.5022 123.274 80.5022L124.023 85.029C126.846 79.5121 129.591 76.1144 144.158 76.4971C158.835 76.885 163.238 77.3645 163.238 77.3645L160.175 63.6552L174.407 59.6001L180.96 83.1491C181.251 84.191 181.316 85.2812 181.152 86.3499Z"   fill="#000000" >
</path>
</mask>
</defs>
</svg>
